<svg xmlns="http://www.w3.org/2000/svg" xmlns:xlink="http://www.w3.org/1999/xlink" width="552.725" height="466" viewBox="0 0 552.725 466"><defs><style>.a{fill:#ececff;}.b{fill:url(#a);}.c{fill:url(#b);}.d{fill:url(#c);}.e{fill:url(#d);}.f{fill:url(#e);}.g{fill:#7d97f4;}.h{fill:url(#f);}.i{fill:url(#g);}.j{fill:url(#i);}.k{fill:url(#j);}.l{fill:url(#k);}.m{fill:url(#l);}.n{fill:url(#m);}.o{fill:#163560;}.p{fill:#fdcbb5;}.q{fill:#f77d48;}.r{fill:#e06338;}.s{fill:#fcbca0;}.t{fill:#ebf3fa;}.u{fill:#143a72;}.v{fill:#2a4e96;}.w{fill:#fff;}.x{fill:#233862;}</style><linearGradient id="a" x1="-0.159" y1="0.861" x2="1.327" y2="0.254" gradientUnits="objectBoundingBox"><stop offset="0" stop-color="#4f52ff"/><stop offset="1" stop-color="#4042e2"/></linearGradient><linearGradient id="b" x1="0.689" y1="-11.324" x2="0.575" y2="-4.215" xlink:href="#a"/><linearGradient id="c" x1="0.612" y1="-2.609" x2="0.429" y2="2.461" xlink:href="#a"/><linearGradient id="d" x1="0.5" y1="-9.336" x2="0.5" y2="-3.004" xlink:href="#a"/><linearGradient id="e" x1="0.581" y1="-7.086" x2="0.419" y2="8.086" xlink:href="#a"/><linearGradient id="f" x1="0.695" y1="0.04" x2="0.305" y2="0.96" xlink:href="#a"/><linearGradient id="g" x1="0.833" y1="0.004" x2="-0.169" y2="1.497" xlink:href="#a"/><linearGradient id="i" x1="0.423" y1="1.466" x2="0.5" y2="0.029" xlink:href="#a"/><linearGradient id="j" x1="0.509" y1="0.008" x2="0.661" y2="-8.52" xlink:href="#a"/><linearGradient id="k" x1="0.527" y1="0.436" x2="-0.285" y2="2.372" gradientUnits="objectBoundingBox"><stop offset="0" stop-color="#fe7062"/><stop offset="1" stop-color="#ff928e"/></linearGradient><linearGradient id="l" x1="0.514" y1="1.291" x2="0.5" y2="0.021" xlink:href="#a"/><linearGradient id="m" x1="0.499" y1="0.943" x2="0.519" y2="-12.945" xlink:href="#a"/></defs><g transform="translate(-692.499 -485)"><g transform="translate(661.045 382.736)"><g transform="translate(31.453 102.264)"><path class="a" d="M276.079,179.153c-21.517-78.058-118.482-103.2-174.053-44.867q-1.2,1.258-2.392,2.556C19.966,223.444,57.6,436.857,223.867,490.949s339.2-44.684,348.918-132.983-66.992-116.044-186.031-91.353C319.5,280.563,289.473,227.745,276.079,179.153Z" transform="translate(-20.886 -102.264)"/><path class="a" d="M70.258,285.405c-13.829-17.8-34.085-13.773-38.136,8-1.34,7.2-.829,16.153,3.018,27.211,14.656,42.123,42.924,53.3,56.64,25.733C100.246,329.335,83.964,303.041,70.258,285.405Z" transform="translate(-31.453 -37.446)"/></g></g><g transform="translate(243.611 115.723)"><g transform="translate(456.443 458.646)"><path class="b" d="M1795.24,827h-33.51l15.052-368.358,2.08.259Z" transform="translate(-1580.639 -458.646)"/><rect class="c" width="156.943" height="15.73" transform="translate(119.145 321.17)"/><rect class="d" width="184.817" height="15.73" transform="translate(105.814 336.899)"/><rect class="e" width="212.69" height="15.73" transform="translate(91.271 352.629)"/><rect class="f" width="248.604" height="6.236" transform="translate(79.625 81.466)"/><path class="g" d="M501.348,1131.3l-1.88-1.408,77.892-103.941,58.8,104.068-2.045,1.156-57.028-100.936Z" transform="translate(-493.499 -947.248)"/><circle class="h" cx="8.27" cy="8.27" r="8.27" transform="translate(75.454 75.182)"/><path class="g" d="M2239.646,1147.222l-1.88-1.408,77.893-103.941,58.8,104.068-2.045,1.155-57.028-100.937Z" transform="translate(-1990.632 -960.958)"/><circle class="i" cx="23.922" cy="23.922" r="23.922" transform="translate(173.544 64.417)"/><circle class="h" cx="8.27" cy="8.27" r="8.27" transform="translate(314.613 75.662)"/><path class="j" d="M2311.906,1863.512a67.363,67.363,0,0,0,67.364-67.363H2244.543A67.363,67.363,0,0,0,2311.906,1863.512Z" transform="translate(-1996.469 -1610.589)"/><rect class="k" width="146.896" height="10.258" rx="5.129" transform="translate(241.166 178.623)"/><circle class="l" cx="43.389" cy="43.389" r="43.389" transform="translate(19.879 151.565) rotate(-45)"/><path class="m" d="M573.606,1847.593a67.363,67.363,0,0,0,67.364-67.363H506.243A67.363,67.363,0,0,0,573.606,1847.593Z" transform="translate(-499.334 -1596.878)"/><rect class="n" width="146.896" height="10.258" rx="5.129" transform="translate(0 176.414)"/></g><g transform="translate(844.505 498.299)"><path class="o" d="M2221.4,741.211c-6.36-3.3-11.455-1.225-11.455-1.225-19.458-2.285-25.135,20.407-24.87,28.215s1.154,16.194-7.535,26.337c-25.1,29.3,27.469,30.593,27.469,30.593.445-23.41,28.507-14.868,27.277-12.5C2268.263,821.268,2235.866,748.714,2221.4,741.211Z" transform="translate(-2123.193 -739.343)"/><path class="p" d="M2072.96,986.313s-4.075-6.2-7.36-6.325-9.366-1.825-8.88-.608,4.258,1.338,4.623,2.068-5.6,1.825-7.3,1.946-5.717,0-5.6.851,7.236,4.38,12.255,3.893,11.223,1.46,11.223,1.46Z" transform="translate(-2048.446 -885.772)"/><path class="q" d="M2154.209,934.086a51.373,51.373,0,0,1-5.234,7.915c-4.066,5.092-10.335,10.976-18.207,12.137a19.545,19.545,0,0,1-10.818-1.756l-.012,0c-9.561-4.244-16.749-14-16.749-14a7.858,7.858,0,0,1,1.072-7.712s19.3,4.342,21.143,3.423,12.563-31.816,15.116-35.7,11.258-5.9,11.258-5.9Z" transform="translate(-2081.569 -832.936)"/><path class="r" d="M2176.174,1003.736c-4.067,5.093-10.335,10.976-18.207,12.137a19.544,19.544,0,0,1-10.818-1.756c.374.049,9.922,1.229,13.728-5.58,3.883-6.947,8.08-17.977,13.847-14.3C2177.213,995.824,2177.1,999.767,2176.174,1003.736Z" transform="translate(-2108.767 -894.671)"/><path class="p" d="M2386.922,1531.337s5.89,5.375,4.741,9.2-6.465,6.366-7.184,11.034-3.592,7.215-6.178,7.215h-12.33s-1.9-3.285,2.694-4.275,6.331-6.475,6.044-11.569a89.656,89.656,0,0,1,.431-11.883l9.769-2.264Z" transform="translate(-2242.26 -1221.804)"/><path class="p" d="M2239.5,1541.207s2.119,22.774-.467,24.047l-33.1-.068s0-3.82,5.316-4.668,14.655-3.961,16.234-10.894S2239.5,1541.207,2239.5,1541.207Z" transform="translate(-2144.694 -1229.393)"/><path class="p" d="M2265.376,947.895c-6.811-15.274-10.978-19.657-10.182-24.4.591-3.529-1.8-65.785-1.8-65.785-.808-.251-2.428-.475-3.313-.672a8.309,8.309,0,0,1-6.068-5.277,42.385,42.385,0,0,1-2.059-14.047l-.873.172-14.668,2.9s.333,4.616.343,8.966c0,.035,0,.072,0,.108a8.436,8.436,0,0,1-6.089,8.158c-1.853.535-3.465.992-3.465.992s-5.386,15.378-6.415,31.176,9.795,22.662-.082,54.232C2200.618,976.667,2269.138,956.334,2265.376,947.895Z" transform="translate(-2146.987 -799.462)"/><path class="s" d="M2252.688,841.062s.333,4.616.343,8.966c8.209-.232,12.548-7.72,14.326-11.87Z" transform="translate(-2173.266 -799.732)"/><path class="p" d="M2235.472,804.713s19.421.32,19.435-11.777,2.529-20.2-9.871-20.92-14.813,3.9-15.8,7.934S2230.42,804.318,2235.472,804.713Z" transform="translate(-2158.792 -759.265)"/><path class="o" d="M2247.486,767.5s5.317,14.193,13.478,16.292,11.7-.088,11.7-.088a23.108,23.108,0,0,1-7.559-13.653S2251.5,760.75,2247.486,767.5Z" transform="translate(-2170.087 -755.051)"/><path class="o" d="M2235.421,770.7s-3.944,1.474-5.566,4.35a19.549,19.549,0,0,0-2.625,11.106s-4.006-9.647.5-15.1C2232.5,765.26,2235.421,770.7,2235.421,770.7Z" transform="translate(-2156.704 -757.089)"/><path class="t" d="M2245.482,835.85a4.88,4.88,0,0,1-4.021,1.636,3.569,3.569,0,0,1-2.993-1.976S2242.436,834.557,2245.482,835.85Z" transform="translate(-2164.576 -797.908)"/><path class="q" d="M2263.743,916.674a131.887,131.887,0,0,1,0,15.3c-.328,5.531-5.923,12.939-6.717,14.772-1.992,4.6-4.238,5.344-4.238,5.344l-17.378,4.259-6.11,1.5-19.267-5.754s-8.776-24.5-5.252-38.284a105.989,105.989,0,0,1,8.908-23.365s15.723,15.395,36.195-1.305Z" transform="translate(-2143.479 -830.885)"/><path class="r" d="M2296.244,981.377c-.327,5.531-.836,10.682-1.63,12.514-1.991,4.6-4.237,5.344-4.237,5.344L2273,1003.494l-7.547-2.219s24.808-6.173,27.811-34.995Z" transform="translate(-2181.067 -878.033)"/><path class="u" d="M2206.769,1060.588s-9.542,29.7-10.154,39.812,18.239,143.649,19,148.308c.715,4.392,6.168,7.192,6.168,7.192a8.255,8.255,0,0,0,6.088.469c4.967-1.4,6.537-3.082,6.537-3.082s7.427-95.238,2.831-129.259a538.7,538.7,0,0,1-4.651-63.441Z" transform="translate(-2138.989 -935.668)"/><path class="v" d="M2268.114,1058.31s14.556,19.529,15.912,32.731,2.128,59.573,5.019,72.443,13.512,37.637,13.512,77.778a8.008,8.008,0,0,1-4.512,3.527,37.268,37.268,0,0,1-3.969,1.1,6.24,6.24,0,0,1-6.979-3.313c-7.18-14.458-30.054-61.088-31.226-70.767-.831-6.85-8.052-52.186-23.806-78.788-3.782-6.387,2.321-31.785,2.321-31.785Z" transform="translate(-2159.907 -934.276)"/><path class="w" d="M2244.753,836.316s-.336,1.426-3.883,1.206c0,0-2.978-.184-2.887-1.751A9.582,9.582,0,0,1,2244.753,836.316Z" transform="translate(-2164.279 -798.05)"/><path class="x" d="M2217.98,1048.8s3.831,3.03,11.44,3.183c9.09.183,31.612-2.317,31.612-2.317a18.614,18.614,0,0,1,.96,5.749s-27.509,6.938-43.447,1.013C2218.546,1056.425,2216.491,1052.557,2217.98,1048.8Z" transform="translate(-2151.724 -928.462)"/><g transform="translate(71.368 121.963)"><path class="w" d="M2236.124,1062.372a4.73,4.73,0,1,1,4.148-4.694A4.452,4.452,0,0,1,2236.124,1062.372Zm0-8.014a3.374,3.374,0,1,0,2.772,3.319A3.087,3.087,0,0,0,2236.124,1054.358Z" transform="translate(-2231.976 -1052.983)"/></g><path class="p" d="M2292.5,1116.262s-4.563,2.442-6.364,5.364-3.844,4.243-2.962,4.963,3.6-2.962,3.6-2.081-2.322,4.163-3.122,5.6.549,2.722,4.077,1.841a13.392,13.392,0,0,0,7.211-5.524c.48-1.12,3.2-6.645,3.2-6.645Z" transform="translate(-2191.766 -969.692)"/><path class="q" d="M2310.089,889.133s13.786.966,19.071,13.813,6.615,28.931,6.615,32.56c0,13.665-1.621,32.707-27.081,48.256,0,0-6.418-3.718-6.229-6.306,0,0,23.542-39.067,2.565-63.855C2300.935,908.76,2310.089,889.133,2310.089,889.133Z" transform="translate(-2203.684 -830.885)"/></g></g></g></svg>