<svg xmlns="http://www.w3.org/2000/svg" width="600" height="443.938" viewBox="0 0 600 443.938"><defs><style>.a{fill:#ececff;}.b{fill:#18315b;}.c{fill:#000b29;}.d{fill:#fdcbb5;}.e{fill:#fbaa91;}.f,.m{fill:#f97853;}.g{fill:#fff;}.h{fill:#474bff;}.i{fill:#e3e3e3;}.j{fill:#898cff;}.k{fill:#e86868;}.l{fill:#c44545;}.m{opacity:0.2;}.n{fill:#5756b3;}.o{fill:#264cbe;}.p{fill:#ffcbb5;}.q{fill:#ea5143;}.r{fill:#ffaa91;}.s{fill:#3c3b91;}.t{fill:#1c31b5;}.u{fill:#006bde;}.v{fill:#1d567e;}</style></defs><g transform="translate(-31.453 -102.264)"><g transform="translate(31.453 102.264)"><path class="a" d="M276.079,179.153c-21.517-78.058-118.482-103.2-174.053-44.867q-1.2,1.258-2.392,2.556C19.966,223.444,57.6,436.857,223.867,490.949s339.2-44.684,348.918-132.983-66.992-116.044-186.031-91.353C319.5,280.563,289.473,227.745,276.079,179.153Z" transform="translate(-20.886 -102.264)"/><path class="a" d="M70.258,285.405c-13.829-17.8-34.085-13.773-38.136,8-1.34,7.2-.829,16.153,3.018,27.211,14.656,42.123,42.924,53.3,56.64,25.733C100.246,329.335,83.964,303.041,70.258,285.405Z" transform="translate(-31.453 -37.446)"/><path class="a" d="M443.739,302.476c-2.049,10.728,6.809,18.327,16.847,14.192,3.317-1.366,6.664-4,9.641-8.631,11.34-17.643,5.6-32.776-10.193-31.223C450.288,277.774,445.77,291.845,443.739,302.476Z" transform="translate(123.839 -36.512)"/></g><g transform="translate(64.381 143.004)"><g transform="translate(113.817 321.243)"><path class="b" d="M138.38,409.031c.076,5.191.169,10.593.282,16.056h50.065c.1-5.98.169-11.712.223-17.089.151-14.572.168-26.564.157-34.017-.006-5.287-.028-8.285-.028-8.285l-51.053-.541s0,4.41.04,11.623C138.1,384.8,138.189,396.274,138.38,409.031Z" transform="translate(-138.027 -365.155)"/><path class="c" d="M138.056,374.362c.033,8.018.123,19.5.313,32.255a250.916,250.916,0,0,0,50.571-1.034c.151-14.571.168-26.564.157-34.017Z" transform="translate(-138.016 -362.739)"/></g><g transform="translate(51.006 321.243)"><path class="b" d="M92.479,397.52c.056,8.16.154,17.509.315,27.568h50.069c.124-5.889.223-11.708.3-17.267.174-11.931.263-22.674.307-30.394.039-7.6.039-12.271.039-12.271L92.44,365.7s-.04,5.415-.028,14.527C92.413,385.041,92.435,390.887,92.479,397.52Z" transform="translate(-92.41 -365.155)"/><path class="c" d="M92.412,376.864c0,4.818.022,10.664.066,17.3a313.03,313.03,0,0,0,50.689,10.3c.174-11.931.263-22.674.307-30.394Z" transform="translate(-92.41 -361.796)"/></g><g transform="translate(70.752)"><path class="b" d="M170.9,184.491s8.045-7.748,8.018-15.4-5.228-5.392-8.018-12.522-11.084-11.478-15.632-10.608-14.151-16.869-27.175-13.739-11.891,19.826-17.5,22.261-4.045,12.347-1.088,14.608,4.207,11.345,5.87,11.141S170.9,184.491,170.9,184.491Z" transform="translate(-106.718 -131.852)"/><g transform="translate(0 49.08)"><path class="d" d="M116.789,170.872s-5.057-6.744-8.819-1.168,1.557,22.047,10.765,18.027Z" transform="translate(-106.751 -167.496)"/><g transform="translate(1.975 5.905)"><path class="e" d="M116.184,181.026a.78.78,0,0,1-.749-.569c-1.426-5.085-6.7-7.146-6.748-7.167a.778.778,0,0,1,.551-1.455c.246.092,6.053,2.346,7.7,8.2a.78.78,0,0,1-.538.96A.8.8,0,0,1,116.184,181.026Z" transform="translate(-108.185 -171.784)"/></g><g transform="translate(3.878 8.961)"><path class="e" d="M110.345,177.627a.778.778,0,0,1-.654-1.2,7.11,7.11,0,0,1,2.92-2.355.778.778,0,0,1,.636,1.421A5.648,5.648,0,0,0,111,177.27.776.776,0,0,1,110.345,177.627Z" transform="translate(-109.567 -174.004)"/></g></g><g transform="translate(60.221 49.08)"><path class="d" d="M152.432,170.872s5.057-6.744,8.819-1.168-1.557,22.047-10.765,18.027Z" transform="translate(-150.486 -167.496)"/><g transform="translate(1.231 5.905)"><path class="e" d="M152.159,181.026a.78.78,0,0,0,.749-.569c1.426-5.085,6.695-7.146,6.748-7.167a.778.778,0,0,0-.551-1.455c-.246.092-6.053,2.346-7.7,8.2a.781.781,0,0,0,.54.96A.8.8,0,0,0,152.159,181.026Z" transform="translate(-151.38 -171.784)"/></g><g transform="translate(3.965 8.961)"><path class="e" d="M156.729,177.627a.778.778,0,0,0,.654-1.2,7.11,7.11,0,0,0-2.92-2.355.778.778,0,0,0-.636,1.421,5.637,5.637,0,0,1,2.247,1.776A.778.778,0,0,0,156.729,177.627Z" transform="translate(-153.366 -174.004)"/></g></g><path class="d" d="M148.571,192.339v16.38s-4.885,8.343-11.492,8.91-12.464-7.182-12.464-7.182V193.49Z" transform="translate(-100.017 -109.052)"/><path class="f" d="M148.571,192.339v7.267c-4.434,4.92-12.306,6.148-23.956,4.428V193.49Z" transform="translate(-100.017 -109.052)"/><path class="d" d="M170.651,167.419a159.447,159.447,0,0,1-2.125,20.691c-.3,1.588-.646,3.082-1.027,4.42-3.448,12.07-12.07,32.77-36.208,24.147-10.662-3.806-15.6-15.681-17.805-27.758a116.793,116.793,0,0,1-1.611-22.411,17.1,17.1,0,0,1,8.677-14.553c14.249-8.077,29.282-5.066,39.181-1.26A17.047,17.047,0,0,1,170.651,167.419Z" transform="translate(-104.828 -126.2)"/><path class="b" d="M113.04,177.69s2.342,13.955,4.555,19.042,8.26,6.046,10.529,10.346c3.237,6.13,8.172,10.988,16.289,8.027,6.754-2.463,6.448-5.917,10.232-8.588,6.483-4.577,9.695-9.614,9.957-13.787s3.48-15.85,3.48-15.85l-3.48-.245a90.554,90.554,0,0,1-4.9,8.629c-2.927-6.428-17.029-1.753-17.029-1.753l-2.693.872-2.765-.872s-14.268-4.476-17.085,2.265a25.411,25.411,0,0,1-3.767-8.755Zm26.941,8.869c16.173-2.776,13.283,6.693,13.179,7.032v.005l0,.006a16.033,16.033,0,0,1-3.324,2.52c-6.266,3.386-6.944,2.875-9.417,2.984a18.589,18.589,0,0,1-9.5-2.593,26.957,26.957,0,0,1-4.529-3.444S123.839,184.383,139.981,186.559Z" transform="translate(-104.38 -114.971)"/><path class="b" d="M126.649,172.367c0,1.749-.9,3.167-2.013,3.167s-2.013-1.418-2.013-3.167.9-3.166,2.013-3.166S126.649,170.618,126.649,172.367Z" transform="translate(-100.768 -117.774)"/><path class="b" d="M144.027,172.367c0,1.749-.9,3.167-2.013,3.167S140,174.115,140,172.367s.9-3.166,2.013-3.166S144.027,170.618,144.027,172.367Z" transform="translate(-94.218 -117.774)"/><path class="b" d="M151.247,164.375s-8.317-3.287-14.721-.52l.64,3.561s9.4-.794,14.136,1.125A6.176,6.176,0,0,0,151.247,164.375Z" transform="translate(-95.527 -120.206)"/><path class="b" d="M118.6,164.39s8.379-3.312,14.83-.525l-.644,3.588s-9.469-.8-14.24,1.132A6.222,6.222,0,0,1,118.6,164.39Z" transform="translate(-102.431 -120.205)"/><g transform="translate(33.479 52.639)"><path class="e" d="M133.958,185.3a8.29,8.29,0,0,0,2.817-.593.778.778,0,0,0-.588-1.442c-.7.285-2.39.733-3.121.295a.843.843,0,0,1-.383-.724c-.281-2.717.463-11.825.47-11.917a.778.778,0,0,0-1.55-.128c-.03.381-.763,9.347-.467,12.207a2.371,2.371,0,0,0,1.132,1.9A3.274,3.274,0,0,0,133.958,185.3Z" transform="translate(-131.065 -170.081)"/></g><path class="g" d="M125.962,184.973c.589,2.971,2.554,8.441,9.168,8.441,6.631,0,8.492-5,9.13-8.441Z" transform="translate(-99.509 -111.829)"/><path class="b" d="M170.651,167.419a159.447,159.447,0,0,1-2.125,20.691l-3.478-.246s.843-5.374,1.231-8.876,1.051-10.047-1.937-10.864-1.232-8.277-5.38-11.514-13.36-6.1-19.477-2.334-13.074,1.68-15.891,2.334-6.653,4.537-5.618,8.171-2.07,5.837-2.824,9.594,1.656,13.875,1.656,13.875l-3.323.669a116.793,116.793,0,0,1-1.611-22.411,17.1,17.1,0,0,1,8.677-14.553c14.249-8.077,29.282-5.066,39.181-1.26A17.047,17.047,0,0,1,170.651,167.419Z" transform="translate(-104.828 -126.2)"/></g><g transform="translate(40.409 99.864)"><path class="h" d="M219.754,450.912a276.809,276.809,0,0,1-47.247,7.752c-.715.052-1.422.1-2.137.153q-3.249.219-6.5.361a268.1,268.1,0,0,1-32.157-.544q-3.243-.25-6.483-.58c-.691-.066-1.381-.139-2.075-.219a281.6,281.6,0,0,1-38.4-6.923c-.128-11.8.018-49.1.742-89.557.084-4.862.178-9.769.285-14.684,1.135-53.316,3.325-107.437,7.263-112.858,3.776-5.188,15.156-11.782,26.035-17.731.649-.354,1.3-.708,1.944-1.057,2.445-1.33,4.837-2.618,7.086-3.839,4.821-2.623,8.978-4.956,11.547-6.757v1.482s5.857,7.754,12.458,7.181c6.017-.518,10.6-7.468,11.376-8.715a152.452,152.452,0,0,0,13.846,7.877c1.645.872,3.346,1.764,5.081,2.684q.956.5,1.926,1.02c12.032,6.381,25,13.575,28.9,18.923a6.63,6.63,0,0,1,.833,1.968c2.3,7.8,3.734,33.691,4.6,65.042l.011.34c.039,1.267.069,2.545.1,3.828.007.167.01.337.014.507.285,11,.5,22.575.666,34.209.014.923.032,1.846.041,2.769,0,.465.011.924.014,1.388q.058,3.437.084,6.861.035,2.524.059,5.046C220.105,398.888,219.927,438.55,219.754,450.912Z" transform="translate(-84.714 -204.378)"/><path class="h" d="M179.195,225.907s23.745,43.5,38.22,65.552c0,0,8.231-7.562,18.937-17.678,11.608-10.969,27.482-29.3,27.482-29.3l8.785,10.418s-35.668,64.186-51.667,72.252-45.479-49.028-45.479-49.028Z" transform="translate(-50.504 -196.263)"/><g transform="translate(43.397)"><path class="g" d="M116.231,211.187c.459,3.459,1.132,7.945,1.867,13.042.224,1.513.449,3.083.679,4.7.745,5.264,1.517,10.992,2.176,16.783.178,1.555.344,3.115.5,4.669.58,5.734,1.018,11.431,1.175,16.726q.078,2.4.062,4.686a74.466,74.466,0,0,1-.724,10.936q-.471,3.011-.834,5.889-.306,2.388-.548,4.7c-.627,5.975-.939,11.536-1.029,16.779q-.039,2.386-.015,4.679c.047,5.952.386,11.5.876,16.779.146,1.581.308,3.135.475,4.669.642,5.769,1.425,11.263,2.16,16.694q.32,2.334.625,4.654c.319,2.484.621,4.967.883,7.466.277,2.651.453,5.75.537,9.187.041,1.5.062,3.073.067,4.7.022,5.14-.109,10.831-.35,16.785q-.093,2.332-.208,4.722c-.266,5.53-.615,11.216-1.007,16.83q-.173,2.371-.35,4.716c-.434,5.844-.913,11.535-1.4,16.83-.146,1.607-.292,3.178-.438,4.7-.558,5.827-1.1,11.009-1.575,15.139a267.548,267.548,0,0,0,32.158.542c.251-4.4.934-11.493,1.607-19.846.125-1.528.245-3.1.365-4.71.4-5.311.767-10.988,1.007-16.716.069-1.57.125-3.146.168-4.716.161-5.718.167-11.4-.078-16.727-.073-1.617-.167-3.2-.292-4.737-.125-1.575-.277-3.109-.46-4.591a93.661,93.661,0,0,1-.688-12.178c.006-1.575.047-3.139.12-4.71.245-5.447.84-10.9,1.528-16.7.183-1.539.376-3.105.569-4.7.621-5.155,1.268-10.622,1.779-16.607.136-1.534.256-3.1.37-4.71.355-5.133.595-10.648.632-16.658q.014-2.324-.017-4.748c-.056-5.2-.275-10.768-.7-16.763-.037-.532-.073-1.07-.116-1.612-.078-1.048-.146-2.107-.193-3.166a159.232,159.232,0,0,1,.1-16.7q.126-2.363.308-4.727c.432-5.614,1.064-11.175,1.794-16.507q.32-2.379.668-4.7c.877-5.842,1.82-11.342,2.686-16.256.288-1.618.563-3.172.825-4.654.589-3.318,1.1-6.276,1.476-8.781a152.93,152.93,0,0,1-13.846-7.877c-.777,1.246-5.358,8.2-11.378,8.713-6.6.573-12.458-7.179-12.458-7.179V204.43C125.209,206.23,121.052,208.563,116.231,211.187Z" transform="translate(-116.231 -204.378)"/><g transform="translate(1.867 15.665)"><path class="i" d="M117.587,219.941c.224,1.513.449,3.083.679,4.7,5.921.135,12.876-.752,21.254-2.686a56.6,56.6,0,0,1,23.127-.548c.288-1.618.563-3.172.825-4.654a61.3,61.3,0,0,0-25.006.632C130.2,219.284,123.31,220.16,117.587,219.941Z" transform="translate(-117.587 -215.755)"/><g transform="translate(2.854 21.45)"><path class="i" d="M119.66,235.548c.178,1.555.344,3.115.5,4.669a94.627,94.627,0,0,0,18.579-2.681,56.51,56.51,0,0,1,19.773-1.049q.32-2.379.668-4.7a61.632,61.632,0,0,0-21.5,1.174A90.388,90.388,0,0,1,119.66,235.548Z" transform="translate(-119.66 -231.333)"/></g><g transform="translate(4.529 42.909)"><path class="i" d="M120.876,251.068q.078,2.4.062,4.686a98.489,98.489,0,0,0,17.342-2.634,56.815,56.815,0,0,1,17.67-1.274q.126-2.363.308-4.727a61.87,61.87,0,0,0-19.033,1.425A95.729,95.729,0,0,1,120.876,251.068Z" transform="translate(-120.876 -246.917)"/></g><g transform="translate(2.484 64.368)"><path class="i" d="M119.391,271.4a92.6,92.6,0,0,0,19.449-2.7,56.711,56.711,0,0,1,17.874-1.252c-.037-.532-.073-1.07-.116-1.612-.078-1.048-.146-2.107-.193-3.166a61.806,61.806,0,0,0-18.62,1.455,90.652,90.652,0,0,1-17.846,2.576Q119.633,269.092,119.391,271.4Z" transform="translate(-119.391 -262.502)"/></g><g transform="translate(1.431 85.826)"><path class="i" d="M118.636,286.984a89.267,89.267,0,0,0,20.493-2.7,56.824,56.824,0,0,1,18.589-1.2q.014-2.324-.017-4.748a61.866,61.866,0,0,0-19.627,1.371,85.839,85.839,0,0,1-19.423,2.594Q118.611,284.691,118.636,286.984Z" transform="translate(-118.626 -278.086)"/></g><g transform="translate(2.316 107.283)"><path class="i" d="M119.269,297.889c.146,1.581.308,3.135.475,4.669a93.328,93.328,0,0,0,19.142-2.688,56.726,56.726,0,0,1,17.586-1.289c.136-1.534.256-3.1.37-4.71a61.75,61.75,0,0,0-19.011,1.424A88.744,88.744,0,0,1,119.269,297.889Z" transform="translate(-119.269 -293.669)"/></g><g transform="translate(4.951 128.74)"><path class="i" d="M121.183,313.379q.32,2.334.625,4.654a101.53,101.53,0,0,0,16.357-2.578,57.076,57.076,0,0,1,15.238-1.439c.183-1.539.376-3.105.569-4.7a62.165,62.165,0,0,0-16.862,1.564A97.581,97.581,0,0,1,121.183,313.379Z" transform="translate(-121.183 -309.252)"/></g><g transform="translate(6.996 150.2)"><path class="i" d="M122.668,328.811c.041,1.5.062,3.073.067,4.7a105.471,105.471,0,0,0,14.87-2.473,57.673,57.673,0,0,1,13.59-1.482c.006-1.575.047-3.139.12-4.71a62.572,62.572,0,0,0-14.765,1.622A104.582,104.582,0,0,1,122.668,328.811Z" transform="translate(-122.668 -324.838)"/></g><g transform="translate(6.506 171.658)"><path class="i" d="M122.312,349.138a105.419,105.419,0,0,0,15.427-2.521,57.015,57.015,0,0,1,15.031-1.435c-.073-1.617-.167-3.2-.292-4.737a62.4,62.4,0,0,0-15.793,1.6,102.929,102.929,0,0,1-14.165,2.374Q122.427,346.749,122.312,349.138Z" transform="translate(-122.312 -340.421)"/></g><g transform="translate(5.15 193.11)"><path class="i" d="M121.327,364.812A100.938,100.938,0,0,0,138.11,362.2a57.284,57.284,0,0,1,14.941-1.45c.069-1.57.125-3.146.168-4.716a62.286,62.286,0,0,0-16.164,1.592,98.537,98.537,0,0,1-15.379,2.467Q121.5,362.467,121.327,364.812Z" transform="translate(-121.327 -356.001)"/></g><g transform="translate(3.313 214.571)"><path class="i" d="M119.993,380.468a94.784,94.784,0,0,0,18.62-2.682,57.191,57.191,0,0,1,13.57-1.482c.125-1.528.245-3.1.365-4.71a62.342,62.342,0,0,0-14.989,1.616,93.341,93.341,0,0,1-17.128,2.557C120.285,377.374,120.139,378.945,119.993,380.468Z" transform="translate(-119.993 -371.587)"/></g></g></g></g><g transform="translate(0 130.452)"><path class="d" d="M97.078,238.664s-21.256,70.883-26.52,96.144-5.672,77.776-5.672,77.776-9.292,19.289-9.512,27.875c-.234,9.151,4.57,16.432,4.022,22.422s6.743,2.737,4.684-9.393,3.784-23.117,6.3-22.765-2.086,13.245.153,17.891,5.139-4.379,8.021-9.855c2.993-5.687,2.819-18.093,1.457-26.949s14.692-62.649,14.769-78.236l20.329-68.7S108.4,236.2,97.078,238.664Z" transform="translate(-55.367 -222.099)"/><path class="h" d="M115.582,267.646c-.72,4.555-3.24,12.375-6.495,22.214v.006c-.277.829-.559,1.674-.84,2.535a.784.784,0,0,0-.041.121c-.814,2.447-1.665,5.008-2.542,7.659l-.015.047c-3.6,10.945-7.6,23.467-10.945,36.332-1.152,4.4-2.228,8.854-3.182,13.287-1.221,5.662-2.254,11.306-3.011,16.832C85.792,386.58,80.6,411.79,80.6,411.79c-7.623,3.13-19.539-1-19.539-1s-.308-36.306,1.393-50.412a377.886,377.886,0,0,1,8.1-44.111c9.13-39.227,25.2-77.609,29.607-87.789.35-.814.627-1.444.819-1.882h3.793C112.233,231.335,117.529,255.375,115.582,267.646Z" transform="translate(-53.23 -226.593)"/><path class="j" d="M60.6,355.085l.6,8.355s11.329,3.682,19.822,1.089l2.246-7.452C75.09,357.51,67.535,357.309,60.6,355.085Z" transform="translate(-53.394 -178.16)"/></g></g><g transform="translate(344.589 141.555)"><g transform="translate(153.746 343.751)"><path class="b" d="M372.654,419.323h50.208c-.165-3.484-.331-6.821-.492-9.974-.876-17.192-1.619-28.9-1.619-28.9l-40.833,1.813-3.386.154-6.006.268s.58,10.467,1.482,25.8C372.208,411.88,372.424,415.514,372.654,419.323Z" transform="translate(-370.527 -380.449)"/><path class="c" d="M376.533,382.417l-6.006.268s.58,10.467,1.482,25.8a364.734,364.734,0,0,0,50.363.859c-.876-17.192-1.619-28.9-1.619-28.9l-40.833,1.813Z" transform="translate(-370.527 -380.449)"/><g transform="translate(6.003 1.816)"><path class="c" d="M380.358,418.825c-.918-15.915-1.67-29.509-2.085-37.057l-3.386.153c.412,7.514,1.161,21.045,2.076,36.9Z" transform="translate(-374.887 -381.768)"/></g></g><g transform="translate(90.931 343.751)"><path class="b" d="M375.119,419.323c.259-4.311.5-8.4.722-12.168.865-14.608,1.407-24.469,1.407-24.469l-6.517-.291-3.38-.153-40.333-1.793s-.442,6.977-1.049,18.067c-.321,5.911-.688,12.993-1.06,20.807Z" transform="translate(-324.908 -380.449)"/><path class="c" d="M325.678,398.516a443.606,443.606,0,0,0,49.872,8.639c.865-14.608,1.407-24.469,1.407-24.469l-6.517-.291-3.38-.153-40.333-1.793S326.285,387.426,325.678,398.516Z" transform="translate(-324.618 -380.449)"/><g transform="translate(40.355 1.794)"><path class="c" d="M357.607,418.831c.916-15.875,1.665-29.418,2.074-36.928l-3.38-.151c-.413,7.543-1.166,21.15-2.085,37.079Z" transform="translate(-354.216 -381.752)"/></g></g><g transform="translate(85.763 102.173)"><path class="k" d="M446.653,454.407a241.127,241.127,0,0,1-30.682,6.366q-5.337.75-10.664,1.242-7.19.665-14.375.892a227.568,227.568,0,0,1-23.771-.518,240.839,240.839,0,0,1-45.966-7.982c-.142-14.287.073-65.524,1.146-114.942.052-2.218.1-4.436.156-6.642.007-.47.021-.938.032-1.406.01-.511.025-1.02.039-1.527.034-1.568.076-3.131.114-4.686q.12-4.763.253-9.439.083-2.8.167-5.553c.01-.381.023-.76.034-1.137q.058-1.818.114-3.613v0c.014-.37.025-.742.039-1.114.034-1.1.073-2.2.107-3.287.034-.927.066-1.838.1-2.755,1.187-33.337,2.922-59.632,5.406-63.338,4.213-6.286,18.564-14.629,30.107-21.42,4.112-2.415,9.023-4.928,11.833-6.792,4.1,3.3,7.073,6.282,13.15,6.078,6.8-.233,8.475-4.321,11.066-7.826,1.583,1.027,5.6,4.325,7.692,5.549,1.787,1.055,3.723,2.173,5.743,3.335,3.123,1.787,6.444,3.686,9.735,5.622,4.876,2.871,9.681,5.831,13.669,8.66s7.142,5.531,8.708,7.873c2.255,3.387,3.716,25.318,4.657,54.177.039,1.011.066,2.034.1,3.065,0,.124,0,.249,0,.377.039,1.049.07,2.125.1,3.2q.14,4.872.27,9.94c.018.711.034,1.429.045,2.144.014.538.032,1.08.034,1.611.032,1.388.062,2.78.094,4.184.007.281.011.563.018.844.076,3.7.149,7.457.215,11.244q.031,1.661.055,3.328C447.048,382.112,446.85,439.054,446.653,454.407Z" transform="translate(-321.155 -205.003)"/><g transform="translate(1.979 81.05)"><path class="l" d="M334.925,265.123v.007a1.013,1.013,0,0,1-.142.333c-.4.635-.808,1.292-1.221,1.961a1.1,1.1,0,0,0-.062.112c-1.323,2.137-2.7,4.474-4.12,6.941a.082.082,0,0,1-.025.041c-2.217,3.883-4.515,8.092-6.763,12.369q.058-1.818.114-3.613v0c.014-.37.025-.742.039-1.114,3.627-6.732,7.243-13.031,10.276-17.806a1.044,1.044,0,0,1,1.9.774Z" transform="translate(-322.592 -263.866)"/></g></g><g transform="translate(179.594)"><path class="d" d="M432.571,265.359s33.811-10.867,43.815-33.053c2.894-6.426-20.946-71.664-20.946-71.664l-11.507.558s3.28,22.634,5.267,35.451c1.636,10.539,4.277,23.13,5.166,27.277.194.9.3,1.4.3,1.4-.565.1-1.13.207-1.706.321-15.8,3.208-35.966,13.5-35.966,13.5Z" transform="translate(-378.859 -119.551)"/><g transform="translate(74.105 104.376)"><path class="e" d="M453.317,214.255a1.085,1.085,0,0,0,1.513-.238,1.065,1.065,0,0,0-.238-1.512,84.988,84.988,0,0,0-10.071-5.9c.194.9.3,1.4.3,1.4-.565.1-1.13.207-1.706.321A85.393,85.393,0,0,1,453.317,214.255Z" transform="translate(-443.118 -206.603)"/></g><path class="k" d="M391.279,217.372s-10.226,24,15.809,37.362c18.02,9.247,59.066-14.9,59.066-14.9l-14.634-31.07S413.964,224.26,391.279,217.372Z" transform="translate(-389.299 -101.411)"/><path class="d" d="M446.465,135.212c-1.018.715-.81,5.122-.362,9.274-.143.022-.289.045-.438.072-1.21-5.541-3.619-14.965-5.68-13.166-1.349,1.177.457,9.3,1.688,14.165q-.382.118-.764.241c-1.552-5.769-4.9-16.883-7.123-14.722-1.486,1.443,1.366,11.228,2.949,16.22q-.333.128-.649.255c-1.515-4.841-4.75-14-6.967-11.851-2.008,1.948,3.744,15.8,3.744,15.8h0l1.509,5.436s-1.793.774-4.589-2.39-6.143-3.72-3.82.856c2.626,5.173,6.512,8.883,8.222,12.542s7.093,4.872,7.093,4.872l10.8-.523s2.1-18.262-1.935-26.967h0C449.455,140.147,448.238,133.969,446.465,135.212Z" transform="translate(-375.773 -130.799)"/></g><g transform="translate(110.584 13.234)"><path class="b" d="M343.549,173.705c0,18.405,11.331,31.086,29.727,31.086s31.234-13.633,31.234-32.037a39.443,39.443,0,0,0-2.421-14.009c-.094-.249-.187-.5-.289-.742-.2-.476-.4-.951-.617-1.413-.319-.71-.679-1.406-1.053-2.078-4.794-8.62-13.384-14.1-24.925-14.1C353.138,140.411,343.549,155.3,343.549,173.705Z" transform="translate(-337.534 -140.411)"/><g transform="translate(0 37.806)"><path class="d" d="M349.328,171.28s-5.113-6.817-8.914-1.18,1.572,22.287,10.881,18.222Z" transform="translate(-339.181 -167.868)"/><g transform="translate(1.995 5.968)"><path class="e" d="M348.715,181.544a.787.787,0,0,1-.757-.576c-1.442-5.14-6.768-7.223-6.821-7.244a.787.787,0,0,1,.558-1.472c.249.1,6.118,2.372,7.778,8.292a.785.785,0,0,1-.544.969A.768.768,0,0,1,348.715,181.544Z" transform="translate(-340.63 -172.202)"/></g><g transform="translate(3.92 9.059)"><path class="e" d="M342.813,178.108a.78.78,0,0,1-.425-.125.788.788,0,0,1-.235-1.088,7.182,7.182,0,0,1,2.954-2.379.786.786,0,0,1,.642,1.436,5.683,5.683,0,0,0-2.272,1.8A.784.784,0,0,1,342.813,178.108Z" transform="translate(-342.027 -174.447)"/></g></g><g transform="translate(60.872 37.806)"><path class="d" d="M385.355,171.28s5.113-6.817,8.914-1.18-1.572,22.287-10.88,18.222Z" transform="translate(-383.389 -167.868)"/><g transform="translate(1.244 5.968)"><path class="e" d="M385.081,181.544a.788.788,0,0,0,.757-.576c1.442-5.14,6.768-7.223,6.821-7.244a.787.787,0,0,0-.558-1.472c-.249.1-6.118,2.372-7.78,8.292a.786.786,0,0,0,.545.969A.768.768,0,0,0,385.081,181.544Z" transform="translate(-384.293 -172.202)"/></g><g transform="translate(4.008 9.059)"><path class="e" d="M389.7,178.108a.773.773,0,0,0,.424-.125.786.786,0,0,0,.235-1.088,7.161,7.161,0,0,0-2.952-2.379.786.786,0,0,0-.642,1.436,5.682,5.682,0,0,1,2.272,1.8A.784.784,0,0,0,389.7,178.108Z" transform="translate(-386.3 -174.447)"/></g></g><path class="d" d="M381.453,192.979v16.558s-4.938,8.432-11.616,9.007-12.6-7.259-12.6-7.259v-17.14Z" transform="translate(-332.374 -120.596)"/><path class="m" d="M381.453,192.979v7.347c-4.481,4.972-12.439,6.214-24.215,4.475V194.144Z" transform="translate(-332.374 -120.596)"/><path class="d" d="M403.772,167.79a161.22,161.22,0,0,1-2.148,20.916c-.306,1.6-.653,3.115-1.038,4.468-3.484,12.2-12.2,33.122-36.6,24.408-10.776-3.847-15.77-15.85-18-28.058a118.012,118.012,0,0,1-1.629-22.655,17.287,17.287,0,0,1,8.771-14.708c14.4-8.165,29.6-5.121,39.6-1.274A17.229,17.229,0,0,1,403.772,167.79Z" transform="translate(-337.237 -137.929)"/><path class="b" d="M359.2,172.792c0,1.767-.91,3.2-2.034,3.2s-2.035-1.433-2.035-3.2.91-3.2,2.035-3.2S359.2,171.024,359.2,172.792Z" transform="translate(-333.169 -129.412)"/><path class="b" d="M376.616,172.744c0,1.767-.912,3.2-2.035,3.2s-2.035-1.433-2.035-3.2.912-3.2,2.035-3.2S376.616,170.976,376.616,172.744Z" transform="translate(-326.604 -129.43)"/><path class="b" d="M381.952,164.224s-6.419-2.536-11.362-.4l.494,2.748s7.255-.613,10.909.867A4.768,4.768,0,0,0,381.952,164.224Z" transform="translate(-327.342 -131.909)"/><path class="b" d="M351.759,164.224s6.419-2.536,11.362-.4l-.494,2.748s-7.255-.613-10.909.867A4.768,4.768,0,0,1,351.759,164.224Z" transform="translate(-334.553 -131.909)"/><g transform="translate(33.84 41.403)"><path class="e" d="M366.683,185.869a8.416,8.416,0,0,0,2.848-.6.787.787,0,0,0-.595-1.457c-.71.288-2.417.741-3.156.3a.852.852,0,0,1-.386-.733c-.285-2.747.467-11.953.475-12.047a.787.787,0,1,0-1.568-.128c-.032.384-.771,9.446-.472,12.337a2.4,2.4,0,0,0,1.144,1.921A3.319,3.319,0,0,0,366.683,185.869Z" transform="translate(-363.757 -170.48)"/></g><path class="g" d="M358.211,184.557c1.308,4.538,5.024,9.066,10.145,9.128,5.115-.062,8.832-4.589,10.14-9.128Z" transform="translate(-332.008 -123.771)"/><g transform="translate(31.848 72.31)"><path class="e" d="M366.373,195.461a8.221,8.221,0,0,0,3.835-1.075.786.786,0,0,0-.815-1.345,6.679,6.679,0,0,1-3.02.848,6.382,6.382,0,0,1-2.863-.844.786.786,0,1,0-.826,1.338A7.855,7.855,0,0,0,366.373,195.461Z" transform="translate(-362.311 -192.927)"/></g><path class="b" d="M402.941,179.287h-3.565c.394-3.579.958-9.882-1.981-10.786-9.289-2.853,2.748-9.417-1.444-12.688s-14.629-1.875-21.885-2.109c-7.3-.237-19.037-.134-21.885.527s-1.29,5.393-.244,9.067-3.5,7.725-4.264,11.524a16.7,16.7,0,0,0,0,4.465H344.7c-.352-4.624-.4-8.928-.341-12.419a17.287,17.287,0,0,1,8.771-14.708c14.4-8.165,29.6-5.121,39.6-1.274a17.229,17.229,0,0,1,11.036,16.9C403.6,171.315,403.343,175.324,402.941,179.287Z" transform="translate(-337.237 -137.929)"/><g transform="translate(5.505 34.836)"><g transform="translate(9.227)"><path class="g" d="M358.785,183.52a8.9,8.9,0,1,1,8.9-8.9A8.915,8.915,0,0,1,358.785,183.52Zm0-16.421a7.517,7.517,0,1,0,7.517,7.517A7.525,7.525,0,0,0,358.785,167.1Z" transform="translate(-349.88 -165.711)"/></g><g transform="translate(33.567)"><path class="g" d="M376.462,183.52a8.9,8.9,0,1,1,8.9-8.9A8.915,8.915,0,0,1,376.462,183.52Zm0-16.421a7.517,7.517,0,1,0,7.517,7.517A7.525,7.525,0,0,0,376.462,167.1Z" transform="translate(-367.557 -165.711)"/></g><g transform="translate(0 1.473)"><path class="g" d="M353.911,171.344a.689.689,0,0,1-.489-.2h0c-.04-.04-4.085-3.964-9.392-2.726a.694.694,0,0,1-.315-1.352c6.068-1.414,10.5,2.909,10.686,3.094a.694.694,0,0,1-.49,1.186Z" transform="translate(-343.179 -166.781)"/></g><g transform="translate(49.341 1.282)"><path class="g" d="M379.707,171.4a.694.694,0,0,1-.38-1.275c.266-.174,6.567-4.238,11.928-3.354a.694.694,0,1,1-.226,1.369c-4.826-.795-10.882,3.109-10.944,3.148A.683.683,0,0,1,379.707,171.4Z" transform="translate(-379.013 -166.642)"/></g><g transform="translate(25.409 3.265)"><path class="g" d="M370.279,171.723c-.015-.022-1.663-2.253-3.832-2.253-2.147,0-3.638,2.227-3.653,2.249l-1.162-.759c.077-.117,1.908-2.878,4.815-2.878,2.885,0,4.874,2.713,4.958,2.828Z" transform="translate(-361.632 -168.082)"/></g></g></g><g transform="translate(0 132.134)"><path class="d" d="M356.013,277.8s-9.381,18.164-20.427,32.552a84.833,84.833,0,0,1-10.013,11.182c-5.431,4.9-10.726,7.468-15.04,5.292-16-8.065-51.664-72.25-51.664-72.25l8.783-10.418s15.873,18.331,27.482,29.3c10.706,10.116,18.938,17.678,18.938,17.678,1.482-2.255,3.061-4.727,4.7-7.343,1.746-2.777,3.557-5.716,5.4-8.739,13.367-21.947,28.2-48.293,28.2-48.293Z" transform="translate(-258.869 -226.762)"/><path class="k" d="M335.555,226.762l-32.061,50.423,10.761,44.35,26.531-43.2S344,248.781,335.555,226.762Z" transform="translate(-242.048 -226.762)"/></g></g><g transform="translate(261.774 147.102)"><g transform="translate(4.223 93.007)"><path class="n" d="M333.577,437.555c-2.29-12.69-4.547-27-6.6-40.9q-.675-4.61-1.325-9.126c-1.645-11.507-3.115-22.389-4.295-31.417-.449-3.43-.854-6.6-1.22-9.422-1.144-9.012-1.816-14.611-1.816-14.611L267.7,333.992l-50.784-1.914s-1.308,11.077-3.4,27.138c-.383,2.923-.792,6.006-1.221,9.225-1.128,8.428-2.417,17.736-3.8,27.267l-.062.419c-.435,2.97-.874,5.961-1.33,8.951a.893.893,0,0,1-.021.118v.005c-1.086,7.227-2.225,14.445-3.383,21.389-.476,2.867-.958,5.681-1.444,8.424q-.225,1.281-.452,2.539Z" transform="translate(-201.791 -153.484)"/><g transform="translate(0.452 189.028)"><path class="o" d="M223.859,344.427a4.771,4.771,0,1,1-4.771-4.771A4.772,4.772,0,0,1,223.859,344.427Z" transform="translate(-197.521 -339.656)"/><path class="o" d="M232.46,357.853a4.772,4.772,0,1,1-4.771-4.772A4.771,4.771,0,0,1,232.46,357.853Z" transform="translate(-194.28 -334.596)"/><path class="o" d="M249.378,350.922a4.771,4.771,0,1,1-4.771-4.772A4.77,4.77,0,0,1,249.378,350.922Z" transform="translate(-187.902 -337.208)"/><path class="o" d="M222.676,372.111a4.772,4.772,0,1,1-4.772-4.771A4.773,4.773,0,0,1,222.676,372.111Z" transform="translate(-197.968 -329.221)"/><path class="o" d="M243.818,370.629a4.772,4.772,0,1,1-4.772-4.771A4.772,4.772,0,0,1,243.818,370.629Z" transform="translate(-189.999 -329.78)"/><path class="o" d="M213.738,356.262a4.766,4.766,0,0,1-4.325,4.75c.43-3.219.839-6.3,1.221-9.225A4.768,4.768,0,0,1,213.738,356.262Z" transform="translate(-199.37 -335.083)"/><path class="o" d="M278.271,390.989a4.772,4.772,0,1,1-4.772-4.771A4.772,4.772,0,0,1,278.271,390.989Z" transform="translate(-177.012 -322.105)"/><path class="o" d="M276.634,372.111a4.772,4.772,0,1,1-4.772-4.771A4.773,4.773,0,0,1,276.634,372.111Z" transform="translate(-177.629 -329.221)"/><path class="o" d="M294.528,381.485a4.772,4.772,0,1,1-1.873-9.162,3.8,3.8,0,0,1,.548.036Q293.856,376.868,294.528,381.485Z" transform="translate(-169.791 -327.343)"/><path class="o" d="M280.1,404.824a4.772,4.772,0,1,1-4.771-4.772A4.771,4.771,0,0,1,280.1,404.824Z" transform="translate(-176.323 -316.891)"/><path class="o" d="M294.922,399.292a4.772,4.772,0,1,1-4.771-4.772A4.77,4.77,0,0,1,294.922,399.292Z" transform="translate(-170.736 -318.976)"/><path class="o" d="M263.618,409.251a4.757,4.757,0,0,0-7.865,0Z" transform="translate(-181.903 -314.208)"/><path class="o" d="M220.395,394a4.772,4.772,0,1,1-4.771-4.772A4.77,4.77,0,0,1,220.395,394Z" transform="translate(-198.828 -320.97)"/><path class="o" d="M209.775,382.941a4.762,4.762,0,0,1-4.15,4.723.893.893,0,0,0,.021-.118c.456-2.991.9-5.981,1.33-8.951A4.784,4.784,0,0,1,209.775,382.941Z" transform="translate(-200.798 -324.979)"/><path class="o" d="M205.519,404.569a4.783,4.783,0,0,1-3.4,4.574c.486-2.743.968-5.557,1.444-8.424A4.773,4.773,0,0,1,205.519,404.569Z" transform="translate(-202.119 -316.639)"/><path class="o" d="M228.995,406.289a4.772,4.772,0,1,1-4.772-4.772A4.772,4.772,0,0,1,228.995,406.289Z" transform="translate(-195.586 -316.339)"/><path class="o" d="M247.283,403.574a4.772,4.772,0,1,1-4.771-4.772A4.77,4.77,0,0,1,247.283,403.574Z" transform="translate(-188.693 -317.362)"/><path class="o" d="M234.236,386.535a4.772,4.772,0,1,1-4.772-4.771A4.773,4.773,0,0,1,234.236,386.535Z" transform="translate(-193.611 -323.784)"/><path class="o" d="M252.845,383.07a4.772,4.772,0,1,1-4.772-4.771A4.772,4.772,0,0,1,252.845,383.07Z" transform="translate(-186.596 -325.09)"/><path class="o" d="M261.222,364.784a4.772,4.772,0,1,1-4.772-4.772A4.772,4.772,0,0,1,261.222,364.784Z" transform="translate(-183.439 -331.983)"/><path class="o" d="M290.214,352.111a4.492,4.492,0,0,1-1.024.114,4.77,4.77,0,0,1-.2-9.537C289.36,345.514,289.765,348.681,290.214,352.111Z" transform="translate(-171.097 -338.513)"/><path class="o" d="M273.168,350.922a4.772,4.772,0,1,1-4.771-4.772A4.77,4.77,0,0,1,273.168,350.922Z" transform="translate(-178.936 -337.208)"/><path class="o" d="M285.861,363.272a4.772,4.772,0,1,1-4.772-4.771A4.773,4.773,0,0,1,285.861,363.272Z" transform="translate(-174.151 -332.553)"/><path class="o" d="M264.687,394a4.772,4.772,0,1,1-4.771-4.772A4.77,4.77,0,0,1,264.687,394Z" transform="translate(-182.133 -320.97)"/></g><path class="n" d="M318.34,382.219c-26.708,17.436-75.748,16.07-106.565,0,2.944-18.337,6.82-36.694,5.987-61.1q-.14-4.013-.341-7.968-.18-3.439-.4-6.82c-2.659-40.6-9.588-73.8-6.182-78.087a32.316,32.316,0,0,1,7.021-5.98c1.2-.818,2.484-1.645,3.839-2.474,3.2-1.95,6.752-3.916,10.323-5.831,8.47-4.522,17.068-8.717,21.378-11.584,4.274,1.863,7.679,2.882,11.347,2.861a3.131,3.131,0,0,0,.315-.011,2.855,2.855,0,0,0,.306.011c3.668.021,7.073-1,11.351-2.861,4,2.659,11.528,6.37,19.212,10.415a166.4,166.4,0,0,1,15.832,9.2,31.749,31.749,0,0,1,6.762,5.811c1.687,2.126.978,11.449-.465,25.264-1.428,13.593-3.565,31.541-4.858,51.27-.358,5.479-.653,11.093-.85,16.79C311.525,345.525,315.4,363.883,318.34,382.219Z" transform="translate(-198.728 -202.374)"/><path class="p" d="M289.878,212.79c-5.2,11.871-18,24.164-34.638,21.29-16.113-2.786-23.755-11.307-29.269-20.122,8.471-4.523,17.07-8.715,21.378-11.583,4.274,1.86,7.679,2.879,11.345,2.863a2.754,2.754,0,0,0,.317-.012,2.579,2.579,0,0,0,.31.012c3.665.017,7.071-1,11.35-2.863C274.668,205.032,282.2,208.742,289.878,212.79Z" transform="translate(-192.677 -202.374)"/><g transform="translate(46.362 0.87)"><path class="g" d="M272.39,203.006a.818.818,0,0,0-.828.818c-.005.666-.278,16.359-14.364,17.575-13.066,1.136-18.474-11.372-20.146-16.56a.731.731,0,0,0-.7-.509H236.2a.735.735,0,0,0-.7.967c1.783,5.354,7.478,18.282,20.789,17.806q.518-.019,1.051-.063c15.591-1.345,15.868-19.028,15.869-19.205A.823.823,0,0,0,272.39,203.006Z" transform="translate(-235.461 -203.006)"/></g></g><g transform="translate(28.814)"><path class="b" d="M287.844,142.43s12.589,19.5,11.21,39.811S300.91,226,282.734,224.97s-50.593,7.287-60.9-8.533S287.844,142.43,287.844,142.43Z" transform="translate(-219.186 -131.962)"/><path class="c" d="M282.423,168.562s3.267,29.442-10.7,37.548-24.08-.943-24.08-.943S277.087,164.128,282.423,168.562Z" transform="translate(-209.1 -122.238)"/><g transform="translate(5.338 14.641)"><g transform="translate(0 28.198)"><path class="f" d="M233.482,169.288s-5.016-6.689-8.746-1.158S226.28,190,235.411,186.008Z" transform="translate(-223.527 -165.939)"/><g transform="translate(1.958 5.855)"><path class="q" d="M232.882,179.357a.774.774,0,0,1-.744-.563c-1.415-5.044-6.64-7.088-6.692-7.108a.772.772,0,0,1,.547-1.444c.244.092,6,2.327,7.632,8.135a.773.773,0,0,1-.744.98Z" transform="translate(-224.948 -170.192)"/></g><g transform="translate(3.845 8.887)"><path class="q" d="M227.09,175.987a.772.772,0,0,1-.647-1.19,7.051,7.051,0,0,1,2.9-2.335.772.772,0,0,1,.631,1.41,5.584,5.584,0,0,0-2.229,1.761A.768.768,0,0,1,227.09,175.987Z" transform="translate(-226.319 -172.394)"/></g></g><g transform="translate(59.722 28.198)"><path class="d" d="M268.83,169.288s5.016-6.689,8.746-1.158S276.033,190,266.9,186.008Z" transform="translate(-266.9 -165.939)"/><g transform="translate(1.223 5.855)"><path class="e" d="M268.559,179.357a.772.772,0,0,0,.744-.563c1.415-5.044,6.64-7.088,6.693-7.108a.772.772,0,0,0-.547-1.444c-.245.092-6,2.327-7.632,8.135a.771.771,0,0,0,.534.951A.788.788,0,0,0,268.559,179.357Z" transform="translate(-267.788 -170.192)"/></g><g transform="translate(3.933 8.887)"><path class="e" d="M273.092,175.987a.772.772,0,0,0,.649-1.19,7.061,7.061,0,0,0-2.9-2.335.772.772,0,0,0-.631,1.41,5.583,5.583,0,0,1,2.229,1.761A.77.77,0,0,0,273.092,175.987Z" transform="translate(-269.757 -172.394)"/></g></g><path class="d" d="M265,190.577v16.245s-4.844,8.273-11.4,8.837-12.362-7.124-12.362-7.124V191.72Z" transform="translate(-216.849 -128.454)"/><path class="m" d="M265,190.577v7.208c-4.4,4.878-12.2,6.607-23.755,4.9l0-10.967Z" transform="translate(-216.849 -128.454)"/><path class="p" d="M286.9,165.862a158.286,158.286,0,0,1-2.107,20.522c-.3,1.574-.64,3.055-1.019,4.383-3.419,11.97-11.97,32.5-35.909,23.948-10.573-3.774-15.474-15.551-17.658-27.529a115.738,115.738,0,0,1-1.6-22.225,16.957,16.957,0,0,1,8.6-14.432c14.13-8.011,29.041-5.024,38.857-1.25A16.9,16.9,0,0,1,286.9,165.862Z" transform="translate(-221.62 -145.46)"/><path class="b" d="M242.966,169.922c0,1.734-.895,3.139-2,3.139s-2-1.406-2-3.139.894-3.139,2-3.139S242.966,168.189,242.966,169.922Z" transform="translate(-217.704 -137.423)"/><path class="b" d="M260.868,169.922c0,1.734-.894,3.139-2,3.139s-2-1.406-2-3.139.894-3.139,2-3.139S260.868,168.189,260.868,169.922Z" transform="translate(-210.956 -137.423)"/><path class="b" d="M238.431,162.624a33.324,33.324,0,0,1,8.54-1.279,1.483,1.483,0,0,1,1.477,1.739l0,.022a1.477,1.477,0,0,1-1.527,1.213c-2.4-.112-8.713.227-11.693,1.433a2.234,2.234,0,0,1,.68-1.588A5.141,5.141,0,0,1,238.431,162.624Z" transform="translate(-219.12 -139.473)"/><path class="b" d="M263.725,162.671a33.324,33.324,0,0,0-8.54-1.279,1.483,1.483,0,0,0-1.477,1.738l0,.023a1.479,1.479,0,0,0,1.527,1.213c2.4-.112,8.713.226,11.693,1.433a2.234,2.234,0,0,0-.68-1.588A5.138,5.138,0,0,0,263.725,162.671Z" transform="translate(-212.159 -139.455)"/><g transform="translate(33.202 31.727)"><path class="r" d="M250.51,183.6a3.269,3.269,0,0,1-1.678-.4,2.361,2.361,0,0,1-1.122-1.885c-.293-2.836.432-11.727.464-12.1a.772.772,0,1,1,1.538.127c-.008.091-.745,9.125-.467,11.82a.84.84,0,0,0,.38.719c.724.434,2.4-.01,3.1-.293a.772.772,0,0,1,.584,1.429A8.247,8.247,0,0,1,250.51,183.6Z" transform="translate(-247.639 -168.502)"/></g><path class="g" d="M242.606,183.006c.584,2.936,2.523,8.337,9.056,8.337,6.549,0,8.384-4.936,9.016-8.337Z" transform="translate(-216.335 -131.308)"/><g transform="translate(31.247 62.051)"><path class="r" d="M250.206,193.012a7.7,7.7,0,0,1-3.62-1.059.772.772,0,0,1,.81-1.314h0a6.21,6.21,0,0,0,2.81.829,6.568,6.568,0,0,0,2.963-.832.772.772,0,0,1,.8,1.32A8.073,8.073,0,0,1,250.206,193.012Z" transform="translate(-246.22 -190.525)"/></g></g><path class="b" d="M290.533,168.613a2.548,2.548,0,0,1-1.859,1.422,49.262,49.262,0,0,1-.278,5.712c-.953,11.155-3.767,13.114-4.4,10.356-.419-1.833-.394-12.337-.191-15.762a36.369,36.369,0,0,1-4.088-.512L277.126,159l-.9,10.695c-3.882,1.351-12.936-.812-12.936-.812l-3.036-10.674-1.878,10.271c-5.822,2.835-13.1.947-13.1.947L243.6,158.346l-3.86,11.079s-12.417,4.454-12.552,0c-.083-2.593,1.816-9.893,3.42-15.548a23.392,23.392,0,0,1,11.28-14.317c15.4-8.267,31.69-3.871,37.279-.533C291.019,146.1,290.533,168.613,290.533,168.613Z" transform="translate(-216.808 -134.827)"/><path class="b" d="M236.873,143.029s-10.224,12.158-13.586,33.874-8.019,37.761,5.066,44.931c14.162,7.76,12.936-8.156,12.732-12.482s-12.252-16.15-4.212-49.453C239.468,149.148,236.873,143.029,236.873,143.029Z" transform="translate(-219.65 -131.736)"/><path class="c" d="M230.423,175.619v.026c0,.161.015,1.024.077,2.375.032.839.083,1.857.16,3.017.482,7.316,1.9,19.95,6.085,24.333,1.651,1.734,4.833,2.6,8.58,2.955v-5.749a22.749,22.749,0,0,1-9.411-8.739,53.762,53.762,0,0,1-5.206-16.05Z" transform="translate(-215.589 -119.452)"/><path class="g" d="M272.06,181.275a1.809,1.809,0,1,1-1.808-1.808A1.808,1.808,0,0,1,272.06,181.275Z" transform="translate(-201.258 -118.001)"/></g><g transform="translate(0 118.425)"><path class="n" d="M324.035,301.891c-5.121,14.662-28.056,13.594-54.18,5.579-.039-.011-.076-.025-.114-.034-.083-.025-.161-.052-.244-.076l-3.594-1.146c-.5-.163-.994-.328-1.49-.5q-4.224-1.413-8.5-3.042a291.512,291.512,0,0,1-27.609-12.229l.062-.156,2.67-6.938.913-2.361s48.428,5.276,72.779.186c.413-.085.815-.172,1.212-.264a15.172,15.172,0,0,0-.28-1.607c-12.9-43.924,1.209-52.347,5.93-58.473C311.594,220.834,333.7,274.212,324.035,301.891Z" transform="translate(-187.573 -220.834)"/><g transform="translate(117.158 58.473)"><path class="s" d="M295.223,272.29a1.055,1.055,0,0,1-.452.1,1.036,1.036,0,0,1-.929-.578c-1.844-3.78-8.109-6.027-10.032-6.644.413-.085.815-.172,1.212-.264-.1-.54-.19-1.077-.28-1.607,2.448.808,8.839,3.273,10.956,7.609A1.034,1.034,0,0,1,295.223,272.29Z" transform="translate(-283.81 -263.3)"/></g><g transform="translate(41.175 59.653)"><path class="s" d="M248.193,270.126c-9.884,0-17.91-.567-18.609-.618a1.033,1.033,0,0,1,.15-2.06c.365.026,36.693,2.6,51.015-3.215a1.033,1.033,0,0,1,.777,1.914C273.6,269.363,259.648,270.126,248.193,270.126Z" transform="translate(-228.627 -264.157)"/></g><g transform="translate(78.331 65.622)"><path class="s" d="M255.612,288.251h0c8.288-2.286,15.821-4.512,20.172-5.907,6.041-1.937,11.037-8.043,13.309-13.234a1.033,1.033,0,0,1,1.892.83c-2.456,5.614-7.916,12.235-14.572,14.372-3.157,1.012-7.979,2.458-13.552,4.048a12.541,12.541,0,0,1-7.254-.11Z" transform="translate(-255.612 -268.492)"/></g><g transform="translate(1.935 0.452)"><path class="n" d="M298.866,298.99C224.021,324.2,201,307.7,201,307.7c-5.04-45.565,13.53-86.539,13.53-86.539,5.486,9.045,11.687,24.832,11.687,24.832l1.639,34.927-.124.971-.058.457-.31,2.389-.007.048.482.1c22.64,4.777,64.044-.56,64.044-.56Z" transform="translate(-200.129 -221.162)"/><g transform="translate(14.55 61.187)"><path class="s" d="M223.853,268.139a73.761,73.761,0,0,0-11.3,11.774,1.034,1.034,0,0,1-1.648-1.249l0,0A75.711,75.711,0,0,1,223.687,265.6l-.31,2.389-.007.048Z" transform="translate(-210.696 -265.599)"/></g><path class="d" d="M266.763,271.76s8.286-18.823,20.884-17.147l3.8,13.608c-6.9,2.929-7.9,14.754-17.695,18.2Z" transform="translate(-175.013 -208.593)"/></g><path class="d" d="M243.1,269.15s-5.232-12.282-19-15.848-22.545,2.925-23.47,5.373,5.194.109,5.194.109a11.888,11.888,0,0,0-6.271,4.873c-2.286,3.744,5.564-.3,5.564-.3s-5.629,2.467-6.345,4.753,6.708-1.577,8.1-1.5c0,0-6.63,2.634-6.585,4.994s7.614-1.488,13.268-1.184,14.321,2.646,14.321,2.646a94.964,94.964,0,0,0,13.048,1.717Z" transform="translate(-198.724 -208.991)"/></g></g><g transform="translate(49.887 524.179)"><path class="t" d="M7.634,0H558.582a7.632,7.632,0,0,1,7.632,7.632v6.76a7.632,7.632,0,0,1-7.632,7.632H7.632A7.632,7.632,0,0,1,0,14.391V7.634A7.634,7.634,0,0,1,7.634,0Z" transform="translate(0.001)"/><path class="u" d="M611.055,419.188v.5H44.841v-.5A10.508,10.508,0,0,1,55.35,408.681H600.544A10.509,10.509,0,0,1,611.055,419.188Z" transform="translate(-44.841 -408.68)"/></g><g transform="translate(237.751 386.694)"><rect class="b" width="186.088" height="104.425" rx="5.381"/><rect class="c" width="28.82" height="32.854" transform="translate(78.634 104.306)"/><circle class="v" cx="14.303" cy="14.303" r="14.303" transform="translate(78.419 39.189)"/><path class="b" d="M6.646,0H67.692a6.645,6.645,0,0,1,6.645,6.645v5.01a0,0,0,0,1,0,0H0a0,0,0,0,1,0,0V6.646A6.646,6.646,0,0,1,6.646,0Z" transform="translate(55.415 125.505)"/></g></g></svg>