<?xml version="1.0" encoding="UTF-8"?><svg xmlns="http://www.w3.org/2000/svg" xmlns:xlink="http://www.w3.org/1999/xlink" contentScriptType="text/ecmascript" width="1440" zoomAndPan="magnify" contentStyleType="text/css" viewBox="0 0 1440 74.999997" height="74.999997" preserveAspectRatio="xMidYMid meet" version="1.0"><defs><clipPath id="clip-0"><path d="M 0 0 L 1440 0 L 1440 67.496094 L 0 67.496094 Z M 0 0 " clip-rule="nonzero"/></clipPath></defs><g clip-path="url(#clip-0)"><path fill="rgb(100%, 100%, 100%)" d="M -24.800781 55.058594 C -24.800781 61.953125 -19.109375 67.519531 -12.210938 67.320312 C 99.484375 64.121094 103.679688 18.433594 223.46875 18.433594 C 347.601562 18.433594 347.601562 67.496094 471.738281 67.496094 C 595.875 67.496094 595.875 18.433594 720.007812 18.433594 C 844.140625 18.433594 844.140625 67.496094 968.269531 67.496094 C 1092.402344 67.496094 1092.402344 18.433594 1216.53125 18.433594 C 1336.320312 18.433594 1340.511719 64.121094 1452.203125 67.320312 C 1459.105469 67.519531 1464.796875 61.953125 1464.796875 55.058594 L 1464.796875 -173.738281 C 1464.796875 -180.511719 1459.300781 -186.003906 1452.519531 -186.003906 L -12.523438 -186.003906 C -19.304688 -186.003906 -24.800781 -180.511719 -24.800781 -173.738281 Z M -24.800781 55.058594 " fill-opacity="1" fill-rule="nonzero"/></g></svg>