<?xml version="1.0" encoding="UTF-8"?><svg xmlns="http://www.w3.org/2000/svg" xmlns:xlink="http://www.w3.org/1999/xlink" contentScriptType="text/ecmascript" width="1440" zoomAndPan="magnify" contentStyleType="text/css" viewBox="0 0 1440 809.999993" height="809.999993" preserveAspectRatio="xMidYMid meet" version="1.0"><defs><clipPath id="clip-0"><path d="M 0 565.199219 L 1440 565.199219 L 1440 810 L 0 810 Z M 0 565.199219 " clip-rule="nonzero"/></clipPath></defs><g clip-path="url(#clip-0)"><path fill="rgb(100%, 100%, 100%)" d="M 1463.34375 577.675781 C 1463.34375 570.757812 1457.648438 565.179688 1450.738281 565.375 C 1338.933594 568.585938 1334.738281 614.410156 1214.832031 614.410156 C 1090.574219 614.410156 1090.574219 565.199219 966.316406 565.199219 C 842.058594 565.199219 842.058594 614.410156 717.804688 614.410156 C 593.546875 614.410156 593.546875 565.199219 469.292969 565.199219 C 345.042969 565.199219 345.042969 614.410156 220.789062 614.410156 C 100.886719 614.410156 96.6875 568.585938 -15.113281 565.375 C -22.023438 565.179688 -27.71875 570.757812 -27.71875 577.675781 L -27.71875 807.148438 C -27.71875 813.941406 -22.214844 819.449219 -15.429688 819.449219 L 1451.054688 819.449219 C 1457.839844 819.449219 1463.34375 813.941406 1463.34375 807.148438 Z M 1463.34375 577.675781 " fill-opacity="1" fill-rule="nonzero"/></g></svg>