<?xml version="1.0" encoding="UTF-8"?><svg xmlns="http://www.w3.org/2000/svg" xmlns:xlink="http://www.w3.org/1999/xlink" contentScriptType="text/ecmascript" width="1440" zoomAndPan="magnify" contentStyleType="text/css" viewBox="0 0 1440 74.999997" height="74.999997" preserveAspectRatio="xMidYMid meet" version="1.0"><defs><clipPath id="clip-0"><path d="M 0 7.5 L 1440 7.5 L 1440 75 L 0 75 Z M 0 7.5 " clip-rule="nonzero"/></clipPath></defs><g clip-path="url(#clip-0)"><path fill="rgb(100%, 100%, 100%)" d="M 1452.726562 19.71875 C 1452.726562 12.945312 1447.140625 7.480469 1440.367188 7.671875 C 1330.75 10.816406 1326.636719 55.695312 1209.078125 55.695312 C 1087.253906 55.695312 1087.253906 7.5 965.429688 7.5 C 843.605469 7.5 843.605469 55.695312 721.78125 55.695312 C 599.960938 55.695312 599.960938 7.5 478.140625 7.5 C 356.320312 7.5 356.320312 55.695312 234.5 55.695312 C 116.941406 55.695312 112.828125 10.816406 3.214844 7.671875 C -3.558594 7.480469 -9.144531 12.945312 -9.144531 19.71875 L -9.144531 244.453125 C -9.144531 251.105469 -3.75 256.5 2.90625 256.5 L 1440.675781 256.5 C 1447.332031 256.5 1452.726562 251.105469 1452.726562 244.453125 Z M 1452.726562 19.71875 " fill-opacity="1" fill-rule="nonzero"/></g></svg>