<svg xmlns="http://www.w3.org/2000/svg" xmlns:xlink="http://www.w3.org/1999/xlink" width="50.093" height="50.093" viewBox="0 0 50.093 50.093"><defs><style>.a{fill:url(#a);}.b{fill:#869dff;}</style><linearGradient id="a" x1="0.5" x2="0.5" y2="1" gradientUnits="objectBoundingBox"><stop offset="0" stop-color="#5a7aff"/><stop offset="1" stop-color="#4b6cf9"/></linearGradient></defs><path class="a" d="M158.418,242.991l-10.273-2.935a1.489,1.489,0,0,0-.808,0l-10.273,2.935A1.471,1.471,0,0,0,136,244.4v7.122a15.69,15.69,0,0,0,11.339,15.031,1.471,1.471,0,0,0,.8,0,15.69,15.69,0,0,0,11.339-15.031V244.4A1.471,1.471,0,0,0,158.418,242.991Zm-5.237,8.515-5.87,5.87a1.467,1.467,0,0,1-2.075,0l-2.935-2.935a1.467,1.467,0,0,1,2.075-2.075l1.9,1.9,4.833-4.833a1.467,1.467,0,1,1,2.075,2.075Z" transform="translate(-122.694 -216.518)"/><path class="b" d="M39.722,8.805a10.191,10.191,0,0,0-2.141.225,13.214,13.214,0,0,0-25.069,0,10.191,10.191,0,0,0-2.141-.225A10.37,10.37,0,0,0,0,19.078,10.37,10.37,0,0,0,10.371,29.352V27.884a4.424,4.424,0,0,1,3.187-4.232l10.279-2.937a4.416,4.416,0,0,1,2.411,0L36.529,23.65a4.425,4.425,0,0,1,3.193,4.234v1.468A10.37,10.37,0,0,0,50.093,19.078,10.37,10.37,0,0,0,39.722,8.805Z"/></svg>