<svg xmlns="http://www.w3.org/2000/svg" xmlns:xlink="http://www.w3.org/1999/xlink" width="53.697" height="50.045" viewBox="0 0 53.697 50.045"><defs><style>.a{fill:#869dff;}.b,.d{fill:#fff;}.b{opacity:0.4;}.c{fill:url(#a);}</style><linearGradient id="a" x1="0.211" y1="0.171" x2="0.935" y2="0.862" gradientUnits="objectBoundingBox"><stop offset="0" stop-color="#5a7aff"/><stop offset="1" stop-color="#4b6cf9"/></linearGradient></defs><g transform="translate(-6.166 -1.953)"><path class="a" d="M82.219,304.133h36.931a2.4,2.4,0,0,1,2.172,2.58v5.16a2.4,2.4,0,0,1-2.172,2.58H82.219a2.4,2.4,0,0,1-2.172-2.58v-5.16A2.4,2.4,0,0,1,82.219,304.133Z" transform="translate(-67.673 -262.455)"/><path class="b" d="M124.171,330.305H103.533a1.086,1.086,0,1,1,0-2.172h20.638a1.086,1.086,0,0,1,0,2.172Z" transform="translate(-87.032 -282.155)"/><path class="c" d="M45.751,11.269A12.945,12.945,0,0,0,41.666,4.6,12.71,12.71,0,0,0,33.349,1.5a12.582,12.582,0,0,0-6.411,1.731A11.123,11.123,0,0,0,19.385.277,11.258,11.258,0,0,0,8.192,11.2a11.215,11.215,0,0,0-5.434,3.464A11.312,11.312,0,0,0,11.2,33.375H42.5a11.309,11.309,0,0,0,3.254-22.106Z" transform="translate(6.166 1.676)"/><path class="a" d="M82.219,208.133h36.931a2.4,2.4,0,0,1,2.172,2.58v5.16a2.4,2.4,0,0,1-2.172,2.58H82.219a2.4,2.4,0,0,1-2.172-2.58v-5.16A2.4,2.4,0,0,1,82.219,208.133Z" transform="translate(-67.673 -179.355)"/><path class="b" d="M122.57,234.305H101.932a1.086,1.086,0,1,1,0-2.172H122.57a1.086,1.086,0,1,1,0,2.172Z" transform="translate(-85.648 -199.055)"/><path class="d" d="M144.5,99.711l-3.259-3.259a1.086,1.086,0,0,0-1.536,0l-3.259,3.259a1.086,1.086,0,0,0,1.536,1.536l1.4-1.4V107a1.086,1.086,0,1,0,2.172,0V99.843l1.4,1.4a1.086,1.086,0,0,0,1.536-1.536Z" transform="translate(-116.155 -82.809)"/><path class="d" d="M272.5,102.969a1.086,1.086,0,0,0-1.536,0l-1.4,1.4V97.219a1.086,1.086,0,0,0-2.172,0v7.154l-1.4-1.4a1.086,1.086,0,0,0-1.536,1.536l3.259,3.259a1.086,1.086,0,0,0,1.536,0L272.5,104.5A1.086,1.086,0,0,0,272.5,102.969Z" transform="translate(-226.776 -82.807)"/></g></svg>