<svg xmlns="http://www.w3.org/2000/svg" width="38.674" height="48.988" viewBox="0 0 38.674 48.988"><defs><style>.a{fill:#869dff;}.b{fill:#4e6ffa;}.c{fill:#5172fb;}.d{fill:#4c6df9;}.e{fill:#d1daff;}</style></defs><g transform="translate(-53.898)"><path class="a" d="M113.564,116.4h-30.5a1.435,1.435,0,0,0-1.435,1.435v6.353a1.435,1.435,0,0,0,1.435,1.435h30.5A1.435,1.435,0,0,0,115,124.188v-6.353A1.435,1.435,0,0,0,113.564,116.4Z" transform="translate(-25.081 -105.263)"/><path class="a" d="M113.564,299.218h-30.5a1.435,1.435,0,0,0-1.435,1.435v6.353a1.435,1.435,0,0,0,1.435,1.435h30.5A1.435,1.435,0,0,0,115,307.006v-6.353A1.435,1.435,0,0,0,113.564,299.218Z" transform="translate(-25.081 -270.589)"/><path class="b" d="M91.137,365.6h-35.8a1.435,1.435,0,0,0-1.435,1.435v11.137a1.435,1.435,0,0,0,1.435,1.435h35.8a1.435,1.435,0,0,0,1.435-1.435V367.035A1.435,1.435,0,0,0,91.137,365.6Z" transform="translate(0 -330.62)"/><path class="c" d="M91.137,182.8h-35.8a1.435,1.435,0,0,0-1.435,1.435v11.137a1.435,1.435,0,0,0,1.435,1.435h35.8a1.435,1.435,0,0,0,1.435-1.435V184.235A1.435,1.435,0,0,0,91.137,182.8Z" transform="translate(0 -165.31)"/><path class="d" d="M91.137,0h-35.8A1.435,1.435,0,0,0,53.9,1.435V12.572a1.435,1.435,0,0,0,1.435,1.435h35.8a1.435,1.435,0,0,0,1.435-1.435V1.435A1.435,1.435,0,0,0,91.137,0Z" transform="translate(0 0)"/><g transform="translate(83.95 5.533)"><path class="e" d="M369.463,60.766a1.471,1.471,0,1,0-1.471-1.471A1.488,1.488,0,0,0,369.463,60.766Z" transform="translate(-367.991 -57.824)"/></g><g transform="translate(77.856 5.533)"><path class="e" d="M305.773,60.766A1.471,1.471,0,1,0,304.3,59.3,1.488,1.488,0,0,0,305.773,60.766Z" transform="translate(-304.301 -57.824)"/></g><g transform="translate(83.95 23.023)"><path class="e" d="M369.463,243.566a1.471,1.471,0,1,0-1.471-1.471A1.488,1.488,0,0,0,369.463,243.566Z" transform="translate(-367.991 -240.624)"/></g><g transform="translate(77.856 23.023)"><path class="e" d="M305.773,243.566A1.471,1.471,0,1,0,304.3,242.1,1.488,1.488,0,0,0,305.773,243.566Z" transform="translate(-304.301 -240.624)"/></g><g transform="translate(83.95 40.513)"><path class="e" d="M369.463,426.366a1.471,1.471,0,1,0-1.471-1.471A1.488,1.488,0,0,0,369.463,426.366Z" transform="translate(-367.991 -423.424)"/></g><g transform="translate(77.856 40.513)"><path class="e" d="M305.773,426.366A1.471,1.471,0,1,0,304.3,424.9,1.488,1.488,0,0,0,305.773,426.366Z" transform="translate(-304.301 -423.424)"/></g><g transform="translate(59.744 5.569)"><path class="a" d="M119.857,61.07h-3.425a1.435,1.435,0,0,1,0-2.87h3.425a1.435,1.435,0,1,1,0,2.87Z" transform="translate(-114.996 -58.2)"/><path class="a" d="M119.857,243.87h-3.425a1.435,1.435,0,1,1,0-2.87h3.425a1.435,1.435,0,1,1,0,2.87Z" transform="translate(-114.996 -223.51)"/><path class="a" d="M119.857,426.67h-3.425a1.435,1.435,0,0,1,0-2.87h3.425a1.435,1.435,0,0,1,0,2.87Z" transform="translate(-114.996 -388.82)"/></g></g></svg>