<?xml version="1.0" encoding="UTF-8"?><svg xmlns="http://www.w3.org/2000/svg" xmlns:xlink="http://www.w3.org/1999/xlink" width="33" zoomAndPan="magnify" viewBox="0 0 33 39.749999" height="52.963" preserveAspectRatio="xMidYMid meet" version="1.0"><defs><clipPath id="clip-0"><path d="M 0.101562 0 L 32.894531 0 L 32.894531 39.5 L 0.101562 39.5 Z M 0.101562 0 " clip-rule="nonzero"/></clipPath><clipPath id="clip-1"><path d="M 2.117188 4.222656 L 31.929688 4.222656 L 31.929688 33.9375 L 2.117188 33.9375 Z M 2.117188 4.222656 " clip-rule="nonzero"/></clipPath></defs><g clip-path="url(#clip-0)"><path fill="rgb(100%, 100%, 100%)" d="M 0.101562 0 L 32.898438 0 L 32.898438 39.5 L 0.101562 39.5 Z M 0.101562 0 " fill-opacity="1" fill-rule="nonzero"/><path fill="rgb(100%, 100%, 100%)" d="M 0.101562 0 L 32.898438 0 L 32.898438 39.5 L 0.101562 39.5 Z M 0.101562 0 " fill-opacity="1" fill-rule="nonzero"/></g><path fill="rgb(29.798889%, 42.749023%, 97.648621%)" d="M 23.203125 20.039062 C 22.675781 20.039062 22.246094 20.46875 22.246094 20.996094 C 22.246094 21.523438 22.675781 21.957031 23.203125 21.957031 C 23.734375 21.957031 24.164062 21.523438 24.164062 20.996094 C 24.164062 20.46875 23.734375 20.039062 23.203125 20.039062 Z M 23.203125 24.351562 C 21.355469 24.351562 19.847656 22.847656 19.847656 20.996094 C 19.847656 19.148438 21.355469 17.640625 23.203125 17.640625 C 25.054688 17.640625 26.558594 19.148438 26.558594 20.996094 C 26.558594 22.847656 25.054688 24.351562 23.203125 24.351562 " fill-opacity="1" fill-rule="nonzero"/><path fill="rgb(29.798889%, 42.749023%, 97.648621%)" d="M 10.742188 14.765625 L 4.03125 14.765625 L 4.03125 11.890625 L 10.742188 11.890625 L 10.742188 14.765625 " fill-opacity="1" fill-rule="nonzero"/><path fill="rgb(29.798889%, 42.749023%, 97.648621%)" d="M 23.203125 20.519531 C 23.46875 20.519531 23.683594 20.734375 23.683594 20.996094 C 23.683594 21.261719 23.46875 21.476562 23.203125 21.476562 C 22.941406 21.476562 22.726562 21.261719 22.726562 20.996094 C 22.726562 20.734375 22.941406 20.519531 23.203125 20.519531 Z M 23.203125 22.433594 C 24 22.433594 24.644531 21.792969 24.644531 20.996094 C 24.644531 20.203125 24 19.558594 23.203125 19.558594 C 22.410156 19.558594 21.765625 20.203125 21.765625 20.996094 C 21.765625 21.792969 22.410156 22.433594 23.203125 22.433594 " fill-opacity="1" fill-rule="nonzero"/><g clip-path="url(#clip-1)"><path fill="rgb(29.798889%, 42.749023%, 97.648621%)" d="M 24.921875 32.34375 L 24.582031 32.765625 C 24.445312 31.972656 24.066406 31.246094 23.484375 30.664062 L 22.59375 29.773438 L 21.59375 31.773438 C 20.910156 31.25 20.65625 30.335938 20.976562 29.535156 L 21.132812 29.144531 L 25.277344 29.144531 L 25.363281 29.363281 C 25.761719 30.359375 25.59375 31.503906 24.921875 32.34375 Z M 15.972656 25.570312 L 18.144531 23.761719 C 18.371094 24.972656 18.78125 26.140625 19.375 27.226562 L 15.640625 27.226562 Z M 14.855469 26.269531 L 3.554688 26.269531 C 3.289062 26.269531 3.074219 26.054688 3.074219 25.789062 L 3.074219 10.933594 L 27.519531 10.933594 L 27.519531 16.914062 C 27.234375 16.246094 26.894531 15.597656 26.484375 14.988281 L 25.09375 12.902344 C 24.671875 12.269531 23.964844 11.890625 23.203125 11.890625 C 22.441406 11.890625 21.738281 12.269531 21.316406 12.902344 L 19.925781 14.988281 C 18.621094 16.945312 17.933594 19.21875 17.933594 21.566406 C 17.933594 21.925781 17.953125 22.289062 17.988281 22.644531 L 15.101562 25.050781 Z M 3.554688 5.179688 L 27.039062 5.179688 C 27.304688 5.179688 27.519531 5.394531 27.519531 5.660156 L 27.519531 9.972656 L 3.074219 9.972656 L 3.074219 5.660156 C 3.074219 5.394531 3.289062 5.179688 3.554688 5.179688 Z M 30.4375 25.570312 L 30.769531 27.226562 L 27.035156 27.226562 C 27.628906 26.140625 28.039062 24.972656 28.265625 23.761719 Z M 20.597656 15.726562 C 20.640625 15.65625 20.675781 15.585938 20.722656 15.519531 L 22.113281 13.433594 C 22.355469 13.066406 22.765625 12.847656 23.203125 12.847656 C 23.644531 12.847656 24.054688 13.066406 24.296875 13.433594 L 25.6875 15.519531 C 25.730469 15.585938 25.769531 15.65625 25.8125 15.726562 Z M 20.050781 16.683594 L 26.359375 16.683594 C 27.117188 18.195312 27.519531 19.859375 27.519531 21.566406 C 27.519531 22.851562 27.292969 24.117188 26.855469 25.3125 L 19.554688 25.3125 C 19.117188 24.117188 18.890625 22.851562 18.890625 21.566406 C 18.890625 19.859375 19.292969 18.195312 20.050781 16.683594 Z M 21.074219 28.1875 L 20.546875 27.347656 C 20.332031 26.996094 20.140625 26.636719 19.964844 26.269531 L 26.445312 26.269531 C 26.269531 26.636719 26.078125 26.996094 25.863281 27.347656 L 25.335938 28.1875 Z M 26.136719 28.710938 L 26.464844 28.1875 L 31.9375 28.1875 L 31.308594 25.050781 L 28.421875 22.644531 C 28.453125 22.289062 28.476562 21.925781 28.476562 21.566406 C 28.476562 21.535156 28.472656 21.507812 28.472656 21.476562 L 28.476562 21.476562 L 28.476562 5.660156 C 28.476562 4.867188 27.832031 4.222656 27.039062 4.222656 L 3.554688 4.222656 C 2.757812 4.222656 2.117188 4.867188 2.117188 5.660156 L 2.117188 25.789062 C 2.117188 26.585938 2.757812 27.226562 3.554688 27.226562 L 14.664062 27.226562 L 14.472656 28.1875 L 19.941406 28.1875 L 20.273438 28.710938 L 20.085938 29.179688 C 19.605469 30.382812 19.992188 31.769531 21.03125 32.546875 L 21.9375 33.230469 L 22.855469 31.394531 C 23.390625 31.953125 23.683594 32.683594 23.683594 33.460938 L 23.683594 33.9375 L 24.871094 33.9375 L 25.671875 32.941406 C 26.558594 31.832031 26.78125 30.324219 26.253906 29.007812 L 26.136719 28.710938 " fill-opacity="1" fill-rule="nonzero"/></g><path fill="rgb(29.798889%, 42.749023%, 97.648621%)" d="M 5.949219 8.054688 L 4.992188 8.054688 L 4.992188 7.097656 L 5.949219 7.097656 Z M 6.910156 6.140625 L 4.03125 6.140625 L 4.03125 9.015625 L 6.910156 9.015625 L 6.910156 6.140625 " fill-opacity="1" fill-rule="nonzero"/><path fill="rgb(29.798889%, 42.749023%, 97.648621%)" d="M 9.785156 8.054688 L 8.824219 8.054688 L 8.824219 7.097656 L 9.785156 7.097656 Z M 10.742188 6.140625 L 7.867188 6.140625 L 7.867188 9.015625 L 10.742188 9.015625 L 10.742188 6.140625 " fill-opacity="1" fill-rule="nonzero"/><path fill="rgb(29.798889%, 42.749023%, 97.648621%)" d="M 13.617188 8.054688 L 12.660156 8.054688 L 12.660156 7.097656 L 13.617188 7.097656 Z M 14.578125 6.140625 L 11.703125 6.140625 L 11.703125 9.015625 L 14.578125 9.015625 L 14.578125 6.140625 " fill-opacity="1" fill-rule="nonzero"/><path fill="rgb(29.798889%, 42.749023%, 97.648621%)" d="M 5.949219 18.601562 L 6.910156 18.601562 L 6.910156 21.476562 L 5.949219 21.476562 Z M 9.785156 16.683594 L 10.742188 16.683594 L 10.742188 21.476562 L 9.785156 21.476562 Z M 13.617188 12.847656 L 14.578125 12.847656 L 14.578125 21.476562 L 13.617188 21.476562 Z M 15.535156 11.890625 L 12.660156 11.890625 L 12.660156 21.476562 L 11.703125 21.476562 L 11.703125 15.726562 L 8.824219 15.726562 L 8.824219 21.476562 L 7.867188 21.476562 L 7.867188 17.640625 L 4.992188 17.640625 L 4.992188 21.476562 L 4.03125 21.476562 L 4.03125 22.433594 L 16.496094 22.433594 L 16.496094 21.476562 L 15.535156 21.476562 L 15.535156 11.890625 " fill-opacity="1" fill-rule="nonzero"/><path fill="rgb(29.798889%, 42.749023%, 97.648621%)" d="M 4.992188 11.890625 L 4.03125 11.890625 L 4.03125 12.847656 L 4.992188 12.847656 L 4.992188 11.890625 " fill-opacity="1" fill-rule="nonzero"/><path fill="rgb(29.798889%, 42.749023%, 97.648621%)" d="M 10.742188 11.890625 L 5.949219 11.890625 L 5.949219 12.847656 L 10.742188 12.847656 L 10.742188 11.890625 " fill-opacity="1" fill-rule="nonzero"/><path fill="rgb(29.798889%, 42.749023%, 97.648621%)" d="M 4.992188 13.808594 L 4.03125 13.808594 L 4.03125 14.765625 L 4.992188 14.765625 L 4.992188 13.808594 " fill-opacity="1" fill-rule="nonzero"/><path fill="rgb(29.798889%, 42.749023%, 97.648621%)" d="M 10.742188 13.808594 L 5.949219 13.808594 L 5.949219 14.765625 L 10.742188 14.765625 L 10.742188 13.808594 " fill-opacity="1" fill-rule="nonzero"/></svg>