<svg xmlns="http://www.w3.org/2000/svg" xmlns:xlink="http://www.w3.org/1999/xlink" width="43.988" height="52.963" viewBox="0 0 43.988 52.963"><defs><style>.a{fill:#4c6df9;}.b{fill:url(#a);}.c{fill:url(#b);}.d{fill:#869dff;}.e{fill:#fff;}</style><linearGradient id="a" x1="0.017" y1="-0.749" x2="1" y2="1.449" gradientUnits="objectBoundingBox"><stop offset="0" stop-color="#5a7aff"/><stop offset="1" stop-color="#4b6cf9"/></linearGradient><linearGradient id="b" x1="0.016" y1="-1.362" x2="0.93" y2="0.841" xlink:href="#a"/></defs><g transform="translate(0)"><path class="a" d="M15.2,74.582c8.4,0,15.2-2.647,15.2-5.912V56c0,3.265-6.807,5.912-15.2,5.912S0,59.265,0,56V68.669C0,71.935,6.807,74.582,15.2,74.582Zm0,0" transform="translate(0 -50.088)"/><path class="b" d="M15.2,181.912c-8.4,0-15.2-2.647-15.2-5.912v11.825c0,3.265,6.807,5.912,15.2,5.912s15.2-2.647,15.2-5.912V176C30.406,179.265,23.6,181.912,15.2,181.912Zm0,0" transform="translate(0 -157.418)"/><path class="c" d="M15.2,293.912c-8.4,0-15.2-2.647-15.2-5.912v12.669c0,3.265,6.807,5.912,15.2,5.912s15.2-2.647,15.2-5.912V288C30.406,291.265,23.6,293.912,15.2,293.912Zm0,0" transform="translate(0 -257.594)"/><path class="d" d="M30.406,5.912C30.406,2.647,23.6,0,15.2,0S0,2.647,0,5.912s6.807,5.912,15.2,5.912S30.406,9.178,30.406,5.912Zm0,0" transform="translate(0)"/><path class="d" d="M30.406,48.845c0,3.269-6.808,5.912-15.2,5.912S0,52.113,0,48.845A2.27,2.27,0,0,1,.16,48C1.2,50.863,7.543,53.068,15.2,53.068s14-2.2,15.043-5.068A2.27,2.27,0,0,1,30.406,48.845Zm0,0" transform="translate(0 -42.932)"/><path class="d" d="M439.154,427.577A11.577,11.577,0,1,1,427.577,416,11.577,11.577,0,0,1,439.154,427.577Zm0,0" transform="translate(-395.166 -386.191)"/><path class="d" d="M30.406,160v1.689c0,3.269-6.808,5.912-15.2,5.912S0,164.958,0,161.689V160c0,3.269,6.808,5.912,15.2,5.912S30.406,163.269,30.406,160Zm0,0" transform="translate(0 -143.108)"/><path class="d" d="M30.406,272v1.689c0,3.269-6.808,5.912-15.2,5.912S0,276.958,0,273.689V272c0,3.269,6.808,5.912,15.2,5.912S30.406,275.269,30.406,272Zm0,0" transform="translate(0 -243.283)"/><path class="d" d="M30.406,392v1.689c0,3.269-6.808,5.912-15.2,5.912S0,396.958,0,393.689V392c0,3.269,6.808,5.912,15.2,5.912S30.406,395.269,30.406,392Zm0,0" transform="translate(0 -350.614)"/><g transform="translate(24.609 31.722)"><path class="e" d="M15.282,9.665a6.421,6.421,0,0,1-6.415,6.415,1.132,1.132,0,1,1,0-2.264,4.151,4.151,0,1,0-4.133-4.5l.691-.691a1.132,1.132,0,0,1,1.6,1.6L4.479,12.776a1.131,1.131,0,0,1-1.6,0L.332,10.229a1.132,1.132,0,0,1,1.6-1.6l.545.545a6.411,6.411,0,0,1,12.8.491Z"/></g></g></svg>