<svg xmlns="http://www.w3.org/2000/svg" xmlns:xlink="http://www.w3.org/1999/xlink" width="50.054" height="50" viewBox="0 0 50.054 50"><defs><style>.a{fill:url(#a);}.b{fill:#869dff;}</style><linearGradient id="a" x1="0.211" y1="0.171" x2="0.935" y2="0.862" gradientUnits="objectBoundingBox"><stop offset="0" stop-color="#5a7aff"/><stop offset="1" stop-color="#4b6cf9"/></linearGradient></defs><g transform="translate(0 -0.277)"><g transform="translate(0 0.277)"><g transform="translate(0 0)"><path class="a" d="M42.647,10.523a12.067,12.067,0,0,0-3.808-6.212,11.848,11.848,0,0,0-7.753-2.9,11.729,11.729,0,0,0-5.976,1.614A10.368,10.368,0,0,0,18.07.277,10.494,10.494,0,0,0,7.636,10.456a10.454,10.454,0,0,0-5.065,3.229A10.544,10.544,0,0,0,10.44,31.129H39.614a10.542,10.542,0,0,0,3.033-20.606Z" transform="translate(0 -0.277)"/></g></g><g transform="translate(0 32.528)"><path class="b" d="M15.875,332.852v2.815H10.64a5.423,5.423,0,1,0,0,2.958h6.714a1.479,1.479,0,0,0,1.479-1.479v-4.294Z" transform="translate(0 -331.723)"/></g><g transform="translate(19.604 33.657)"><path class="b" d="M207.9,349.15v-5.98h-2.958v5.98a5.423,5.423,0,1,0,2.958,0Z" transform="translate(-201 -343.17)"/></g><g transform="translate(31.221 32.528)"><path class="b" d="M334.41,331.723a5.432,5.432,0,0,0-5.216,3.944h-5.236v-2.815H321v4.294a1.479,1.479,0,0,0,1.479,1.479h6.714a5.423,5.423,0,1,0,5.217-6.9Z" transform="translate(-321 -331.723)"/></g></g></svg>