<svg xmlns="http://www.w3.org/2000/svg" xmlns:xlink="http://www.w3.org/1999/xlink" width="38.213" height="50.951" viewBox="0 0 38.213 50.951"><defs><style>.a{fill:#869dff;}.b{fill:url(#a);}</style><linearGradient id="a" x1="0.5" x2="0.5" y2="1" gradientUnits="objectBoundingBox"><stop offset="0" stop-color="#5a7aff"/><stop offset="1" stop-color="#4b6cf9"/></linearGradient></defs><g transform="translate(-3)"><path class="a" d="M29.883,22.291A1.593,1.593,0,0,1,28.291,20.7V12.738a9.553,9.553,0,0,0-19.107,0V20.7A1.592,1.592,0,1,1,6,20.7V12.738a12.738,12.738,0,0,1,25.476,0V20.7A1.593,1.593,0,0,1,29.883,22.291Z" transform="translate(3.369)"/><path class="b" d="M36.437,40.844H7.777A4.781,4.781,0,0,1,3,36.068V13.777A4.781,4.781,0,0,1,7.777,9h28.66a4.781,4.781,0,0,1,4.777,4.777V36.068A4.781,4.781,0,0,1,36.437,40.844Z" transform="translate(0 10.107)"/><g transform="translate(8.307 26.552)"><path class="a" d="M12.093,29.982a1.592,1.592,0,0,1-1.554-1.949l3.184-13.8a1.592,1.592,0,1,1,3.1.713l-3.184,13.8a1.588,1.588,0,0,1-1.55,1.236Z" transform="translate(0.114 -13.002)"/><path class="a" d="M16.093,26.738a1.592,1.592,0,0,1-1.066-2.777l3.993-3.592-3.993-3.592a1.593,1.593,0,1,1,2.131-2.369l5.307,4.777a1.6,1.6,0,0,1,0,2.369l-5.307,4.777a1.59,1.59,0,0,1-1.066.408Z" transform="translate(4.607 -11.881)"/><path class="a" d="M12.4,26.737a1.59,1.59,0,0,1-1.066-.408L6.026,21.553a1.6,1.6,0,0,1,0-2.369l5.307-4.777a1.593,1.593,0,1,1,2.131,2.369L9.472,20.368l3.993,3.592A1.592,1.592,0,0,1,12.4,26.737Z" transform="translate(-5.5 -11.88)"/></g></g></svg>