<svg xmlns="http://www.w3.org/2000/svg" xmlns:xlink="http://www.w3.org/1999/xlink" width="48.988" height="48.988" viewBox="0 0 48.988 48.988"><defs><style>.a{fill:#869dff;}.b{fill:#4c6df9;}.c{fill:url(#a);}.d{fill:url(#b);}</style><linearGradient id="a" x1="0.017" y1="-0.749" x2="1" y2="1.449" gradientUnits="objectBoundingBox"><stop offset="0" stop-color="#5a7aff"/><stop offset="1" stop-color="#4b6cf9"/></linearGradient><linearGradient id="b" x1="0.016" y1="-1.362" x2="0.93" y2="0.841" xlink:href="#a"/></defs><g transform="translate(0)"><g transform="translate(30.406 2.534)"><path class="a" d="M302.359,362.135h-5.912a2.534,2.534,0,0,1-2.534-2.534v-5.068a.845.845,0,0,0-.845-.845H288V352h5.068a2.534,2.534,0,0,1,2.534,2.534V359.6a.845.845,0,0,0,.845.845h5.912Zm0,0" transform="translate(-288 -317.371)"/><path class="a" d="M293.068,36.669H288V34.98h5.068a.845.845,0,0,0,.845-.845v-7.6A2.534,2.534,0,0,1,296.446,24h5.912v1.689h-5.912a.845.845,0,0,0-.845.845v7.6A2.534,2.534,0,0,1,293.068,36.669Zm0,0" transform="translate(-288 -24)"/><path class="a" d="M288,224h14.359v1.689H288Zm0,0" transform="translate(-288 -202.885)"/></g><path class="b" d="M15.2,74.582c8.4,0,15.2-2.647,15.2-5.912V56c0,3.265-6.807,5.912-15.2,5.912S0,59.265,0,56V68.669C0,71.935,6.807,74.582,15.2,74.582Zm0,0" transform="translate(0 -50.088)"/><path class="c" d="M15.2,181.912c-8.4,0-15.2-2.647-15.2-5.912v11.825c0,3.265,6.807,5.912,15.2,5.912s15.2-2.647,15.2-5.912V176C30.406,179.265,23.6,181.912,15.2,181.912Zm0,0" transform="translate(0 -157.418)"/><path class="d" d="M15.2,293.912c-8.4,0-15.2-2.647-15.2-5.912v12.669c0,3.265,6.807,5.912,15.2,5.912s15.2-2.647,15.2-5.912V288C30.406,291.265,23.6,293.912,15.2,293.912Zm0,0" transform="translate(0 -257.594)"/><path class="a" d="M30.406,5.912C30.406,2.647,23.6,0,15.2,0S0,2.647,0,5.912s6.807,5.912,15.2,5.912S30.406,9.178,30.406,5.912Zm0,0" transform="translate(0)"/><path class="a" d="M30.406,48.845c0,3.269-6.808,5.912-15.2,5.912S0,52.113,0,48.845A2.27,2.27,0,0,1,.16,48C1.2,50.863,7.543,53.068,15.2,53.068s14-2.2,15.043-5.068A2.27,2.27,0,0,1,30.406,48.845Zm0,0" transform="translate(0 -42.932)"/><path class="a" d="M421.068,210.534A2.534,2.534,0,1,1,418.534,208,2.534,2.534,0,0,1,421.068,210.534Zm0,0" transform="translate(-372.08 -186.04)"/><path class="a" d="M421.068,418.534A2.534,2.534,0,1,1,418.534,416,2.534,2.534,0,0,1,421.068,418.534Zm0,0" transform="translate(-372.08 -372.08)"/><path class="a" d="M421.068,10.534A2.534,2.534,0,1,1,418.534,8,2.534,2.534,0,0,1,421.068,10.534Zm0,0" transform="translate(-372.08 -7.155)"/><path class="a" d="M30.406,160v1.689c0,3.269-6.808,5.912-15.2,5.912S0,164.958,0,161.689V160c0,3.269,6.808,5.912,15.2,5.912S30.406,163.269,30.406,160Zm0,0" transform="translate(0 -143.108)"/><path class="a" d="M30.406,272v1.689c0,3.269-6.808,5.912-15.2,5.912S0,276.958,0,273.689V272c0,3.269,6.808,5.912,15.2,5.912S30.406,275.269,30.406,272Zm0,0" transform="translate(0 -243.283)"/><path class="a" d="M30.406,392v1.689c0,3.269-6.808,5.912-15.2,5.912S0,396.958,0,393.689V392c0,3.269,6.808,5.912,15.2,5.912S30.406,395.269,30.406,392Zm0,0" transform="translate(0 -350.614)"/></g></svg>