<svg xmlns="http://www.w3.org/2000/svg" xmlns:xlink="http://www.w3.org/1999/xlink" width="58.945" height="47.8" viewBox="0 0 58.945 47.8"><defs><style>.a{fill:#869dff;}.b{fill:url(#a);}</style><linearGradient id="a" x1="0.5" x2="0.5" y2="1" gradientUnits="objectBoundingBox"><stop offset="0" stop-color="#5a7aff"/><stop offset="1" stop-color="#4b6cf9"/></linearGradient></defs><g transform="translate(0 -48.403)"><g transform="translate(0 48.403)"><g transform="translate(0 0)"><path class="a" d="M46.468,52.7h-30.4A1.705,1.705,0,0,1,14.359,51v-.853A1.739,1.739,0,0,0,12.62,48.4H3.478A3.478,3.478,0,0,0,0,51.881V81.142L4.462,59.434a1.705,1.705,0,0,1,1.671-1.362H49.946V56.178A3.478,3.478,0,0,0,46.468,52.7Z" transform="translate(0 -48.403)"/></g></g><g transform="translate(0.777 61.482)"><g transform="translate(0 0)"><path class="b" d="M61.436,162.01H13.492l-6.71,32.646a1.727,1.727,0,0,0,1.692,2.075H58.364a3.478,3.478,0,0,0,3.456-3.1l3.072-27.766A3.478,3.478,0,0,0,61.436,162.01Z" transform="translate(-6.746 -162.01)"/></g></g></g></svg>