<svg xmlns="http://www.w3.org/2000/svg" width="51" height="51" viewBox="0 0 51 51"><defs><style>.a{fill:#4c6df9;}.b{fill:#869dff;}</style></defs><g transform="translate(0 0)"><g transform="translate(0 0)"><path class="a" d="M27.148,10.327l-2.833-.313,1.776-2.221a1.487,1.487,0,0,0-.115-1.986L22.6,2.457a1.5,1.5,0,0,0-2-.105L18.421,4.1l-.309-2.772A1.5,1.5,0,0,0,16.624,0H11.858a1.494,1.494,0,0,0-1.489,1.327L10.054,4.15,7.825,2.38a1.5,1.5,0,0,0-2,.114L2.467,5.858a1.489,1.489,0,0,0-.106,1.988L4.116,10.02l-2.783.307A1.494,1.494,0,0,0,0,11.81v4.747A1.5,1.5,0,0,0,1.333,18.04l2.834.313L2.391,20.574a1.486,1.486,0,0,0,.115,1.986l3.377,3.35a1.5,1.5,0,0,0,2,.105l2.183-1.748.309,2.772a1.5,1.5,0,0,0,1.489,1.327h4.766a1.5,1.5,0,0,0,1.489-1.327l.314-2.823,2.23,1.769a1.5,1.5,0,0,0,2-.114l3.362-3.365a1.487,1.487,0,0,0,.107-1.987l-1.754-2.173,2.782-.307a1.494,1.494,0,0,0,1.333-1.483V11.81a1.494,1.494,0,0,0-1.333-1.483ZM14.24,18.7a4.514,4.514,0,1,1,4.531-4.514A4.528,4.528,0,0,1,14.24,18.7Z" transform="translate(0 0)"/></g></g><g transform="translate(22.869 22.98)"><path class="b" d="M256.933,245.979l-2.41-1.307,2.4-1.324a1.49,1.49,0,0,0,.657-1.88l-1.816-4.336a1.5,1.5,0,0,0-1.8-.858l-2.682.782.766-2.677a1.492,1.492,0,0,0-.874-1.79l-4.367-1.777a1.5,1.5,0,0,0-1.882.667l-1.312,2.4-1.329-2.391a1.5,1.5,0,0,0-1.887-.654l-4.354,1.808a1.489,1.489,0,0,0-.861,1.8l.784,2.672-2.687-.763a1.5,1.5,0,0,0-1.8.87l-1.785,4.349a1.488,1.488,0,0,0,.67,1.875l2.41,1.307-2.4,1.323a1.489,1.489,0,0,0-.657,1.88l1.815,4.337a1.5,1.5,0,0,0,1.8.857l2.682-.782-.766,2.678a1.489,1.489,0,0,0,.874,1.789l4.367,1.778a1.5,1.5,0,0,0,1.882-.667l1.312-2.4,1.329,2.391a1.5,1.5,0,0,0,1.886.654l4.355-1.808a1.49,1.49,0,0,0,.861-1.8l-.785-2.672,2.688.763a1.5,1.5,0,0,0,1.8-.87l1.785-4.349A1.49,1.49,0,0,0,256.933,245.979Zm-11.551,2.868a4.486,4.486,0,1,1,2.422-5.863A4.513,4.513,0,0,1,245.382,248.847Z" transform="translate(-229.583 -230.699)"/></g><path class="b" d="M325.73,50.015a8.252,8.252,0,0,0-4.954-2.355l.175-.234a1.5,1.5,0,0,0-2.4-1.781L316.3,48.655l-.006.009a1.488,1.488,0,0,0,.149,1.936l2.456,2.446a1.495,1.495,0,1,0,2.118-2.11l-.273-.272a5.22,5.22,0,0,1,4.058,7.014,1.5,1.5,0,0,0,2.8,1.064A8.191,8.191,0,0,0,325.73,50.015Z" transform="translate(-284.528 -40.557)"/><path class="a" d="M90.116,320.931l-2.456-2.446a1.495,1.495,0,0,0-2.118,2.11l.273.272a5.22,5.22,0,0,1-4.058-7.014,1.5,1.5,0,0,0-2.8-1.064,8.2,8.2,0,0,0,6.826,11.081l-.175.235a1.5,1.5,0,0,0,2.4,1.781l2.247-3.009A1.49,1.49,0,0,0,90.116,320.931Z" transform="translate(-70.607 -280.767)"/></svg>