<svg xmlns="http://www.w3.org/2000/svg" xmlns:xlink="http://www.w3.org/1999/xlink" width="40.874" height="48.988" viewBox="0 0 40.874 48.988"><defs><style>.a{fill:url(#a);}.b{fill:#869dff;}</style><linearGradient id="a" x1="0.5" x2="0.5" y2="1" gradientUnits="objectBoundingBox"><stop offset="0" stop-color="#5a7aff"/><stop offset="1" stop-color="#4b6cf9"/></linearGradient></defs><g transform="translate(-42.4 0)"><g transform="translate(42.4 16.38)"><path class="a" d="M72.095,174.116a9.929,9.929,0,0,0-7.226-2.923l-4.952,4.952a1.435,1.435,0,0,0,2.03,2.03,4.306,4.306,0,1,1,6.089,6.089L55.487,196.8a4.306,4.306,0,1,1-6.089-6.089l3.476-3.466a12.016,12.016,0,0,1-1.076-.954,12.691,12.691,0,0,1-2.517-3.572l-3.943,3.933a10.046,10.046,0,1,0,14.208,14.208l12.549-12.538c2.376-2.375,5.177-9.031,0-14.208Z" transform="translate(-42.4 -171.191)"/></g><g transform="translate(50.894 0)"><path class="b" d="M154.4,17.274a12.564,12.564,0,0,1,2.517,3.572l3.7-3.7A10.046,10.046,0,0,0,146.4,2.938L134.1,15.245a10.028,10.028,0,0,0,7.226,17.13l4.952-4.952a1.435,1.435,0,0,0-2.03-2.03,4.306,4.306,0,0,1-6.089-6.089L150.464,7a4.306,4.306,0,0,1,6.089,6.089l-3.229,3.234a11.7,11.7,0,0,1,1.076.954Z" transform="translate(-131.169 0)"/></g></g></svg>