<svg xmlns="http://www.w3.org/2000/svg" xmlns:xlink="http://www.w3.org/1999/xlink" width="52.985" height="52.988" viewBox="0 0 52.985 52.988"><defs><style>.a{fill:url(#a);}.b{fill:#869dff;}</style><linearGradient id="a" x1="0.5" x2="0.5" y2="1" gradientUnits="objectBoundingBox"><stop offset="0" stop-color="#5a7aff"/><stop offset="1" stop-color="#4b6cf9"/></linearGradient></defs><g transform="translate(-1059 -587)"><path class="a" d="M29.661,48.988H11.482A11.5,11.5,0,0,1,0,37.506V11.482A11.5,11.5,0,0,1,11.482,0H37.506A11.5,11.5,0,0,1,48.988,11.482V29.8a1.914,1.914,0,1,1-3.827,0V11.482a7.663,7.663,0,0,0-7.654-7.654H11.482a7.663,7.663,0,0,0-7.654,7.654V37.506a7.663,7.663,0,0,0,7.654,7.654H29.661a1.914,1.914,0,0,1,0,3.827ZM39.42,12.056a1.914,1.914,0,0,0-1.914-1.914H20a1.914,1.914,0,0,0,0,3.827H37.506A1.914,1.914,0,0,0,39.42,12.056Zm0,9.654A1.914,1.914,0,0,0,37.506,19.8H11.482a1.914,1.914,0,1,0,0,3.827H37.506A1.914,1.914,0,0,0,39.42,21.71ZM20.284,31.364a1.914,1.914,0,0,0-1.914-1.914H11.482a1.914,1.914,0,1,0,0,3.827H18.37A1.914,1.914,0,0,0,20.284,31.364ZM9.568,11.864A2.392,2.392,0,1,0,11.96,9.472,2.392,2.392,0,0,0,9.568,11.864Z" transform="translate(1059 587)"/><path class="b" d="M45.108,45.108a6.4,6.4,0,0,0,0-9.035l-6.135-6.135A12.618,12.618,0,0,0,32.5,26.476l-4.959-.991a1.75,1.75,0,0,0-2.059,2.059l.991,4.959a12.619,12.619,0,0,0,3.462,6.469l6.135,6.135a6.388,6.388,0,0,0,9.035,0Z" transform="translate(1065.009 593.009)"/></g></svg>