<svg xmlns="http://www.w3.org/2000/svg" xmlns:xlink="http://www.w3.org/1999/xlink" width="50.045" height="50.045" viewBox="0 0 50.045 50.045"><defs><style>.a{fill:url(#a);}.b{fill:#869dff;}</style><linearGradient id="a" x1="0.5" x2="0.5" y2="1" gradientUnits="objectBoundingBox"><stop offset="0" stop-color="#5a7aff"/><stop offset="1" stop-color="#4b6cf9"/></linearGradient></defs><path class="a" d="M34.927,27.108a7.822,7.822,0,0,1-7.82-7.82v-7.3a7.825,7.825,0,0,1,4.17-6.881A9.162,9.162,0,0,1,32.884,0H5.734A5.731,5.731,0,0,0,0,5.734V44.311a5.731,5.731,0,0,0,5.734,5.734H35.97A5.731,5.731,0,0,0,41.7,44.311v-17.2ZM13.681,43.272a1.564,1.564,0,0,1-2.34,2.077l-1.958-2.2v1.166a1.564,1.564,0,1,1-3.128,0V34.927a1.564,1.564,0,0,1,3.128,0v1.166l1.958-2.2a1.564,1.564,0,0,1,2.338,2.079l-3.247,3.651Zm9.778-5.217a1.564,1.564,0,1,1,0,3.128H19.809v1.043a.521.521,0,0,0,.521.521h3.128a1.564,1.564,0,1,1,0,3.128H20.331a3.653,3.653,0,0,1-3.649-3.649V37.012a3.653,3.653,0,0,1,3.649-3.649h3.128a1.564,1.564,0,1,1,0,3.128H20.331a.521.521,0,0,0-.521.521v1.043Zm11.794-2.369-2.41,4.337v4.285a1.564,1.564,0,1,1-3.128,0V40.023L27.3,35.686a1.564,1.564,0,1,1,2.736-1.518L31.278,36.4l1.239-2.231a1.564,1.564,0,1,1,2.736,1.518Z"/><path class="b" d="M25.862,11.469h-7.3A1.564,1.564,0,0,1,17,9.9V5.213a5.213,5.213,0,0,1,10.426,0V9.9A1.564,1.564,0,0,1,25.862,11.469ZM20.128,8.341H24.3V5.213a2.085,2.085,0,0,0-4.17,0Z" transform="translate(18.448)"/><path class="b" d="M30.118,18.6H18.649A3.653,3.653,0,0,1,15,14.947v-7.3A3.653,3.653,0,0,1,18.649,4H30.118a3.653,3.653,0,0,1,3.649,3.649v7.3A3.653,3.653,0,0,1,30.118,18.6Z" transform="translate(16.278 4.341)"/></svg>