<svg xmlns="http://www.w3.org/2000/svg" xmlns:xlink="http://www.w3.org/1999/xlink" width="56" height="48.533" viewBox="0 0 56 48.533"><defs><style>.a{fill:#869dff;}.b{fill:url(#a);}</style><linearGradient id="a" x1="0.137" y1="0.228" x2="0.975" y2="0.943" gradientUnits="objectBoundingBox"><stop offset="0" stop-color="#5a7aff"/><stop offset="1" stop-color="#4b6cf9"/></linearGradient></defs><g transform="translate(0 -31)"><path class="a" d="M214.733,302.867v11.2a1.872,1.872,0,0,1-1.867,1.867A1.848,1.848,0,0,1,211,314.067v-11.2A1.848,1.848,0,0,1,212.867,301,1.872,1.872,0,0,1,214.733,302.867Z" transform="translate(-184.742 -236.4)"/><path class="a" d="M147.258,392.867a1.848,1.848,0,0,1-1.867,1.867H122.867a1.867,1.867,0,1,1,0-3.733h22.524A1.848,1.848,0,0,1,147.258,392.867Z" transform="translate(-105.942 -315.2)"/><rect class="b" width="56" height="37" rx="6" transform="translate(0 31)"/></g></svg>