<svg xmlns="http://www.w3.org/2000/svg" xmlns:xlink="http://www.w3.org/1999/xlink" width="50" height="50" viewBox="0 0 50 50"><defs><style>.a{fill:url(#a);}.b{fill:#869dff;}</style><linearGradient id="a" x1="0.5" x2="0.5" y2="1" gradientUnits="objectBoundingBox"><stop offset="0" stop-color="#5a7aff"/><stop offset="1" stop-color="#4b6cf9"/></linearGradient></defs><path class="a" d="M46.354,85.332H9.583A2.084,2.084,0,0,0,7.5,87.416c0,1.036,5,1.15,5,0a2.084,2.084,0,0,0-2.083-2.084H3.646A3.647,3.647,0,0,0,0,88.978V115.02a3.647,3.647,0,0,0,3.646,3.646H20.833v4.166H16.667a2.083,2.083,0,1,0,0,4.167H33.333a2.083,2.083,0,1,0,0-4.167H29.167v-4.166H46.354A3.647,3.647,0,0,0,50,115.02V88.978A3.647,3.647,0,0,0,46.354,85.332Zm0,0" transform="translate(0 -76.999)"/><path class="b" d="M20.833,118.666v4.166H16.667a2.083,2.083,0,1,0,0,4.167H33.333a2.083,2.083,0,1,0,0-4.167H29.167v-4.166Z" transform="translate(0 -76.999)"/><path class="b" d="M171.285,11.394a7.9,7.9,0,0,0,.1-.977,7.9,7.9,0,0,0-.1-.977l1.877-1.421a1.042,1.042,0,0,0,.273-1.352L171.75,3.75a1.042,1.042,0,0,0-1.306-.439l-2.16.911a7.741,7.741,0,0,0-1.706-1.015L166.289.912A1.043,1.043,0,0,0,165.256,0h-3.369a1.042,1.042,0,0,0-1.033.912l-.287,2.294a7.778,7.778,0,0,0-1.709,1.015L156.7,3.31a1.042,1.042,0,0,0-1.308.439l-1.683,2.917a1.044,1.044,0,0,0,.273,1.352l1.877,1.421a7.552,7.552,0,0,0-.1.977,7.9,7.9,0,0,0,.1.977l-1.875,1.421a1.04,1.04,0,0,0-.273,1.352l1.683,2.917a1.042,1.042,0,0,0,1.308.439l2.16-.912a7.741,7.741,0,0,0,1.706,1.015l.287,2.294a1.04,1.04,0,0,0,1.031.914h3.369a1.042,1.042,0,0,0,1.033-.912l.287-2.294a7.776,7.776,0,0,0,1.706-1.014l2.16.91a1.042,1.042,0,0,0,1.308-.439l1.683-2.917a1.043,1.043,0,0,0-.273-1.352Zm-7.714,3.189a4.167,4.167,0,1,1,4.167-4.166A4.166,4.166,0,0,1,163.571,14.583Zm0,0" transform="translate(-138.572)"/></svg>