<svg xmlns="http://www.w3.org/2000/svg" xmlns:xlink="http://www.w3.org/1999/xlink" width="50.134" height="50.045" viewBox="0 0 50.134 50.045"><defs><style>.a{fill:#869dff;}.b{fill:#4c6df9;}.c{fill:#fff;}.d{fill:url(#a);}</style><linearGradient id="a" x1="0.5" x2="0.5" y2="1" gradientUnits="objectBoundingBox"><stop offset="0" stop-color="#5a7aff"/><stop offset="1" stop-color="#4b6cf9"/></linearGradient></defs><g transform="translate(-0.001 -0.444)"><g transform="translate(14.752 9.209)"><path class="a" d="M147.108,102.06a.756.756,0,0,1-.357-1.423l7.884-4.219,7.838-4.9.013-.008,6.7-4.005a.756.756,0,0,1,.776,1.3l-6.693,4-7.854,4.911-.044.026-7.906,4.231A.753.753,0,0,1,147.108,102.06Z" transform="translate(-146.351 -87.396)"/></g><g transform="translate(15.897 27.84)"><path class="a" d="M179.79,287.374a.754.754,0,0,1-.391-.109l-7.26-4.392-.01-.006-7.3-4.564-.029-.019-6.761-4.673a.756.756,0,1,1,.86-1.244l6.747,4.663,7.279,4.552,7.255,4.389a.756.756,0,0,1-.392,1.4Z" transform="translate(-157.715 -272.233)"/></g><path class="a" d="M393.424,96.236a.756.756,0,0,0-.756.756v27.281a.756.756,0,0,0,1.512,0V96.992A.756.756,0,0,0,393.424,96.236Z" transform="translate(-353.088 -86.136)"/><g transform="translate(0 0.444)"><path class="b" d="M12.8,127.3a12.8,12.8,0,0,0-6.339,23.912l.869-.474,10.96-.159.834.643A12.8,12.8,0,0,0,12.8,127.305Z" transform="translate(-0.005 -114.518)"/><g transform="translate(6.456 16.18)"><path class="a" d="M76.661,285.3a2.371,2.371,0,0,0-.856-1.823L72.212,280.5l-.744-.762H69.3l-.763.762-3.593,2.984a2.374,2.374,0,0,0-.856,1.823l-.043,2.978a12.815,12.815,0,0,0,12.664.009Z" transform="translate(-64.045 -267.761)"/><path class="c" d="M112.289,253.33v3.039a1.8,1.8,0,0,1-.024.3,1.837,1.837,0,0,1-3.626,0,1.8,1.8,0,0,1-.024-.3V253.32l.038-.083a4.282,4.282,0,0,0,3.6.01Z" transform="translate(-104.122 -243.935)"/><path class="a" d="M91.362,161.471H86.5l-1.509-.5a.339.339,0,0,0-.445.323v4.183L86,167.035h6.3l.792-1.554V163.2A1.732,1.732,0,0,0,91.362,161.471Z" transform="translate(-82.479 -160.958)"/><path class="c" d="M93.094,205.827v2.721a4.274,4.274,0,1,1-8.549,0v-2.721Z" transform="translate(-82.479 -201.304)"/></g><g transform="translate(30.539 0)"><path class="d" d="M312.774.444a9.8,9.8,0,0,0-5.754,17.727l.864-.808,9.657.15.986.659A9.8,9.8,0,0,0,312.774.444Z" transform="translate(-302.976 -0.444)"/></g><g transform="translate(34.581 3.023)"><path class="a" d="M348.829,114.147a5.748,5.748,0,0,1,5.749,5.749l0,.518a9.8,9.8,0,0,1-11.508,0l.006-.517a5.749,5.749,0,0,1,5.749-5.749Z" transform="translate(-343.074 -105.709)"/><path class="c" d="M362.533,30.437a4.219,4.219,0,1,1-4.218,4.218A4.219,4.219,0,0,1,362.533,30.437Z" transform="translate(-356.779 -30.437)"/></g><g transform="translate(30.539 30.45)"><path class="d" d="M312.778,302.529a9.8,9.8,0,0,0-5.747,17.732l.934-.4,9.977.2.585.2a9.8,9.8,0,0,0-5.748-17.732Z" transform="translate(-302.98 -302.529)"/></g><circle class="c" cx="4.219" cy="4.219" r="4.219" transform="translate(36.117 33.474)"/><g transform="translate(34.588 41.912)"><path class="a" d="M354.632,422.517a9.8,9.8,0,0,1-11.5,0V422a5.749,5.749,0,0,1,11.5,0Z" transform="translate(-343.135 -416.247)"/></g></g></g></svg>