<svg xmlns="http://www.w3.org/2000/svg" xmlns:xlink="http://www.w3.org/1999/xlink" width="50" height="50" viewBox="0 0 50 50"><defs><style>.a{fill:#869dff;}.b{fill:url(#a);}</style><linearGradient id="a" x1="0.5" x2="0.5" y2="1" gradientUnits="objectBoundingBox"><stop offset="0" stop-color="#5a7aff"/><stop offset="1" stop-color="#4b6cf9"/></linearGradient></defs><g transform="translate(-3 -3)"><g transform="translate(10.497 9.487)"><path class="a" d="M0,0H12.845V1.724H0Z" transform="translate(1.692 4.393) rotate(-19.993)"/><path class="a" d="M0,0H1.724V19.506H0Z" transform="translate(19.475 2.746) rotate(-45)"/><path class="a" d="M0,0H1.723V10.442H0Z" transform="matrix(0.136, -0.991, 0.991, 0.136, 21.695, 17.345)"/><path class="a" d="M0,0H1.724V15.422H0Z" transform="translate(0.73 8.514) rotate(-63.435)"/><path class="a" d="M0,0H1.725V13.809H0Z" transform="matrix(0.448, -0.894, 0.894, 0.448, 1.308, 31.224)"/><path class="a" d="M31,33h1.724V47.655H31Z" transform="translate(-14.359 -13.625)"/><path class="a" d="M0,0H26.7V1.724H0Z" transform="matrix(0.544, -0.839, 0.839, 0.544, 0.032, 24.934)"/><path class="a" d="M0,0H19.683V1.724H0Z" transform="matrix(0.691, -0.723, 0.723, 0.691, 19.774, 34.702)"/><path class="a" d="M0,0H1.724V27.808H0Z" transform="matrix(0.86, -0.511, 0.511, 0.86, 0, 10.567)"/></g><path class="b" d="M15.069,43.034a5.9,5.9,0,0,1-.638,2.7,6.033,6.033,0,1,1,.638-2.7Z" transform="translate(0 -4.69)"/><path class="b" d="M35.612,49.112a5.951,5.951,0,0,1,1.457,3.922,6.034,6.034,0,1,1-11.733-1.983,6.026,6.026,0,0,1,10.276-1.94Z" transform="translate(-3.034 -6.069)"/><path class="b" d="M53.034,25a6.034,6.034,0,0,1,0,12.069A6.06,6.06,0,0,1,47,31.034a5.053,5.053,0,0,1,.06-.81A6.021,6.021,0,0,1,53.034,25Z" transform="translate(-6.069 -3.034)"/><path class="b" d="M37.009,28.845A6.031,6.031,0,0,1,25,28.034a5.9,5.9,0,0,1,.638-2.7,6.034,6.034,0,0,1,11.431,2.7A5.054,5.054,0,0,1,37.009,28.845Z" transform="translate(-3.034 -2.621)"/><path class="b" d="M31.034,3a6.034,6.034,0,1,1,0,12.069A6.033,6.033,0,0,1,25,9.034,6.03,6.03,0,0,1,31.034,3Z" transform="translate(-3.034)"/><path class="b" d="M14.707,14.974a6.019,6.019,0,0,1,.362,2.06,5.9,5.9,0,0,1-.638,2.7,6.033,6.033,0,1,1,.276-4.759Z" transform="translate(0 -1.103)"/></g></svg>