<svg xmlns="http://www.w3.org/2000/svg" xmlns:xlink="http://www.w3.org/1999/xlink" width="48.875" height="51" viewBox="0 0 48.875 51"><defs><style>.a{fill:#869dff;}.b{fill:url(#a);}</style><linearGradient id="a" x1="0.5" x2="0.5" y2="1" gradientUnits="objectBoundingBox"><stop offset="0" stop-color="#5a7aff"/><stop offset="1" stop-color="#4b6cf9"/></linearGradient></defs><path class="a" d="M145,349.832a8.5,8.5,0,1,1-8.5-8.5A8.5,8.5,0,0,1,145,349.832Zm0,0" transform="translate(-115.25 -307.332)"/><path class="b" d="M36.142,63.75A14.84,14.84,0,0,1,24.635,43.071,14.825,14.825,0,0,0,6.375,57.543v5.924A14.248,14.248,0,0,1,1.3,74.375a3.718,3.718,0,0,0,2.418,6.543H38.781a3.719,3.719,0,0,0,2.4-6.562A14.228,14.228,0,0,1,36.142,63.75Zm0,0" transform="translate(0 -38.418)"/><path class="a" d="M298.582,10.625A10.625,10.625,0,1,1,287.957,0,10.625,10.625,0,0,1,298.582,10.625Zm0,0" transform="translate(-249.707)"/></svg>