<svg xmlns="http://www.w3.org/2000/svg" xmlns:xlink="http://www.w3.org/1999/xlink" width="50" height="50" viewBox="0 0 50 50"><defs><style>.a{fill:#869dff;}.b{fill:url(#a);}.c{fill:#fff;}</style><linearGradient id="a" x1="0.5" x2="0.5" y2="1" gradientUnits="objectBoundingBox"><stop offset="0" stop-color="#5a7aff"/><stop offset="1" stop-color="#4b6cf9"/></linearGradient></defs><g transform="translate(0 -0.001)"><g transform="translate(41.21 11.817)"><path class="a" d="M430.629,121.807a1.465,1.465,0,0,0-1.965-.655l-5.859,2.93a1.465,1.465,0,1,0,1.31,2.62l5.859-2.93A1.465,1.465,0,0,0,430.629,121.807Z" transform="translate(-421.994 -120.997)"/></g><g transform="translate(41.21 26.466)"><path class="a" d="M429.974,274.081l-5.859-2.93a1.465,1.465,0,1,0-1.31,2.62l5.859,2.93a1.465,1.465,0,0,0,1.31-2.62Z" transform="translate(-421.994 -270.997)"/></g><g transform="translate(0 0.001)"><g transform="translate(0 0)"><path class="b" d="M33.789,23.536H11.719V16.114a7.373,7.373,0,0,1,14.746,0v2.93a1.465,1.465,0,0,0,1.465,1.465h5.859a1.465,1.465,0,0,0,1.465-1.465v-2.93a16.162,16.162,0,0,0-32.324,0v7.674A4.4,4.4,0,0,0,0,27.931V45.606A4.4,4.4,0,0,0,4.395,50H33.789a4.4,4.4,0,0,0,4.395-4.395V27.931A4.4,4.4,0,0,0,33.789,23.536Z" transform="translate(0 -0.001)"/></g></g><g transform="translate(0.049 0.001)"><g transform="translate(0 0)"><path class="a" d="M11.719,23.536V16.114a7.373,7.373,0,0,1,14.746,0v2.93a1.465,1.465,0,0,0,1.465,1.465h5.859a1.465,1.465,0,0,0,1.465-1.465v-2.93a16.162,16.162,0,0,0-32.324,0v7.674Z" transform="translate(0 -0.001)"/></g></g><g transform="translate(14.746 29.396)"><path class="c" d="M155.394,301a4.394,4.394,0,0,0-1.465,8.537v4.744a1.465,1.465,0,0,0,2.93,0v-4.744A4.394,4.394,0,0,0,155.394,301Zm0,5.859a1.465,1.465,0,1,1,1.465-1.465A1.467,1.467,0,0,1,155.394,306.859Z" transform="translate(-150.999 -301)"/></g><g transform="translate(41.211 20.606)"><path class="a" d="M429.321,211h-5.859a1.465,1.465,0,1,0,0,2.93h5.859a1.465,1.465,0,0,0,0-2.93Z" transform="translate(-421.997 -211)"/></g></g></svg>