<svg xmlns="http://www.w3.org/2000/svg" width="49.522" height="49.523" viewBox="0 0 49.522 49.523"><defs><style>.a{fill:#869dff;}.b{fill:#4c6df9;}.c{fill:#7389ff;}</style></defs><path class="a" d="M327.009,323.069h0a3.988,3.988,0,0,1-3.939,3.939h0a4.087,4.087,0,0,1-2.926-1.238l-12.606-13.731a1.088,1.088,0,0,1,0-1.576l2.926-2.926a1.088,1.088,0,0,1,1.576,0l13.731,12.718A3.836,3.836,0,0,1,327.009,323.069Z" transform="translate(-277.486 -277.485)"/><rect class="b" width="3.151" height="4.727" transform="translate(32.611 30.383) rotate(135)"/><path class="c" d="M16.883,0A16.883,16.883,0,1,0,33.765,16.883,16.86,16.86,0,0,0,16.883,0Zm0,30.389A13.506,13.506,0,1,1,30.389,16.883,13.546,13.546,0,0,1,16.883,30.389Z" transform="translate(0 0)"/><circle class="b" cx="13.506" cy="13.506" r="13.506" transform="translate(3.377 3.377)"/></svg>