<svg xmlns="http://www.w3.org/2000/svg" width="68.716" height="51" viewBox="0 0 68.716 51"><defs><style>.a{fill:#869dff;}.b{fill:#4c6df9;}</style></defs><g transform="translate(0 -66)"><path class="a" d="M67.374,79.421a1.342,1.342,0,0,0,1.342-1.342V67.342A1.342,1.342,0,0,0,67.374,66H56.637a1.342,1.342,0,0,0-1.342,1.342v4.026H13.421V67.342A1.342,1.342,0,0,0,12.079,66H1.342A1.342,1.342,0,0,0,0,67.342V78.079a1.342,1.342,0,0,0,1.342,1.342H5.368v24.158H1.342A1.342,1.342,0,0,0,0,104.921v10.737A1.342,1.342,0,0,0,1.342,117H12.079a1.342,1.342,0,0,0,1.342-1.342v-4.026H55.295v4.026A1.342,1.342,0,0,0,56.637,117H67.374a1.342,1.342,0,0,0,1.342-1.342V104.921a1.342,1.342,0,0,0-1.342-1.342H63.347V79.421Zm-6.711,24.158H56.637a1.342,1.342,0,0,0-1.342,1.342v4.026H13.421v-4.026a1.342,1.342,0,0,0-1.342-1.342H8.053V79.421h4.026a1.342,1.342,0,0,0,1.342-1.342V74.053H55.295v4.026a1.342,1.342,0,0,0,1.342,1.342h4.026Z" transform="translate(0 0)"/><path class="b" d="M122.888,194.789h-.457l-7.7-17.976a1.342,1.342,0,0,0-1.234-.813h-5.368a1.342,1.342,0,0,0-1.234.813l-7.7,17.976h-1.8a1.342,1.342,0,0,0,0,2.684h5.368a1.342,1.342,0,0,0,0-2.684h-.649l1.726-4.026h8.583l1.726,4.026h-.649a1.342,1.342,0,0,0,0,2.684h9.395A1.342,1.342,0,0,0,122.888,194.789Zm-17.9-6.711,3.141-7.33,3.141,7.33Z" transform="translate(-83.161 -95.237)"/><path class="b" d="M323.976,226.8a1.342,1.342,0,0,0-1.224-.8h0a1.342,1.342,0,0,0-1.225.794l-5.407,12.079a1.342,1.342,0,1,0,2.45,1.1l1.447-3.233h5.414l1.424,3.226a1.342,1.342,0,1,0,2.456-1.084Zm-2.761,7.252,1.525-3.406,1.5,3.406Z" transform="translate(-273.588 -138.526)"/></g></svg>