<svg xmlns="http://www.w3.org/2000/svg" xmlns:xlink="http://www.w3.org/1999/xlink" width="44.5" height="51.449" viewBox="0 0 44.5 51.449"><defs><style>.a{fill:#fff;}.b{fill:#869dff;}.c{fill:url(#a);}</style><linearGradient id="a" x1="0.5" x2="0.5" y2="1" gradientUnits="objectBoundingBox"><stop offset="0" stop-color="#5a7aff"/><stop offset="1" stop-color="#4b6cf9"/></linearGradient></defs><g transform="translate(-8.817 -0.454)"><g transform="translate(25.663 1.317)"><path class="a" d="M54.676,3.145A5.174,5.174,0,0,1,59.811,7.7a5.176,5.176,0,1,0-10.27,0A5.174,5.174,0,0,1,54.676,3.145Z" transform="translate(-49.5 -1.903)"/></g><path class="b" d="M52.859,17.264a5.59,5.59,0,1,0-7.812,5.127V26.08a1.241,1.241,0,0,1-.756,1.144L32.909,32.063V22.216c0-.229,0-6.166,0-6.395v-4.14a5.59,5.59,0,1,0-4.141,0V32.063l-11.383-4.84a1.239,1.239,0,0,1-.756-1.143V22.391a5.6,5.6,0,1,0-4.141.116V26.08a5.372,5.372,0,0,0,3.277,4.953l13,5.528v4.16a5.59,5.59,0,1,0,4.141,0v-4.16l13-5.528a5.373,5.373,0,0,0,3.277-4.954V22.507a5.594,5.594,0,0,0,3.671-5.243ZM26.076,6.492a4.762,4.762,0,1,1,4.762,4.762A4.767,4.767,0,0,1,26.076,6.492ZM9.645,17.264a4.762,4.762,0,1,1,4.762,4.762A4.767,4.767,0,0,1,9.645,17.264Zm37.624,4.762a4.762,4.762,0,1,1,4.762-4.762A4.767,4.767,0,0,1,47.269,22.026Z"/><circle class="c" cx="6" cy="6" r="6" transform="translate(24.817 39.903)"/><circle class="c" cx="6" cy="6" r="6" transform="translate(41.317 10.903)"/><circle class="c" cx="6" cy="6" r="6" transform="translate(24.778 0.454)"/><circle class="c" cx="6" cy="6" r="6" transform="translate(8.817 11.454)"/></g></svg>