<svg xmlns="http://www.w3.org/2000/svg" xmlns:xlink="http://www.w3.org/1999/xlink" width="565.8" height="437.885" viewBox="0 0 565.8 437.885"><defs><style>.a{fill:#ececff;}.b{fill:url(#a);}.c{fill:url(#b);}.d{fill:url(#c);}.e{fill:url(#d);}.f{fill:url(#e);}.g,.z{fill:#fba481;}.h{fill:url(#q);}.i{fill:url(#r);}.j{fill:url(#s);}.k{fill:url(#t);}.l{fill:url(#u);}.m{fill:#7d97f4;}.n{fill:url(#v);}.o{fill:url(#w);}.p{fill:url(#x);}.q{fill:url(#y);}.r{fill:url(#z);}.s{fill:#fdcbb5;}.t{fill:url(#aa);}.u{fill:url(#ab);}.v{fill:url(#ac);}.w{fill:url(#ad);}.x{fill:url(#ae);}.y{fill:url(#af);}.aa,.z{opacity:0.51;}.aa{fill:#fff;}.ab{fill:url(#ag);}.ac{fill:url(#ah);}.ad{fill:#132b50;}.ae{fill:url(#am);}</style><linearGradient id="a" x1="0.98" y1="0.146" x2="-0.07" y2="0.924" gradientUnits="objectBoundingBox"><stop offset="0" stop-color="#09005d"/><stop offset="1" stop-color="#1a0f91"/></linearGradient><linearGradient id="b" x1="0.525" y1="0.469" x2="-0.103" y2="1.237" gradientUnits="objectBoundingBox"><stop offset="0" stop-color="#4042e2"/><stop offset="1" stop-color="#4f52ff"/></linearGradient><linearGradient id="c" x1="0.786" y1="0.18" x2="-0.389" y2="1.238" xlink:href="#b"/><linearGradient id="d" x1="-0.23" y1="0.241" x2="0.898" y2="0.637" xlink:href="#b"/><linearGradient id="e" y1="0.5" x2="1" y2="0.5" gradientUnits="objectBoundingBox"><stop offset="0" stop-color="#dae3fe"/><stop offset="1" stop-color="#e9effd"/></linearGradient><linearGradient id="q" x1="0.637" y1="0.596" x2="2.081" y2="1.49" gradientUnits="objectBoundingBox"><stop offset="0" stop-color="#fe7062"/><stop offset="1" stop-color="#ff928e"/></linearGradient><linearGradient id="r" x1="-0.676" y1="1.26" x2="0.957" y2="0.22" xlink:href="#q"/><linearGradient id="s" x1="0.396" y1="0.413" x2="2.318" y2="2.448" xlink:href="#q"/><linearGradient id="t" x1="-0.102" y1="0.6" x2="1.03" y2="0.423" xlink:href="#q"/><linearGradient id="u" x1="-59.459" y1="0.5" x2="-58.459" y2="0.5" xlink:href="#a"/><linearGradient id="v" x1="122.593" y1="-0.843" x2="122.087" y2="2.39" gradientUnits="objectBoundingBox"><stop offset="0" stop-color="#ff928e"/><stop offset="1" stop-color="#feb3b1"/></linearGradient><linearGradient id="w" x1="34.141" y1="0.5" x2="35.141" y2="0.5" xlink:href="#a"/><linearGradient id="x" x1="133.047" y1="-0.223" x2="132.532" y2="2.539" xlink:href="#v"/><linearGradient id="y" x1="0.492" y1="0.914" x2="0.577" y2="-0.171" xlink:href="#a"/><linearGradient id="z" x1="0.505" y1="-0.083" x2="0.441" y2="1.631" xlink:href="#b"/><linearGradient id="aa" x1="0.509" y1="0.449" x2="0.43" y2="2.47" xlink:href="#b"/><linearGradient id="ab" x1="-32.635" y1="0.449" x2="-32.714" y2="2.47" xlink:href="#b"/><linearGradient id="ac" x1="-88.877" y1="-22.512" x2="-88.672" y2="-21.333" xlink:href="#a"/><linearGradient id="ad" x1="-309.325" y1="-231.348" x2="-314.486" y2="-224.923" xlink:href="#v"/><linearGradient id="ae" x1="1.029" y1="1.104" x2="1.897" y2="2.065" xlink:href="#q"/><linearGradient id="af" x1="-0.913" y1="1.294" x2="0.812" y2="0.341" xlink:href="#q"/><linearGradient id="ag" x1="0" y1="0.5" x2="1" y2="0.5" xlink:href="#a"/><linearGradient id="ah" y1="0.5" x2="1" y2="0.5" gradientUnits="objectBoundingBox"><stop offset="0" stop-color="#f9b776"/><stop offset="1" stop-color="#f47960"/></linearGradient><linearGradient id="am" x1="-334.141" y1="-250.641" x2="-337.539" y2="-246.136" xlink:href="#v"/></defs><g transform="translate(-31.453 -102.264)"><g transform="translate(31.453 102.264)"><path class="a" d="M276.079,179.153c-21.517-78.058-118.482-103.2-174.053-44.867q-1.2,1.258-2.392,2.556C19.966,223.444,57.6,436.857,223.867,490.949s339.2-44.684,348.918-132.983-66.992-116.044-186.031-91.353C319.5,280.563,289.473,227.745,276.079,179.153Z" transform="translate(-20.886 -102.264)"/><path class="a" d="M70.258,285.405c-13.829-17.8-34.085-13.773-38.136,8-1.34,7.2-.829,16.153,3.018,27.211,14.656,42.123,42.924,53.3,56.64,25.733C100.246,329.335,83.964,303.041,70.258,285.405Z" transform="translate(-31.453 -37.446)"/></g><g transform="translate(-289.942 -129.402)"><g transform="translate(346.096 361.159)"><path class="b" d="M657.045,623.993A153.575,153.575,0,0,1,503.47,777.568c-84.817,0-157.374-71.762-157.374-156.579S418.653,470.418,503.47,470.418A153.575,153.575,0,0,1,657.045,623.993Z" transform="translate(-346.096 -469.176)"/><path class="c" d="M686.524,673.751A132.936,132.936,0,0,1,553.587,806.687c-73.418,0-136.224-62.118-136.224-135.537s62.806-130.336,136.224-130.336A132.936,132.936,0,0,1,686.524,673.751Z" transform="translate(-396.469 -518.934)"/><path class="d" d="M769.9,673.751A132.936,132.936,0,0,0,636.966,540.815a139.41,139.41,0,0,0-101.64,43.657l102.405,85.206L658.783,804.9A132.964,132.964,0,0,0,769.9,673.751Z" transform="translate(-479.847 -518.934)"/><path class="e" d="M675.921,673.483c0,66.259-54.83,119.972-122.465,119.972S427.962,737.4,427.962,671.136s57.859-117.625,125.494-117.625S675.921,607.224,675.921,673.483Z" transform="translate(-403.96 -527.907)"/><path class="f" d="M483.931,944.615a10.235,10.235,0,1,1-9.623-10.812A10.235,10.235,0,0,1,483.931,944.615Z" transform="translate(-429.064 -796.692)"/><path class="f" d="M1238.118,988.512A10.235,10.235,0,1,1,1228.5,977.7,10.235,10.235,0,0,1,1238.118,988.512Z" transform="translate(-962.138 -827.719)"/><path class="f" d="M784.772,1327.482a10.235,10.235,0,1,1-11.907,8.229A10.235,10.235,0,0,1,784.772,1327.482Z" transform="translate(-647.625 -1074.846)"/><path class="f" d="M920.513,584.313a10.235,10.235,0,1,1-11.907,8.229A10.234,10.234,0,0,1,920.513,584.313Z" transform="translate(-743.57 -549.56)"/><path class="f" d="M1048.651,1338.023c1.04,2.624.78,5.081-.58,5.488s-3.307-1.39-4.347-4.014-.78-5.081.58-5.488S1047.611,1335.4,1048.651,1338.023Z" transform="translate(-838.741 -1079.537)"/><path class="f" d="M745.24,633.127c1.04,2.624.78,5.081-.581,5.488s-3.307-1.391-4.347-4.014-.78-5.081.581-5.488S744.2,630.5,745.24,633.127Z" transform="translate(-624.285 -581.304)"/><path class="f" d="M1205.661,1209.7c2.252,1.7,3.305,3.937,2.353,4.992s-3.548.529-5.8-1.174-3.3-3.938-2.353-4.992S1203.41,1208,1205.661,1209.7Z" transform="translate(-949.306 -990.501)"/><path class="f" d="M580.357,764.806c2.251,1.7,3.305,3.937,2.353,4.992s-3.548.529-5.8-1.174-3.305-3.937-2.353-4.992S578.106,763.1,580.357,764.806Z" transform="translate(-507.329 -676.041)"/><path class="f" d="M1231.218,812.667c2.549-1.213,5.018-1.119,5.515.212s-1.166,3.393-3.714,4.606-5.017,1.118-5.514-.212S1228.67,813.88,1231.218,812.667Z" transform="translate(-969.029 -710.482)"/><path class="f" d="M548.225,1162.605c2.549-1.214,5.018-1.119,5.515.212s-1.166,3.393-3.714,4.606-5.018,1.119-5.515-.212S545.677,1163.819,548.225,1162.605Z" transform="translate(-486.277 -957.825)"/><path class="f" d="M1092.617,658.468c1.548-2.361,3.708-3.562,4.823-2.683s.765,3.5-.783,5.865-3.707,3.561-4.823,2.682S1091.069,660.829,1092.617,658.468Z" transform="translate(-872.737 -599.994)"/><path class="f" d="M690.6,1312.165c1.548-2.36,3.707-3.561,4.823-2.682s.765,3.5-.783,5.865-3.707,3.561-4.823,2.682S689.052,1314.526,690.6,1312.165Z" transform="translate(-588.583 -1062.039)"/><path class="g" d="M657.357,613.121l-43.491-80.93a2.353,2.353,0,0,1,2.073-3.467h10.589a2.354,2.354,0,0,0,1.718-3.962l-54.127-57.824a2.353,2.353,0,0,0-4,2.17l18.674,76.03a2.354,2.354,0,0,0,4.011,1.039l8.562-9.229a2.354,2.354,0,0,1,3.729.365l48.191,78.157a2.354,2.354,0,0,0,3.192.8h0A2.354,2.354,0,0,0,657.357,613.121Z" transform="translate(-504.384 -466.181)"/><path class="g" d="M876.764,921.687l80.346-2.612a2.353,2.353,0,0,1,2.125,3.435l-4.871,9.4a2.354,2.354,0,0,0,2.728,3.348l76.241-21.461a2.354,2.354,0,0,0-.085-4.553l-76.1-18.394a2.353,2.353,0,0,0-2.768,3.083l4.256,11.847a2.353,2.353,0,0,1-2.04,3.143l-80.046,8.062a2.353,2.353,0,0,0-2.175,2.468h0A2.353,2.353,0,0,0,876.764,921.687Z" transform="translate(-719.493 -766.297)"/><path class="g" d="M864.241,954.764a10.931,10.931,0,1,1-10.931-10.931A10.931,10.931,0,0,1,864.241,954.764Z" transform="translate(-696.878 -803.794)"/></g><g transform="translate(532.214 339.596)"><rect class="h" width="102.355" height="163.253" rx="10" transform="translate(245.162 166.294)"/><rect class="i" width="102.355" height="163.253" rx="10" transform="translate(233.647 166.294)"/><g transform="translate(0 249.856)"><rect class="j" width="76.867" height="79.529" rx="10" transform="translate(11.514)"/><rect class="k" width="76.867" height="79.529" rx="10"/></g><g transform="translate(249.515)"><path class="l" d="M1915.072,937.043a.946.946,0,0,1,.026-.252c1.259-4.991,6.406-7.549,6.406-7.549l2.476.194c1.424,4.4,2.341,6.547,2.113,7.748-.006.034-.017.066-.026.1A58.761,58.761,0,0,1,1915.072,937.043Z" transform="translate(-1890.71 -771.917)"/><path class="m" d="M1926.068,956.091a1.074,1.074,0,0,1-.786.794c-2.906.611-7.523.119-9.462-.134a.9.9,0,0,1-.747-.9A58.761,58.761,0,0,0,1926.068,956.091Z" transform="translate(-1890.71 -790.727)"/><path class="n" d="M1930.057,916.1l1.084,5.219a.852.852,0,0,0,.729.7,7.21,7.21,0,0,0,1.679-.027,1.073,1.073,0,0,0,.85-1.26l-.754-4.634Z" transform="translate(-1901.301 -762.629)"/><path class="m" d="M2012.953,954.893a14.3,14.3,0,0,1-4.719-.674c0,.263,0,.531.008.808a.522.522,0,0,0,.5.531l14.519-.094a.663.663,0,0,0,.533-.965C2021.89,954.655,2017.041,955.007,2012.953,954.893Z" transform="translate(-1956.558 -789.572)"/><path class="o" d="M2023.795,938.022a.671.671,0,0,0-.057-.109,18.5,18.5,0,0,0-11-6.907l-3.1-.1a14.853,14.853,0,0,0-1.4,6.834,14.292,14.292,0,0,0,4.719.675C2017.043,938.531,2021.891,938.179,2023.795,938.022Z" transform="translate(-1956.559 -773.096)"/><path class="p" d="M2011.068,913.095c.035.231.459,3.738.623,5.1a.674.674,0,0,0,.568.609,7.094,7.094,0,0,0,2.126-.033.916.916,0,0,0,.694-.919v-5.505Z" transform="translate(-1958.561 -759.974)"/><path class="q" d="M1929.8,682.358s-4.954,44.034-2.2,71.556a21.3,21.3,0,0,0,4.954-.55s5.148-43.055,6.813-55.375a.414.414,0,0,1,.817-.026c2.055,10.365,10.125,51.012,11.085,54.85,0,0,2.752,1.1,4.954,0,0,0-4.4-58.9-7.706-69.354Z" transform="translate(-1898.974 -597.416)"/><path class="r" d="M1903.143,504.891s20.917-3.3,37.429,1.1l-1.1,17.063s-4.4,23.669-7.706,34.127c0,0-12.66,2.2-18.715-1.1,0,0-4.954-29.723-7.706-34.127C1905.345,521.954,1902.593,510.395,1903.143,504.891Z" transform="translate(-1882.227 -471.138)"/><path class="s" d="M1947.857,456.456l-2.084,14.091s5.821,2.674,9.9-.115l-.878-9.944Z" transform="translate(-1912.409 -437.744)"/><path class="t" d="M1862.307,461.807s-47.262-12.865-23.795-45.949l1.588,2.248s-7.07,22.408,16.351,24.538C1856.451,442.644,1862.518,458.289,1862.307,461.807Z" transform="translate(-1831.975 -409.049)"/><path class="s" d="M1853.648,399.613s-.532-6.388,2.662-6.92,4.259,2.662,4.791,4.258-4.791,4.791-5.855,4.791S1853.648,399.613,1853.648,399.613Z" transform="translate(-1847.27 -392.633)"/><path class="u" d="M1993.573,467.254s47.262-12.865,23.795-45.949l-1.588,2.248s7.071,22.408-16.351,24.538C1999.429,448.091,1993.362,463.736,1993.573,467.254Z" transform="translate(-1946.192 -412.899)"/><path class="s" d="M2057.234,405.059s.532-6.388-2.662-6.92-4.259,2.661-4.791,4.258,4.791,4.791,5.855,4.791S2057.234,405.059,2057.234,405.059Z" transform="translate(-1985.898 -396.483)"/><g transform="translate(25.422 5.026)"><path class="s" d="M1951.431,431.533s4.66,8.772,4.063,12.316-6.373,3.289-11.417.411l-3.524-9.472Z" transform="translate(-1934.142 -425.154)"/><path class="v" d="M1928.845,424.23a.361.361,0,0,0,.158-.529,9.436,9.436,0,0,1-1.3-2.753s-.838-.537,2.132-1.247,7.4-1.815,8.33-4.343c.908-2.465-1.477-8.663-5.282-3.725a.361.361,0,0,1-.573,0c-.624-.812-2.264-2.5-4.541-1.475a3.42,3.42,0,0,0-2.341,3.3.359.359,0,0,1-.426.368,4.17,4.17,0,0,0-4.869,2.27c-.994,2.184-.348,3.421.24,4.025a.36.36,0,0,1-.154.6,2.17,2.17,0,0,0-1.531,2.476c.126,2.293,2.69,2.091,3.42,1.986a.361.361,0,0,1,.321.113c.626.693,3.446,3.633,6.5,3.988a.364.364,0,0,0,.383-.482l-1.321-3.839a.363.363,0,0,1,.2-.45Z" transform="translate(-1918.687 -409.776)"/><path class="w" d="M1946.531,458.218s-3.318-2.277-3.561-.359,2.988,2.777,4.588,2.062Z" transform="translate(-1935.841 -443.219)"/></g></g><g transform="translate(110.795 216.947)"><rect class="x" width="89.206" height="112.599" rx="10" transform="translate(13.126)"/><rect class="y" width="89.206" height="112.599" rx="10"/></g></g><g transform="translate(742.165 317.596)"><path class="z" d="M1721.474,319.188l4.551,9.221a2.853,2.853,0,0,0,2.15,1.561l10.175,1.479a2.855,2.855,0,0,1,1.582,4.869l-7.363,7.177a2.854,2.854,0,0,0-.821,2.527l1.738,10.135a2.855,2.855,0,0,1-4.142,3.01l-9.1-4.785a2.856,2.856,0,0,0-2.657,0l-9.1,4.785a2.855,2.855,0,0,1-4.142-3.01l1.738-10.135a2.854,2.854,0,0,0-.821-2.527l-7.363-7.177a2.855,2.855,0,0,1,1.582-4.869l10.176-1.479a2.853,2.853,0,0,0,2.15-1.561l4.551-9.221A2.855,2.855,0,0,1,1721.474,319.188Z" transform="translate(-1697.031 -317.596)"/><path class="g" d="M1734.831,361.933a1.123,1.123,0,0,1-.526-.136l-9.1-4.785a4.579,4.579,0,0,0-4.262,0l-9.1,4.785a1.123,1.123,0,0,1-.526.136,1.163,1.163,0,0,1-.875-.418,1.083,1.083,0,0,1-.239-.91l1.738-10.134a4.579,4.579,0,0,0-1.317-4.054l-7.363-7.177a1.13,1.13,0,0,1,.626-1.928l10.176-1.479a4.579,4.579,0,0,0,3.448-2.5l4.551-9.221a1.13,1.13,0,0,1,2.027,0l4.551,9.221a4.579,4.579,0,0,0,3.448,2.5l10.175,1.479a1.13,1.13,0,0,1,.627,1.928l-7.363,7.177a4.579,4.579,0,0,0-1.317,4.053l1.738,10.135a1.083,1.083,0,0,1-.239.91A1.163,1.163,0,0,1,1734.831,361.933Z" transform="translate(-1701.188 -321.754)"/></g><g transform="translate(854.568 371.143)"><path class="aa" d="M2100.62,501.79l2.177,7.457a2.155,2.155,0,0,0,1.394,1.444l7.377,2.435a2.157,2.157,0,0,1,.538,3.83l-6.42,4.374a2.158,2.158,0,0,0-.942,1.772l-.036,7.768a2.157,2.157,0,0,1-3.477,1.7l-6.143-4.753a2.156,2.156,0,0,0-1.977-.349l-7.4,2.366a2.157,2.157,0,0,1-2.687-2.782l2.623-7.312a2.155,2.155,0,0,0-.28-1.987l-4.536-6.305a2.157,2.157,0,0,1,1.816-3.415l7.764.235a2.157,2.157,0,0,0,1.8-.88l4.595-6.263A2.157,2.157,0,0,1,2100.62,501.79Z" transform="translate(-2080.422 -500.237)"/><path class="g" d="M2105.542,534.847a.849.849,0,0,1-.374-.17l-6.143-4.754a3.461,3.461,0,0,0-3.171-.559l-7.4,2.366a.853.853,0,0,1-.409.032.879.879,0,0,1-.6-.426.82.82,0,0,1-.058-.708l2.623-7.312a3.458,3.458,0,0,0-.448-3.188l-4.536-6.306a.854.854,0,0,1,.719-1.352l7.764.235a3.459,3.459,0,0,0,2.894-1.411l4.595-6.263a.854.854,0,0,1,1.508.266l2.176,7.457a3.459,3.459,0,0,0,2.237,2.316l7.376,2.435a.854.854,0,0,1,.213,1.516l-6.419,4.374a3.459,3.459,0,0,0-1.512,2.843l-.036,7.768a.819.819,0,0,1-.3.646A.879.879,0,0,1,2105.542,534.847Z" transform="translate(-2083.562 -503.379)"/></g><g transform="translate(600.902 438.291)"><path class="g" d="M1498.121,828.824l-7.925,12.193c3.687,7.182,7.782,11.148,11.879,13.033a21.917,21.917,0,0,1,5.264-10.4C1500.03,839.5,1498.121,828.824,1498.121,828.824Z" transform="translate(-1409.573 -799.636)"/><path class="s" d="M1553.988,871.94c-8.114,4.8-13.913,4.521-18.012,2.189a21.915,21.915,0,0,0-5.264,10.4c13.024,5.992,26.065-9.09,26.065-9.09Z" transform="translate(-1438.211 -830.111)"/><path class="s" d="M1609.822,858.959s-2.19-3.819.96-6.751c0,0,1.016-1.159,2.131.544,0,0,3.389-3.077,4.316-1.837s3.383,4.308.984,7.808C1615.786,862.262,1610.892,860.684,1609.822,858.959Z" transform="translate(-1493.603 -815.042)"/><path class="m" d="M1216.141,1151.226a2.1,2.1,0,0,0-.9,2.194c.661,3.448,2.836,12.553,8.118,17.945a.792.792,0,0,0,1.163,0,30.258,30.258,0,0,1-4.934-7.82C1216.61,1157.331,1216.059,1153.5,1216.141,1151.226Z" transform="translate(-1215.203 -1027.515)"/><path class="ab" d="M1225.2,1148.88a7.389,7.389,0,0,0-6.8.112c-.008,0-.015.011-.024.016-.082,2.271.469,6.105,3.449,12.322a30.25,30.25,0,0,0,4.934,7.82.929.929,0,0,0,.22-.387C1227.98,1165.317,1230.075,1155.74,1225.2,1148.88Z" transform="translate(-1217.446 -1025.298)"/><path class="ac" d="M1242.063,1140.848l-3.086,2.961a1.619,1.619,0,0,1-2.013.19,4.244,4.244,0,0,1-1.569-1.933,1.627,1.627,0,0,1,.3-1.722l3.081-3.389a1.625,1.625,0,0,1,2.6.266l.963,1.629A1.624,1.624,0,0,1,1242.063,1140.848Z" transform="translate(-1229.385 -1017.052)"/><path class="m" d="M1598.669,1059.288a2.1,2.1,0,0,0,2.351-.3c2.67-2.279,9.511-8.67,11.587-15.926a.793.793,0,0,0-.572-1.013,30.251,30.251,0,0,1-4.359,8.155C1603.745,1055.862,1600.684,1058.237,1598.669,1059.288Z" transform="translate(-1486.244 -950.344)"/><path class="ab" d="M1586.79,1053.357a7.39,7.39,0,0,0,3.457,5.853l.026.012c2.015-1.051,5.076-3.426,9.007-9.088a30.259,30.259,0,0,0,4.359-8.155.932.932,0,0,0-.446,0C1599.707,1042.821,1590.347,1045.733,1586.79,1053.357Z" transform="translate(-1477.848 -950.279)"/><path class="ac" d="M1575.782,1058l3.225,2.809a1.618,1.618,0,0,1,.369,1.988,4.241,4.241,0,0,1-1.785,1.736,1.627,1.627,0,0,1-1.742-.143l-3.651-2.766a1.624,1.624,0,0,1,.033-2.614l1.537-1.105A1.624,1.624,0,0,1,1575.782,1058Z" transform="translate(-1467.078 -961.337)"/><path class="ab" d="M1279.084,961.977s-6.293,21.437-10.361,30.859c0,0-7.112,1.085-11.513,3.657s-13.883,16.826-13.883,16.826,2.476,4.7,5.463,5.422l26.99-18.7,21.54-25.05-1.022-11.619Z" transform="translate(-1235.082 -893.751)"/><path class="ab" d="M1362.171,956.013l-1.841,5.87s1.684,15.39,21.086,12.8,21.841-5.763,21.841-5.763-1.684,9.829,19.531,21.647c0,0,3.225-2.434,3.935-5.2l-14.868-24.505c-2.068-3.214-3.986-4.061-7.762-3.47-8.349,1.306-23.984,3.008-26.35,2.6Z" transform="translate(-1317.781 -889.535)"/><path class="g" d="M1369.2,807.026c-5.654.287-14.592,2.975-20.365,8.29a69.709,69.709,0,0,1,6.54,8.29,17.828,17.828,0,0,1,8.108-4.041,240.153,240.153,0,0,1-11.513,33.717,1.229,1.229,0,0,0,.718,1.656c3.542,1.235,13.99,4.175,22.369-.56l18.577-26.6a22.762,22.762,0,0,0,3.839-9.592l.734-4.8S1381.52,806.4,1369.2,807.026Z" transform="translate(-1309.656 -784.201)"/><path class="s" d="M1345.6,867.361c-.807-1.783-3.572-3.448-4.891-4.164-1.148-2.366-5.729-13.006,1.2-19.508a69.717,69.717,0,0,0-6.54-8.29c-6.662,6.133-9.1,15.766,2.581,29.255-.637,3.322,1.443,7.191,2.568,7.733C1341.03,872.636,1346.669,869.731,1345.6,867.361Z" transform="translate(-1296.184 -804.283)"/><path class="s" d="M1448.979,783.023l-4.853,9.5a1.569,1.569,0,0,0,.227,1.764c1.175,1.309,3.951,3.435,8.779,1.911a1.463,1.463,0,0,0,1-1.188l1.264-8.627Z" transform="translate(-1376.887 -767.263)"/><g transform="translate(62.041)"><path class="s" d="M1459.56,751.024s4.66,8.772,4.063,12.316-6.373,3.289-11.417.411l-3.524-9.472Z" transform="translate(-1442.271 -744.645)"/><path class="ad" d="M1436.973,743.721a.362.362,0,0,0,.158-.529,9.44,9.44,0,0,1-1.3-2.753s-.838-.536,2.132-1.247,7.4-1.814,8.33-4.342c.908-2.465-1.477-8.663-5.282-3.725a.361.361,0,0,1-.573,0c-.624-.812-2.264-2.5-4.54-1.475a3.419,3.419,0,0,0-2.341,3.3.36.36,0,0,1-.426.368,4.169,4.169,0,0,0-4.869,2.27c-.994,2.184-.348,3.421.24,4.025a.36.36,0,0,1-.154.6,2.169,2.169,0,0,0-1.531,2.476c.127,2.293,2.69,2.091,3.42,1.986a.362.362,0,0,1,.321.114c.626.693,3.445,3.633,6.5,3.988a.365.365,0,0,0,.383-.482l-1.321-3.839a.363.363,0,0,1,.2-.45Z" transform="translate(-1426.815 -729.267)"/><path class="ae" d="M1454.659,777.708s-3.318-2.277-3.561-.359,2.988,2.777,4.588,2.062Z" transform="translate(-1443.969 -762.709)"/></g></g></g></g></svg>