<svg xmlns="http://www.w3.org/2000/svg" xmlns:xlink="http://www.w3.org/1999/xlink" width="590.501" height="475.352" viewBox="0 0 590.501 475.352"><defs><style>.a,.ac,.ad,.h,.v{fill:#fff;}.a{opacity:0.57;}.b{fill:#ececff;}.c{fill:url(#a);}.d{fill:url(#b);}.e{fill:url(#c);}.f{fill:url(#d);}.g{opacity:0.53;}.i{fill:url(#e);}.j{fill:url(#f);}.k{fill:url(#g);}.l{fill:url(#h);}.m{fill:url(#i);}.n{fill:url(#j);}.o{fill:url(#k);}.p{clip-path:url(#l);}.q{fill:url(#m);}.r{clip-path:url(#n);}.s{fill:url(#o);}.t{clip-path:url(#p);}.u{fill:url(#q);}.v{opacity:0.44;}.w{fill:url(#r);}.x{fill:url(#s);}.y{fill:url(#t);}.z{fill:url(#w);}.aa{opacity:0.48;}.ab{fill:#91b3fa;}.ac{opacity:0.5;}.ad{opacity:0.91;}.ae{fill:url(#z);}.af{fill:#163560;}.ag{fill:#fdcbb5;}.ah{fill:#f77d48;}.ai{fill:#e06338;}.aj{fill:#fcbca0;}.ak{fill:#ebf3fa;}.al{fill:#143a72;}.am{fill:#2a4e96;}.an{fill:#233862;}</style><linearGradient id="a" x1="0.664" y1="-0.362" x2="0.286" y2="2.337" gradientUnits="objectBoundingBox"><stop offset="0" stop-color="#09005d"/><stop offset="1" stop-color="#1a0f91"/></linearGradient><linearGradient id="b" x1="0.519" y1="-0.334" x2="0.487" y2="0.978" xlink:href="#a"/><linearGradient id="c" y1="0.5" x2="1" y2="0.5" gradientUnits="objectBoundingBox"><stop offset="0" stop-color="#dae3fe"/><stop offset="1" stop-color="#e9effd"/></linearGradient><linearGradient id="d" x1="0.488" y1="-4.387" x2="0.501" y2="1.057" xlink:href="#a"/><linearGradient id="e" x1="2.193" y1="0.142" x2="6.638" y2="-0.798" gradientUnits="objectBoundingBox"><stop offset="0" stop-color="#4f52ff"/><stop offset="1" stop-color="#4042e2"/></linearGradient><linearGradient id="f" x1="2.489" y1="-0.141" x2="6.934" y2="-1.573" xlink:href="#e"/><linearGradient id="g" x1="0.551" y1="0.493" x2="4.996" y2="-0.131" xlink:href="#e"/><linearGradient id="h" x1="2.346" y1="-0.579" x2="6.791" y2="-3.177" xlink:href="#e"/><linearGradient id="i" x1="0.233" y1="0.543" x2="4.678" y2="-0.177" xlink:href="#e"/><linearGradient id="j" x1="0.309" y1="0.537" x2="4.754" y2="-0.334" xlink:href="#e"/><linearGradient id="k" x1="0.421" y1="0.52" x2="4.866" y2="-0.608" xlink:href="#e"/><clipPath id="l"><path class="a" d="M682.385,1268.51a26.162,26.162,0,1,0,26.162,26.162A26.162,26.162,0,0,0,682.385,1268.51Zm0,41.067a14.905,14.905,0,1,1,14.905-14.905A14.905,14.905,0,0,1,682.385,1309.577Z" transform="translate(-656.223 -1268.51)"/></clipPath><linearGradient id="m" x1="1.923" y1="-4.485" x2="0.061" y2="2.038" gradientUnits="objectBoundingBox"><stop offset="0" stop-color="#ff928e"/><stop offset="1" stop-color="#fe7062"/></linearGradient><clipPath id="n"><path class="a" d="M1062.209,1268.51a26.162,26.162,0,1,0,26.162,26.162A26.162,26.162,0,0,0,1062.209,1268.51Zm0,41.067a14.905,14.905,0,1,1,14.905-14.905A14.905,14.905,0,0,1,1062.209,1309.577Z" transform="translate(-1036.047 -1268.51)"/></clipPath><linearGradient id="o" x1="1.629" y1="-2.351" x2="-0.234" y2="2.354" xlink:href="#m"/><clipPath id="p"><path class="a" d="M1442.032,1268.51a26.162,26.162,0,1,0,26.162,26.162A26.162,26.162,0,0,0,1442.032,1268.51Zm0,41.067a14.905,14.905,0,1,1,14.905-14.905A14.9,14.9,0,0,1,1442.032,1309.577Z" transform="translate(-1415.87 -1268.51)"/></clipPath><linearGradient id="q" x1="1.459" y1="-6.217" x2="-0.404" y2="6.829" xlink:href="#m"/><linearGradient id="r" x1="0.918" y1="-0.764" x2="-1.18" y2="5.578" gradientUnits="objectBoundingBox"><stop offset="0" stop-color="#febbba"/><stop offset="1" stop-color="#ff928e"/></linearGradient><linearGradient id="s" x1="0.918" y1="-0.764" x2="-1.18" y2="5.578" xlink:href="#r"/><linearGradient id="t" x1="0.918" y1="-0.764" x2="-1.18" y2="5.578" xlink:href="#r"/><linearGradient id="w" x1="0.918" y1="-0.764" x2="-1.18" y2="5.578" xlink:href="#e"/><linearGradient id="z" x1="1.327" y1="-0.174" x2="-0.781" y2="1.65" gradientUnits="objectBoundingBox"><stop offset="0" stop-color="#fdf53f"/><stop offset="1" stop-color="#d93c65"/></linearGradient></defs><g transform="translate(-692.499 -485)"><g transform="translate(661.045 382.736)"><g transform="translate(31.453 102.264)"><path class="b" d="M276.079,179.153c-21.517-78.058-118.482-103.2-174.053-44.867q-1.2,1.258-2.392,2.556C19.966,223.444,57.6,436.857,223.867,490.949s339.2-44.684,348.918-132.983-66.992-116.044-186.031-91.353C319.5,280.563,289.473,227.745,276.079,179.153Z" transform="translate(-20.886 -102.264)"/><path class="b" d="M70.258,285.405c-13.829-17.8-34.085-13.773-38.136,8-1.34,7.2-.829,16.153,3.018,27.211,14.656,42.123,42.924,53.3,56.64,25.733C100.246,329.335,83.964,303.041,70.258,285.405Z" transform="translate(-31.453 -37.446)"/></g></g><g transform="translate(255.353 -482.754)"><g transform="translate(437.146 1102.561)"><g transform="translate(0)"><path class="c" d="M1579.54,2595.8l-10.281,70.951h119.282L1673,2595.8Z" transform="translate(-1379.168 -2345.076)"/><path class="d" d="M437.146,1126.108v211.181a32.036,32.036,0,0,0,31.21,32.027c77.133,1.989,346.909,6.812,420.335,5.729a23.572,23.572,0,0,0,23.207-22.9c1.416-49.06,3.715-167.033-4.794-221.8a24.258,24.258,0,0,0-23.194-20.532c-64.628-2.067-350.608-8.632-424-6.984A23.286,23.286,0,0,0,437.146,1126.108Z" transform="translate(-437.146 -1102.561)"/><path class="e" d="M516.063,1165.739v200.636a18.562,18.562,0,0,0,18.284,18.559l409.447,5.059a18.064,18.064,0,0,0,18.334-18l.685-198.843a13.211,13.211,0,0,0-12.89-13.257l-419.2-8.469A14.314,14.314,0,0,0,516.063,1165.739Z" transform="translate(-502.812 -1143.22)"/><path class="f" d="M1530.213,3002.629H1355.635c-4.743,0-8.3-3.376-7.387-7l2.24-8.859c.674-2.664,3.6-4.62,7.086-4.729l168.3-5.251c3.637-.114,6.858,1.817,7.65,4.586l4.038,14.111C1538.611,2999.15,1535.032,3002.629,1530.213,3002.629Z" transform="translate(-1195.146 -2662.084)"/></g><g transform="translate(240.561 36.543)"><g class="g"><rect class="h" width="10.769" height="189.949"/><rect class="h" width="10.769" height="189.949" transform="translate(17.994)"/><rect class="h" width="10.769" height="189.949" transform="translate(35.989)"/><rect class="h" width="10.769" height="189.949" transform="translate(53.983)"/><rect class="h" width="10.769" height="189.949" transform="translate(71.977)"/><rect class="h" width="10.769" height="189.949" transform="translate(89.971)"/><rect class="h" width="10.769" height="189.949" transform="translate(107.966)"/></g><rect class="i" width="10.769" height="99.408" transform="translate(0 90.541)"/><rect class="j" width="10.769" height="65.243" transform="translate(17.994 124.706)"/><rect class="k" width="10.769" height="149.679" transform="translate(35.989 40.27)"/><rect class="l" width="10.769" height="35.958" transform="translate(53.983 153.99)"/><rect class="m" width="10.769" height="129.668" transform="translate(71.977 60.281)"/><rect class="n" width="10.769" height="107.217" transform="translate(89.971 82.732)"/><rect class="o" width="10.769" height="82.813" transform="translate(107.966 107.135)"/></g><g transform="translate(36.785 27.864)"><path class="a" d="M682.385,1268.51a26.162,26.162,0,1,0,26.162,26.162A26.162,26.162,0,0,0,682.385,1268.51Zm0,41.067a14.905,14.905,0,1,1,14.905-14.905A14.905,14.905,0,0,1,682.385,1309.577Z" transform="translate(-656.223 -1268.51)"/><g class="p"><rect class="q" width="77.714" height="32.888" transform="translate(-10.373 20.408)"/></g><g transform="translate(63.776)"><path class="a" d="M1062.209,1268.51a26.162,26.162,0,1,0,26.162,26.162A26.162,26.162,0,0,0,1062.209,1268.51Zm0,41.067a14.905,14.905,0,1,1,14.905-14.905A14.905,14.905,0,0,1,1062.209,1309.577Z" transform="translate(-1036.047 -1268.51)"/><g class="r"><rect class="s" width="77.714" height="45.6" transform="translate(-10.373 7.696)"/></g></g><g transform="translate(127.551)"><path class="a" d="M1442.032,1268.51a26.162,26.162,0,1,0,26.162,26.162A26.162,26.162,0,0,0,1442.032,1268.51Zm0,41.067a14.905,14.905,0,1,1,14.905-14.905A14.9,14.9,0,0,1,1442.032,1309.577Z" transform="translate(-1415.87 -1268.51)"/><g class="t"><rect class="u" width="77.714" height="16.444" transform="translate(-10.373 36.853)"/></g></g></g><g transform="translate(36.785 128.005)"><path class="v" d="M830.027,1964.45,662.2,1963.189a6.027,6.027,0,0,1-5.982-6.027v-86.224a6.027,6.027,0,0,1,6.027-6.027H830.072a6.027,6.027,0,0,1,6.027,6.027v87.485A6.027,6.027,0,0,1,830.027,1964.45Z" transform="translate(-656.223 -1864.912)"/><path class="v" d="M835.164,1983.7l-21.58-22.816-30.943,33.655-21.834-23.559-20.477,23.148-15.7-19.077-30.947,32.219v23.3a5.605,5.605,0,0,0,5.563,5.605l156.086,1.173a5.606,5.606,0,0,0,5.648-5.605v-63.384Z" transform="translate(-687.391 -1944.767)"/><rect class="h" width="0.568" height="54.282" transform="translate(147.905 38.295)"/><rect class="h" width="0.568" height="76.149" transform="translate(125.909 16.114)"/><rect class="h" width="0.568" height="42.673" transform="translate(94.966 49.359)"/><rect class="h" width="0.568" height="64.986" transform="translate(73.712 27.045)"/><rect class="h" width="0.568" height="43.365" transform="translate(52.655 48.667)"/><rect class="h" width="0.568" height="62.952" transform="translate(37.285 28.663)"/><circle class="w" cx="4.742" cy="4.742" r="4.742" transform="translate(31.373 31.23) rotate(-67.5)"/><path class="x" d="M959.151,2139.274a3.124,3.124,0,1,1-3.124-3.124A3.124,3.124,0,0,1,959.151,2139.274Z" transform="translate(-903.088 -2090.607)"/><path class="y" d="M1084.559,2010.5a3.124,3.124,0,1,1-3.124-3.124A3.124,3.124,0,0,1,1084.559,2010.5Z" transform="translate(-1007.439 -1983.458)"/><path class="y" d="M1211.139,2143.393a3.124,3.124,0,1,1-3.124-3.124A3.124,3.124,0,0,1,1211.139,2143.393Z" transform="translate(-1112.765 -2094.034)"/><path class="w" d="M1395.423,1945.4a3.124,3.124,0,1,1-3.124-3.124A3.124,3.124,0,0,1,1395.423,1945.4Z" transform="translate(-1266.106 -1929.287)"/><path class="z" d="M1526.422,2077.506a3.124,3.124,0,1,1-3.124-3.124A3.124,3.124,0,0,1,1526.422,2077.506Z" transform="translate(-1375.109 -2039.21)"/></g><g class="aa" transform="translate(35.788 92.16)"><path class="h" d="M699.775,1779.418h-46c-1.924,0-3.484,1.086-3.484,2.427s1.56,2.427,3.484,2.427h46c1.925,0,3.485-1.087,3.485-2.427S701.7,1779.418,699.775,1779.418Z" transform="translate(-650.286 -1757.928)"/><path class="h" d="M699.775,1715.424h-46c-1.924,0-3.484,1.086-3.484,2.427s1.56,2.427,3.484,2.427h46c1.925,0,3.485-1.086,3.485-2.427S701.7,1715.424,699.775,1715.424Z" transform="translate(-650.286 -1704.679)"/><path class="h" d="M699.775,1651.431h-46c-1.924,0-3.484,1.087-3.484,2.427s1.56,2.427,3.484,2.427h46c1.925,0,3.485-1.086,3.485-2.427S701.7,1651.431,699.775,1651.431Z" transform="translate(-650.286 -1651.431)"/></g><g class="aa" transform="translate(99.737 92.16)"><path class="h" d="M1080.633,1779.418h-46c-1.924,0-3.485,1.086-3.485,2.427s1.56,2.427,3.485,2.427h46c1.925,0,3.485-1.087,3.485-2.427S1082.558,1779.418,1080.633,1779.418Z" transform="translate(-1031.144 -1757.928)"/><path class="h" d="M1080.633,1715.424h-46c-1.924,0-3.485,1.086-3.485,2.427s1.56,2.427,3.485,2.427h46c1.925,0,3.485-1.086,3.485-2.427S1082.558,1715.424,1080.633,1715.424Z" transform="translate(-1031.144 -1704.679)"/><path class="h" d="M1080.633,1651.431h-46c-1.924,0-3.485,1.087-3.485,2.427s1.56,2.427,3.485,2.427h46c1.925,0,3.485-1.086,3.485-2.427S1082.558,1651.431,1080.633,1651.431Z" transform="translate(-1031.144 -1651.431)"/></g><g class="aa" transform="translate(163.687 92.16)"><path class="h" d="M1461.492,1779.418h-46c-1.924,0-3.484,1.086-3.484,2.427s1.56,2.427,3.484,2.427h46c1.924,0,3.485-1.087,3.485-2.427S1463.417,1779.418,1461.492,1779.418Z" transform="translate(-1412.003 -1757.928)"/><path class="h" d="M1461.492,1715.424h-46c-1.924,0-3.484,1.086-3.484,2.427s1.56,2.427,3.484,2.427h46c1.924,0,3.485-1.086,3.485-2.427S1463.417,1715.424,1461.492,1715.424Z" transform="translate(-1412.003 -1704.679)"/><path class="h" d="M1461.492,1651.431h-46c-1.924,0-3.484,1.087-3.484,2.427s1.56,2.427,3.484,2.427h46c1.924,0,3.485-1.086,3.485-2.427S1463.417,1651.431,1461.492,1651.431Z" transform="translate(-1412.003 -1651.431)"/></g><g transform="translate(377.623 25.226)"><g transform="translate(0.091 68.418)"><circle class="e" cx="21.287" cy="21.287" r="21.287" transform="translate(0 30.104) rotate(-45)"/><path class="ab" d="M2793.684,1753.587a13.674,13.674,0,1,1-12.648-8.477q.347,0,.689.017v-3.466c-.229-.009-.459-.015-.689-.015a17.125,17.125,0,1,0,15.828,10.56Z" transform="translate(-2750.931 -1727.982)"/><path class="ac" d="M2778.718,2020.035H2744.03a3.942,3.942,0,1,0,0,7.885h34.689a3.942,3.942,0,1,0,0-7.885Z" transform="translate(-2731.118 -1959.627)"/></g><g transform="translate(0 0)"><circle class="e" cx="21.287" cy="21.287" r="21.287" transform="translate(0 30.104) rotate(-45)"/><path class="ab" d="M2787.483,1362.881a13.672,13.672,0,1,1-7.285-25.242c.231,0,.461.006.69.017v-3.466c-.229-.009-.458-.015-.69-.015a17.137,17.137,0,1,0,9,31.719Z" transform="translate(-2750.143 -1320.512)"/><path class="ac" d="M2779.263,1612.565h-34.689a3.942,3.942,0,1,0,0,7.885h34.689a3.942,3.942,0,1,0,0-7.885Z" transform="translate(-2731.48 -1552.157)"/></g><g transform="translate(0.167 137.184)"><circle class="ad" cx="21.287" cy="21.287" r="21.287" transform="translate(0 30.104) rotate(-45)"/><path class="ae" d="M2794.5,2171.866a13.673,13.673,0,1,1-11.308-21.361q.347,0,.69.017v-3.466c-.229-.009-.459-.015-.69-.015A17.137,17.137,0,1,0,2797.3,2173.9Z" transform="translate(-2752.798 -2134.074)"/><path class="ac" d="M2743.578,2433.315h34.689a3.943,3.943,0,1,0,0-7.885h-34.689a3.943,3.943,0,0,0,0,7.885Z" transform="translate(-2730.818 -2365.719)"/></g></g></g></g><g transform="translate(1133.448 623.374)"><path class="af" d="M2221.4,741.211c-6.36-3.3-11.455-1.225-11.455-1.225-19.458-2.285-25.135,20.407-24.87,28.215s1.154,16.194-7.535,26.337c-25.1,29.3,27.469,30.593,27.469,30.593.445-23.41,28.507-14.868,27.277-12.5C2268.263,821.268,2235.866,748.714,2221.4,741.211Z" transform="translate(-2123.193 -739.343)"/><path class="ag" d="M2072.96,986.313s-4.075-6.2-7.36-6.325-9.366-1.825-8.88-.608,4.258,1.338,4.623,2.068-5.6,1.825-7.3,1.946-5.717,0-5.6.851,7.236,4.38,12.255,3.893,11.223,1.46,11.223,1.46Z" transform="translate(-2048.446 -885.772)"/><path class="ah" d="M2154.209,934.086a51.373,51.373,0,0,1-5.234,7.915c-4.066,5.092-10.335,10.976-18.207,12.137a19.545,19.545,0,0,1-10.818-1.756l-.012,0c-9.561-4.244-16.749-14-16.749-14a7.858,7.858,0,0,1,1.072-7.712s19.3,4.342,21.143,3.423,12.563-31.816,15.116-35.7,11.258-5.9,11.258-5.9Z" transform="translate(-2081.569 -832.936)"/><path class="ai" d="M2176.174,1003.736c-4.067,5.093-10.335,10.976-18.207,12.137a19.544,19.544,0,0,1-10.818-1.756c.374.049,9.922,1.229,13.728-5.58,3.883-6.947,8.08-17.977,13.847-14.3C2177.213,995.824,2177.1,999.767,2176.174,1003.736Z" transform="translate(-2108.767 -894.671)"/><path class="ag" d="M2386.922,1531.337s5.89,5.375,4.741,9.2-6.465,6.366-7.184,11.034-3.592,7.215-6.178,7.215h-12.33s-1.9-3.285,2.694-4.275,6.331-6.475,6.044-11.569a89.656,89.656,0,0,1,.431-11.883l9.769-2.264Z" transform="translate(-2242.26 -1221.804)"/><path class="ag" d="M2239.5,1541.207s2.119,22.774-.467,24.047l-33.1-.068s0-3.82,5.316-4.668,14.655-3.961,16.234-10.894S2239.5,1541.207,2239.5,1541.207Z" transform="translate(-2144.694 -1229.393)"/><path class="ag" d="M2265.376,947.895c-6.811-15.274-10.978-19.657-10.182-24.4.591-3.529-1.8-65.785-1.8-65.785-.808-.251-2.428-.475-3.313-.672a8.309,8.309,0,0,1-6.068-5.277,42.385,42.385,0,0,1-2.059-14.047l-.873.172-14.668,2.9s.333,4.616.343,8.966c0,.035,0,.072,0,.108a8.436,8.436,0,0,1-6.089,8.158c-1.853.535-3.465.992-3.465.992s-5.386,15.378-6.415,31.176,9.795,22.662-.082,54.232C2200.618,976.667,2269.138,956.334,2265.376,947.895Z" transform="translate(-2146.987 -799.462)"/><path class="aj" d="M2252.688,841.062s.333,4.616.343,8.966c8.209-.232,12.548-7.72,14.326-11.87Z" transform="translate(-2173.266 -799.732)"/><path class="ag" d="M2235.472,804.713s19.421.32,19.435-11.777,2.529-20.2-9.871-20.92-14.813,3.9-15.8,7.934S2230.42,804.318,2235.472,804.713Z" transform="translate(-2158.792 -759.265)"/><path class="af" d="M2247.486,767.5s5.317,14.193,13.478,16.292,11.7-.088,11.7-.088a23.108,23.108,0,0,1-7.559-13.653S2251.5,760.75,2247.486,767.5Z" transform="translate(-2170.087 -755.051)"/><path class="af" d="M2235.421,770.7s-3.944,1.474-5.566,4.35a19.549,19.549,0,0,0-2.625,11.106s-4.006-9.647.5-15.1C2232.5,765.26,2235.421,770.7,2235.421,770.7Z" transform="translate(-2156.704 -757.089)"/><path class="ak" d="M2245.482,835.85a4.88,4.88,0,0,1-4.021,1.636,3.569,3.569,0,0,1-2.993-1.976S2242.436,834.557,2245.482,835.85Z" transform="translate(-2164.576 -797.908)"/><path class="ah" d="M2263.743,916.674a131.887,131.887,0,0,1,0,15.3c-.328,5.531-5.923,12.939-6.717,14.772-1.992,4.6-4.238,5.344-4.238,5.344l-17.378,4.259-6.11,1.5-19.267-5.754s-8.776-24.5-5.252-38.284a105.989,105.989,0,0,1,8.908-23.365s15.723,15.395,36.195-1.305Z" transform="translate(-2143.479 -830.885)"/><path class="ai" d="M2296.244,981.377c-.327,5.531-.836,10.682-1.63,12.514-1.991,4.6-4.237,5.344-4.237,5.344L2273,1003.494l-7.547-2.219s24.808-6.173,27.811-34.995Z" transform="translate(-2181.067 -878.033)"/><path class="al" d="M2206.769,1060.588s-9.542,29.7-10.154,39.812,18.239,143.649,19,148.308c.715,4.392,6.168,7.192,6.168,7.192a8.255,8.255,0,0,0,6.088.469c4.967-1.4,6.537-3.082,6.537-3.082s7.427-95.238,2.831-129.259a538.7,538.7,0,0,1-4.651-63.441Z" transform="translate(-2138.989 -935.668)"/><path class="am" d="M2268.114,1058.31s14.556,19.529,15.912,32.731,2.128,59.573,5.019,72.443,13.512,37.637,13.512,77.778a8.008,8.008,0,0,1-4.512,3.527,37.268,37.268,0,0,1-3.969,1.1,6.24,6.24,0,0,1-6.979-3.313c-7.18-14.458-30.054-61.088-31.226-70.767-.831-6.85-8.052-52.186-23.806-78.788-3.782-6.387,2.321-31.785,2.321-31.785Z" transform="translate(-2159.907 -934.276)"/><path class="h" d="M2244.753,836.316s-.336,1.426-3.883,1.206c0,0-2.978-.184-2.887-1.751A9.582,9.582,0,0,1,2244.753,836.316Z" transform="translate(-2164.279 -798.05)"/><path class="an" d="M2217.98,1048.8s3.831,3.03,11.44,3.183c9.09.183,31.612-2.317,31.612-2.317a18.614,18.614,0,0,1,.96,5.749s-27.509,6.938-43.447,1.013C2218.546,1056.425,2216.491,1052.557,2217.98,1048.8Z" transform="translate(-2151.724 -928.462)"/><g transform="translate(71.368 121.963)"><path class="h" d="M2236.124,1062.372a4.73,4.73,0,1,1,4.148-4.694A4.452,4.452,0,0,1,2236.124,1062.372Zm0-8.014a3.374,3.374,0,1,0,2.772,3.319A3.087,3.087,0,0,0,2236.124,1054.358Z" transform="translate(-2231.976 -1052.983)"/></g><path class="ag" d="M2292.5,1116.262s-4.563,2.442-6.364,5.364-3.844,4.243-2.962,4.963,3.6-2.962,3.6-2.081-2.322,4.163-3.122,5.6.549,2.722,4.077,1.841a13.392,13.392,0,0,0,7.211-5.524c.48-1.12,3.2-6.645,3.2-6.645Z" transform="translate(-2191.766 -969.692)"/><path class="ah" d="M2310.089,889.133s13.786.966,19.071,13.813,6.615,28.931,6.615,32.56c0,13.665-1.621,32.707-27.081,48.256,0,0-6.418-3.718-6.229-6.306,0,0,23.542-39.067,2.565-63.855C2300.935,908.76,2310.089,889.133,2310.089,889.133Z" transform="translate(-2203.684 -830.885)"/></g></g></svg>