<svg xmlns="http://www.w3.org/2000/svg" width="384.157" height="349.609" viewBox="0 0 384.157 349.609"><defs><style>.a{opacity:0.1;}.b{fill:#fff;}</style></defs><g class="a" transform="translate(-294.693 -295.179)"><path class="b" d="M486.16,310.16s-26.544-33.322-72.227-.572C402.2,318,392.747,331.069,384.477,342.615c-27.653,38.575-48.2,85.039-67.6,128.226-12.5,27.826-23.925,57.716-21.966,88.732,1.838,29.2,14.927,57.369,40.621,72.834a86.646,86.646,0,0,0,27.792,10.749c22.729,4.508,44.21-3.641,59.744-20.562,0,0,22.088-21.325,27.41-39.6H410.119c-.208,0-2.375,5.132-2.583,5.5a44.656,44.656,0,0,1-8.911,11.287c-11.789,10.593-28.138,10.957-42.407,5.374-19.747-7.715-27.861-31.467-27.566-51.214.208-13.61,3.9-26.994,9.137-39.477,0,0,41.124-105.861,73.111-147.73a124.682,124.682,0,0,1,10.038-15.4c7.836-10.472,19.435-24,34.172-21.516a10.7,10.7,0,0,1,7.021,4.144,13.584,13.584,0,0,1,1.665,2.93c.26.59,1.56,3.415,1.179,3.953C464.939,340.812,486.16,310.16,486.16,310.16Z" transform="translate(0 0)"/><path class="b" d="M476.443,528.135H378.02s-17.164.9-4.508-24.376c0,0,73.492-142.651,82.386-149.048l-20.562-33.2S358.307,448.4,337.347,502.528c0,0-17.268,53.052,43.152,61.148H492.723C492.723,563.659,485.2,544.692,476.443,528.135Z" transform="translate(29.62 19.32)"/><path class="b" d="M464.019,528.385h22.174c2.7,0,6.016-3.675,7.039-5.808,2.9-6.12-.52-12.361-3.693-17.528-9.639-15.759-19-31.432-27.947-47.625q-21.117-38.151-42.216-76.3l-10.558-19.088c-.329-.607-4.438-6.761-4.057-7.334.018-.035,21.6-33.2,21.6-33.2s32.854,48.492,43.794,70.961l50.417,97.817s18.828,32.8-4.247,57.716c0,0-10.974,15.673-36.183,15.673Z" transform="translate(80.741 19.312)"/><path class="b" d="M413.445,373.98l25.867-39.754s17.823-16.158,37.882,12.812c0,0,50.157,71.88,75.226,138.749,0,0,34.553,64.078,11.148,101.406,0,0-11.148,26.751-44.019,21.723,0,0-16.713-2.358-30.1-25.971H450.286s25.26,66.939,82.647,61.495c40.118-3.8,68.153-41.592,73.024-79.508,6.051-47.036-22.088-92.425-40.153-133.774,0,0-42.355-96.95-88.038-129.266-2.254-1.595-5.305-2.531-7.871-3.415a59.465,59.465,0,0,0-20.232-3.242A56.812,56.812,0,0,0,425.1,301.25c-7.906,4-12.621,9.778-17.372,17.008q-7.412,11.261-14.823,22.5Z" transform="translate(72.057 0.033)"/><path class="b" d="M371.81,485.13l40.517-93.743s15.5-25.347,35.922,0c0,0,52.029,122.02,56.693,129.266H465.76l-36.842-80.635-18.568,45.094H371.81Z" transform="translate(56.582 62.325)"/></g></svg>