<svg xmlns="http://www.w3.org/2000/svg" width="46.295" height="42.132" viewBox="0 0 46.295 42.132"><defs><style>.a{fill:#fff;}</style></defs><g transform="translate(-294.693 -295.179)"><path class="a" d="M317.767,296.985s-3.2-4.016-8.7-.069a16.928,16.928,0,0,0-3.55,3.98c-3.332,4.649-5.808,10.248-8.146,15.453-1.506,3.353-2.883,6.955-2.647,10.693a10.773,10.773,0,0,0,4.9,8.777,10.442,10.442,0,0,0,3.349,1.3,7.605,7.605,0,0,0,7.2-2.478s2.662-2.57,3.3-4.772H308.6c-.025,0-.286.618-.311.662a5.381,5.381,0,0,1-1.074,1.36,4.856,4.856,0,0,1-5.111.648c-2.38-.93-3.358-3.792-3.322-6.172a12.917,12.917,0,0,1,1.1-4.757s4.956-12.757,8.811-17.8a15.027,15.027,0,0,1,1.21-1.855c.944-1.262,2.342-2.892,4.118-2.593a1.289,1.289,0,0,1,.846.5,1.638,1.638,0,0,1,.2.353c.031.071.188.412.142.476C315.21,300.678,317.767,296.985,317.767,296.985Z"/><path class="a" d="M352.1,346.411H340.239s-2.068.109-.543-2.938c0,0,8.857-17.191,9.928-17.962l-2.478-4s-9.283,15.292-11.809,21.815c0,0-2.081,6.393,5.2,7.369h13.524S353.156,348.406,352.1,346.411Z" transform="translate(-31.935 -20.829)"/><path class="a" d="M411.88,346.432h2.672c.326,0,.725-.443.848-.7a2.239,2.239,0,0,0-.445-2.112c-1.162-1.9-2.29-3.788-3.368-5.739q-2.545-4.6-5.088-9.2l-1.272-2.3a4.67,4.67,0,0,1-.489-.884l2.6-4s3.959,5.844,5.278,8.552L418.7,341.84s2.269,3.953-.512,6.955a5.356,5.356,0,0,1-4.36,1.889Z" transform="translate(-87.051 -20.822)"/><path class="a" d="M395.376,304.716l3.117-4.791s2.148-1.947,4.565,1.544c0,0,6.044,8.662,9.066,16.721,0,0,4.164,7.722,1.343,12.221a4.791,4.791,0,0,1-5.3,2.618s-2.014-.284-3.627-3.13h-4.72s3.044,8.067,9.96,7.411c4.835-.458,8.213-5.012,8.8-9.582.729-5.668-2.662-11.138-4.839-16.121,0,0-5.1-11.684-10.61-15.578a3.828,3.828,0,0,0-.949-.412,7.166,7.166,0,0,0-2.438-.391,6.847,6.847,0,0,0-2.961.725,5.365,5.365,0,0,0-2.094,2.05q-.893,1.357-1.786,2.712Z" transform="translate(-77.688 -0.036)"/><path class="a" d="M371.81,392.777l4.883-11.3s1.868-3.055,4.329,0c0,0,6.27,14.7,6.832,15.578h-4.722l-4.44-9.717-2.238,5.434H371.81Z" transform="translate(-61.005 -67.196)"/></g></svg>