<svg xmlns="http://www.w3.org/2000/svg" width="42.105" height="42.113" viewBox="0 0 42.105 42.113"><defs><style>.a{fill:#fff;}</style></defs><g transform="translate(-5 -4.982)"><path class="a" d="M44.7,17.346l-1.271.6a.466.466,0,0,0-.225.613,18.455,18.455,0,0,1,1.561,7.426A18.707,18.707,0,0,1,14.828,41.013H18.1a.468.468,0,0,0,.468-.468v-1.4a.468.468,0,0,0-.468-.468H10.614a.468.468,0,0,0-.468.468v7.485a.468.468,0,0,0,.468.468h1.4a.468.468,0,0,0,.468-.468V42.136a20.817,20.817,0,0,0,13.567,4.959A21.076,21.076,0,0,0,47.1,26.043a20.776,20.776,0,0,0-1.775-8.466.47.47,0,0,0-.629-.231ZM33.537,11.54v1.4a.468.468,0,0,0,.468.468H41.49a.468.468,0,0,0,.468-.468V5.458a.468.468,0,0,0-.468-.468h-1.4a.468.468,0,0,0-.468.468V9.946A21.045,21.045,0,0,0,5,26.183a20.765,20.765,0,0,0,1.775,8.325.471.471,0,0,0,.63.232l1.27-.6A.466.466,0,0,0,8.9,33.53a18.456,18.456,0,0,1-1.561-7.437A18.71,18.71,0,0,1,37.281,11.072H34.005A.468.468,0,0,0,33.537,11.54Z" transform="translate(0 0)"/><path class="a" d="M22.693,31.829v-1.62a4.957,4.957,0,0,1-3.645-4.385.336.336,0,0,1,.332-.367h2.007a.33.33,0,0,1,.327.287,2.314,2.314,0,0,0,2.31,1.987c1.074,0,2.328-.485,2.328-1.851,0-1.055-1.467-1.948-3.02-2.893-2.014-1.226-4.3-2.616-4.3-5.166a4.426,4.426,0,0,1,3.659-4.363V11.873a.333.333,0,0,1,.333-.333h2a.333.333,0,0,1,.333.333v1.62A4.957,4.957,0,0,1,29,17.878a.336.336,0,0,1-.332.367H26.661a.33.33,0,0,1-.327-.287,2.314,2.314,0,0,0-2.31-1.987c-1.074,0-2.328.485-2.328,1.851,0,1.055,1.467,1.948,3.02,2.893a13.345,13.345,0,0,1,3.358,2.591,3.9,3.9,0,0,1,.939,2.575,4.426,4.426,0,0,1-3.659,4.363v1.585a.333.333,0,0,1-.333.333h-2A.333.333,0,0,1,22.693,31.829Z" transform="translate(2.965 5.192)"/></g></svg>