<svg xmlns="http://www.w3.org/2000/svg" xmlns:xlink="http://www.w3.org/1999/xlink" width="564" height="477" viewBox="0 0 564 477"><defs><style>.a{fill:#474bff;}.a,.g{opacity:0.1;}.b{fill:#fff;}.c{fill:#eaeefa;}.d{fill:#b8b7f0;stroke:#b8b7f0;stroke-width:0.6px;}.e,.g{fill:#5756b3;}.f{fill:#fba481;}.h{filter:url(#c);}.i{filter:url(#a);}</style><filter id="a" x="47" y="87" width="517" height="390" filterUnits="userSpaceOnUse"><feOffset dy="3" input="SourceAlpha"/><feGaussianBlur stdDeviation="10" result="b"/><feFlood flood-color="#ebeffa"/><feComposite operator="in" in2="b"/><feComposite in="SourceGraphic"/></filter><filter id="c" x="0" y="40" width="154" height="154" filterUnits="userSpaceOnUse"><feOffset dy="3" input="SourceAlpha"/><feGaussianBlur stdDeviation="5" result="d"/><feFlood flood-color="#ebeffa" flood-opacity="0.6"/><feComposite operator="in" in2="d"/><feComposite in="SourceGraphic"/></filter></defs><g transform="translate(-677 -1000)"><circle class="a" cx="222" cy="222" r="222" transform="translate(692 1000)"/><g transform="translate(635 -3188)"><g class="i" transform="matrix(1, 0, 0, 1, 42, 4188)"><rect class="b" width="457" height="330" rx="8" transform="translate(77 114)"/></g><rect class="c" width="417" height="290" rx="8" transform="translate(139 4322)"/><rect class="b" width="393" height="266" rx="8" transform="translate(151 4334)"/><path class="d" d="M9.816,11.388,8.4,9.938l3.2-3.228H-7V4.678H11.592L8.4,1.45,9.816,0l5.638,5.694Z" transform="translate(349.5 4412.66) rotate(-90)"/><path class="d" d="M9.816,11.388,8.4,9.938l3.2-3.228L-27.62,3.668V1.636L11.592,4.678,8.4,1.45,9.816,0l5.638,5.694Z" transform="translate(422.811 4410.221) rotate(-38)"/><path class="d" d="M54.547,0,53.126,1.45l3.2,3.228L22.4,4.759V6.792L56.323,6.71l-3.2,3.228,1.421,1.45,5.638-5.694Z" transform="matrix(0.788, 0.616, -0.616, 0.788, 399.573, 4486.274)"/><path class="d" d="M54.547,0,53.126,1.45l3.2,3.228L28.284,8.12v2.032L56.323,6.71l-3.2,3.228,1.421,1.45,5.638-5.694Z" transform="translate(314.773 4456.609) rotate(-135)"/><path class="d" d="M54.547,11.388l-1.421-1.45,3.2-3.228L22.237,4.088V2.056L56.323,4.678l-3.2-3.228L54.547,0l5.638,5.694Z" transform="matrix(-0.629, 0.777, -0.777, -0.629, 300.582, 4493.183)"/><path class="d" d="M9.816,11.388,8.4,9.938l3.2-3.228H-41.033V4.678H11.592L8.4,1.45,9.816,0l5.638,5.694Z" transform="translate(456.638 4455.306)"/><path class="d" d="M26.816,0,25.4,1.45l3.2,3.228H7.542V6.71h21.05L25.4,9.938l1.421,1.45,5.638-5.694Z" transform="translate(358.888 4506.206) rotate(90)"/><path class="d" d="M26.816,0,25.4,1.45l3.2,3.228H-13V6.71H28.592L25.4,9.938l1.421,1.45,5.638-5.694Z" transform="translate(257 4477.694) rotate(180)"/><path class="e" d="M25.946,33.581a25.915,25.915,0,0,1,5.138.514A21.189,21.189,0,0,1,60.76,19.03a28.283,28.283,0,0,1,53.17,19.3,23.577,23.577,0,0,1-.708,47.141H25.946a25.947,25.947,0,1,1,0-51.893Zm0,0" transform="translate(279.397 4423.813)"/><g transform="translate(-57.492 -17.492)"><circle class="f" cx="20" cy="20" r="20" transform="translate(289.492 4386.492)"/><g transform="translate(301.808 4398.808)"><g transform="translate(0 0)"><circle class="b" cx="3.842" cy="3.842" r="3.842" transform="translate(3.87)"/><path class="b" d="M23.255,74H20.17A6.17,6.17,0,0,0,14,80.17H29.425A6.17,6.17,0,0,0,23.255,74Z" transform="translate(-14 -64.865)"/></g></g></g><g transform="translate(-115.492 65.508)"><circle class="f" cx="20" cy="20" r="20" transform="translate(289.492 4386.492)"/><g transform="translate(301.808 4398.808)"><g transform="translate(0 0)"><circle class="b" cx="3.842" cy="3.842" r="3.842" transform="translate(3.87)"/><path class="b" d="M23.255,74H20.17A6.17,6.17,0,0,0,14,80.17H29.425A6.17,6.17,0,0,0,23.255,74Z" transform="translate(-14 -64.865)"/></g></g></g><g transform="translate(-72.492 150.508)"><circle class="f" cx="20" cy="20" r="20" transform="translate(289.492 4386.492)"/><g transform="translate(301.808 4398.808)"><g transform="translate(0 0)"><circle class="b" cx="3.842" cy="3.842" r="3.842" transform="translate(3.87)"/><path class="b" d="M23.255,74H20.17A6.17,6.17,0,0,0,14,80.17H29.425A6.17,6.17,0,0,0,23.255,74Z" transform="translate(-14 -64.865)"/></g></g></g><g transform="translate(45.508 -40.492)"><circle class="f" cx="20" cy="20" r="20" transform="translate(289.492 4386.492)"/><g transform="translate(301.808 4398.808)"><g transform="translate(0 0)"><circle class="b" cx="3.842" cy="3.842" r="3.842" transform="translate(3.87)"/><path class="b" d="M23.255,74H20.17A6.17,6.17,0,0,0,14,80.17H29.425A6.17,6.17,0,0,0,23.255,74Z" transform="translate(-14 -64.865)"/></g></g></g><g transform="translate(45.508 160.508)"><circle class="f" cx="20" cy="20" r="20" transform="translate(289.492 4386.492)"/><g transform="translate(301.808 4398.808)"><g transform="translate(0 0)"><circle class="b" cx="3.842" cy="3.842" r="3.842" transform="translate(3.87)"/><path class="b" d="M23.255,74H20.17A6.17,6.17,0,0,0,14,80.17H29.425A6.17,6.17,0,0,0,23.255,74Z" transform="translate(-14 -64.865)"/></g></g></g><g transform="translate(157.508 140.508)"><circle class="f" cx="20" cy="20" r="20" transform="translate(289.492 4386.492)"/><g transform="translate(301.808 4398.808)"><g transform="translate(0 0)"><circle class="b" cx="3.842" cy="3.842" r="3.842" transform="translate(3.87)"/><path class="b" d="M23.255,74H20.17A6.17,6.17,0,0,0,14,80.17H29.425A6.17,6.17,0,0,0,23.255,74Z" transform="translate(-14 -64.865)"/></g></g></g><g transform="translate(192.508 54.508)"><circle class="f" cx="20" cy="20" r="20" transform="translate(289.492 4386.492)"/><g transform="translate(301.808 4398.808)"><g transform="translate(0 0)"><circle class="b" cx="3.842" cy="3.842" r="3.842" transform="translate(3.87)"/><path class="b" d="M23.255,74H20.17A6.17,6.17,0,0,0,14,80.17H29.425A6.17,6.17,0,0,0,23.255,74Z" transform="translate(-14 -64.865)"/></g></g></g><g transform="translate(152.508 -20.492)"><circle class="f" cx="20" cy="20" r="20" transform="translate(289.492 4386.492)"/><g transform="translate(301.808 4398.808)"><g transform="translate(0 0)"><circle class="b" cx="3.842" cy="3.842" r="3.842" transform="translate(3.87)"/><path class="b" d="M23.255,74H20.17A6.17,6.17,0,0,0,14,80.17H29.425A6.17,6.17,0,0,0,23.255,74Z" transform="translate(-14 -64.865)"/></g></g></g></g><g transform="translate(-458)"><g class="h" transform="matrix(1, 0, 0, 1, 1135, 1000)"><rect class="b" width="124" height="124" rx="12" transform="translate(15 52)"/></g><circle class="g" cx="44" cy="44" r="44" transform="translate(1168 1070)"/><g transform="translate(1925.773 1110)"><g transform="translate(-730.773 -15)"><path class="e" d="M42.274,12.871c0-.035-.018-.061-.018-.094L39.168,1.538A1.88,1.88,0,0,0,37.279,0H13.222a1.88,1.88,0,0,0-1.89,1.538L8.245,12.777c0,.033-.018.06-.018.094v3.094a3.07,3.07,0,0,0,.822,2.083l-.8,4.649c0,.034-.018.062-.018.1v3.093a3.072,3.072,0,0,0,.822,2.083l-.8,4.649c0,.034-.018.061-.018.1v3.094a3.1,3.1,0,0,0,3.1,3.1H39.178a3.1,3.1,0,0,0,3.1-3.1V32.713c0-.034-.018-.061-.018-.1l-.8-4.649a3.062,3.062,0,0,0,.822-2.083V22.793c0-.034-.018-.062-.018-.1l-.8-4.649a3.064,3.064,0,0,0,.822-2.083V12.871ZM40.725,35.807a1.55,1.55,0,0,1-1.547,1.548H11.324a1.551,1.551,0,0,1-1.547-1.548V32.713a1.551,1.551,0,0,1,1.547-1.549H39.18a1.552,1.552,0,0,1,1.548,1.549v3.094Zm0-9.921a1.55,1.55,0,0,1-1.547,1.549H11.324a1.551,1.551,0,0,1-1.547-1.549V22.793a1.551,1.551,0,0,1,1.547-1.549H39.18a1.552,1.552,0,0,1,1.548,1.549v3.093Zm0-9.921a1.551,1.551,0,0,1-1.547,1.549H11.324a1.552,1.552,0,0,1-1.547-1.549V12.871a1.552,1.552,0,0,1,1.547-1.549H39.18a1.553,1.553,0,0,1,1.548,1.549v3.094h0Z" transform="translate(-8.227)"/><path class="e" d="M22.126,112.329a1.113,1.113,0,1,1-1.114,1.111A1.112,1.112,0,0,1,22.126,112.329Z" transform="translate(-17.239 -79.182)"/><path class="e" d="M22.126,78.709a1.112,1.112,0,1,1-1.114,1.111A1.112,1.112,0,0,1,22.126,78.709Z" transform="translate(-17.239 -55.483)"/><path class="e" d="M22.126,45.086A1.112,1.112,0,1,1,21.012,46.2,1.113,1.113,0,0,1,22.126,45.086Z" transform="translate(-17.239 -31.782)"/></g></g></g></g></svg>