<svg xmlns="http://www.w3.org/2000/svg" xmlns:xlink="http://www.w3.org/1999/xlink" width="630" height="514" viewBox="0 0 630 514"><defs><style>.a,.d,.j{fill:#474bff;}.a{opacity:0.1;}.b{fill:#fff;}.c{fill:#eaeefa;}.e{fill:#9471f9;}.f{fill:#4eddfb;}.g{fill:#f2b8ec;}.h{fill:#3e5876;}.i{fill:#001a30;}.j{opacity:0.2;}.k{fill:#06213f;}.l{fill:#fde8b3;}.m{fill:#132b50;stroke:#132b50;stroke-width:0.6px;}.n{filter:url(#e);}.o{filter:url(#c);}.p{filter:url(#a);}</style><filter id="a" x="56" y="87" width="517" height="390" filterUnits="userSpaceOnUse"><feOffset dy="3" input="SourceAlpha"/><feGaussianBlur stdDeviation="10" result="b"/><feFlood flood-color="#ebeffa"/><feComposite operator="in" in2="b"/><feComposite in="SourceGraphic"/></filter><filter id="c" x="456" y="68" width="174" height="176" filterUnits="userSpaceOnUse"><feOffset dy="3" input="SourceAlpha"/><feGaussianBlur stdDeviation="5" result="d"/><feFlood flood-color="#ebeffa" flood-opacity="0.6"/><feComposite operator="in" in2="d"/><feComposite in="SourceGraphic"/></filter><filter id="e" x="0" y="338" width="174" height="176" filterUnits="userSpaceOnUse"><feOffset dy="3" input="SourceAlpha"/><feGaussianBlur stdDeviation="5" result="f"/><feFlood flood-color="#ebeffa" flood-opacity="0.6"/><feComposite operator="in" in2="f"/><feComposite in="SourceGraphic"/></filter></defs><g transform="translate(-668 -1000)"><circle class="a" cx="222" cy="222" r="222" transform="translate(839 1000)"/><g transform="translate(635 -3188)"><g class="p" transform="matrix(1, 0, 0, 1, 33, 4188)"><rect class="b" width="457" height="330" rx="8" transform="translate(86 114)"/></g><rect class="c" width="417" height="272" rx="8" transform="translate(139 4340)"/><path class="b" d="M8,0H114a8,8,0,0,1,8,8V290a0,0,0,0,1,0,0H8a8,8,0,0,1-8-8V8A8,8,0,0,1,8,0Z" transform="translate(139 4322)"/><rect class="d" width="417" height="36" rx="8" transform="translate(139 4322)"/><rect class="e" width="112" height="8" rx="4" transform="translate(139 4378)"/><rect class="f" width="112" height="8" rx="4" transform="translate(139 4448)"/><rect class="g" width="112" height="8" rx="4" transform="translate(139 4518)"/><rect class="c" width="70" height="8" rx="4" transform="translate(139 4394)"/><rect class="c" width="70" height="8" rx="4" transform="translate(139 4464)"/><rect class="c" width="70" height="8" rx="4" transform="translate(139 4534)"/><rect class="c" width="51" height="8" rx="4" transform="translate(139 4410)"/><rect class="c" width="51" height="8" rx="4" transform="translate(139 4480)"/><rect class="c" width="51" height="8" rx="4" transform="translate(139 4550)"/><rect class="b" width="263" height="222" rx="8" transform="translate(277 4374)"/><circle class="d" cx="16" cy="16" r="16" transform="translate(289 4386)"/><g transform="translate(285 4382.051)"><g transform="translate(14 13.668)"><circle class="b" cx="3" cy="3" r="3" transform="translate(3.022 0.282)"/><path class="b" d="M21.226,74H18.817A4.817,4.817,0,0,0,14,78.817H26.044A4.817,4.817,0,0,0,21.226,74Z" transform="translate(-14 -66.586)"/></g></g><g transform="translate(-489.918 4112.976)"><path class="h" d="M820.918,292.824h.68l2.1,2.832,2.12-2.832h.672v5.68h-.736v-4.416l-2.048,2.752-2.048-2.752V298.5h-.744Z"/><path class="h" d="M829.59,298.584a1.994,1.994,0,0,1-1.5-.592,2.194,2.194,0,0,1,.008-2.972,2,2,0,0,1,1.5-.6,1.856,1.856,0,0,1,1.356.54,1.968,1.968,0,0,1,.548,1.468,2.07,2.07,0,0,1-.009.208h-3.279a1.31,1.31,0,0,0,.4.936,1.467,1.467,0,0,0,2.229-.32l.544.376A1.965,1.965,0,0,1,829.59,298.584Zm-1.328-2.5H830.8a1.21,1.21,0,0,0-1.225-1.048,1.354,1.354,0,0,0-.844.284A1.224,1.224,0,0,0,828.262,296.08Z"/><path class="h" d="M837.63,298.5v-2.352a1.392,1.392,0,0,0-.2-.8.668.668,0,0,0-.588-.3.952.952,0,0,0-.78.376,1.669,1.669,0,0,0-.316,1.024V298.5h-.688v-2.352a1.388,1.388,0,0,0-.2-.8.663.663,0,0,0-.579-.3.961.961,0,0,0-.8.4,1.715,1.715,0,0,0-.3,1.068V298.5h-.687v-4h.687v.616a1.283,1.283,0,0,1,1.208-.7,1.211,1.211,0,0,1,1.232.856,1.344,1.344,0,0,1,.512-.624,1.419,1.419,0,0,1,.8-.232,1.278,1.278,0,0,1,1.024.44,1.764,1.764,0,0,1,.376,1.184V298.5Z"/><path class="h" d="M841.654,298.584a1.759,1.759,0,0,1-.82-.2,1.565,1.565,0,0,1-.588-.5v.616h-.687v-6h.687v2.616a1.556,1.556,0,0,1,.588-.5,1.759,1.759,0,0,1,.82-.2,1.825,1.825,0,0,1,1.4.608,2.2,2.2,0,0,1,0,2.944A1.828,1.828,0,0,1,841.654,298.584Zm-1.08-1.048a1.353,1.353,0,0,0,1.952,0,1.579,1.579,0,0,0,0-2.064,1.353,1.353,0,0,0-1.952,0,1.579,1.579,0,0,0,0,2.064Z"/><path class="h" d="M846.358,298.584a1.994,1.994,0,0,1-1.5-.592,2.194,2.194,0,0,1,.008-2.972,2.006,2.006,0,0,1,1.5-.6,1.86,1.86,0,0,1,1.357.54,1.968,1.968,0,0,1,.548,1.468c0,.08,0,.149-.009.208h-3.28a1.311,1.311,0,0,0,.4.936,1.466,1.466,0,0,0,2.228-.32l.544.376A1.963,1.963,0,0,1,846.358,298.584Zm-1.328-2.5h2.536a1.21,1.21,0,0,0-1.224-1.048,1.35,1.35,0,0,0-.844.284A1.229,1.229,0,0,0,845.03,296.08Z"/><path class="h" d="M849.246,298.5v-4h.688v.776a1.079,1.079,0,0,1,.436-.592,1.183,1.183,0,0,1,.684-.224,1.377,1.377,0,0,1,.311.032v.712a.921.921,0,0,0-.376-.064.96.96,0,0,0-.735.36,1.475,1.475,0,0,0-.32,1.016V298.5Z"/></g><g transform="translate(-547.807 4098.107)"><path class="i" d="M885,301.623h-1.019l-4-5.11v5.11h-1.17v-7.1h1.019l3.99,5.1v-5.1H885Z"/><path class="i" d="M887.116,295.533a.721.721,0,0,1-.52-.215.7.7,0,0,1-.22-.525.693.693,0,0,1,.22-.515.721.721,0,0,1,.52-.215.7.7,0,0,1,.52.215.71.71,0,0,1,.21.515.722.722,0,0,1-.21.525A.7.7,0,0,1,887.116,295.533Zm-.55,6.09v-5h1.1v5Z"/><path class="i" d="M891.426,301.723a2.576,2.576,0,0,1-1.885-.745,2.656,2.656,0,0,1,0-3.71,2.576,2.576,0,0,1,1.885-.745,2.638,2.638,0,0,1,1.386.37,2.489,2.489,0,0,1,.944,1.01l-.96.52a1.549,1.549,0,0,0-.55-.64,1.528,1.528,0,0,0-1.91.215,1.687,1.687,0,0,0,0,2.25,1.528,1.528,0,0,0,1.91.215,1.549,1.549,0,0,0,.55-.64l.96.52a2.483,2.483,0,0,1-.944,1.01A2.638,2.638,0,0,1,891.426,301.723Z"/><path class="i" d="M895.866,301.623h-1.1v-7.5h1.1v3.18a1.641,1.641,0,0,1,1.521-.78,1.787,1.787,0,0,1,1.389.57,2.167,2.167,0,0,1,.52,1.52v3.01h-1.1v-2.83a1.416,1.416,0,0,0-.28-.935.939.939,0,0,0-.76-.335,1.157,1.157,0,0,0-.929.43,1.828,1.828,0,0,0-.361,1.21Z"/><path class="i" d="M904.832,300.968a2.632,2.632,0,1,1,.755-1.845A2.532,2.532,0,0,1,904.832,300.968Zm-1.865-.265a1.409,1.409,0,0,0,1.075-.455,1.7,1.7,0,0,0,0-2.25,1.509,1.509,0,0,0-2.16,0,1.7,1.7,0,0,0,0,2.25A1.418,1.418,0,0,0,902.967,300.7Z"/><path class="i" d="M906.7,301.623v-7.5h1.1v7.5Z"/><path class="i" d="M911.326,301.723a2.23,2.23,0,0,1-1.715-.76,2.783,2.783,0,0,1,0-3.68,2.23,2.23,0,0,1,1.715-.76,2,2,0,0,1,.941.225,1.858,1.858,0,0,1,.659.545v-.67h1.1v5h-1.1v-.67a1.848,1.848,0,0,1-.659.545A2,2,0,0,1,911.326,301.723Zm-.87-1.46a1.474,1.474,0,0,0,2.14,0,1.754,1.754,0,0,0,0-2.28,1.474,1.474,0,0,0-2.14,0,1.757,1.757,0,0,0,0,2.28Z"/><path class="i" d="M917.106,301.723a2.68,2.68,0,0,1-1.219-.265,1.7,1.7,0,0,1-.79-.8l.809-.58a1.116,1.116,0,0,0,.481.505,1.447,1.447,0,0,0,.719.185.89.89,0,0,0,.515-.14.445.445,0,0,0,.205-.39.452.452,0,0,0-.165-.36,1.858,1.858,0,0,0-.6-.28l-.441-.12a1.5,1.5,0,0,1-1.309-1.53,1.246,1.246,0,0,1,.509-1.04,2.048,2.048,0,0,1,1.281-.39,1.843,1.843,0,0,1,1.689.85l-.76.58a1.145,1.145,0,0,0-.95-.51.87.87,0,0,0-.47.125.389.389,0,0,0-.2.345.48.48,0,0,0,.13.34,1.107,1.107,0,0,0,.471.25l.51.15a2.429,2.429,0,0,1,1.049.565,1.3,1.3,0,0,1,.35.955,1.389,1.389,0,0,1-.51,1.13A1.977,1.977,0,0,1,917.106,301.723Z"/><path class="i" d="M922.536,294.523h1.07l2.48,3.36,2.49-3.36h1.07v7.1h-1.18v-5.09l-2.37,3.22-2.39-3.23v5.1h-1.17Z"/><path class="i" d="M931.766,295.533a.723.723,0,0,1-.521-.215.707.707,0,0,1-.22-.525.7.7,0,0,1,.22-.515.723.723,0,0,1,.521-.215.7.7,0,0,1,.519.215.706.706,0,0,1,.21.515.718.718,0,0,1-.21.525A.7.7,0,0,1,931.766,295.533Zm-.55,6.09v-5h1.1v5Z"/><path class="i" d="M933.8,301.623v-7.5h1.1v7.5Z"/><path class="i" d="M936.376,301.623v-7.5h1.1v7.5Z"/><path class="i" d="M941.216,301.723a2.6,2.6,0,1,1,0-5.2,2.383,2.383,0,0,1,1.724.66,2.409,2.409,0,0,1,.686,1.82c0,.134,0,.253-.01.36h-3.93a1.366,1.366,0,0,0,.47.985,1.721,1.721,0,0,0,2.5-.385l.84.6A2.486,2.486,0,0,1,941.216,301.723Zm-1.481-3.16h2.781a1.27,1.27,0,0,0-.465-.815,1.373,1.373,0,0,0-.875-.295,1.55,1.55,0,0,0-.925.29A1.3,1.3,0,0,0,939.735,298.563Z"/><path class="i" d="M944.756,301.623v-5h1.1v.89a1.321,1.321,0,0,1,.516-.68,1.388,1.388,0,0,1,.805-.26,1.893,1.893,0,0,1,.429.04v1.13a1.557,1.557,0,0,0-.549-.09,1.082,1.082,0,0,0-.85.4,1.667,1.667,0,0,0-.351,1.125v2.44Z"/></g><g transform="translate(0 42)"><circle class="d" cx="16" cy="16" r="16" transform="translate(289 4386)"/><g transform="translate(285 4382.051)"><g transform="translate(14 13.668)"><circle class="b" cx="3" cy="3" r="3" transform="translate(3.022 0.282)"/><path class="b" d="M21.226,74H18.817A4.817,4.817,0,0,0,14,78.817H26.044A4.817,4.817,0,0,0,21.226,74Z" transform="translate(-14 -66.586)"/></g></g><g transform="translate(-489.918 4112.976)"><path class="h" d="M820.918,292.824h.68l2.1,2.832,2.12-2.832h.672v5.68h-.736v-4.416l-2.048,2.752-2.048-2.752V298.5h-.744Z"/><path class="h" d="M829.59,298.584a1.994,1.994,0,0,1-1.5-.592,2.194,2.194,0,0,1,.008-2.972,2,2,0,0,1,1.5-.6,1.856,1.856,0,0,1,1.356.54,1.968,1.968,0,0,1,.548,1.468,2.07,2.07,0,0,1-.009.208h-3.279a1.31,1.31,0,0,0,.4.936,1.467,1.467,0,0,0,2.229-.32l.544.376A1.965,1.965,0,0,1,829.59,298.584Zm-1.328-2.5H830.8a1.21,1.21,0,0,0-1.225-1.048,1.354,1.354,0,0,0-.844.284A1.224,1.224,0,0,0,828.262,296.08Z"/><path class="h" d="M837.63,298.5v-2.352a1.392,1.392,0,0,0-.2-.8.668.668,0,0,0-.588-.3.952.952,0,0,0-.78.376,1.669,1.669,0,0,0-.316,1.024V298.5h-.688v-2.352a1.388,1.388,0,0,0-.2-.8.663.663,0,0,0-.579-.3.961.961,0,0,0-.8.4,1.715,1.715,0,0,0-.3,1.068V298.5h-.687v-4h.687v.616a1.283,1.283,0,0,1,1.208-.7,1.211,1.211,0,0,1,1.232.856,1.344,1.344,0,0,1,.512-.624,1.419,1.419,0,0,1,.8-.232,1.278,1.278,0,0,1,1.024.44,1.764,1.764,0,0,1,.376,1.184V298.5Z"/><path class="h" d="M841.654,298.584a1.759,1.759,0,0,1-.82-.2,1.565,1.565,0,0,1-.588-.5v.616h-.687v-6h.687v2.616a1.556,1.556,0,0,1,.588-.5,1.759,1.759,0,0,1,.82-.2,1.825,1.825,0,0,1,1.4.608,2.2,2.2,0,0,1,0,2.944A1.828,1.828,0,0,1,841.654,298.584Zm-1.08-1.048a1.353,1.353,0,0,0,1.952,0,1.579,1.579,0,0,0,0-2.064,1.353,1.353,0,0,0-1.952,0,1.579,1.579,0,0,0,0,2.064Z"/><path class="h" d="M846.358,298.584a1.994,1.994,0,0,1-1.5-.592,2.194,2.194,0,0,1,.008-2.972,2.006,2.006,0,0,1,1.5-.6,1.86,1.86,0,0,1,1.357.54,1.968,1.968,0,0,1,.548,1.468c0,.08,0,.149-.009.208h-3.28a1.311,1.311,0,0,0,.4.936,1.466,1.466,0,0,0,2.228-.32l.544.376A1.963,1.963,0,0,1,846.358,298.584Zm-1.328-2.5h2.536a1.21,1.21,0,0,0-1.224-1.048,1.35,1.35,0,0,0-.844.284A1.229,1.229,0,0,0,845.03,296.08Z"/><path class="h" d="M849.246,298.5v-4h.688v.776a1.079,1.079,0,0,1,.436-.592,1.183,1.183,0,0,1,.684-.224,1.377,1.377,0,0,1,.311.032v.712a.921.921,0,0,0-.376-.064.96.96,0,0,0-.735.36,1.475,1.475,0,0,0-.32,1.016V298.5Z"/></g><g transform="translate(-542.026 4124.312)"><path class="i" d="M875.206,275.808a2.283,2.283,0,0,1-1.555-.545,1.938,1.938,0,0,1-.625-1.545h1.161a.93.93,0,0,0,.3.735,1.052,1.052,0,0,0,.72.265,1,1,0,0,0,.716-.27,1.068,1.068,0,0,0,.284-.81v-5.05h1.17v5.15a1.911,1.911,0,0,1-.614,1.555A2.344,2.344,0,0,1,875.206,275.808Z"/><path class="i" d="M882.951,275.033a2.632,2.632,0,1,1,.755-1.845A2.532,2.532,0,0,1,882.951,275.033Zm-1.865-.265a1.407,1.407,0,0,0,1.075-.455,1.7,1.7,0,0,0,0-2.25,1.509,1.509,0,0,0-2.16,0,1.7,1.7,0,0,0,0,2.25A1.42,1.42,0,0,0,881.086,274.768Z"/><path class="i" d="M884.816,275.688v-5h1.1v.68a1.639,1.639,0,0,1,1.521-.78,1.788,1.788,0,0,1,1.389.57,2.167,2.167,0,0,1,.52,1.52v3.01h-1.1v-2.83a1.42,1.42,0,0,0-.28-.935.94.94,0,0,0-.76-.335,1.157,1.157,0,0,0-.93.43,1.833,1.833,0,0,0-.36,1.21v2.46Z"/><path class="i" d="M892.807,275.788a2.231,2.231,0,0,1-1.715-.76,2.78,2.78,0,0,1,0-3.68,2.231,2.231,0,0,1,1.715-.76,2,2,0,0,1,.94.225,1.848,1.848,0,0,1,.659.545v-.67h1.1v5h-1.1v-.67a1.848,1.848,0,0,1-.659.545A2,2,0,0,1,892.807,275.788Zm-.87-1.46a1.473,1.473,0,0,0,2.139,0,1.754,1.754,0,0,0,0-2.28,1.473,1.473,0,0,0-2.139,0,1.757,1.757,0,0,0,0,2.28Z"/><path class="i" d="M899.166,275.738a1.782,1.782,0,0,1-1.235-.425,1.569,1.569,0,0,1-.475-1.235v-2.41h-1.04v-.98h1.04V269.3h1.1v1.39h1.43v.98h-1.43v2.23a.72.72,0,0,0,.84.85,1.487,1.487,0,0,0,.59-.1v.98A2.816,2.816,0,0,1,899.166,275.738Z"/><path class="i" d="M902.126,275.688h-1.1v-7.5h1.1v3.18a1.639,1.639,0,0,1,1.52-.78,1.789,1.789,0,0,1,1.39.57,2.167,2.167,0,0,1,.52,1.52v3.01h-1.1v-2.83a1.42,1.42,0,0,0-.28-.935.94.94,0,0,0-.76-.335,1.157,1.157,0,0,0-.93.43,1.833,1.833,0,0,0-.36,1.21Z"/><path class="i" d="M909.017,275.788a2.23,2.23,0,0,1-1.715-.76,2.78,2.78,0,0,1,0-3.68,2.23,2.23,0,0,1,1.715-.76,2,2,0,0,1,.94.225,1.849,1.849,0,0,1,.659.545v-.67h1.1v5h-1.1v-.67a1.849,1.849,0,0,1-.659.545A2,2,0,0,1,909.017,275.788Zm-.871-1.46a1.474,1.474,0,0,0,2.14,0,1.754,1.754,0,0,0,0-2.28,1.474,1.474,0,0,0-2.14,0,1.76,1.76,0,0,0,0,2.28Z"/><path class="i" d="M913.206,275.688v-5h1.1v.68a1.639,1.639,0,0,1,1.52-.78,1.79,1.79,0,0,1,1.39.57,2.171,2.171,0,0,1,.519,1.52v3.01h-1.1v-2.83a1.414,1.414,0,0,0-.281-.935.936.936,0,0,0-.759-.335,1.156,1.156,0,0,0-.93.43,1.833,1.833,0,0,0-.36,1.21v2.46Z"/><path class="i" d="M925.016,275.808a3.8,3.8,0,0,1-2.755-1.05,3.494,3.494,0,0,1-1.085-2.62,3.538,3.538,0,0,1,1.065-2.61,3.611,3.611,0,0,1,2.655-1.06,3.683,3.683,0,0,1,2.75,1.07l-.8.83a2.641,2.641,0,0,0-1.95-.77,2.439,2.439,0,0,0-1.82.735,2.632,2.632,0,0,0,.005,3.625,2.612,2.612,0,0,0,1.925.72,2.64,2.64,0,0,0,1.7-.46v-1.58h-1.78v-1.1h2.92v3.25a2.881,2.881,0,0,1-1.22.76A4.953,4.953,0,0,1,925.016,275.808Z"/><path class="i" d="M931.186,275.788a2.23,2.23,0,0,1-1.715-.76,2.78,2.78,0,0,1,0-3.68,2.23,2.23,0,0,1,1.715-.76,2,2,0,0,1,.94.225,1.848,1.848,0,0,1,.659.545v-.67h1.1v5h-1.1v-.67a1.848,1.848,0,0,1-.659.545A2,2,0,0,1,931.186,275.788Zm-.871-1.46a1.474,1.474,0,0,0,2.14,0,1.754,1.754,0,0,0,0-2.28,1.474,1.474,0,0,0-2.14,0,1.76,1.76,0,0,0,0,2.28Z"/><path class="i" d="M935.376,275.688v-5h1.1v.89a1.313,1.313,0,0,1,.515-.68,1.388,1.388,0,0,1,.8-.26,1.909,1.909,0,0,1,.43.04v1.13a1.566,1.566,0,0,0-.55-.09,1.084,1.084,0,0,0-.85.4,1.667,1.667,0,0,0-.35,1.125v2.44Z"/><path class="i" d="M941.275,275.788a2.574,2.574,0,0,1-1.884-.745,2.656,2.656,0,0,1,0-3.71,2.574,2.574,0,0,1,1.884-.745,2.633,2.633,0,0,1,1.386.37,2.483,2.483,0,0,1,.944,1.01l-.959.52a1.549,1.549,0,0,0-.55-.64,1.528,1.528,0,0,0-1.91.215,1.687,1.687,0,0,0,0,2.25,1.528,1.528,0,0,0,1.91.215,1.549,1.549,0,0,0,.55-.64l.959.52a2.483,2.483,0,0,1-.944,1.01A2.633,2.633,0,0,1,941.275,275.788Z"/><path class="i" d="M945.166,269.6a.721.721,0,0,1-.52-.215.7.7,0,0,1-.22-.525.693.693,0,0,1,.22-.515.721.721,0,0,1,.52-.215.7.7,0,0,1,.52.215.71.71,0,0,1,.21.515.722.722,0,0,1-.21.525A.7.7,0,0,1,945.166,269.6Zm-.55,6.09v-5h1.1v5Z"/><path class="i" d="M949.246,275.788a2.23,2.23,0,0,1-1.715-.76,2.783,2.783,0,0,1,0-3.68,2.23,2.23,0,0,1,1.715-.76,2,2,0,0,1,.941.225,1.857,1.857,0,0,1,.659.545v-.67h1.1v5h-1.1v-.67a1.857,1.857,0,0,1-.659.545A2,2,0,0,1,949.246,275.788Zm-.87-1.46a1.474,1.474,0,0,0,2.14,0,1.754,1.754,0,0,0,0-2.28,1.474,1.474,0,0,0-2.14,0,1.757,1.757,0,0,0,0,2.28Z"/></g></g><g transform="translate(0 84)"><circle class="d" cx="16" cy="16" r="16" transform="translate(289 4386)"/><g transform="translate(285 4382.051)"><g transform="translate(14 13.668)"><circle class="b" cx="3" cy="3" r="3" transform="translate(3.022 0.282)"/><path class="b" d="M21.226,74H18.817A4.817,4.817,0,0,0,14,78.817H26.044A4.817,4.817,0,0,0,21.226,74Z" transform="translate(-14 -66.586)"/></g></g><g transform="translate(-489.918 4112.976)"><path class="h" d="M820.918,292.824h.68l2.1,2.832,2.12-2.832h.672v5.68h-.736v-4.416l-2.048,2.752-2.048-2.752V298.5h-.744Z"/><path class="h" d="M829.59,298.584a1.994,1.994,0,0,1-1.5-.592,2.194,2.194,0,0,1,.008-2.972,2,2,0,0,1,1.5-.6,1.856,1.856,0,0,1,1.356.54,1.968,1.968,0,0,1,.548,1.468,2.07,2.07,0,0,1-.009.208h-3.279a1.31,1.31,0,0,0,.4.936,1.467,1.467,0,0,0,2.229-.32l.544.376A1.965,1.965,0,0,1,829.59,298.584Zm-1.328-2.5H830.8a1.21,1.21,0,0,0-1.225-1.048,1.354,1.354,0,0,0-.844.284A1.224,1.224,0,0,0,828.262,296.08Z"/><path class="h" d="M837.63,298.5v-2.352a1.392,1.392,0,0,0-.2-.8.668.668,0,0,0-.588-.3.952.952,0,0,0-.78.376,1.669,1.669,0,0,0-.316,1.024V298.5h-.688v-2.352a1.388,1.388,0,0,0-.2-.8.663.663,0,0,0-.579-.3.961.961,0,0,0-.8.4,1.715,1.715,0,0,0-.3,1.068V298.5h-.687v-4h.687v.616a1.283,1.283,0,0,1,1.208-.7,1.211,1.211,0,0,1,1.232.856,1.344,1.344,0,0,1,.512-.624,1.419,1.419,0,0,1,.8-.232,1.278,1.278,0,0,1,1.024.44,1.764,1.764,0,0,1,.376,1.184V298.5Z"/><path class="h" d="M841.654,298.584a1.759,1.759,0,0,1-.82-.2,1.565,1.565,0,0,1-.588-.5v.616h-.687v-6h.687v2.616a1.556,1.556,0,0,1,.588-.5,1.759,1.759,0,0,1,.82-.2,1.825,1.825,0,0,1,1.4.608,2.2,2.2,0,0,1,0,2.944A1.828,1.828,0,0,1,841.654,298.584Zm-1.08-1.048a1.353,1.353,0,0,0,1.952,0,1.579,1.579,0,0,0,0-2.064,1.353,1.353,0,0,0-1.952,0,1.579,1.579,0,0,0,0,2.064Z"/><path class="h" d="M846.358,298.584a1.994,1.994,0,0,1-1.5-.592,2.194,2.194,0,0,1,.008-2.972,2.006,2.006,0,0,1,1.5-.6,1.86,1.86,0,0,1,1.357.54,1.968,1.968,0,0,1,.548,1.468c0,.08,0,.149-.009.208h-3.28a1.311,1.311,0,0,0,.4.936,1.466,1.466,0,0,0,2.228-.32l.544.376A1.963,1.963,0,0,1,846.358,298.584Zm-1.328-2.5h2.536a1.21,1.21,0,0,0-1.224-1.048,1.35,1.35,0,0,0-.844.284A1.229,1.229,0,0,0,845.03,296.08Z"/><path class="h" d="M849.246,298.5v-4h.688v.776a1.079,1.079,0,0,1,.436-.592,1.183,1.183,0,0,1,.684-.224,1.377,1.377,0,0,1,.311.032v.712a.921.921,0,0,0-.376-.064.96.96,0,0,0-.735.36,1.475,1.475,0,0,0-.32,1.016V298.5Z"/></g><g transform="translate(-544.937 4146.395)"><path class="i" d="M878.466,253.61a3.292,3.292,0,0,1-1.529-.35,2.294,2.294,0,0,1-1-.93l.919-.73a1.862,1.862,0,0,0,1.65.91,1.327,1.327,0,0,0,.83-.245.762.762,0,0,0,.32-.635q0-.711-1.01-1.08l-.78-.28a2.918,2.918,0,0,1-1.269-.795,1.964,1.964,0,0,1,.239-2.66,2.5,2.5,0,0,1,1.66-.545,2.643,2.643,0,0,1,2.15.97l-.81.79a1.692,1.692,0,0,0-1.35-.66,1.384,1.384,0,0,0-.8.22.689.689,0,0,0-.325.6.74.74,0,0,0,.245.585,2.819,2.819,0,0,0,.835.435l.72.27a3.016,3.016,0,0,1,1.25.81,1.835,1.835,0,0,1,.42,1.27,1.861,1.861,0,0,1-.66,1.485A2.541,2.541,0,0,1,878.466,253.61Z"/><path class="i" d="M886.1,252.835a2.62,2.62,0,0,1-4.486-1.845,2.51,2.51,0,0,1,.755-1.845,2.624,2.624,0,0,1,3.731,3.69Zm-1.866-.265a1.411,1.411,0,0,0,1.076-.455,1.7,1.7,0,0,0,0-2.25,1.51,1.51,0,0,0-2.161,0,1.7,1.7,0,0,0,0,2.25A1.421,1.421,0,0,0,884.236,252.57Z"/><path class="i" d="M889.066,255.58h-1.1v-7.09h1.1v.67a1.835,1.835,0,0,1,.665-.545,2.03,2.03,0,0,1,.946-.225,2.234,2.234,0,0,1,1.715.76,2.783,2.783,0,0,1,0,3.68,2.237,2.237,0,0,1-1.715.76,2.03,2.03,0,0,1-.946-.225,1.846,1.846,0,0,1-.665-.545Zm1.411-2.99a1.384,1.384,0,0,0,1.07-.46,1.757,1.757,0,0,0,0-2.28,1.487,1.487,0,0,0-2.151,0,1.76,1.76,0,0,0,0,2.28A1.4,1.4,0,0,0,890.477,252.59Z"/><path class="i" d="M895.306,253.49h-1.1v-7.5h1.1v3.18a1.639,1.639,0,0,1,1.52-.78,1.79,1.79,0,0,1,1.39.57,2.171,2.171,0,0,1,.519,1.52v3.01h-1.1v-2.83a1.414,1.414,0,0,0-.281-.935.934.934,0,0,0-.759-.335,1.156,1.156,0,0,0-.93.43,1.831,1.831,0,0,0-.36,1.21Z"/><path class="i" d="M900.7,247.4a.721.721,0,0,1-.52-.215.7.7,0,0,1-.22-.525.693.693,0,0,1,.22-.515.717.717,0,0,1,.52-.215.7.7,0,0,1,.52.215.71.71,0,0,1,.21.515.722.722,0,0,1-.21.525A.7.7,0,0,1,900.7,247.4Zm-.55,6.09v-5h1.1v5Z"/><path class="i" d="M904.776,253.59a2.232,2.232,0,0,1-1.714-.76,2.78,2.78,0,0,1,0-3.68,2.228,2.228,0,0,1,1.714-.76,2,2,0,0,1,.941.225,1.837,1.837,0,0,1,.659.545v-.67h1.1v5h-1.1v-.67a1.848,1.848,0,0,1-.659.545A2,2,0,0,1,904.776,253.59Zm-.87-1.46a1.474,1.474,0,0,0,2.14,0,1.754,1.754,0,0,0,0-2.28,1.474,1.474,0,0,0-2.14,0,1.757,1.757,0,0,0,0,2.28Z"/><path class="i" d="M912.676,253.61a2.284,2.284,0,0,1-1.555-.545,1.938,1.938,0,0,1-.625-1.545h1.16a.931.931,0,0,0,.3.735,1.049,1.049,0,0,0,.72.265,1,1,0,0,0,.716-.27,1.069,1.069,0,0,0,.284-.81v-5.05h1.17v5.15a1.911,1.911,0,0,1-.615,1.555A2.341,2.341,0,0,1,912.676,253.61Z"/><path class="i" d="M920.421,252.835a2.682,2.682,0,0,1-3.731,0,2.634,2.634,0,0,1,0-3.69,2.682,2.682,0,0,1,3.731,0,2.632,2.632,0,0,1,0,3.69Zm-1.865-.265a1.409,1.409,0,0,0,1.075-.455,1.7,1.7,0,0,0,0-2.25,1.509,1.509,0,0,0-2.16,0,1.7,1.7,0,0,0,0,2.25A1.418,1.418,0,0,0,918.556,252.57Z"/><path class="i" d="M923.386,253.49h-1.1v-7.5h1.1v3.18a1.639,1.639,0,0,1,1.52-.78,1.79,1.79,0,0,1,1.39.57,2.167,2.167,0,0,1,.519,1.52v3.01h-1.1v-2.83a1.419,1.419,0,0,0-.28-.935.937.937,0,0,0-.76-.335,1.156,1.156,0,0,0-.93.43,1.831,1.831,0,0,0-.36,1.21Z"/><path class="i" d="M928.226,253.49v-5h1.1v.68a1.641,1.641,0,0,1,1.521-.78,1.787,1.787,0,0,1,1.389.57,2.167,2.167,0,0,1,.52,1.52v3.01h-1.1v-2.83a1.414,1.414,0,0,0-.28-.935.936.936,0,0,0-.76-.335,1.154,1.154,0,0,0-.929.43,1.826,1.826,0,0,0-.361,1.21v2.46Z"/><path class="i" d="M935.756,253.59a2.7,2.7,0,0,1-1.22-.265,1.711,1.711,0,0,1-.79-.795l.81-.58a1.108,1.108,0,0,0,.48.505,1.451,1.451,0,0,0,.72.185.9.9,0,0,0,.515-.14.474.474,0,0,0,.04-.75,1.854,1.854,0,0,0-.6-.28l-.44-.12a1.5,1.5,0,0,1-1.31-1.53,1.243,1.243,0,0,1,.51-1.04,2.045,2.045,0,0,1,1.28-.39,1.843,1.843,0,0,1,1.69.85l-.76.58a1.147,1.147,0,0,0-.95-.51.871.871,0,0,0-.47.125.386.386,0,0,0-.2.345.482.482,0,0,0,.13.34,1.125,1.125,0,0,0,.47.25l.51.15a2.433,2.433,0,0,1,1.05.565,1.3,1.3,0,0,1,.349.955,1.388,1.388,0,0,1-.509,1.13A1.979,1.979,0,0,1,935.756,253.59Z"/><path class="i" d="M942.831,252.835a2.62,2.62,0,0,1-4.485-1.845,2.578,2.578,0,0,1,2.62-2.6,2.536,2.536,0,0,1,1.865.755,2.632,2.632,0,0,1,0,3.69Zm-1.865-.265a1.409,1.409,0,0,0,1.075-.455,1.7,1.7,0,0,0,0-2.25,1.509,1.509,0,0,0-2.16,0,1.7,1.7,0,0,0,0,2.25A1.419,1.419,0,0,0,940.966,252.57Z"/><path class="i" d="M944.7,253.49v-5h1.1v.68a1.639,1.639,0,0,1,1.52-.78,1.79,1.79,0,0,1,1.39.57,2.167,2.167,0,0,1,.52,1.52v3.01h-1.1v-2.83a1.42,1.42,0,0,0-.28-.935.937.937,0,0,0-.76-.335,1.156,1.156,0,0,0-.93.43,1.831,1.831,0,0,0-.36,1.21v2.46Z"/></g></g><g transform="translate(0 125)"><circle class="d" cx="16" cy="16" r="16" transform="translate(289 4386)"/><g transform="translate(285 4382.051)"><g transform="translate(14 13.668)"><circle class="b" cx="3" cy="3" r="3" transform="translate(3.022 0.282)"/><path class="b" d="M21.226,74H18.817A4.817,4.817,0,0,0,14,78.817H26.044A4.817,4.817,0,0,0,21.226,74Z" transform="translate(-14 -66.586)"/></g></g><g transform="translate(-489.918 4112.976)"><path class="h" d="M820.918,292.824h.68l2.1,2.832,2.12-2.832h.672v5.68h-.736v-4.416l-2.048,2.752-2.048-2.752V298.5h-.744Z"/><path class="h" d="M829.59,298.584a1.994,1.994,0,0,1-1.5-.592,2.194,2.194,0,0,1,.008-2.972,2,2,0,0,1,1.5-.6,1.856,1.856,0,0,1,1.356.54,1.968,1.968,0,0,1,.548,1.468,2.07,2.07,0,0,1-.009.208h-3.279a1.31,1.31,0,0,0,.4.936,1.467,1.467,0,0,0,2.229-.32l.544.376A1.965,1.965,0,0,1,829.59,298.584Zm-1.328-2.5H830.8a1.21,1.21,0,0,0-1.225-1.048,1.354,1.354,0,0,0-.844.284A1.224,1.224,0,0,0,828.262,296.08Z"/><path class="h" d="M837.63,298.5v-2.352a1.392,1.392,0,0,0-.2-.8.668.668,0,0,0-.588-.3.952.952,0,0,0-.78.376,1.669,1.669,0,0,0-.316,1.024V298.5h-.688v-2.352a1.388,1.388,0,0,0-.2-.8.663.663,0,0,0-.579-.3.961.961,0,0,0-.8.4,1.715,1.715,0,0,0-.3,1.068V298.5h-.687v-4h.687v.616a1.283,1.283,0,0,1,1.208-.7,1.211,1.211,0,0,1,1.232.856,1.344,1.344,0,0,1,.512-.624,1.419,1.419,0,0,1,.8-.232,1.278,1.278,0,0,1,1.024.44,1.764,1.764,0,0,1,.376,1.184V298.5Z"/><path class="h" d="M841.654,298.584a1.759,1.759,0,0,1-.82-.2,1.565,1.565,0,0,1-.588-.5v.616h-.687v-6h.687v2.616a1.556,1.556,0,0,1,.588-.5,1.759,1.759,0,0,1,.82-.2,1.825,1.825,0,0,1,1.4.608,2.2,2.2,0,0,1,0,2.944A1.828,1.828,0,0,1,841.654,298.584Zm-1.08-1.048a1.353,1.353,0,0,0,1.952,0,1.579,1.579,0,0,0,0-2.064,1.353,1.353,0,0,0-1.952,0,1.579,1.579,0,0,0,0,2.064Z"/><path class="h" d="M846.358,298.584a1.994,1.994,0,0,1-1.5-.592,2.194,2.194,0,0,1,.008-2.972,2.006,2.006,0,0,1,1.5-.6,1.86,1.86,0,0,1,1.357.54,1.968,1.968,0,0,1,.548,1.468c0,.08,0,.149-.009.208h-3.28a1.311,1.311,0,0,0,.4.936,1.466,1.466,0,0,0,2.228-.32l.544.376A1.963,1.963,0,0,1,846.358,298.584Zm-1.328-2.5h2.536a1.21,1.21,0,0,0-1.224-1.048,1.35,1.35,0,0,0-.844.284A1.229,1.229,0,0,0,845.03,296.08Z"/><path class="h" d="M849.246,298.5v-4h.688v.776a1.079,1.079,0,0,1,.436-.592,1.183,1.183,0,0,1,.684-.224,1.377,1.377,0,0,1,.311.032v.712a.921.921,0,0,0-.376-.064.96.96,0,0,0-.735.36,1.475,1.475,0,0,0-.32,1.016V298.5Z"/></g><g transform="translate(-549.302 4175.859)"><path class="i" d="M880.3,223.831v-7.1h1.17v7.1Z"/><path class="i" d="M884.592,223.931a2.7,2.7,0,0,1-1.22-.265,1.711,1.711,0,0,1-.79-.795l.81-.58a1.106,1.106,0,0,0,.48.5,1.44,1.44,0,0,0,.72.185.885.885,0,0,0,.514-.14.445.445,0,0,0,.206-.389.451.451,0,0,0-.166-.361,1.86,1.86,0,0,0-.6-.279l-.44-.121a1.5,1.5,0,0,1-1.31-1.529,1.241,1.241,0,0,1,.51-1.04,2.039,2.039,0,0,1,1.28-.391,1.842,1.842,0,0,1,1.689.851l-.759.58a1.148,1.148,0,0,0-.95-.511.871.871,0,0,0-.47.125.388.388,0,0,0-.2.346.481.481,0,0,0,.129.339,1.114,1.114,0,0,0,.471.25l.51.15a2.434,2.434,0,0,1,1.05.566,1.3,1.3,0,0,1,.349.954,1.393,1.393,0,0,1-.509,1.131A1.979,1.979,0,0,1,884.592,223.931Z"/><path class="i" d="M889.592,223.931a2.231,2.231,0,0,1-1.715-.761,2.782,2.782,0,0,1,0-3.679,2.231,2.231,0,0,1,1.715-.761,2,2,0,0,1,.94.226,1.836,1.836,0,0,1,.659.544v-.669h1.1v5h-1.1v-.67a1.848,1.848,0,0,1-.659.545A2.009,2.009,0,0,1,889.592,223.931Zm-.87-1.46a1.473,1.473,0,0,0,2.139,0,1.755,1.755,0,0,0,0-2.281,1.473,1.473,0,0,0-2.139,0,1.759,1.759,0,0,0,0,2.281Z"/><path class="i" d="M896.491,223.931a2.039,2.039,0,0,1-.945-.225,1.837,1.837,0,0,1-.665-.545v.67h-1.1v-7.5h1.1V219.5a1.825,1.825,0,0,1,.665-.544,2.027,2.027,0,0,1,.945-.226,2.233,2.233,0,0,1,1.715.761,2.782,2.782,0,0,1,0,3.679A2.233,2.233,0,0,1,896.491,223.931Zm-.2-1a1.386,1.386,0,0,0,1.07-.46,1.759,1.759,0,0,0,0-2.281,1.486,1.486,0,0,0-2.15,0,1.759,1.759,0,0,0,0,2.281A1.4,1.4,0,0,0,896.291,222.931Z"/><path class="i" d="M902.281,223.931a2.6,2.6,0,1,1,0-5.2,2.312,2.312,0,0,1,2.41,2.48c0,.134,0,.254-.009.361h-3.931a1.369,1.369,0,0,0,.471.985,1.72,1.72,0,0,0,2.5-.386l.84.6A2.489,2.489,0,0,1,902.281,223.931Zm-1.48-3.16h2.78a1.268,1.268,0,0,0-.465-.815,1.373,1.373,0,0,0-.875-.295,1.546,1.546,0,0,0-.925.29A1.289,1.289,0,0,0,900.8,220.771Z"/><path class="i" d="M905.821,223.831v-7.5h1.1v7.5Z"/><path class="i" d="M908.4,223.831v-7.5h1.1v7.5Z"/><path class="i" d="M913.031,223.931a2.233,2.233,0,0,1-1.715-.761,2.782,2.782,0,0,1,0-3.679,2.233,2.233,0,0,1,1.715-.761,2,2,0,0,1,.941.226,1.836,1.836,0,0,1,.659.544v-.669h1.1v5h-1.1v-.67a1.848,1.848,0,0,1-.659.545A2.014,2.014,0,0,1,913.031,223.931Zm-.87-1.46a1.474,1.474,0,0,0,2.14,0,1.755,1.755,0,0,0,0-2.281,1.474,1.474,0,0,0-2.14,0,1.759,1.759,0,0,0,0,2.281Z"/><path class="i" d="M920.931,223.951a2.284,2.284,0,0,1-1.555-.545,1.942,1.942,0,0,1-.625-1.546h1.16a.931.931,0,0,0,.3.736,1.053,1.053,0,0,0,.72.264.994.994,0,0,0,.715-.27,1.061,1.061,0,0,0,.285-.809V216.73h1.17v5.15a1.915,1.915,0,0,1-.615,1.556A2.341,2.341,0,0,1,920.931,223.951Z"/><path class="i" d="M928.676,223.176a2.633,2.633,0,1,1,.755-1.845A2.536,2.536,0,0,1,928.676,223.176Zm-1.865-.265a1.409,1.409,0,0,0,1.075-.455,1.7,1.7,0,0,0,0-2.25,1.507,1.507,0,0,0-2.16,0,1.7,1.7,0,0,0,0,2.25A1.418,1.418,0,0,0,926.811,222.911Z"/><path class="i" d="M930.541,223.831v-5h1.1v.68a1.64,1.64,0,0,1,1.52-.781,1.788,1.788,0,0,1,1.39.571,2.172,2.172,0,0,1,.519,1.52v3.01h-1.1V221a1.418,1.418,0,0,0-.281-.935.937.937,0,0,0-.759-.335,1.157,1.157,0,0,0-.93.431,1.831,1.831,0,0,0-.36,1.21v2.46Z"/><path class="i" d="M938.741,223.931a2.6,2.6,0,1,1,0-5.2,2.312,2.312,0,0,1,2.41,2.48c0,.134,0,.254-.009.361h-3.931a1.369,1.369,0,0,0,.471.985,1.72,1.72,0,0,0,2.5-.386l.839.6A2.486,2.486,0,0,1,938.741,223.931Zm-1.48-3.16h2.78a1.268,1.268,0,0,0-.465-.815,1.373,1.373,0,0,0-.875-.295,1.544,1.544,0,0,0-.925.29A1.289,1.289,0,0,0,937.261,220.771Z"/><path class="i" d="M943.871,223.931a2.7,2.7,0,0,1-1.22-.265,1.71,1.71,0,0,1-.79-.795l.81-.58a1.112,1.112,0,0,0,.48.5,1.441,1.441,0,0,0,.72.185.89.89,0,0,0,.515-.14.447.447,0,0,0,.205-.389.453.453,0,0,0-.165-.361,1.879,1.879,0,0,0-.605-.279l-.44-.121a1.5,1.5,0,0,1-1.31-1.529,1.242,1.242,0,0,1,.51-1.04,2.041,2.041,0,0,1,1.28-.391,1.843,1.843,0,0,1,1.69.851l-.76.58a1.146,1.146,0,0,0-.95-.511.871.871,0,0,0-.47.125.388.388,0,0,0-.2.346.478.478,0,0,0,.13.339,1.109,1.109,0,0,0,.47.25l.51.15a2.428,2.428,0,0,1,1.05.566,1.3,1.3,0,0,1,.35.954,1.391,1.391,0,0,1-.51,1.131A1.979,1.979,0,0,1,943.871,223.931Z"/></g></g><g transform="translate(0 166)"><circle class="d" cx="16" cy="16" r="16" transform="translate(289 4386)"/><g transform="translate(285 4382.051)"><g transform="translate(14 13.668)"><circle class="b" cx="3" cy="3" r="3" transform="translate(3.022 0.282)"/><path class="b" d="M21.226,74H18.817A4.817,4.817,0,0,0,14,78.817H26.044A4.817,4.817,0,0,0,21.226,74Z" transform="translate(-14 -66.586)"/></g></g><g transform="translate(-489.918 4112.976)"><path class="h" d="M820.918,292.824h.68l2.1,2.832,2.12-2.832h.672v5.68h-.736v-4.416l-2.048,2.752-2.048-2.752V298.5h-.744Z"/><path class="h" d="M829.59,298.584a1.994,1.994,0,0,1-1.5-.592,2.194,2.194,0,0,1,.008-2.972,2,2,0,0,1,1.5-.6,1.856,1.856,0,0,1,1.356.54,1.968,1.968,0,0,1,.548,1.468,2.07,2.07,0,0,1-.009.208h-3.279a1.31,1.31,0,0,0,.4.936,1.467,1.467,0,0,0,2.229-.32l.544.376A1.965,1.965,0,0,1,829.59,298.584Zm-1.328-2.5H830.8a1.21,1.21,0,0,0-1.225-1.048,1.354,1.354,0,0,0-.844.284A1.224,1.224,0,0,0,828.262,296.08Z"/><path class="h" d="M837.63,298.5v-2.352a1.392,1.392,0,0,0-.2-.8.668.668,0,0,0-.588-.3.952.952,0,0,0-.78.376,1.669,1.669,0,0,0-.316,1.024V298.5h-.688v-2.352a1.388,1.388,0,0,0-.2-.8.663.663,0,0,0-.579-.3.961.961,0,0,0-.8.4,1.715,1.715,0,0,0-.3,1.068V298.5h-.687v-4h.687v.616a1.283,1.283,0,0,1,1.208-.7,1.211,1.211,0,0,1,1.232.856,1.344,1.344,0,0,1,.512-.624,1.419,1.419,0,0,1,.8-.232,1.278,1.278,0,0,1,1.024.44,1.764,1.764,0,0,1,.376,1.184V298.5Z"/><path class="h" d="M841.654,298.584a1.759,1.759,0,0,1-.82-.2,1.565,1.565,0,0,1-.588-.5v.616h-.687v-6h.687v2.616a1.556,1.556,0,0,1,.588-.5,1.759,1.759,0,0,1,.82-.2,1.825,1.825,0,0,1,1.4.608,2.2,2.2,0,0,1,0,2.944A1.828,1.828,0,0,1,841.654,298.584Zm-1.08-1.048a1.353,1.353,0,0,0,1.952,0,1.579,1.579,0,0,0,0-2.064,1.353,1.353,0,0,0-1.952,0,1.579,1.579,0,0,0,0,2.064Z"/><path class="h" d="M846.358,298.584a1.994,1.994,0,0,1-1.5-.592,2.194,2.194,0,0,1,.008-2.972,2.006,2.006,0,0,1,1.5-.6,1.86,1.86,0,0,1,1.357.54,1.968,1.968,0,0,1,.548,1.468c0,.08,0,.149-.009.208h-3.28a1.311,1.311,0,0,0,.4.936,1.466,1.466,0,0,0,2.228-.32l.544.376A1.963,1.963,0,0,1,846.358,298.584Zm-1.328-2.5h2.536a1.21,1.21,0,0,0-1.224-1.048,1.35,1.35,0,0,0-.844.284A1.229,1.229,0,0,0,845.03,296.08Z"/><path class="h" d="M849.246,298.5v-4h.688v.776a1.079,1.079,0,0,1,.436-.592,1.183,1.183,0,0,1,.684-.224,1.377,1.377,0,0,1,.311.032v.712a.921.921,0,0,0-.376-.064.96.96,0,0,0-.735.36,1.475,1.475,0,0,0-.32,1.016V298.5Z"/></g><g transform="translate(-546.517 4204.246)"><path class="i" d="M877.517,188.384h1.07l2.479,3.36,2.491-3.36h1.07v7.1h-1.181v-5.09l-2.37,3.22-2.389-3.23v5.1h-1.17Z"/><path class="i" d="M888.187,195.584a2.231,2.231,0,0,1-1.715-.76,2.78,2.78,0,0,1,0-3.68,2.23,2.23,0,0,1,1.715-.76,2,2,0,0,1,.94.225,1.838,1.838,0,0,1,.659.545v-.67h1.1v5h-1.1v-.67a1.848,1.848,0,0,1-.659.545A2,2,0,0,1,888.187,195.584Zm-.871-1.46a1.474,1.474,0,0,0,2.14,0,1.754,1.754,0,0,0,0-2.28,1.474,1.474,0,0,0-2.14,0,1.757,1.757,0,0,0,0,2.28Z"/><path class="i" d="M894.427,195.584a2.231,2.231,0,0,1-1.715-.76,2.783,2.783,0,0,1,0-3.68,2.23,2.23,0,0,1,1.715-.76,2,2,0,0,1,.94.225,1.838,1.838,0,0,1,.659.545v-3.17h1.1v7.5h-1.1v-.67a1.848,1.848,0,0,1-.659.545A2,2,0,0,1,894.427,195.584Zm-.87-1.46a1.473,1.473,0,0,0,2.139,0,1.754,1.754,0,0,0,0-2.28,1.473,1.473,0,0,0-2.139,0,1.757,1.757,0,0,0,0,2.28Z"/><path class="i" d="M899.166,189.394a.721.721,0,0,1-.52-.215.7.7,0,0,1-.22-.525.693.693,0,0,1,.22-.515.721.721,0,0,1,.52-.215.7.7,0,0,1,.52.215.71.71,0,0,1,.21.515.722.722,0,0,1-.21.525A.7.7,0,0,1,899.166,189.394Zm-.55,6.09v-5h1.1v5Z"/><path class="i" d="M902.786,195.584a2.688,2.688,0,0,1-1.22-.265,1.71,1.71,0,0,1-.79-.795l.81-.58a1.119,1.119,0,0,0,.48.505,1.451,1.451,0,0,0,.72.185.9.9,0,0,0,.515-.14.474.474,0,0,0,.04-.75,1.854,1.854,0,0,0-.6-.28l-.44-.12a1.5,1.5,0,0,1-1.31-1.53,1.243,1.243,0,0,1,.51-1.04,2.047,2.047,0,0,1,1.28-.39,1.843,1.843,0,0,1,1.69.85l-.76.58a1.145,1.145,0,0,0-.95-.51.87.87,0,0,0-.47.125.386.386,0,0,0-.2.345.48.48,0,0,0,.13.34,1.107,1.107,0,0,0,.471.25l.509.15a2.427,2.427,0,0,1,1.05.565,1.3,1.3,0,0,1,.35.955,1.388,1.388,0,0,1-.51,1.13A1.979,1.979,0,0,1,902.786,195.584Z"/><path class="i" d="M909.861,194.829a2.632,2.632,0,1,1,.755-1.845A2.532,2.532,0,0,1,909.861,194.829ZM908,194.564a1.407,1.407,0,0,0,1.075-.455,1.7,1.7,0,0,0,0-2.25,1.509,1.509,0,0,0-2.16,0,1.7,1.7,0,0,0,0,2.25A1.42,1.42,0,0,0,908,194.564Z"/><path class="i" d="M911.727,195.484v-5h1.1v.68a1.64,1.64,0,0,1,1.521-.78,1.787,1.787,0,0,1,1.389.57,2.167,2.167,0,0,1,.52,1.52v3.01h-1.1v-2.83a1.419,1.419,0,0,0-.28-.935.938.938,0,0,0-.76-.335,1.154,1.154,0,0,0-.929.43,1.828,1.828,0,0,0-.361,1.21v2.46Z"/><path class="i" d="M920.146,195.484v-7.1H922.6a2.111,2.111,0,0,1,1.524.57,1.851,1.851,0,0,1,.6,1.39,1.611,1.611,0,0,1-.66,1.37,1.694,1.694,0,0,1,1.139,1.69,1.939,1.939,0,0,1-.644,1.485,2.333,2.333,0,0,1-1.646.595Zm1.17-4.11h1.22a1.033,1.033,0,0,0,.75-.27.978.978,0,0,0,0-1.37,1.01,1.01,0,0,0-.75-.28h-1.22Zm0,3.04h1.56a1.248,1.248,0,0,0,.87-.28,1.03,1.03,0,0,0,0-1.475,1.236,1.236,0,0,0-.87-.285h-1.56Z"/><path class="i" d="M926.3,195.484v-5h1.1v.89a1.314,1.314,0,0,1,.515-.68,1.388,1.388,0,0,1,.8-.26,1.91,1.91,0,0,1,.43.04v1.13a1.567,1.567,0,0,0-.55-.09,1.084,1.084,0,0,0-.85.4,1.667,1.667,0,0,0-.35,1.125v2.44Z"/><path class="i" d="M934.041,194.829a2.632,2.632,0,1,1,.755-1.845A2.532,2.532,0,0,1,934.041,194.829Zm-1.865-.265a1.409,1.409,0,0,0,1.075-.455,1.7,1.7,0,0,0,0-2.25,1.509,1.509,0,0,0-2.16,0,1.7,1.7,0,0,0,0,2.25A1.418,1.418,0,0,0,932.176,194.564Z"/><path class="i" d="M940.126,195.484l-1.1-3.23-1.09,3.23H936.9l-1.68-5h1.16l1.08,3.45,1.15-3.45h.84l1.13,3.45,1.1-3.45h1.17l-1.68,5Z"/><path class="i" d="M943.666,195.484v-5h1.1v.68a1.639,1.639,0,0,1,1.52-.78,1.791,1.791,0,0,1,1.39.57,2.172,2.172,0,0,1,.519,1.52v3.01h-1.1v-2.83a1.414,1.414,0,0,0-.281-.935.937.937,0,0,0-.759-.335,1.156,1.156,0,0,0-.93.43,1.833,1.833,0,0,0-.36,1.21v2.46Z"/></g></g></g><g transform="translate(58)"><g class="o" transform="matrix(1, 0, 0, 1, 610, 1000)"><rect class="b" width="144" height="146" rx="12" transform="translate(471 80)"/></g><circle class="j" cx="31" cy="31" r="31" transform="translate(1122 1105)"/><g transform="translate(1022.022 1080.699)"><g transform="translate(120 40)"><g transform="translate(0 0)"><g transform="translate(3.615)"><path class="d" d="M193.255,54.165a1.2,1.2,0,0,1-.754-.265,8.433,8.433,0,0,0-10.542,0A1.2,1.2,0,0,1,180,52.96V47.23a7.23,7.23,0,1,1,14.46,0v5.73a1.2,1.2,0,0,1-1.2,1.2ZM187.23,49.64a10.879,10.879,0,0,1,4.82,1.131V47.23a4.82,4.82,0,1,0-9.64,0v3.541A10.879,10.879,0,0,1,187.23,49.64Z" transform="translate(-180 -40)"/></g><g transform="translate(0 9.64)"><path class="d" d="M130.845,221.69a10.845,10.845,0,1,1,10.845-10.845A10.857,10.857,0,0,1,130.845,221.69Zm0-19.28a8.436,8.436,0,0,0-8.435,8.435,8.435,8.435,0,1,0,13.706-6.585A8.342,8.342,0,0,0,130.845,202.41Z" transform="translate(-120 -200)"/></g><g transform="translate(9.64 16.87)"><path class="d" d="M281.2,328.435a1.205,1.205,0,0,1-1.2-1.205V321.2a1.2,1.2,0,0,1,2.41,0v6.025A1.205,1.205,0,0,1,281.2,328.435Z" transform="translate(-280 -320)"/></g></g></g></g><g transform="translate(230.627 1060.492)"><path class="k" d="M877.373,136.582v-9.94h3.052a5.173,5.173,0,0,1,3.711,1.428,4.939,4.939,0,0,1,0,7.084,5.173,5.173,0,0,1-3.711,1.428Zm1.639-1.526h1.413a3.471,3.471,0,0,0,2.555-.98,3.569,3.569,0,0,0,0-4.928,3.471,3.471,0,0,0-2.555-.98h-1.413Z"/><path class="k" d="M890.127,136.722a3.122,3.122,0,0,1-2.4-1.064,3.9,3.9,0,0,1,0-5.152,3.125,3.125,0,0,1,2.4-1.064,2.79,2.79,0,0,1,1.315.315,2.592,2.592,0,0,1,.925.763v-.938h1.539v7h-1.539v-.938a2.582,2.582,0,0,1-.925.763A2.79,2.79,0,0,1,890.127,136.722Zm-1.218-2.044a2.063,2.063,0,0,0,2.995,0,2.457,2.457,0,0,0,0-3.192,2.063,2.063,0,0,0-2.995,0,2.457,2.457,0,0,0,0,3.192Z"/><path class="k" d="M899.031,136.652a2.492,2.492,0,0,1-1.729-.595,2.2,2.2,0,0,1-.665-1.729v-3.374h-1.456v-1.372h1.456v-1.946h1.54v1.946h2v1.372h-2v3.122a1.008,1.008,0,0,0,1.177,1.19,2.092,2.092,0,0,0,.825-.14V136.5A3.919,3.919,0,0,1,899.031,136.652Z"/><path class="k" d="M904.407,136.722a3.122,3.122,0,0,1-2.4-1.064,3.9,3.9,0,0,1,0-5.152,3.125,3.125,0,0,1,2.4-1.064,2.8,2.8,0,0,1,1.316.315,2.588,2.588,0,0,1,.924.763v-.938h1.54v7h-1.54v-.938a2.578,2.578,0,0,1-.924.763A2.8,2.8,0,0,1,904.407,136.722Zm-1.218-2.044a2.064,2.064,0,0,0,3,0,2.46,2.46,0,0,0,0-3.192,2.064,2.064,0,0,0-3,0,2.46,2.46,0,0,0,0,3.192Z"/><path class="k" d="M916.518,136.75a4.623,4.623,0,0,1-2.143-.49,3.208,3.208,0,0,1-1.4-1.3l1.288-1.022a2.6,2.6,0,0,0,2.309,1.274,1.853,1.853,0,0,0,1.162-.343,1.069,1.069,0,0,0,.449-.889q0-.994-1.414-1.512l-1.092-.392a4.089,4.089,0,0,1-1.779-1.113,2.748,2.748,0,0,1,.336-3.724,3.5,3.5,0,0,1,2.325-.763,3.7,3.7,0,0,1,3.009,1.358l-1.133,1.106a2.374,2.374,0,0,0-1.891-.924,1.935,1.935,0,0,0-1.112.308.963.963,0,0,0-.455.84,1.036,1.036,0,0,0,.342.819,3.91,3.91,0,0,0,1.169.609l1.008.378a4.209,4.209,0,0,1,1.75,1.134,2.576,2.576,0,0,1,.588,1.778,2.6,2.6,0,0,1-.924,2.079A3.553,3.553,0,0,1,916.518,136.75Z"/><path class="k" d="M924.595,136.722a3.567,3.567,0,0,1-2.625-1.022,3.654,3.654,0,0,1,2.625-6.258,3.343,3.343,0,0,1,2.415.924,3.378,3.378,0,0,1,.959,2.548q0,.28-.015.5h-5.5a1.919,1.919,0,0,0,.658,1.379,2.409,2.409,0,0,0,3.5-.539l1.176.84A3.478,3.478,0,0,1,924.595,136.722Zm-2.073-4.424h3.892a1.784,1.784,0,0,0-.65-1.141,1.93,1.93,0,0,0-1.226-.413,2.167,2.167,0,0,0-1.3.406A1.805,1.805,0,0,0,922.522,132.3Z"/><path class="k" d="M932.742,136.722a3.6,3.6,0,0,1-2.638-1.043,3.719,3.719,0,0,1,0-5.194,3.605,3.605,0,0,1,2.638-1.043,3.7,3.7,0,0,1,1.94.518,3.493,3.493,0,0,1,1.323,1.414l-1.344.728a2.185,2.185,0,0,0-.77-.9,2.139,2.139,0,0,0-2.674.3,2.358,2.358,0,0,0,0,3.15,2.139,2.139,0,0,0,2.674.3,2.179,2.179,0,0,0,.77-.9l1.344.728a3.487,3.487,0,0,1-1.323,1.414A3.7,3.7,0,0,1,932.742,136.722Z"/><path class="k" d="M939.925,136.722a2.391,2.391,0,0,1-1.9-.8,3.159,3.159,0,0,1-.7-2.149v-4.186h1.539v3.934a2.15,2.15,0,0,0,.365,1.323,1.22,1.22,0,0,0,1.036.483,1.5,1.5,0,0,0,1.246-.6,2.727,2.727,0,0,0,.462-1.7v-3.444h1.54v7h-1.54v-.952A2.161,2.161,0,0,1,939.925,136.722Z"/><path class="k" d="M948.619,136.652a2.492,2.492,0,0,1-1.729-.595,2.2,2.2,0,0,1-.665-1.729v-3.374h-1.456v-1.372h1.456v-1.946h1.54v1.946h2v1.372h-2v3.122a1.008,1.008,0,0,0,1.176,1.19,2.094,2.094,0,0,0,.826-.14V136.5A3.919,3.919,0,0,1,948.619,136.652Z"/><path class="k" d="M951.992,128.056a1,1,0,0,1-.727-.3.99.99,0,0,1-.309-.735.975.975,0,0,1,.309-.721,1.008,1.008,0,0,1,.727-.3.984.984,0,0,1,.729.3,1,1,0,0,1,.294.721,1.012,1.012,0,0,1-.294.735A.98.98,0,0,1,951.992,128.056Zm-.769,8.526v-7h1.54v7Z"/><path class="k" d="M957.873,136.652a2.492,2.492,0,0,1-1.729-.595,2.2,2.2,0,0,1-.665-1.729v-3.374h-1.457v-1.372h1.457v-1.946h1.54v1.946h2v1.372h-2v3.122a1.008,1.008,0,0,0,1.176,1.19,2.094,2.094,0,0,0,.826-.14V136.5A3.919,3.919,0,0,1,957.873,136.652Z"/><path class="k" d="M962.717,139.508h-1.7l1.5-3.3-3.01-6.622H961.2l2.143,4.956,2.155-4.956h1.708Z"/></g></g><g transform="translate(-398 270)"><g class="n" transform="matrix(1, 0, 0, 1, 1066, 730)"><rect class="b" width="144" height="146" rx="12" transform="translate(15 350)"/></g><circle class="l" cx="31" cy="31" r="31" transform="translate(1122 1105)"/><g transform="translate(1127 1110)"><g transform="translate(10 10)"><g transform="translate(11.17)"><path class="m" d="M44.1,23.751H32.156a4.158,4.158,0,0,1-.613-8.271c0-.091-.007-.181-.007-.271a5.211,5.211,0,0,1,9.782-2.5,3.154,3.154,0,0,1,1.177-.227,3.182,3.182,0,0,1,3.066,4.056A3.752,3.752,0,0,1,44.1,23.751ZM32.159,16.675a2.917,2.917,0,0,0,0,5.834H44.1a2.511,2.511,0,0,0,.5-4.972.621.621,0,0,1-.418-.913,1.942,1.942,0,0,0-2.8-2.549.629.629,0,0,1-.538.084.623.623,0,0,1-.4-.371,3.969,3.969,0,0,0-7.606,2.157.621.621,0,0,1-.687.73Z" transform="translate(-28 -10)"/></g><g transform="translate(0 17.278)"><path class="m" d="M26.1,51.593H14.156a4.158,4.158,0,0,1-.613-8.271q-.007-.136-.007-.271a5.211,5.211,0,0,1,9.782-2.5,3.156,3.156,0,0,1,1.177-.227,3.192,3.192,0,0,1,3.188,3.188,3.159,3.159,0,0,1-.122.868A3.753,3.753,0,0,1,26.1,51.593ZM14.111,44.51a2.921,2.921,0,0,0,.045,5.842H26.1a2.511,2.511,0,0,0,.5-4.972.621.621,0,0,1-.417-.913,1.942,1.942,0,0,0-2.8-2.548.621.621,0,0,1-.934-.287,3.969,3.969,0,0,0-7.606,2.157.621.621,0,0,1-.735.722Z" transform="translate(-10 -37.843)"/></g><g transform="translate(21.649 18.953)"><path class="m" d="M51.637,48.971h-6.13a.621.621,0,1,1,0-1.241h6.13a.671.671,0,0,0,.67-.67v-5.9a.621.621,0,1,1,1.241,0v5.9A1.913,1.913,0,0,1,51.637,48.971Z" transform="translate(-44.886 -40.542)"/><g transform="translate(0 5.404)"><path class="m" d="M47.29,54.059a.619.619,0,0,1-.439-.182l-1.784-1.784a.62.62,0,0,1,0-.878l1.784-1.784a.62.62,0,0,1,.878.878l-1.345,1.345L47.729,53a.621.621,0,0,1-.439,1.059Z" transform="translate(-44.886 -49.25)"/></g></g><g transform="translate(1.337 3.646)"><path class="m" d="M12.776,24.3a.62.62,0,0,1-.621-.621v-5.9a1.913,1.913,0,0,1,1.911-1.911H20.2a.621.621,0,0,1,0,1.241h-6.13a.671.671,0,0,0-.67.67v5.9A.62.62,0,0,1,12.776,24.3Z" transform="translate(-12.155 -15.875)"/></g><g transform="translate(6.974 1.862)"><path class="m" d="M21.859,17.809a.621.621,0,0,1-.439-1.059L22.765,15.4,21.42,14.059a.62.62,0,0,1,.878-.878l1.784,1.784a.62.62,0,0,1,0,.878L22.3,17.628A.619.619,0,0,1,21.859,17.809Z" transform="translate(-21.238 -13)"/></g></g></g><g transform="translate(258.242 1025.675)"><path class="k" d="M835.758,170.909v-9.94h5.978v1.568H837.4v2.548h3.5v1.568h-3.5v2.688h4.34v1.568Z"/><path class="k" d="M846.091,171.049a3.125,3.125,0,0,1-2.4-1.064,3.9,3.9,0,0,1,0-5.152,3.128,3.128,0,0,1,2.4-1.064,2.793,2.793,0,0,1,1.315.315,2.592,2.592,0,0,1,.925.763v-.938h1.539v7h-1.539v-.938a2.581,2.581,0,0,1-.925.763A2.793,2.793,0,0,1,846.091,171.049Zm-1.218-2.044a2.063,2.063,0,0,0,2.995,0,2.457,2.457,0,0,0,0-3.192,2.063,2.063,0,0,0-2.995,0,2.457,2.457,0,0,0,0,3.192Z"/><path class="k" d="M854.182,171.049a3.775,3.775,0,0,1-1.708-.371,2.383,2.383,0,0,1-1.106-1.113l1.134-.812a1.555,1.555,0,0,0,.672.707,2.021,2.021,0,0,0,1.008.259,1.248,1.248,0,0,0,.721-.2.624.624,0,0,0,.286-.546.631.631,0,0,0-.23-.5,2.65,2.65,0,0,0-.847-.392l-.616-.168a2.1,2.1,0,0,1-1.834-2.142,1.742,1.742,0,0,1,.714-1.456,2.864,2.864,0,0,1,1.792-.546,2.581,2.581,0,0,1,2.366,1.19l-1.064.812a1.6,1.6,0,0,0-1.33-.714,1.228,1.228,0,0,0-.659.175.544.544,0,0,0-.279.483.674.674,0,0,0,.182.476,1.568,1.568,0,0,0,.658.35l.714.21a3.416,3.416,0,0,1,1.47.791,1.821,1.821,0,0,1,.49,1.337,1.943,1.943,0,0,1-.714,1.582A2.769,2.769,0,0,1,854.182,171.049Z"/><path class="k" d="M860.44,173.835h-1.694l1.5-3.3-3.01-6.622h1.694l2.142,4.956,2.156-4.956h1.708Z"/><path class="k" d="M869.176,170.909v-9.94h3.052a5.171,5.171,0,0,1,3.71,1.428,4.937,4.937,0,0,1,0,7.084,5.171,5.171,0,0,1-3.71,1.428Zm1.638-1.526h1.414a3.468,3.468,0,0,0,2.555-.98,3.569,3.569,0,0,0,0-4.928,3.472,3.472,0,0,0-2.555-.98h-1.414Z"/><path class="k" d="M881.93,171.049a3.125,3.125,0,0,1-2.4-1.064,3.9,3.9,0,0,1,0-5.152,3.129,3.129,0,0,1,2.4-1.064,2.793,2.793,0,0,1,1.315.315,2.6,2.6,0,0,1,.925.763v-.938h1.539v7H884.17v-.938a2.59,2.59,0,0,1-.925.763A2.793,2.793,0,0,1,881.93,171.049Zm-1.218-2.044a2.063,2.063,0,0,0,2.995,0,2.457,2.457,0,0,0,0-3.192,2.063,2.063,0,0,0-2.995,0,2.457,2.457,0,0,0,0,3.192Z"/><path class="k" d="M890.834,170.979a2.5,2.5,0,0,1-1.73-.6,2.2,2.2,0,0,1-.665-1.729v-3.374h-1.456v-1.372h1.456v-1.946h1.54v1.946h2v1.372h-2V168.4a1.009,1.009,0,0,0,1.177,1.19,2.085,2.085,0,0,0,.825-.14v1.372A3.908,3.908,0,0,1,890.834,170.979Z"/><path class="k" d="M896.21,171.049a3.121,3.121,0,0,1-2.4-1.064,3.9,3.9,0,0,1,0-5.152,3.125,3.125,0,0,1,2.4-1.064,2.79,2.79,0,0,1,1.315.315,2.592,2.592,0,0,1,.925.763v-.938h1.539v7H898.45v-.938a2.582,2.582,0,0,1-.925.763A2.79,2.79,0,0,1,896.21,171.049Zm-1.218-2.044a2.063,2.063,0,0,0,2.995,0,2.457,2.457,0,0,0,0-3.192,2.063,2.063,0,0,0-2.995,0,2.457,2.457,0,0,0,0,3.192Z"/><path class="k" d="M908.32,171.077a4.6,4.6,0,0,1-2.142-.49,3.217,3.217,0,0,1-1.4-1.3l1.288-1.022a2.6,2.6,0,0,0,2.31,1.274,1.855,1.855,0,0,0,1.162-.343,1.068,1.068,0,0,0,.448-.889q0-.993-1.414-1.512l-1.092-.392a4.091,4.091,0,0,1-1.778-1.113,2.748,2.748,0,0,1,.336-3.724,3.5,3.5,0,0,1,2.324-.763,3.7,3.7,0,0,1,3.01,1.358l-1.134,1.106a2.37,2.37,0,0,0-1.89-.924,1.941,1.941,0,0,0-1.113.308.965.965,0,0,0-.455.84,1.037,1.037,0,0,0,.343.819,3.911,3.911,0,0,0,1.169.609l1.008.378a4.222,4.222,0,0,1,1.75,1.134,2.878,2.878,0,0,1-.336,3.857A3.554,3.554,0,0,1,908.32,171.077Z"/><path class="k" d="M914.731,170.909h-1.54v-10.5h1.54v4.452a2.3,2.3,0,0,1,2.128-1.092,2.509,2.509,0,0,1,1.947.8,3.042,3.042,0,0,1,.727,2.128v4.214h-1.54v-3.962a1.991,1.991,0,0,0-.391-1.309,1.319,1.319,0,0,0-1.065-.469,1.621,1.621,0,0,0-1.3.6,2.565,2.565,0,0,0-.5,1.694Z"/><path class="k" d="M924.378,171.049a3.122,3.122,0,0,1-2.4-1.064,3.9,3.9,0,0,1,0-5.152,3.125,3.125,0,0,1,2.4-1.064,2.79,2.79,0,0,1,1.315.315,2.592,2.592,0,0,1,.925.763v-.938h1.539v7h-1.539v-.938a2.581,2.581,0,0,1-.925.763A2.79,2.79,0,0,1,924.378,171.049Zm-1.218-2.044a2.063,2.063,0,0,0,3,0,2.457,2.457,0,0,0,0-3.192,2.063,2.063,0,0,0-3,0,2.457,2.457,0,0,0,0,3.192Z"/><path class="k" d="M930.243,170.909v-7h1.54v1.246a1.846,1.846,0,0,1,.721-.952,1.937,1.937,0,0,1,1.127-.364,2.712,2.712,0,0,1,.6.056v1.582a2.185,2.185,0,0,0-.77-.126,1.517,1.517,0,0,0-1.19.567,2.33,2.33,0,0,0-.49,1.575v3.416Z"/><path class="k" d="M936.333,162.383a1.008,1.008,0,0,1-.728-.3.989.989,0,0,1-.308-.735.974.974,0,0,1,.308-.721,1.012,1.012,0,0,1,.728-.3.984.984,0,0,1,.729.3,1,1,0,0,1,.293.721,1.011,1.011,0,0,1-.293.735A.98.98,0,0,1,936.333,162.383Zm-.77,8.526v-7H937.1v7Z"/><path class="k" d="M939.176,170.909v-7h1.54v.952a2.293,2.293,0,0,1,2.128-1.092,2.507,2.507,0,0,1,1.946.8,3.043,3.043,0,0,1,.728,2.128v4.214h-1.54v-3.962a1.985,1.985,0,0,0-.392-1.309,1.318,1.318,0,0,0-1.065-.469,1.619,1.619,0,0,0-1.3.6,2.565,2.565,0,0,0-.5,1.694v3.444Z"/><path class="k" d="M950.5,173.975a5.086,5.086,0,0,1-1.89-.343,3.47,3.47,0,0,1-1.386-.945l.938-1.106a3.028,3.028,0,0,0,2.324,1.022,2.09,2.09,0,0,0,1.512-.581,2.124,2.124,0,0,0,.6-1.6v-.644a2.533,2.533,0,0,1-.939.784,2.807,2.807,0,0,1-1.3.308,3.158,3.158,0,0,1-2.387-1.029,3.75,3.75,0,0,1,0-5.04,3.158,3.158,0,0,1,2.387-1.029,2.877,2.877,0,0,1,1.3.3,2.49,2.49,0,0,1,.939.777v-.938h1.539v6.524a3.365,3.365,0,0,1-1,2.646A3.809,3.809,0,0,1,950.5,173.975Zm-1.344-5.131a2.113,2.113,0,0,0,2.968,0,2.25,2.25,0,0,0,0-3.066,2.113,2.113,0,0,0-2.968,0,2.253,2.253,0,0,0,0,3.066Z"/></g></g></g></svg>