<svg xmlns="http://www.w3.org/2000/svg" xmlns:xlink="http://www.w3.org/1999/xlink" width="611" height="514" viewBox="0 0 611 514"><defs><style>.a{fill:#474bff;}.a,.m{opacity:0.1;}.b,.o{fill:none;}.b{stroke:#c0c1e0;stroke-width:2px;stroke-dasharray:10;}.c{fill:#fff;}.d{fill:#eaeefa;}.e,.h,.m{fill:#5756b3;}.f{fill:#b8b7f0;stroke:#b8b7f0;stroke-width:0.6px;}.g{fill:#e7bdd3;}.h{fill-rule:evenodd;}.i{fill:#3e5876;}.j{fill:#06213f;}.k{fill:#fba481;}.l{fill:#001a30;}.n{stroke:none;}.p{filter:url(#e);}.q{filter:url(#c);}.r{filter:url(#a);}</style><filter id="a" x="47" y="87" width="517" height="390" filterUnits="userSpaceOnUse"><feOffset dy="3" input="SourceAlpha"/><feGaussianBlur stdDeviation="10" result="b"/><feFlood flood-color="#ebeffa"/><feComposite operator="in" in2="b"/><feComposite in="SourceGraphic"/></filter><filter id="c" x="457" y="40" width="154" height="154" filterUnits="userSpaceOnUse"><feOffset dy="3" input="SourceAlpha"/><feGaussianBlur stdDeviation="5" result="d"/><feFlood flood-color="#ebeffa" flood-opacity="0.6"/><feComposite operator="in" in2="d"/><feComposite in="SourceGraphic"/></filter><filter id="e" x="0" y="360" width="154" height="154" filterUnits="userSpaceOnUse"><feOffset dy="3" input="SourceAlpha"/><feGaussianBlur stdDeviation="5" result="f"/><feFlood flood-color="#ebeffa" flood-opacity="0.6"/><feComposite operator="in" in2="f"/><feComposite in="SourceGraphic"/></filter></defs><g transform="translate(-677 -1000)"><circle class="a" cx="222" cy="222" r="222" transform="translate(839 1000)"/><g class="b" transform="translate(736 1097)"><rect class="n" width="496" height="368" rx="24"/><rect class="o" x="1" y="1" width="494" height="366" rx="23"/></g><g transform="translate(635 -3188)"><g class="r" transform="matrix(1, 0, 0, 1, 42, 4188)"><rect class="c" width="457" height="330" rx="8" transform="translate(77 114)"/></g><rect class="d" width="417" height="290" rx="8" transform="translate(139 4322)"/><rect class="c" width="191" height="114" rx="8" transform="translate(151 4334)"/><rect class="c" width="191" height="140" rx="8" transform="translate(151 4460)"/><rect class="c" width="191" height="266" rx="8" transform="translate(353 4334)"/><g transform="translate(10 -6)"><path class="e" d="M22.85,29.622a22.823,22.823,0,0,1,4.525.452A18.661,18.661,0,0,1,53.511,16.806a24.909,24.909,0,0,1,46.827,17,20.764,20.764,0,0,1-.624,41.517H22.85a22.851,22.851,0,1,1,0-45.7Zm0,0" transform="translate(176.001 4353.608)"/><path class="f" d="M13.923,0,11.908,2.056l4.534,4.578H0V9.517H16.442L11.908,14.1l2.015,2.056,8-8.076Z" transform="translate(239.707 4439.893) rotate(-90)"/><path class="f" d="M13.923,16.151,11.908,14.1l4.534-4.578H0V6.634H16.442L11.908,2.056,13.923,0l8,8.076Z" transform="translate(235.715 4417.973) rotate(90)"/></g><g transform="translate(76 -40)"><circle class="g" cx="20" cy="20" r="20" transform="translate(289 4386)"/><path class="h" d="M4,200.569v-11.6A.967.967,0,0,1,4.967,188h5.8c1.45,0,1,1.934,2.9,1.934h6.768a.967.967,0,0,1,.967.967v9.668a.967.967,0,0,1-.967.967H4.967A.967.967,0,0,1,4,200.569Z" transform="translate(296 4211)"/><g transform="translate(-518.925 4071.726)"><path class="i" d="M859.021,343.7v-5h-1.1l.559-.68h1.224v5.68Z"/><path class="i" d="M862.948,343.784a1.9,1.9,0,0,1-1.448-.6,2.16,2.16,0,0,1-.56-1.54v-1.584a2.149,2.149,0,0,1,.564-1.54,2.047,2.047,0,0,1,2.892,0,2.147,2.147,0,0,1,.568,1.536v1.584a2.143,2.143,0,0,1-.568,1.54A1.914,1.914,0,0,1,862.948,343.784Zm0-.672a1.258,1.258,0,0,0,.96-.392,1.5,1.5,0,0,0,.368-1.072v-1.584a1.505,1.505,0,0,0-.368-1.072,1.362,1.362,0,0,0-1.912,0,1.505,1.505,0,0,0-.368,1.072v1.584A1.5,1.5,0,0,0,862,342.72,1.248,1.248,0,0,0,862.948,343.112Z"/><path class="i" d="M867.933,343.784a1.9,1.9,0,0,1-1.449-.6,2.159,2.159,0,0,1-.559-1.54v-1.584a2.149,2.149,0,0,1,.563-1.54,2.047,2.047,0,0,1,2.892,0,2.143,2.143,0,0,1,.568,1.536v1.584a2.139,2.139,0,0,1-.568,1.54A1.912,1.912,0,0,1,867.933,343.784Zm0-.672a1.261,1.261,0,0,0,.96-.392,1.5,1.5,0,0,0,.368-1.072v-1.584a1.505,1.505,0,0,0-.368-1.072,1.363,1.363,0,0,0-1.913,0,1.505,1.505,0,0,0-.368,1.072v1.584a1.5,1.5,0,0,0,.368,1.072A1.25,1.25,0,0,0,867.933,343.112Z"/><path class="i" d="M873.852,343.8a3.015,3.015,0,0,1-2.2-.84,2.991,2.991,0,0,1-.011-4.184,2.867,2.867,0,0,1,2.112-.848,2.973,2.973,0,0,1,2.136.792l-.5.536a2.341,2.341,0,0,0-1.64-.624,2.124,2.124,0,0,0-1.588.644,2.187,2.187,0,0,0-.628,1.588,2.165,2.165,0,0,0,.636,1.6,2.265,2.265,0,0,0,1.676.636,2.377,2.377,0,0,0,1.511-.424v-1.52h-1.607v-.7h2.328V343a2.388,2.388,0,0,1-.968.6A3.855,3.855,0,0,1,873.852,343.8Z"/><path class="i" d="M877.3,343.7v-5.68h1.864a1.718,1.718,0,0,1,1.232.44,1.412,1.412,0,0,1,.463,1.064,1.267,1.267,0,0,1-.607,1.16,1.348,1.348,0,0,1,.984,1.36,1.521,1.521,0,0,1-.524,1.188,2,2,0,0,1-1.38.468Zm.744-3.24h1.12a.992.992,0,0,0,.708-.244.831.831,0,0,0,.26-.636.845.845,0,0,0-.264-.632.969.969,0,0,0-.7-.256h-1.12Zm0,2.568h1.32a1.246,1.246,0,0,0,.852-.26.893.893,0,0,0,.292-.7.909.909,0,0,0-.292-.7,1.2,1.2,0,0,0-.844-.268h-1.328Z"/></g><g transform="translate(-152.079 4229.633)"><path class="j" d="M491.079,174.151v-7.1h1.17v2.94h3.509v-2.94h1.17v7.1h-1.17V171.1h-3.509v3.05Z"/><path class="j" d="M498.678,174.151v-7.1h2.56a2.157,2.157,0,0,1,1.566.565,1.938,1.938,0,0,1,.585,1.455,1.837,1.837,0,0,1-.415,1.235,2.105,2.105,0,0,1-1.2.655l2.641,3.19h-1.44l-2.6-3.12h-.53v3.12Zm1.17-4.14H501.1a1.263,1.263,0,0,0,.82-.245.955.955,0,0,0,0-1.39,1.257,1.257,0,0,0-.82-.245h-1.251Z"/><path class="j" d="M507.289,174.151v-7.1h2.18a3.694,3.694,0,0,1,2.65,1.02,3.528,3.528,0,0,1,0,5.06,3.694,3.694,0,0,1-2.65,1.02Zm1.17-1.09h1.01a2.477,2.477,0,0,0,1.825-.7,2.549,2.549,0,0,0,0-3.52,2.481,2.481,0,0,0-1.825-.7h-1.01Z"/><path class="j" d="M518.474,173.5a2.632,2.632,0,1,1,.755-1.845A2.533,2.533,0,0,1,518.474,173.5Zm-1.866-.265a1.411,1.411,0,0,0,1.076-.455,1.7,1.7,0,0,0,0-2.25,1.51,1.51,0,0,0-2.161,0,1.7,1.7,0,0,0,0,2.25A1.421,1.421,0,0,0,516.608,173.231Z"/><path class="j" d="M522.618,174.251a2.58,2.58,0,0,1-1.885-.745,2.659,2.659,0,0,1,0-3.71,2.576,2.576,0,0,1,1.885-.745,2.633,2.633,0,0,1,1.386.37,2.471,2.471,0,0,1,.944,1.01l-.96.52a1.541,1.541,0,0,0-.55-.64,1.528,1.528,0,0,0-1.91.215,1.69,1.69,0,0,0,0,2.25,1.528,1.528,0,0,0,1.91.215,1.541,1.541,0,0,0,.55-.64l.96.52a2.483,2.483,0,0,1-.944,1.01A2.642,2.642,0,0,1,522.618,174.251Z"/><path class="j" d="M527.749,174.251a1.71,1.71,0,0,1-1.36-.575,2.26,2.26,0,0,1-.5-1.535v-2.99h1.1v2.81a1.533,1.533,0,0,0,.261.945.87.87,0,0,0,.739.345,1.07,1.07,0,0,0,.891-.425,1.946,1.946,0,0,0,.33-1.215v-2.46h1.1v5h-1.1v-.68A1.544,1.544,0,0,1,527.749,174.251Z"/><path class="j" d="M538.159,174.151v-2.81a1.711,1.711,0,0,0-.225-.95.748.748,0,0,0-.665-.34,1.024,1.024,0,0,0-.85.41,1.91,1.91,0,0,0-.34,1.15v2.54h-1.1v-2.81a1.711,1.711,0,0,0-.225-.95.748.748,0,0,0-.665-.34,1.039,1.039,0,0,0-.875.43,1.97,1.97,0,0,0-.325,1.21v2.46h-1.1v-5h1.1v.68a1.7,1.7,0,0,1,2.969.21,1.588,1.588,0,0,1,.646-.73,1.829,1.829,0,0,1,.955-.26,1.633,1.633,0,0,1,1.32.57,2.314,2.314,0,0,1,.48,1.54v2.99Z"/><path class="j" d="M542.929,174.251a2.547,2.547,0,0,1-1.875-.73,2.61,2.61,0,0,1,1.875-4.47,2.383,2.383,0,0,1,1.724.66,2.409,2.409,0,0,1,.686,1.82c0,.134,0,.253-.01.36H541.4a1.372,1.372,0,0,0,.471.985,1.721,1.721,0,0,0,2.5-.385l.84.6A2.486,2.486,0,0,1,542.929,174.251Zm-1.481-3.16h2.781a1.27,1.27,0,0,0-.465-.815,1.373,1.373,0,0,0-.875-.295,1.548,1.548,0,0,0-.925.29A1.288,1.288,0,0,0,541.448,171.091Z"/><path class="j" d="M548.559,174.2a1.786,1.786,0,0,1-1.236-.425,1.572,1.572,0,0,1-.474-1.235v-2.41h-1.04v-.98h1.04v-1.39h1.1v1.39h1.431v.98h-1.431v2.23a.72.72,0,0,0,.84.85,1.492,1.492,0,0,0,.591-.1v.98A2.821,2.821,0,0,1,548.559,174.2Z"/><path class="j" d="M552.009,174.251a2.688,2.688,0,0,1-1.22-.265,1.71,1.71,0,0,1-.79-.795l.81-.58a1.108,1.108,0,0,0,.48.505,1.451,1.451,0,0,0,.72.185.892.892,0,0,0,.514-.14.473.473,0,0,0,.04-.75,1.836,1.836,0,0,0-.6-.28l-.44-.12a1.5,1.5,0,0,1-1.31-1.53,1.243,1.243,0,0,1,.51-1.04,2.045,2.045,0,0,1,1.28-.39,1.841,1.841,0,0,1,1.689.85l-.759.58a1.147,1.147,0,0,0-.95-.51.871.871,0,0,0-.47.125.386.386,0,0,0-.2.345.484.484,0,0,0,.129.34,1.114,1.114,0,0,0,.471.25l.51.15a2.433,2.433,0,0,1,1.05.565,1.3,1.3,0,0,1,.349.955,1.391,1.391,0,0,1-.509,1.13A1.979,1.979,0,0,1,552.009,174.251Z"/></g></g><g transform="translate(76 11)"><circle class="g" cx="20" cy="20" r="20" transform="translate(289 4386)"/><path class="h" d="M4,200.569v-11.6A.967.967,0,0,1,4.967,188h5.8c1.45,0,1,1.934,2.9,1.934h6.768a.967.967,0,0,1,.967.967v9.668a.967.967,0,0,1-.967.967H4.967A.967.967,0,0,1,4,200.569Z" transform="translate(296 4211)"/><g transform="translate(-518.925 4071.726)"><path class="i" d="M859.021,343.7v-5h-1.1l.559-.68h1.224v5.68Z"/><path class="i" d="M862.948,343.784a1.9,1.9,0,0,1-1.448-.6,2.16,2.16,0,0,1-.56-1.54v-1.584a2.149,2.149,0,0,1,.564-1.54,2.047,2.047,0,0,1,2.892,0,2.147,2.147,0,0,1,.568,1.536v1.584a2.143,2.143,0,0,1-.568,1.54A1.914,1.914,0,0,1,862.948,343.784Zm0-.672a1.258,1.258,0,0,0,.96-.392,1.5,1.5,0,0,0,.368-1.072v-1.584a1.505,1.505,0,0,0-.368-1.072,1.362,1.362,0,0,0-1.912,0,1.505,1.505,0,0,0-.368,1.072v1.584A1.5,1.5,0,0,0,862,342.72,1.248,1.248,0,0,0,862.948,343.112Z"/><path class="i" d="M867.933,343.784a1.9,1.9,0,0,1-1.449-.6,2.159,2.159,0,0,1-.559-1.54v-1.584a2.149,2.149,0,0,1,.563-1.54,2.047,2.047,0,0,1,2.892,0,2.143,2.143,0,0,1,.568,1.536v1.584a2.139,2.139,0,0,1-.568,1.54A1.912,1.912,0,0,1,867.933,343.784Zm0-.672a1.261,1.261,0,0,0,.96-.392,1.5,1.5,0,0,0,.368-1.072v-1.584a1.505,1.505,0,0,0-.368-1.072,1.363,1.363,0,0,0-1.913,0,1.505,1.505,0,0,0-.368,1.072v1.584a1.5,1.5,0,0,0,.368,1.072A1.25,1.25,0,0,0,867.933,343.112Z"/><path class="i" d="M873.852,343.8a3.015,3.015,0,0,1-2.2-.84,2.991,2.991,0,0,1-.011-4.184,2.867,2.867,0,0,1,2.112-.848,2.973,2.973,0,0,1,2.136.792l-.5.536a2.341,2.341,0,0,0-1.64-.624,2.124,2.124,0,0,0-1.588.644,2.187,2.187,0,0,0-.628,1.588,2.165,2.165,0,0,0,.636,1.6,2.265,2.265,0,0,0,1.676.636,2.377,2.377,0,0,0,1.511-.424v-1.52h-1.607v-.7h2.328V343a2.388,2.388,0,0,1-.968.6A3.855,3.855,0,0,1,873.852,343.8Z"/><path class="i" d="M877.3,343.7v-5.68h1.864a1.718,1.718,0,0,1,1.232.44,1.412,1.412,0,0,1,.463,1.064,1.267,1.267,0,0,1-.607,1.16,1.348,1.348,0,0,1,.984,1.36,1.521,1.521,0,0,1-.524,1.188,2,2,0,0,1-1.38.468Zm.744-3.24h1.12a.992.992,0,0,0,.708-.244.831.831,0,0,0,.26-.636.845.845,0,0,0-.264-.632.969.969,0,0,0-.7-.256h-1.12Zm0,2.568h1.32a1.246,1.246,0,0,0,.852-.26.893.893,0,0,0,.292-.7.909.909,0,0,0-.292-.7,1.2,1.2,0,0,0-.844-.268h-1.328Z"/></g><g transform="translate(-133.745 4161.73)"><path class="j" d="M472.745,234.748h1.07l2.479,3.359,2.491-3.359h1.07v7.1h-1.181v-5.09l-2.37,3.22-2.389-3.23v5.1h-1.17Z"/><path class="j" d="M483.415,241.948a2.234,2.234,0,0,1-1.715-.76,2.78,2.78,0,0,1,0-3.68,2.23,2.23,0,0,1,1.715-.76,2,2,0,0,1,.94.225,1.838,1.838,0,0,1,.659.545v-.67h1.1v5h-1.1v-.67a1.849,1.849,0,0,1-.659.545A2,2,0,0,1,483.415,241.948Zm-.871-1.46a1.474,1.474,0,0,0,2.14,0,1.754,1.754,0,0,0,0-2.28,1.474,1.474,0,0,0-2.14,0,1.76,1.76,0,0,0,0,2.28Z"/><path class="j" d="M487.605,241.848v-5h1.1v.89a1.314,1.314,0,0,1,.515-.68,1.381,1.381,0,0,1,.8-.26,1.91,1.91,0,0,1,.43.04v1.13a1.566,1.566,0,0,0-.55-.091,1.085,1.085,0,0,0-.85.406,1.667,1.667,0,0,0-.35,1.125v2.44Z"/><path class="j" d="M494.895,241.848l-2.391-2.41v2.41h-1.1v-7.5h1.1v4.4l1.911-1.9H495.8l-2.229,2.23,2.729,2.77Z"/><path class="j" d="M498.814,241.948a2.6,2.6,0,1,1,0-5.2,2.312,2.312,0,0,1,2.411,2.48c0,.133,0,.253-.01.36h-3.931a1.368,1.368,0,0,0,.47.985,1.721,1.721,0,0,0,2.5-.385l.841.6A2.489,2.489,0,0,1,498.814,241.948Zm-1.481-3.16h2.781a1.268,1.268,0,0,0-.465-.815,1.373,1.373,0,0,0-.875-.3,1.544,1.544,0,0,0-.925.29A1.3,1.3,0,0,0,497.333,238.788Z"/><path class="j" d="M504.445,241.9a1.782,1.782,0,0,1-1.235-.424,1.574,1.574,0,0,1-.475-1.235v-2.41H501.7v-.98h1.04v-1.39h1.1v1.39h1.431v.98h-1.431v2.23a.72.72,0,0,0,.84.85,1.5,1.5,0,0,0,.591-.1v.98A2.829,2.829,0,0,1,504.445,241.9Z"/><path class="j" d="M506.854,235.758a.718.718,0,0,1-.52-.216.725.725,0,0,1,0-1.04.72.72,0,0,1,.52-.214.7.7,0,0,1,.52.214.749.749,0,0,1,0,1.04A.7.7,0,0,1,506.854,235.758Zm-.549,6.09v-5h1.1v5Z"/><path class="j" d="M508.885,241.848v-5h1.1v.68a1.641,1.641,0,0,1,1.521-.78,1.791,1.791,0,0,1,1.39.57,2.171,2.171,0,0,1,.519,1.52v3.01h-1.1v-2.83a1.414,1.414,0,0,0-.28-.935.934.934,0,0,0-.76-.335,1.155,1.155,0,0,0-.929.43,1.826,1.826,0,0,0-.361,1.21v2.46Z"/><path class="j" d="M516.975,244.038a3.626,3.626,0,0,1-1.35-.246,2.483,2.483,0,0,1-.99-.674l.67-.79a2.165,2.165,0,0,0,1.66.73,1.5,1.5,0,0,0,1.08-.415,1.521,1.521,0,0,0,.43-1.145v-.46a1.813,1.813,0,0,1-.67.56,2.02,2.02,0,0,1-.93.22,2.254,2.254,0,0,1-1.705-.735,2.68,2.68,0,0,1,0-3.6,2.257,2.257,0,0,1,1.705-.734,2.041,2.041,0,0,1,.93.215,1.756,1.756,0,0,1,.67.555v-.67h1.1v4.66a2.4,2.4,0,0,1-.715,1.889A2.719,2.719,0,0,1,516.975,244.038Zm-.96-3.665a1.509,1.509,0,0,0,2.12,0,1.609,1.609,0,0,0,0-2.19,1.509,1.509,0,0,0-2.12,0,1.609,1.609,0,0,0,0,2.19Z"/><path class="j" d="M526.754,241.968a3.671,3.671,0,1,1,0-7.341,3.678,3.678,0,0,1,1.87.486,3.623,3.623,0,0,1,1.33,1.315l-1.01.58a2.433,2.433,0,0,0-2.19-1.25,2.371,2.371,0,0,0-1.77.74,2.61,2.61,0,0,0,0,3.6,2.374,2.374,0,0,0,1.77.74,2.435,2.435,0,0,0,2.19-1.25l1.01.579a3.615,3.615,0,0,1-1.33,1.315A3.668,3.668,0,0,1,526.754,241.968Z"/><path class="j" d="M532.994,241.948a2.234,2.234,0,0,1-1.715-.76,2.783,2.783,0,0,1,0-3.68,2.231,2.231,0,0,1,1.715-.76,2,2,0,0,1,.941.225,1.846,1.846,0,0,1,.659.545v-.67h1.1v5h-1.1v-.67a1.857,1.857,0,0,1-.659.545A2,2,0,0,1,532.994,241.948Zm-.87-1.46a1.474,1.474,0,0,0,2.14,0,1.754,1.754,0,0,0,0-2.28,1.474,1.474,0,0,0-2.14,0,1.757,1.757,0,0,0,0,2.28Z"/><path class="j" d="M543.555,241.848v-2.81a1.708,1.708,0,0,0-.226-.95.743.743,0,0,0-.665-.34,1.023,1.023,0,0,0-.85.41,1.908,1.908,0,0,0-.339,1.15v2.54h-1.1v-2.81a1.7,1.7,0,0,0-.225-.95.746.746,0,0,0-.665-.34,1.039,1.039,0,0,0-.875.43,1.974,1.974,0,0,0-.325,1.21v2.46h-1.1v-5h1.1v.68a1.7,1.7,0,0,1,2.97.21,1.581,1.581,0,0,1,.645-.73,1.823,1.823,0,0,1,.955-.26,1.637,1.637,0,0,1,1.321.57,2.317,2.317,0,0,1,.479,1.539v2.991Z"/><path class="j" d="M547.164,243.938h-1.1v-7.09h1.1v.67a1.827,1.827,0,0,1,.665-.545,2.029,2.029,0,0,1,.945-.225,2.232,2.232,0,0,1,1.715.76,2.78,2.78,0,0,1,0,3.68,2.235,2.235,0,0,1-1.715.76,2.03,2.03,0,0,1-.945-.225,1.837,1.837,0,0,1-.665-.545Zm1.41-2.99a1.39,1.39,0,0,0,1.071-.46,1.76,1.76,0,0,0,0-2.28,1.487,1.487,0,0,0-2.151,0,1.757,1.757,0,0,0,0,2.28A1.4,1.4,0,0,0,548.574,240.948Z"/><path class="j" d="M554.354,241.948a2.233,2.233,0,0,1-1.714-.76,2.78,2.78,0,0,1,0-3.68,2.23,2.23,0,0,1,1.714-.76,2,2,0,0,1,.941.225,1.837,1.837,0,0,1,.659.545v-.67h1.1v5h-1.1v-.67a1.848,1.848,0,0,1-.659.545A2,2,0,0,1,554.354,241.948Zm-.87-1.46a1.474,1.474,0,0,0,2.14,0,1.754,1.754,0,0,0,0-2.28,1.474,1.474,0,0,0-2.14,0,1.757,1.757,0,0,0,0,2.28Z"/><path class="j" d="M559.094,235.758a.722.722,0,0,1-.521-.216.727.727,0,0,1,0-1.04.724.724,0,0,1,.521-.214.7.7,0,0,1,.519.214.749.749,0,0,1,0,1.04A.693.693,0,0,1,559.094,235.758Zm-.55,6.09v-5h1.1v5Z"/><path class="j" d="M563.273,244.038a3.624,3.624,0,0,1-1.349-.246,2.483,2.483,0,0,1-.99-.674l.67-.79a2.165,2.165,0,0,0,1.66.73,1.5,1.5,0,0,0,1.08-.415,1.52,1.52,0,0,0,.429-1.145v-.46a1.8,1.8,0,0,1-.669.56,2.023,2.023,0,0,1-.93.22,2.254,2.254,0,0,1-1.705-.735,2.677,2.677,0,0,1,0-3.6,2.257,2.257,0,0,1,1.705-.734,2.044,2.044,0,0,1,.93.215,1.746,1.746,0,0,1,.669.555v-.67h1.1v4.66a2.4,2.4,0,0,1-.715,1.889A2.72,2.72,0,0,1,563.273,244.038Zm-.96-3.665a1.51,1.51,0,0,0,2.121,0,1.609,1.609,0,0,0,0-2.19,1.51,1.51,0,0,0-2.121,0,1.612,1.612,0,0,0,0,2.19Z"/><path class="j" d="M567.354,241.848v-5h1.1v.68a1.64,1.64,0,0,1,1.521-.78,1.787,1.787,0,0,1,1.389.57,2.167,2.167,0,0,1,.52,1.52v3.01h-1.1v-2.83a1.419,1.419,0,0,0-.28-.935.937.937,0,0,0-.76-.335,1.157,1.157,0,0,0-.93.43,1.831,1.831,0,0,0-.36,1.21v2.46Z"/></g></g><g transform="translate(76 62)"><circle class="g" cx="20" cy="20" r="20" transform="translate(289 4386)"/><path class="h" d="M4,200.569v-11.6A.967.967,0,0,1,4.967,188h5.8c1.45,0,1,1.934,2.9,1.934h6.768a.967.967,0,0,1,.967.967v9.668a.967.967,0,0,1-.967.967H4.967A.967.967,0,0,1,4,200.569Z" transform="translate(296 4211)"/><g transform="translate(-518.925 4071.726)"><path class="i" d="M859.021,343.7v-5h-1.1l.559-.68h1.224v5.68Z"/><path class="i" d="M862.948,343.784a1.9,1.9,0,0,1-1.448-.6,2.16,2.16,0,0,1-.56-1.54v-1.584a2.149,2.149,0,0,1,.564-1.54,2.047,2.047,0,0,1,2.892,0,2.147,2.147,0,0,1,.568,1.536v1.584a2.143,2.143,0,0,1-.568,1.54A1.914,1.914,0,0,1,862.948,343.784Zm0-.672a1.258,1.258,0,0,0,.96-.392,1.5,1.5,0,0,0,.368-1.072v-1.584a1.505,1.505,0,0,0-.368-1.072,1.362,1.362,0,0,0-1.912,0,1.505,1.505,0,0,0-.368,1.072v1.584A1.5,1.5,0,0,0,862,342.72,1.248,1.248,0,0,0,862.948,343.112Z"/><path class="i" d="M867.933,343.784a1.9,1.9,0,0,1-1.449-.6,2.159,2.159,0,0,1-.559-1.54v-1.584a2.149,2.149,0,0,1,.563-1.54,2.047,2.047,0,0,1,2.892,0,2.143,2.143,0,0,1,.568,1.536v1.584a2.139,2.139,0,0,1-.568,1.54A1.912,1.912,0,0,1,867.933,343.784Zm0-.672a1.261,1.261,0,0,0,.96-.392,1.5,1.5,0,0,0,.368-1.072v-1.584a1.505,1.505,0,0,0-.368-1.072,1.363,1.363,0,0,0-1.913,0,1.505,1.505,0,0,0-.368,1.072v1.584a1.5,1.5,0,0,0,.368,1.072A1.25,1.25,0,0,0,867.933,343.112Z"/><path class="i" d="M873.852,343.8a3.015,3.015,0,0,1-2.2-.84,2.991,2.991,0,0,1-.011-4.184,2.867,2.867,0,0,1,2.112-.848,2.973,2.973,0,0,1,2.136.792l-.5.536a2.341,2.341,0,0,0-1.64-.624,2.124,2.124,0,0,0-1.588.644,2.187,2.187,0,0,0-.628,1.588,2.165,2.165,0,0,0,.636,1.6,2.265,2.265,0,0,0,1.676.636,2.377,2.377,0,0,0,1.511-.424v-1.52h-1.607v-.7h2.328V343a2.388,2.388,0,0,1-.968.6A3.855,3.855,0,0,1,873.852,343.8Z"/><path class="i" d="M877.3,343.7v-5.68h1.864a1.718,1.718,0,0,1,1.232.44,1.412,1.412,0,0,1,.463,1.064,1.267,1.267,0,0,1-.607,1.16,1.348,1.348,0,0,1,.984,1.36,1.521,1.521,0,0,1-.524,1.188,2,2,0,0,1-1.38.468Zm.744-3.24h1.12a.992.992,0,0,0,.708-.244.831.831,0,0,0,.26-.636.845.845,0,0,0-.264-.632.969.969,0,0,0-.7-.256h-1.12Zm0,2.568h1.32a1.246,1.246,0,0,0,.852-.26.893.893,0,0,0,.292-.7.909.909,0,0,0-.292-.7,1.2,1.2,0,0,0-.844-.268h-1.328Z"/></g><g transform="translate(-127.844 4123.942)"><path class="j" d="M469.374,280.212a3.3,3.3,0,0,1-1.53-.35,2.305,2.305,0,0,1-1-.93l.92-.73a1.862,1.862,0,0,0,1.65.91,1.329,1.329,0,0,0,.83-.245.762.762,0,0,0,.32-.635q0-.711-1.01-1.08l-.78-.28a2.928,2.928,0,0,1-1.27-.8,1.963,1.963,0,0,1,.24-2.66,2.5,2.5,0,0,1,1.66-.545,2.643,2.643,0,0,1,2.15.97l-.81.79a1.7,1.7,0,0,0-1.35-.66,1.384,1.384,0,0,0-.8.22.687.687,0,0,0-.325.6.74.74,0,0,0,.245.585,2.807,2.807,0,0,0,.835.435l.72.27a3.016,3.016,0,0,1,1.25.81,1.84,1.84,0,0,1,.42,1.27,1.859,1.859,0,0,1-.661,1.485A2.536,2.536,0,0,1,469.374,280.212Z"/><path class="j" d="M477.009,279.437a2.62,2.62,0,0,1-4.485-1.845,2.51,2.51,0,0,1,.755-1.845,2.681,2.681,0,0,1,3.73,0,2.632,2.632,0,0,1,0,3.69Zm-1.865-.265a1.407,1.407,0,0,0,1.075-.455,1.7,1.7,0,0,0,0-2.25,1.509,1.509,0,0,0-2.16,0,1.7,1.7,0,0,0,0,2.25A1.42,1.42,0,0,0,475.144,279.172Z"/><path class="j" d="M481.154,280.192a2.58,2.58,0,0,1-1.885-.745,2.656,2.656,0,0,1,0-3.71,2.576,2.576,0,0,1,1.885-.745,2.638,2.638,0,0,1,1.386.37,2.477,2.477,0,0,1,.944,1.01l-.96.52a1.549,1.549,0,0,0-.55-.64,1.528,1.528,0,0,0-1.91.215,1.687,1.687,0,0,0,0,2.25,1.528,1.528,0,0,0,1.91.215,1.549,1.549,0,0,0,.55-.64l.96.52a2.489,2.489,0,0,1-.944,1.01A2.647,2.647,0,0,1,481.154,280.192Z"/><path class="j" d="M485.043,274a.721.721,0,0,1-.52-.215.7.7,0,0,1-.22-.525.693.693,0,0,1,.22-.515.721.721,0,0,1,.52-.215.7.7,0,0,1,.52.215.706.706,0,0,1,.21.515.718.718,0,0,1-.21.525A.7.7,0,0,1,485.043,274Zm-.549,6.09v-5h1.1v5Z"/><path class="j" d="M489.124,280.192a2.234,2.234,0,0,1-1.715-.76,2.78,2.78,0,0,1,0-3.68,2.23,2.23,0,0,1,1.715-.76,2,2,0,0,1,.94.225,1.838,1.838,0,0,1,.659.545v-.67h1.1v5h-1.1v-.67a1.848,1.848,0,0,1-.659.545A2,2,0,0,1,489.124,280.192Zm-.871-1.46a1.474,1.474,0,0,0,2.14,0,1.754,1.754,0,0,0,0-2.28,1.474,1.474,0,0,0-2.14,0,1.757,1.757,0,0,0,0,2.28Z"/><path class="j" d="M493.314,280.092v-7.5h1.1v7.5Z"/><path class="j" d="M498.374,272.992h1.07l2.48,3.36,2.49-3.36h1.07v7.1H504.3V275l-2.37,3.22-2.391-3.23v5.1h-1.169Z"/><path class="j" d="M509.254,280.192a2.6,2.6,0,1,1,0-5.2,2.311,2.311,0,0,1,2.41,2.48c0,.133,0,.253-.01.36h-3.93a1.368,1.368,0,0,0,.47.985,1.721,1.721,0,0,0,2.5-.385l.84.6A2.486,2.486,0,0,1,509.254,280.192Zm-1.481-3.16h2.781a1.27,1.27,0,0,0-.465-.815,1.373,1.373,0,0,0-.875-.3,1.55,1.55,0,0,0-.925.29A1.3,1.3,0,0,0,507.773,277.032Z"/><path class="j" d="M514.844,280.192a2.234,2.234,0,0,1-1.715-.76,2.783,2.783,0,0,1,0-3.68,2.23,2.23,0,0,1,1.715-.76,2,2,0,0,1,.94.225,1.838,1.838,0,0,1,.659.545v-3.17h1.1v7.5h-1.1v-.67a1.848,1.848,0,0,1-.659.545A2,2,0,0,1,514.844,280.192Zm-.87-1.46a1.473,1.473,0,0,0,2.139,0,1.754,1.754,0,0,0,0-2.28,1.473,1.473,0,0,0-2.139,0,1.757,1.757,0,0,0,0,2.28Z"/><path class="j" d="M519.584,274a.725.725,0,0,1-.521-.215.707.707,0,0,1-.219-.525.7.7,0,0,1,.219-.515.725.725,0,0,1,.521-.215.7.7,0,0,1,.52.215.709.709,0,0,1,.209.515.721.721,0,0,1-.209.525A.7.7,0,0,1,519.584,274Zm-.55,6.09v-5h1.1v5Z"/><path class="j" d="M523.664,280.192a2.234,2.234,0,0,1-1.715-.76,2.783,2.783,0,0,1,0-3.68,2.23,2.23,0,0,1,1.715-.76,2,2,0,0,1,.94.225,1.842,1.842,0,0,1,.66.545v-.67h1.1v5h-1.1v-.67a1.852,1.852,0,0,1-.66.545A2,2,0,0,1,523.664,280.192Zm-.87-1.46a1.474,1.474,0,0,0,2.14,0,1.757,1.757,0,0,0,0-2.28,1.474,1.474,0,0,0-2.14,0,1.757,1.757,0,0,0,0,2.28Z"/><path class="j" d="M530.334,272.992h1.07l2.48,3.36,2.49-3.36h1.07v7.1h-1.18V275l-2.37,3.22-2.39-3.23v5.1h-1.17Z"/><path class="j" d="M541,280.192a2.234,2.234,0,0,1-1.715-.76,2.783,2.783,0,0,1,0-3.68,2.23,2.23,0,0,1,1.715-.76,2,2,0,0,1,.94.225,1.851,1.851,0,0,1,.66.545v-.67h1.1v5h-1.1v-.67a1.861,1.861,0,0,1-.66.545A2,2,0,0,1,541,280.192Zm-.87-1.46a1.473,1.473,0,0,0,2.139,0,1.754,1.754,0,0,0,0-2.28,1.473,1.473,0,0,0-2.139,0,1.757,1.757,0,0,0,0,2.28Z"/><path class="j" d="M545.193,280.092v-5h1.1v.89a1.321,1.321,0,0,1,.516-.68,1.378,1.378,0,0,1,.8-.26,1.9,1.9,0,0,1,.43.04v1.13a1.563,1.563,0,0,0-.55-.09,1.08,1.08,0,0,0-.849.4,1.662,1.662,0,0,0-.351,1.125v2.44Z"/><path class="j" d="M552.483,280.092l-2.39-2.41v2.41h-1.1v-7.5h1.1v4.4l1.91-1.9h1.39l-2.23,2.23,2.73,2.77Z"/><path class="j" d="M556.4,280.192a2.551,2.551,0,0,1-1.875-.73,2.61,2.61,0,0,1,1.875-4.47,2.311,2.311,0,0,1,2.41,2.48q0,.2-.009.36h-3.931a1.369,1.369,0,0,0,.471.985,1.721,1.721,0,0,0,2.5-.385l.84.6A2.489,2.489,0,0,1,556.4,280.192Zm-1.48-3.16h2.78a1.266,1.266,0,0,0-.465-.815,1.373,1.373,0,0,0-.875-.3,1.553,1.553,0,0,0-.925.29A1.291,1.291,0,0,0,554.923,277.032Z"/><path class="j" d="M562.033,280.142a1.782,1.782,0,0,1-1.235-.425,1.57,1.57,0,0,1-.475-1.235v-2.41h-1.04v-.98h1.04V273.7h1.1v1.39h1.431v.98h-1.431v2.23a.72.72,0,0,0,.84.85,1.5,1.5,0,0,0,.591-.1v.98A2.828,2.828,0,0,1,562.033,280.142Z"/><path class="j" d="M564.443,274a.721.721,0,0,1-.52-.215.7.7,0,0,1-.22-.525.693.693,0,0,1,.22-.515.721.721,0,0,1,.52-.215.725.725,0,0,1,.73.73.718.718,0,0,1-.21.525A.7.7,0,0,1,564.443,274Zm-.549,6.09v-5h1.1v5Z"/><path class="j" d="M566.474,280.092v-5h1.1v.68a1.642,1.642,0,0,1,1.521-.78,1.787,1.787,0,0,1,1.389.57,2.167,2.167,0,0,1,.52,1.52v3.01h-1.1v-2.83a1.414,1.414,0,0,0-.28-.935.937.937,0,0,0-.76-.335,1.154,1.154,0,0,0-.929.43,1.826,1.826,0,0,0-.361,1.21v2.46Z"/><path class="j" d="M574.562,282.282a3.643,3.643,0,0,1-1.349-.245,2.484,2.484,0,0,1-.99-.675l.67-.79a2.162,2.162,0,0,0,1.66.73,1.493,1.493,0,0,0,1.08-.415,1.519,1.519,0,0,0,.429-1.145v-.46a1.8,1.8,0,0,1-.669.56,2.023,2.023,0,0,1-.93.22,2.254,2.254,0,0,1-1.705-.735,2.676,2.676,0,0,1,0-3.6,2.254,2.254,0,0,1,1.705-.735,2.044,2.044,0,0,1,.93.215,1.746,1.746,0,0,1,.669.555v-.67h1.1v4.66a2.406,2.406,0,0,1-.715,1.89A2.725,2.725,0,0,1,574.562,282.282Zm-.959-3.665a1.509,1.509,0,0,0,2.12,0,1.609,1.609,0,0,0,0-2.19,1.509,1.509,0,0,0-2.12,0,1.609,1.609,0,0,0,0,2.19Z"/></g></g><g transform="translate(76 112)"><circle class="g" cx="20" cy="20" r="20" transform="translate(289 4386)"/><path class="h" d="M4,200.569v-11.6A.967.967,0,0,1,4.967,188h5.8c1.45,0,1,1.934,2.9,1.934h6.768a.967.967,0,0,1,.967.967v9.668a.967.967,0,0,1-.967.967H4.967A.967.967,0,0,1,4,200.569Z" transform="translate(296 4211)"/><g transform="translate(-518.925 4071.726)"><path class="i" d="M859.021,343.7v-5h-1.1l.559-.68h1.224v5.68Z"/><path class="i" d="M862.948,343.784a1.9,1.9,0,0,1-1.448-.6,2.16,2.16,0,0,1-.56-1.54v-1.584a2.149,2.149,0,0,1,.564-1.54,2.047,2.047,0,0,1,2.892,0,2.147,2.147,0,0,1,.568,1.536v1.584a2.143,2.143,0,0,1-.568,1.54A1.914,1.914,0,0,1,862.948,343.784Zm0-.672a1.258,1.258,0,0,0,.96-.392,1.5,1.5,0,0,0,.368-1.072v-1.584a1.505,1.505,0,0,0-.368-1.072,1.362,1.362,0,0,0-1.912,0,1.505,1.505,0,0,0-.368,1.072v1.584A1.5,1.5,0,0,0,862,342.72,1.248,1.248,0,0,0,862.948,343.112Z"/><path class="i" d="M867.933,343.784a1.9,1.9,0,0,1-1.449-.6,2.159,2.159,0,0,1-.559-1.54v-1.584a2.149,2.149,0,0,1,.563-1.54,2.047,2.047,0,0,1,2.892,0,2.143,2.143,0,0,1,.568,1.536v1.584a2.139,2.139,0,0,1-.568,1.54A1.912,1.912,0,0,1,867.933,343.784Zm0-.672a1.261,1.261,0,0,0,.96-.392,1.5,1.5,0,0,0,.368-1.072v-1.584a1.505,1.505,0,0,0-.368-1.072,1.363,1.363,0,0,0-1.913,0,1.505,1.505,0,0,0-.368,1.072v1.584a1.5,1.5,0,0,0,.368,1.072A1.25,1.25,0,0,0,867.933,343.112Z"/><path class="i" d="M873.852,343.8a3.015,3.015,0,0,1-2.2-.84,2.991,2.991,0,0,1-.011-4.184,2.867,2.867,0,0,1,2.112-.848,2.973,2.973,0,0,1,2.136.792l-.5.536a2.341,2.341,0,0,0-1.64-.624,2.124,2.124,0,0,0-1.588.644,2.187,2.187,0,0,0-.628,1.588,2.165,2.165,0,0,0,.636,1.6,2.265,2.265,0,0,0,1.676.636,2.377,2.377,0,0,0,1.511-.424v-1.52h-1.607v-.7h2.328V343a2.388,2.388,0,0,1-.968.6A3.855,3.855,0,0,1,873.852,343.8Z"/><path class="i" d="M877.3,343.7v-5.68h1.864a1.718,1.718,0,0,1,1.232.44,1.412,1.412,0,0,1,.463,1.064,1.267,1.267,0,0,1-.607,1.16,1.348,1.348,0,0,1,.984,1.36,1.521,1.521,0,0,1-.524,1.188,2,2,0,0,1-1.38.468Zm.744-3.24h1.12a.992.992,0,0,0,.708-.244.831.831,0,0,0,.26-.636.845.845,0,0,0-.264-.632.969.969,0,0,0-.7-.256h-1.12Zm0,2.568h1.32a1.246,1.246,0,0,0,.852-.26.893.893,0,0,0,.292-.7.909.909,0,0,0-.292-.7,1.2,1.2,0,0,0-.844-.268h-1.328Z"/></g><g transform="translate(-161.254 4088.214)"><path class="j" d="M500.254,315.346l3.1-7.1h1.02l3.1,7.1h-1.22l-.81-1.86h-3.18l-.8,1.86Zm3.6-5.52-1.14,2.62h2.28Z"/><path class="j" d="M510.194,315.446a2.232,2.232,0,0,1-1.715-.76,2.783,2.783,0,0,1,0-3.68,2.235,2.235,0,0,1,1.715-.76,2,2,0,0,1,.941.225,1.849,1.849,0,0,1,.659.545v-3.17h1.1v7.5h-1.1v-.67a1.838,1.838,0,0,1-.659.545A2,2,0,0,1,510.194,315.446Zm-.87-1.46a1.474,1.474,0,0,0,2.14,0,1.754,1.754,0,0,0,0-2.28,1.474,1.474,0,0,0-2.14,0,1.757,1.757,0,0,0,0,2.28Z"/><path class="j" d="M520.754,315.346v-2.81a1.7,1.7,0,0,0-.226-.95.746.746,0,0,0-.665-.34,1.024,1.024,0,0,0-.849.41,1.912,1.912,0,0,0-.34,1.15v2.54h-1.1v-2.81a1.711,1.711,0,0,0-.224-.95.749.749,0,0,0-.665-.34,1.039,1.039,0,0,0-.875.43,1.969,1.969,0,0,0-.326,1.21v2.46h-1.1v-5h1.1v.68a1.7,1.7,0,0,1,2.97.21,1.593,1.593,0,0,1,.646-.73,1.829,1.829,0,0,1,.955-.26,1.635,1.635,0,0,1,1.32.57,2.319,2.319,0,0,1,.48,1.54v2.99Z"/><path class="j" d="M523.813,309.256a.717.717,0,0,1-.52-.215.7.7,0,0,1-.22-.525.694.694,0,0,1,.22-.515.721.721,0,0,1,.52-.215.7.7,0,0,1,.52.215.708.708,0,0,1,.21.515.718.718,0,0,1-.21.525A.7.7,0,0,1,523.813,309.256Zm-.549,6.09v-5h1.1v5Z"/><path class="j" d="M525.844,315.346v-5h1.1v.68a1.642,1.642,0,0,1,1.521-.78,1.79,1.79,0,0,1,1.39.57,2.171,2.171,0,0,1,.519,1.52v3.01h-1.1v-2.83a1.416,1.416,0,0,0-.28-.935.937.937,0,0,0-.76-.335,1.158,1.158,0,0,0-.929.43,1.828,1.828,0,0,0-.361,1.21v2.46Z"/><path class="j" d="M532.334,309.256a.721.721,0,0,1-.521-.215.707.707,0,0,1-.219-.525.7.7,0,0,1,.219-.515.725.725,0,0,1,.521-.215.7.7,0,0,1,.52.215.711.711,0,0,1,.209.515.721.721,0,0,1-.209.525A.7.7,0,0,1,532.334,309.256Zm-.55,6.09v-5h1.1v5Z"/><path class="j" d="M535.954,315.446a2.687,2.687,0,0,1-1.22-.265,1.706,1.706,0,0,1-.79-.8l.81-.58a1.109,1.109,0,0,0,.48.505,1.441,1.441,0,0,0,.72.185.89.89,0,0,0,.515-.14.447.447,0,0,0,.205-.39.452.452,0,0,0-.165-.36,1.876,1.876,0,0,0-.6-.28l-.44-.12a1.5,1.5,0,0,1-1.31-1.53,1.244,1.244,0,0,1,.51-1.04,2.047,2.047,0,0,1,1.28-.39,1.845,1.845,0,0,1,1.69.85l-.76.58a1.145,1.145,0,0,0-.95-.51.871.871,0,0,0-.47.125.388.388,0,0,0-.2.345.479.479,0,0,0,.13.34,1.109,1.109,0,0,0,.47.25l.51.15a2.437,2.437,0,0,1,1.05.565,1.3,1.3,0,0,1,.35.955,1.387,1.387,0,0,1-.51,1.13A1.979,1.979,0,0,1,535.954,315.446Z"/><path class="j" d="M541,315.4a1.782,1.782,0,0,1-1.235-.425,1.57,1.57,0,0,1-.475-1.235v-2.41h-1.04v-.98h1.04v-1.39h1.1v1.39h1.43v.98h-1.43v2.23a.72.72,0,0,0,.839.85,1.489,1.489,0,0,0,.591-.1v.98A2.816,2.816,0,0,1,541,315.4Z"/><path class="j" d="M542.864,315.346v-5h1.1v.89a1.319,1.319,0,0,1,.515-.68,1.388,1.388,0,0,1,.8-.26,1.963,1.963,0,0,1,.43.04v1.13a1.562,1.562,0,0,0-.55-.09,1.084,1.084,0,0,0-.85.4,1.667,1.667,0,0,0-.35,1.125v2.44Z"/><path class="j" d="M548.544,315.446a2.231,2.231,0,0,1-1.715-.76,2.783,2.783,0,0,1,0-3.68,2.234,2.234,0,0,1,1.715-.76,2,2,0,0,1,.94.225,1.852,1.852,0,0,1,.66.545v-.67h1.1v5h-1.1v-.67a1.842,1.842,0,0,1-.66.545A2,2,0,0,1,548.544,315.446Zm-.87-1.46a1.473,1.473,0,0,0,2.139,0,1.754,1.754,0,0,0,0-2.28,1.473,1.473,0,0,0-2.139,0,1.757,1.757,0,0,0,0,2.28Z"/><path class="j" d="M554.9,315.4a1.782,1.782,0,0,1-1.235-.425,1.573,1.573,0,0,1-.475-1.235v-2.41h-1.04v-.98h1.04v-1.39h1.1v1.39h1.431v.98h-1.431v2.23a.72.72,0,0,0,.84.85,1.5,1.5,0,0,0,.591-.1v.98A2.828,2.828,0,0,1,554.9,315.4Z"/><path class="j" d="M557.313,309.256a.717.717,0,0,1-.52-.215.7.7,0,0,1-.22-.525.694.694,0,0,1,.22-.515.721.721,0,0,1,.52-.215.7.7,0,0,1,.52.215.708.708,0,0,1,.21.515.718.718,0,0,1-.21.525A.7.7,0,0,1,557.313,309.256Zm-.549,6.09v-5h1.1v5Z"/><path class="j" d="M560.9,315.346l-2.259-5h1.219l1.521,3.51,1.529-3.51h1.231l-2.271,5Z"/><path class="j" d="M567.044,315.446a2.6,2.6,0,1,1,0-5.2,2.311,2.311,0,0,1,2.41,2.48c0,.134,0,.253-.01.36h-3.93a1.366,1.366,0,0,0,.47.985,1.721,1.721,0,0,0,2.5-.385l.84.6A2.484,2.484,0,0,1,567.044,315.446Zm-1.481-3.16h2.781a1.27,1.27,0,0,0-.465-.815,1.373,1.373,0,0,0-.875-.3,1.551,1.551,0,0,0-.925.29A1.3,1.3,0,0,0,565.563,312.286Z"/><path class="j" d="M573.063,315.346v-7.1h4.22v1.12h-3.05v1.83h2.4v1.11h-2.4v3.04Z"/><path class="j" d="M578.813,309.256a.717.717,0,0,1-.52-.215.7.7,0,0,1-.22-.525.694.694,0,0,1,.22-.515.721.721,0,0,1,.52-.215.7.7,0,0,1,.52.215.708.708,0,0,1,.21.515.718.718,0,0,1-.21.525A.7.7,0,0,1,578.813,309.256Zm-.549,6.09v-5h1.1v5Z"/><path class="j" d="M580.844,315.346v-7.5h1.1v7.5Z"/><path class="j" d="M585.684,315.446a2.547,2.547,0,0,1-1.875-.73,2.61,2.61,0,0,1,1.875-4.47,2.383,2.383,0,0,1,1.724.66,2.409,2.409,0,0,1,.686,1.82c0,.134,0,.253-.01.36h-3.931a1.37,1.37,0,0,0,.471.985,1.721,1.721,0,0,0,2.5-.385l.84.6A2.486,2.486,0,0,1,585.684,315.446Zm-1.481-3.16h2.78a1.264,1.264,0,0,0-.464-.815,1.373,1.373,0,0,0-.875-.3,1.548,1.548,0,0,0-.925.29A1.291,1.291,0,0,0,584.2,312.286Z"/><path class="j" d="M590.813,315.446a2.683,2.683,0,0,1-1.219-.265,1.7,1.7,0,0,1-.79-.8l.809-.58a1.111,1.111,0,0,0,.481.505,1.437,1.437,0,0,0,.719.185.888.888,0,0,0,.515-.14.445.445,0,0,0,.205-.39.45.45,0,0,0-.165-.36,1.858,1.858,0,0,0-.6-.28l-.441-.12a1.5,1.5,0,0,1-1.309-1.53,1.246,1.246,0,0,1,.509-1.04,2.048,2.048,0,0,1,1.281-.39,1.843,1.843,0,0,1,1.689.85l-.76.58a1.145,1.145,0,0,0-.95-.51.873.873,0,0,0-.47.125.39.39,0,0,0-.2.345.479.479,0,0,0,.13.34,1.108,1.108,0,0,0,.471.25l.51.15a2.439,2.439,0,0,1,1.049.565,1.3,1.3,0,0,1,.35.955,1.387,1.387,0,0,1-.51,1.13A1.977,1.977,0,0,1,590.813,315.446Z"/></g></g><g transform="translate(76 162)"><circle class="g" cx="20" cy="20" r="20" transform="translate(289 4386)"/><path class="h" d="M4,200.569v-11.6A.967.967,0,0,1,4.967,188h5.8c1.45,0,1,1.934,2.9,1.934h6.768a.967.967,0,0,1,.967.967v9.668a.967.967,0,0,1-.967.967H4.967A.967.967,0,0,1,4,200.569Z" transform="translate(296 4211)"/><g transform="translate(-518.925 4071.726)"><path class="i" d="M859.021,343.7v-5h-1.1l.559-.68h1.224v5.68Z"/><path class="i" d="M862.948,343.784a1.9,1.9,0,0,1-1.448-.6,2.16,2.16,0,0,1-.56-1.54v-1.584a2.149,2.149,0,0,1,.564-1.54,2.047,2.047,0,0,1,2.892,0,2.147,2.147,0,0,1,.568,1.536v1.584a2.143,2.143,0,0,1-.568,1.54A1.914,1.914,0,0,1,862.948,343.784Zm0-.672a1.258,1.258,0,0,0,.96-.392,1.5,1.5,0,0,0,.368-1.072v-1.584a1.505,1.505,0,0,0-.368-1.072,1.362,1.362,0,0,0-1.912,0,1.505,1.505,0,0,0-.368,1.072v1.584A1.5,1.5,0,0,0,862,342.72,1.248,1.248,0,0,0,862.948,343.112Z"/><path class="i" d="M867.933,343.784a1.9,1.9,0,0,1-1.449-.6,2.159,2.159,0,0,1-.559-1.54v-1.584a2.149,2.149,0,0,1,.563-1.54,2.047,2.047,0,0,1,2.892,0,2.143,2.143,0,0,1,.568,1.536v1.584a2.139,2.139,0,0,1-.568,1.54A1.912,1.912,0,0,1,867.933,343.784Zm0-.672a1.261,1.261,0,0,0,.96-.392,1.5,1.5,0,0,0,.368-1.072v-1.584a1.505,1.505,0,0,0-.368-1.072,1.363,1.363,0,0,0-1.913,0,1.505,1.505,0,0,0-.368,1.072v1.584a1.5,1.5,0,0,0,.368,1.072A1.25,1.25,0,0,0,867.933,343.112Z"/><path class="i" d="M873.852,343.8a3.015,3.015,0,0,1-2.2-.84,2.991,2.991,0,0,1-.011-4.184,2.867,2.867,0,0,1,2.112-.848,2.973,2.973,0,0,1,2.136.792l-.5.536a2.341,2.341,0,0,0-1.64-.624,2.124,2.124,0,0,0-1.588.644,2.187,2.187,0,0,0-.628,1.588,2.165,2.165,0,0,0,.636,1.6,2.265,2.265,0,0,0,1.676.636,2.377,2.377,0,0,0,1.511-.424v-1.52h-1.607v-.7h2.328V343a2.388,2.388,0,0,1-.968.6A3.855,3.855,0,0,1,873.852,343.8Z"/><path class="i" d="M877.3,343.7v-5.68h1.864a1.718,1.718,0,0,1,1.232.44,1.412,1.412,0,0,1,.463,1.064,1.267,1.267,0,0,1-.607,1.16,1.348,1.348,0,0,1,.984,1.36,1.521,1.521,0,0,1-.524,1.188,2,2,0,0,1-1.38.468Zm.744-3.24h1.12a.992.992,0,0,0,.708-.244.831.831,0,0,0,.26-.636.845.845,0,0,0-.264-.632.969.969,0,0,0-.7-.256h-1.12Zm0,2.568h1.32a1.246,1.246,0,0,0,.852-.26.893.893,0,0,0,.292-.7.909.909,0,0,0-.292-.7,1.2,1.2,0,0,0-.844-.268h-1.328Z"/></g><g transform="translate(-168.884 4067.685)"><path class="j" d="M507.884,336.309v-7.1h4.22v1.12h-3.05v1.83h2.4v1.11h-2.4v3.04Z"/><path class="j" d="M513.634,330.219a.725.725,0,0,1-.521-.215.707.707,0,0,1-.219-.525.7.7,0,0,1,.219-.515.725.725,0,0,1,.521-.215.7.7,0,0,1,.519.215.707.707,0,0,1,.21.515.718.718,0,0,1-.21.525A.7.7,0,0,1,513.634,330.219Zm-.55,6.09v-5h1.1v5Z"/><path class="j" d="M515.664,336.309v-5h1.1v.68a1.639,1.639,0,0,1,1.52-.78,1.79,1.79,0,0,1,1.39.57,2.167,2.167,0,0,1,.519,1.52v3.01h-1.1v-2.83a1.416,1.416,0,0,0-.281-.935.936.936,0,0,0-.759-.335,1.159,1.159,0,0,0-.93.43,1.833,1.833,0,0,0-.36,1.21v2.46Z"/><path class="j" d="M523.653,336.409a2.232,2.232,0,0,1-1.715-.76,2.783,2.783,0,0,1,0-3.68,2.232,2.232,0,0,1,1.715-.76,2,2,0,0,1,.941.225,1.848,1.848,0,0,1,.659.545v-.67h1.1v5h-1.1v-.67a1.838,1.838,0,0,1-.659.545A2,2,0,0,1,523.653,336.409Zm-.87-1.46a1.474,1.474,0,0,0,2.14,0,1.754,1.754,0,0,0,0-2.28,1.474,1.474,0,0,0-2.14,0,1.757,1.757,0,0,0,0,2.28Z"/><path class="j" d="M527.844,336.309v-5h1.1v.68a1.641,1.641,0,0,1,1.521-.78,1.79,1.79,0,0,1,1.39.57,2.171,2.171,0,0,1,.519,1.52v3.01h-1.1v-2.83a1.416,1.416,0,0,0-.28-.935.937.937,0,0,0-.76-.335,1.158,1.158,0,0,0-.929.43,1.828,1.828,0,0,0-.361,1.21v2.46Z"/><path class="j" d="M536.063,336.409a2.575,2.575,0,0,1-1.884-.745,2.656,2.656,0,0,1,0-3.71,2.579,2.579,0,0,1,1.884-.745,2.642,2.642,0,0,1,1.386.37,2.491,2.491,0,0,1,.945,1.01l-.96.52a1.549,1.549,0,0,0-.55-.64,1.528,1.528,0,0,0-1.91.215,1.687,1.687,0,0,0,0,2.25,1.528,1.528,0,0,0,1.91.215,1.549,1.549,0,0,0,.55-.64l.96.52a2.485,2.485,0,0,1-.945,1.01A2.633,2.633,0,0,1,536.063,336.409Z"/><path class="j" d="M541.663,336.409a2.6,2.6,0,1,1,0-5.2,2.311,2.311,0,0,1,2.41,2.48c0,.134,0,.253-.01.36h-3.93a1.363,1.363,0,0,0,.471.985,1.721,1.721,0,0,0,2.5-.385l.839.6A2.486,2.486,0,0,1,541.663,336.409Zm-1.48-3.16h2.78a1.27,1.27,0,0,0-.465-.815,1.373,1.373,0,0,0-.875-.295,1.551,1.551,0,0,0-.925.29A1.294,1.294,0,0,0,540.183,333.249Z"/><path class="j" d="M547.684,336.309v-7.1h2.179a3.7,3.7,0,0,1,2.651,1.02,3.528,3.528,0,0,1,0,5.06,3.7,3.7,0,0,1-2.651,1.02Zm1.17-1.09h1.009a2.476,2.476,0,0,0,1.825-.7,2.547,2.547,0,0,0,0-3.52,2.479,2.479,0,0,0-1.825-.7h-1.009Z"/><path class="j" d="M558.868,335.654a2.632,2.632,0,1,1,.755-1.845A2.532,2.532,0,0,1,558.868,335.654ZM557,335.389a1.407,1.407,0,0,0,1.075-.455,1.7,1.7,0,0,0,0-2.25,1.509,1.509,0,0,0-2.16,0,1.7,1.7,0,0,0,0,2.25A1.418,1.418,0,0,0,557,335.389Z"/><path class="j" d="M563.013,336.409a2.576,2.576,0,0,1-1.885-.745,2.656,2.656,0,0,1,0-3.71,2.58,2.58,0,0,1,1.885-.745,2.641,2.641,0,0,1,1.385.37,2.485,2.485,0,0,1,.945,1.01l-.96.52a1.549,1.549,0,0,0-.55-.64,1.528,1.528,0,0,0-1.91.215,1.687,1.687,0,0,0,0,2.25,1.528,1.528,0,0,0,1.91.215,1.549,1.549,0,0,0,.55-.64l.96.52a2.479,2.479,0,0,1-.945,1.01A2.632,2.632,0,0,1,563.013,336.409Z"/><path class="j" d="M568.144,336.409a1.711,1.711,0,0,1-1.361-.575,2.258,2.258,0,0,1-.5-1.535v-2.99h1.1v2.81a1.533,1.533,0,0,0,.261.945.868.868,0,0,0,.739.345,1.064,1.064,0,0,0,.89-.425,1.944,1.944,0,0,0,.331-1.215v-2.46h1.1v5h-1.1v-.68A1.545,1.545,0,0,1,568.144,336.409Z"/><path class="j" d="M578.554,336.309V333.5a1.7,1.7,0,0,0-.226-.95.745.745,0,0,0-.665-.34,1.025,1.025,0,0,0-.85.41,1.913,1.913,0,0,0-.339,1.15v2.54h-1.1V333.5a1.7,1.7,0,0,0-.225-.95.748.748,0,0,0-.665-.34,1.042,1.042,0,0,0-.875.43,1.977,1.977,0,0,0-.325,1.21v2.46h-1.1v-5h1.1v.68a1.7,1.7,0,0,1,2.97.21,1.591,1.591,0,0,1,.645-.73,1.833,1.833,0,0,1,.956-.26,1.635,1.635,0,0,1,1.32.57,2.319,2.319,0,0,1,.479,1.54v2.99Z"/><path class="j" d="M583.323,336.409a2.6,2.6,0,1,1,0-5.2,2.311,2.311,0,0,1,2.41,2.48c0,.134,0,.253-.009.36h-3.931a1.367,1.367,0,0,0,.471.985,1.721,1.721,0,0,0,2.5-.385l.84.6A2.489,2.489,0,0,1,583.323,336.409Zm-1.48-3.16h2.78a1.27,1.27,0,0,0-.465-.815,1.373,1.373,0,0,0-.875-.295,1.553,1.553,0,0,0-.925.29A1.294,1.294,0,0,0,581.843,333.249Z"/><path class="j" d="M586.863,336.309v-5h1.1v.68a1.639,1.639,0,0,1,1.52-.78,1.79,1.79,0,0,1,1.39.57,2.167,2.167,0,0,1,.52,1.52v3.01h-1.1v-2.83a1.421,1.421,0,0,0-.28-.935.94.94,0,0,0-.76-.335,1.159,1.159,0,0,0-.93.43,1.833,1.833,0,0,0-.36,1.21v2.46Z"/><path class="j" d="M594.913,336.359a1.782,1.782,0,0,1-1.235-.425,1.57,1.57,0,0,1-.475-1.235v-2.41h-1.04v-.98h1.04v-1.39h1.1v1.39h1.43v.98H594.3v2.23a.72.72,0,0,0,.84.85,1.487,1.487,0,0,0,.59-.1v.98A2.816,2.816,0,0,1,594.913,336.359Z"/><path class="j" d="M598.362,336.409a2.68,2.68,0,0,1-1.219-.265,1.7,1.7,0,0,1-.79-.8l.809-.58a1.116,1.116,0,0,0,.481.5,1.447,1.447,0,0,0,.719.185.89.89,0,0,0,.515-.14.445.445,0,0,0,.2-.39.452.452,0,0,0-.165-.36,1.865,1.865,0,0,0-.6-.28l-.44-.12a1.5,1.5,0,0,1-1.31-1.53,1.244,1.244,0,0,1,.51-1.04,2.047,2.047,0,0,1,1.281-.39,1.844,1.844,0,0,1,1.689.85l-.76.58a1.145,1.145,0,0,0-.95-.51.87.87,0,0,0-.47.125.389.389,0,0,0-.2.345.48.48,0,0,0,.13.34,1.107,1.107,0,0,0,.471.25l.509.15a2.428,2.428,0,0,1,1.05.565,1.3,1.3,0,0,1,.35.955,1.387,1.387,0,0,1-.51,1.13A1.977,1.977,0,0,1,598.362,336.409Z"/></g></g><g transform="translate(-126 86)"><circle class="k" cx="16" cy="16" r="16" transform="translate(289 4386)"/><g transform="translate(285 4382.051)"><g transform="translate(14 13.668)"><circle class="c" cx="3" cy="3" r="3" transform="translate(3.022 0.282)"/><path class="c" d="M21.226,74H18.817A4.817,4.817,0,0,0,14,78.817H26.044A4.817,4.817,0,0,0,21.226,74Z" transform="translate(-14 -66.586)"/></g></g><g transform="translate(-489.918 4112.976)"><path class="i" d="M820.918,292.824h.68l2.1,2.832,2.12-2.832h.672v5.68h-.736v-4.416l-2.048,2.752-2.048-2.752V298.5h-.744Z"/><path class="i" d="M829.59,298.584a1.994,1.994,0,0,1-1.5-.592,2.194,2.194,0,0,1,.008-2.972,2,2,0,0,1,1.5-.6,1.856,1.856,0,0,1,1.356.54,1.968,1.968,0,0,1,.548,1.468,2.07,2.07,0,0,1-.009.208h-3.279a1.31,1.31,0,0,0,.4.936,1.467,1.467,0,0,0,2.229-.32l.544.376A1.965,1.965,0,0,1,829.59,298.584Zm-1.328-2.5H830.8a1.21,1.21,0,0,0-1.225-1.048,1.354,1.354,0,0,0-.844.284A1.224,1.224,0,0,0,828.262,296.08Z"/><path class="i" d="M837.63,298.5v-2.352a1.392,1.392,0,0,0-.2-.8.668.668,0,0,0-.588-.3.952.952,0,0,0-.78.376,1.669,1.669,0,0,0-.316,1.024V298.5h-.688v-2.352a1.388,1.388,0,0,0-.2-.8.663.663,0,0,0-.579-.3.961.961,0,0,0-.8.4,1.715,1.715,0,0,0-.3,1.068V298.5h-.687v-4h.687v.616a1.283,1.283,0,0,1,1.208-.7,1.211,1.211,0,0,1,1.232.856,1.344,1.344,0,0,1,.512-.624,1.419,1.419,0,0,1,.8-.232,1.278,1.278,0,0,1,1.024.44,1.764,1.764,0,0,1,.376,1.184V298.5Z"/><path class="i" d="M841.654,298.584a1.759,1.759,0,0,1-.82-.2,1.565,1.565,0,0,1-.588-.5v.616h-.687v-6h.687v2.616a1.556,1.556,0,0,1,.588-.5,1.759,1.759,0,0,1,.82-.2,1.825,1.825,0,0,1,1.4.608,2.2,2.2,0,0,1,0,2.944A1.828,1.828,0,0,1,841.654,298.584Zm-1.08-1.048a1.353,1.353,0,0,0,1.952,0,1.579,1.579,0,0,0,0-2.064,1.353,1.353,0,0,0-1.952,0,1.579,1.579,0,0,0,0,2.064Z"/><path class="i" d="M846.358,298.584a1.994,1.994,0,0,1-1.5-.592,2.194,2.194,0,0,1,.008-2.972,2.006,2.006,0,0,1,1.5-.6,1.86,1.86,0,0,1,1.357.54,1.968,1.968,0,0,1,.548,1.468c0,.08,0,.149-.009.208h-3.28a1.311,1.311,0,0,0,.4.936,1.466,1.466,0,0,0,2.228-.32l.544.376A1.963,1.963,0,0,1,846.358,298.584Zm-1.328-2.5h2.536a1.21,1.21,0,0,0-1.224-1.048,1.35,1.35,0,0,0-.844.284A1.229,1.229,0,0,0,845.03,296.08Z"/><path class="i" d="M849.246,298.5v-4h.688v.776a1.079,1.079,0,0,1,.436-.592,1.183,1.183,0,0,1,.684-.224,1.377,1.377,0,0,1,.311.032v.712a.921.921,0,0,0-.376-.064.96.96,0,0,0-.735.36,1.475,1.475,0,0,0-.32,1.016V298.5Z"/></g><g transform="translate(-536.727 4228.487)"><path class="l" d="M867.727,171.243l3.1-7.1h1.021l3.1,7.1h-1.219l-.81-1.86h-3.181l-.8,1.86Zm3.6-5.52-1.139,2.62h2.28Z"/><path class="l" d="M875.727,171.243v-7.5h1.1v7.5Z"/><path class="l" d="M880.566,171.343a2.551,2.551,0,0,1-1.875-.73,2.61,2.61,0,0,1,1.875-4.47,2.384,2.384,0,0,1,1.725.66,2.409,2.409,0,0,1,.686,1.82c0,.133,0,.253-.01.36h-3.931a1.369,1.369,0,0,0,.471.985,1.721,1.721,0,0,0,2.5-.385l.84.6A2.489,2.489,0,0,1,880.566,171.343Zm-1.48-3.16h2.78a1.263,1.263,0,0,0-.465-.815,1.373,1.373,0,0,0-.875-.295,1.541,1.541,0,0,0-.924.29A1.288,1.288,0,0,0,879.086,168.183Z"/><path class="l" d="M887.246,171.243l-1.35-1.69-1.35,1.69h-1.34l1.99-2.491-1.88-2.509h1.31l1.261,1.68,1.259-1.68h1.32l-1.88,2.509,1.99,2.491Z"/><path class="l" d="M891.187,171.343a2.234,2.234,0,0,1-1.715-.76,2.78,2.78,0,0,1,0-3.68,2.23,2.23,0,0,1,1.715-.76,2,2,0,0,1,.94.225,1.838,1.838,0,0,1,.659.545v-.67h1.1v5h-1.1v-.67a1.848,1.848,0,0,1-.659.545A2,2,0,0,1,891.187,171.343Zm-.871-1.46a1.474,1.474,0,0,0,2.14,0,1.754,1.754,0,0,0,0-2.28,1.474,1.474,0,0,0-2.14,0,1.757,1.757,0,0,0,0,2.28Z"/><path class="l" d="M895.377,171.243v-5h1.1v.68a1.639,1.639,0,0,1,1.52-.78,1.79,1.79,0,0,1,1.39.57,2.172,2.172,0,0,1,.519,1.52v3.01h-1.1v-2.83a1.414,1.414,0,0,0-.281-.935.934.934,0,0,0-.759-.335,1.156,1.156,0,0,0-.93.43,1.831,1.831,0,0,0-.36,1.21v2.46Z"/><path class="l" d="M903.366,171.343a2.235,2.235,0,0,1-1.715-.76,2.783,2.783,0,0,1,0-3.68,2.232,2.232,0,0,1,1.715-.76,2,2,0,0,1,.941.225,1.847,1.847,0,0,1,.659.545v-3.17h1.1v7.5h-1.1v-.67a1.857,1.857,0,0,1-.659.545A2,2,0,0,1,903.366,171.343Zm-.87-1.46a1.474,1.474,0,0,0,2.14,0,1.754,1.754,0,0,0,0-2.28,1.474,1.474,0,0,0-2.14,0,1.757,1.757,0,0,0,0,2.28Z"/><path class="l" d="M909.816,171.343a2.551,2.551,0,0,1-1.875-.73,2.61,2.61,0,0,1,1.875-4.47,2.384,2.384,0,0,1,1.725.66,2.409,2.409,0,0,1,.686,1.82c0,.133,0,.253-.01.36h-3.931a1.369,1.369,0,0,0,.471.985,1.721,1.721,0,0,0,2.5-.385l.84.6A2.489,2.489,0,0,1,909.816,171.343Zm-1.48-3.16h2.78a1.263,1.263,0,0,0-.465-.815,1.373,1.373,0,0,0-.875-.295,1.541,1.541,0,0,0-.924.29A1.288,1.288,0,0,0,908.336,168.183Z"/><path class="l" d="M913.356,171.243v-5h1.1v.89a1.321,1.321,0,0,1,.516-.68,1.378,1.378,0,0,1,.8-.26,1.9,1.9,0,0,1,.43.04v1.13a1.562,1.562,0,0,0-.55-.091,1.082,1.082,0,0,0-.849.406,1.662,1.662,0,0,0-.351,1.125v2.44Z"/><path class="l" d="M924.736,171.243l-1.65-4.34-1.649,4.34h-1.081l-1.83-7.1h1.231l1.29,5.16,2.039-5.281,2.03,5.281,1.3-5.16h1.24l-1.84,7.1Z"/><path class="l" d="M929.136,165.153a.725.725,0,0,1-.521-.215.708.708,0,0,1-.219-.525.7.7,0,0,1,.219-.516.724.724,0,0,1,.521-.214.7.7,0,0,1,.519.214.71.71,0,0,1,.21.516.72.72,0,0,1-.21.525A.7.7,0,0,1,929.136,165.153Zm-.55,6.09v-5h1.1v5Z"/><path class="l" d="M931.166,171.243v-7.5h1.1v7.5Z"/><path class="l" d="M933.746,171.243v-7.5h1.1v7.5Z"/><path class="l" d="M936.876,165.153a.725.725,0,0,1-.521-.215.708.708,0,0,1-.219-.525.7.7,0,0,1,.219-.516.724.724,0,0,1,.521-.214.7.7,0,0,1,.52.214.713.713,0,0,1,.209.516.723.723,0,0,1-.209.525A.7.7,0,0,1,936.876,165.153Zm-.55,6.09v-5h1.1v5Z"/><path class="l" d="M940.956,171.343a2.234,2.234,0,0,1-1.715-.76,2.783,2.783,0,0,1,0-3.68,2.23,2.23,0,0,1,1.715-.76,2,2,0,0,1,.94.225,1.843,1.843,0,0,1,.66.545v-.67h1.1v5h-1.1v-.67a1.853,1.853,0,0,1-.66.545A2,2,0,0,1,940.956,171.343Zm-.87-1.46a1.474,1.474,0,0,0,2.14,0,1.757,1.757,0,0,0,0-2.28,1.474,1.474,0,0,0-2.14,0,1.757,1.757,0,0,0,0,2.28Z"/><path class="l" d="M951.516,171.243v-2.81a1.708,1.708,0,0,0-.226-.95.743.743,0,0,0-.665-.34,1.021,1.021,0,0,0-.85.41,1.908,1.908,0,0,0-.339,1.15v2.54h-1.1v-2.81a1.7,1.7,0,0,0-.225-.95.746.746,0,0,0-.665-.34,1.039,1.039,0,0,0-.875.43,1.974,1.974,0,0,0-.325,1.21v2.46h-1.1v-5h1.1v.68a1.7,1.7,0,0,1,2.97.21,1.576,1.576,0,0,1,.645-.73,1.823,1.823,0,0,1,.955-.26,1.637,1.637,0,0,1,1.321.57,2.317,2.317,0,0,1,.479,1.539v2.991Z"/><path class="l" d="M955.615,171.343a2.693,2.693,0,0,1-1.219-.265,1.708,1.708,0,0,1-.791-.795l.81-.58a1.121,1.121,0,0,0,.481.5,1.445,1.445,0,0,0,.719.185.891.891,0,0,0,.515-.141.444.444,0,0,0,.205-.389.453.453,0,0,0-.165-.361,1.868,1.868,0,0,0-.6-.279l-.44-.12a1.5,1.5,0,0,1-1.31-1.53,1.241,1.241,0,0,1,.51-1.04,2.04,2.04,0,0,1,1.28-.39,1.843,1.843,0,0,1,1.69.85l-.76.58a1.145,1.145,0,0,0-.95-.51.862.862,0,0,0-.47.125.386.386,0,0,0-.2.345.482.482,0,0,0,.13.34,1.13,1.13,0,0,0,.471.25l.509.149a2.438,2.438,0,0,1,1.05.566,1.3,1.3,0,0,1,.35.954,1.389,1.389,0,0,1-.51,1.131A1.977,1.977,0,0,1,955.615,171.343Z"/></g></g><g transform="translate(-126 128)"><circle class="k" cx="16" cy="16" r="16" transform="translate(289 4386)"/><g transform="translate(285 4382.051)"><g transform="translate(14 13.668)"><circle class="c" cx="3" cy="3" r="3" transform="translate(3.022 0.282)"/><path class="c" d="M21.226,74H18.817A4.817,4.817,0,0,0,14,78.817H26.044A4.817,4.817,0,0,0,21.226,74Z" transform="translate(-14 -66.586)"/></g></g><g transform="translate(-489.918 4112.976)"><path class="i" d="M820.918,292.824h.68l2.1,2.832,2.12-2.832h.672v5.68h-.736v-4.416l-2.048,2.752-2.048-2.752V298.5h-.744Z"/><path class="i" d="M829.59,298.584a1.994,1.994,0,0,1-1.5-.592,2.194,2.194,0,0,1,.008-2.972,2,2,0,0,1,1.5-.6,1.856,1.856,0,0,1,1.356.54,1.968,1.968,0,0,1,.548,1.468,2.07,2.07,0,0,1-.009.208h-3.279a1.31,1.31,0,0,0,.4.936,1.467,1.467,0,0,0,2.229-.32l.544.376A1.965,1.965,0,0,1,829.59,298.584Zm-1.328-2.5H830.8a1.21,1.21,0,0,0-1.225-1.048,1.354,1.354,0,0,0-.844.284A1.224,1.224,0,0,0,828.262,296.08Z"/><path class="i" d="M837.63,298.5v-2.352a1.392,1.392,0,0,0-.2-.8.668.668,0,0,0-.588-.3.952.952,0,0,0-.78.376,1.669,1.669,0,0,0-.316,1.024V298.5h-.688v-2.352a1.388,1.388,0,0,0-.2-.8.663.663,0,0,0-.579-.3.961.961,0,0,0-.8.4,1.715,1.715,0,0,0-.3,1.068V298.5h-.687v-4h.687v.616a1.283,1.283,0,0,1,1.208-.7,1.211,1.211,0,0,1,1.232.856,1.344,1.344,0,0,1,.512-.624,1.419,1.419,0,0,1,.8-.232,1.278,1.278,0,0,1,1.024.44,1.764,1.764,0,0,1,.376,1.184V298.5Z"/><path class="i" d="M841.654,298.584a1.759,1.759,0,0,1-.82-.2,1.565,1.565,0,0,1-.588-.5v.616h-.687v-6h.687v2.616a1.556,1.556,0,0,1,.588-.5,1.759,1.759,0,0,1,.82-.2,1.825,1.825,0,0,1,1.4.608,2.2,2.2,0,0,1,0,2.944A1.828,1.828,0,0,1,841.654,298.584Zm-1.08-1.048a1.353,1.353,0,0,0,1.952,0,1.579,1.579,0,0,0,0-2.064,1.353,1.353,0,0,0-1.952,0,1.579,1.579,0,0,0,0,2.064Z"/><path class="i" d="M846.358,298.584a1.994,1.994,0,0,1-1.5-.592,2.194,2.194,0,0,1,.008-2.972,2.006,2.006,0,0,1,1.5-.6,1.86,1.86,0,0,1,1.357.54,1.968,1.968,0,0,1,.548,1.468c0,.08,0,.149-.009.208h-3.28a1.311,1.311,0,0,0,.4.936,1.466,1.466,0,0,0,2.228-.32l.544.376A1.963,1.963,0,0,1,846.358,298.584Zm-1.328-2.5h2.536a1.21,1.21,0,0,0-1.224-1.048,1.35,1.35,0,0,0-.844.284A1.229,1.229,0,0,0,845.03,296.08Z"/><path class="i" d="M849.246,298.5v-4h.688v.776a1.079,1.079,0,0,1,.436-.592,1.183,1.183,0,0,1,.684-.224,1.377,1.377,0,0,1,.311.032v.712a.921.921,0,0,0-.376-.064.96.96,0,0,0-.735.36,1.475,1.475,0,0,0-.32,1.016V298.5Z"/></g><g transform="translate(-547.017 4252.207)"><path class="l" d="M877.966,147.678l3.1-7.1h1.021l3.1,7.1h-1.22l-.81-1.86h-3.18l-.8,1.86Zm3.6-5.52-1.139,2.62h2.28Z"/><path class="l" d="M885.966,147.678v-5h1.1v.68a1.642,1.642,0,0,1,1.521-.78,1.79,1.79,0,0,1,1.39.57,2.171,2.171,0,0,1,.519,1.52v3.01h-1.1v-2.83a1.414,1.414,0,0,0-.281-.935.934.934,0,0,0-.76-.335,1.155,1.155,0,0,0-.929.43,1.831,1.831,0,0,0-.361,1.21v2.46Z"/><path class="l" d="M894.016,147.728a1.786,1.786,0,0,1-1.236-.425,1.572,1.572,0,0,1-.474-1.235v-2.41h-1.04v-.98h1.04v-1.39h1.1v1.39h1.431v.98h-1.431v2.23a.72.72,0,0,0,.84.85,1.492,1.492,0,0,0,.591-.1v.98A2.821,2.821,0,0,1,894.016,147.728Z"/><path class="l" d="M896.976,147.678h-1.1v-7.5h1.1v3.18a1.639,1.639,0,0,1,1.52-.78,1.79,1.79,0,0,1,1.39.57,2.171,2.171,0,0,1,.519,1.52v3.01h-1.1v-2.83a1.414,1.414,0,0,0-.281-.935.934.934,0,0,0-.759-.335,1.156,1.156,0,0,0-.93.43,1.831,1.831,0,0,0-.36,1.21Z"/><path class="l" d="M905.94,147.023a2.632,2.632,0,1,1,.755-1.845A2.534,2.534,0,0,1,905.94,147.023Zm-1.865-.265a1.407,1.407,0,0,0,1.075-.455,1.7,1.7,0,0,0,0-2.25,1.509,1.509,0,0,0-2.16,0,1.7,1.7,0,0,0,0,2.25A1.42,1.42,0,0,0,904.075,146.758Z"/><path class="l" d="M907.806,147.678v-5h1.1v.68a1.641,1.641,0,0,1,1.521-.78,1.787,1.787,0,0,1,1.389.57,2.167,2.167,0,0,1,.52,1.52v3.01h-1.1v-2.83a1.414,1.414,0,0,0-.28-.935.934.934,0,0,0-.76-.335,1.154,1.154,0,0,0-.929.43,1.826,1.826,0,0,0-.361,1.21v2.46Z"/><path class="l" d="M915.226,149.768h-1.21l1.07-2.36-2.15-4.73h1.21l1.53,3.54,1.54-3.54h1.22Z"/><path class="l" d="M923.445,147.8a3.3,3.3,0,0,1-1.529-.35,2.3,2.3,0,0,1-1-.93l.92-.73a1.86,1.86,0,0,0,1.649.91,1.325,1.325,0,0,0,.83-.245.763.763,0,0,0,.321-.635q0-.711-1.01-1.08l-.78-.28a2.922,2.922,0,0,1-1.27-.795,1.964,1.964,0,0,1,.239-2.66,2.5,2.5,0,0,1,1.661-.545,2.643,2.643,0,0,1,2.15.97l-.811.79a1.691,1.691,0,0,0-1.349-.66,1.382,1.382,0,0,0-.795.22.687.687,0,0,0-.325.6.74.74,0,0,0,.245.585,2.806,2.806,0,0,0,.835.435l.72.27a3.029,3.029,0,0,1,1.25.81,1.834,1.834,0,0,1,.419,1.27,1.858,1.858,0,0,1-.66,1.485A2.537,2.537,0,0,1,923.445,147.8Z"/><path class="l" d="M933.266,147.678v-2.81a1.711,1.711,0,0,0-.226-.95.743.743,0,0,0-.665-.34,1.021,1.021,0,0,0-.85.41,1.91,1.91,0,0,0-.339,1.15v2.54h-1.1v-2.81a1.7,1.7,0,0,0-.225-.95.746.746,0,0,0-.665-.34,1.039,1.039,0,0,0-.875.43,1.974,1.974,0,0,0-.325,1.21v2.46h-1.1v-5h1.1v.68a1.7,1.7,0,0,1,2.97.21,1.576,1.576,0,0,1,.645-.73,1.832,1.832,0,0,1,.955-.26,1.637,1.637,0,0,1,1.321.57,2.318,2.318,0,0,1,.479,1.54v2.99Z"/><path class="l" d="M936.325,141.588a.721.721,0,0,1-.52-.215.705.705,0,0,1-.22-.525.693.693,0,0,1,.22-.515.717.717,0,0,1,.52-.215.7.7,0,0,1,.52.215.71.71,0,0,1,.21.515.724.724,0,0,1-.21.525A.7.7,0,0,1,936.325,141.588Zm-.55,6.09v-5h1.1v5Z"/><path class="l" d="M940.525,147.728a1.784,1.784,0,0,1-1.235-.425,1.573,1.573,0,0,1-.475-1.235v-2.41h-1.04v-.98h1.04v-1.39h1.1v1.39h1.431v.98h-1.431v2.23a.72.72,0,0,0,.84.85,1.5,1.5,0,0,0,.591-.1v.98A2.828,2.828,0,0,1,940.525,147.728Z"/><path class="l" d="M943.485,147.678h-1.1v-7.5h1.1v3.18a1.642,1.642,0,0,1,1.521-.78,1.79,1.79,0,0,1,1.39.57,2.171,2.171,0,0,1,.519,1.52v3.01h-1.1v-2.83a1.414,1.414,0,0,0-.28-.935.934.934,0,0,0-.76-.335,1.155,1.155,0,0,0-.929.43,1.826,1.826,0,0,0-.361,1.21Z"/></g></g><g transform="translate(-126 170)"><circle class="k" cx="16" cy="16" r="16" transform="translate(289 4386)"/><g transform="translate(285 4382.051)"><g transform="translate(14 13.668)"><circle class="c" cx="3" cy="3" r="3" transform="translate(3.022 0.282)"/><path class="c" d="M21.226,74H18.817A4.817,4.817,0,0,0,14,78.817H26.044A4.817,4.817,0,0,0,21.226,74Z" transform="translate(-14 -66.586)"/></g></g><g transform="translate(-489.918 4112.976)"><path class="i" d="M820.918,292.824h.68l2.1,2.832,2.12-2.832h.672v5.68h-.736v-4.416l-2.048,2.752-2.048-2.752V298.5h-.744Z"/><path class="i" d="M829.59,298.584a1.994,1.994,0,0,1-1.5-.592,2.194,2.194,0,0,1,.008-2.972,2,2,0,0,1,1.5-.6,1.856,1.856,0,0,1,1.356.54,1.968,1.968,0,0,1,.548,1.468,2.07,2.07,0,0,1-.009.208h-3.279a1.31,1.31,0,0,0,.4.936,1.467,1.467,0,0,0,2.229-.32l.544.376A1.965,1.965,0,0,1,829.59,298.584Zm-1.328-2.5H830.8a1.21,1.21,0,0,0-1.225-1.048,1.354,1.354,0,0,0-.844.284A1.224,1.224,0,0,0,828.262,296.08Z"/><path class="i" d="M837.63,298.5v-2.352a1.392,1.392,0,0,0-.2-.8.668.668,0,0,0-.588-.3.952.952,0,0,0-.78.376,1.669,1.669,0,0,0-.316,1.024V298.5h-.688v-2.352a1.388,1.388,0,0,0-.2-.8.663.663,0,0,0-.579-.3.961.961,0,0,0-.8.4,1.715,1.715,0,0,0-.3,1.068V298.5h-.687v-4h.687v.616a1.283,1.283,0,0,1,1.208-.7,1.211,1.211,0,0,1,1.232.856,1.344,1.344,0,0,1,.512-.624,1.419,1.419,0,0,1,.8-.232,1.278,1.278,0,0,1,1.024.44,1.764,1.764,0,0,1,.376,1.184V298.5Z"/><path class="i" d="M841.654,298.584a1.759,1.759,0,0,1-.82-.2,1.565,1.565,0,0,1-.588-.5v.616h-.687v-6h.687v2.616a1.556,1.556,0,0,1,.588-.5,1.759,1.759,0,0,1,.82-.2,1.825,1.825,0,0,1,1.4.608,2.2,2.2,0,0,1,0,2.944A1.828,1.828,0,0,1,841.654,298.584Zm-1.08-1.048a1.353,1.353,0,0,0,1.952,0,1.579,1.579,0,0,0,0-2.064,1.353,1.353,0,0,0-1.952,0,1.579,1.579,0,0,0,0,2.064Z"/><path class="i" d="M846.358,298.584a1.994,1.994,0,0,1-1.5-.592,2.194,2.194,0,0,1,.008-2.972,2.006,2.006,0,0,1,1.5-.6,1.86,1.86,0,0,1,1.357.54,1.968,1.968,0,0,1,.548,1.468c0,.08,0,.149-.009.208h-3.28a1.311,1.311,0,0,0,.4.936,1.466,1.466,0,0,0,2.228-.32l.544.376A1.963,1.963,0,0,1,846.358,298.584Zm-1.328-2.5h2.536a1.21,1.21,0,0,0-1.224-1.048,1.35,1.35,0,0,0-.844.284A1.229,1.229,0,0,0,845.03,296.08Z"/><path class="i" d="M849.246,298.5v-4h.688v.776a1.079,1.079,0,0,1,.436-.592,1.183,1.183,0,0,1,.684-.224,1.377,1.377,0,0,1,.311.032v.712a.921.921,0,0,0-.376-.064.96.96,0,0,0-.735.36,1.475,1.475,0,0,0-.32,1.016V298.5Z"/></g><g transform="translate(-549.302 4175.859)"><path class="l" d="M880.3,223.831v-7.1h1.17v7.1Z"/><path class="l" d="M884.592,223.931a2.7,2.7,0,0,1-1.22-.265,1.711,1.711,0,0,1-.79-.795l.81-.58a1.106,1.106,0,0,0,.48.5,1.44,1.44,0,0,0,.72.185.885.885,0,0,0,.514-.14.445.445,0,0,0,.206-.389.451.451,0,0,0-.166-.361,1.86,1.86,0,0,0-.6-.279l-.44-.121a1.5,1.5,0,0,1-1.31-1.529,1.241,1.241,0,0,1,.51-1.04,2.039,2.039,0,0,1,1.28-.391,1.842,1.842,0,0,1,1.689.851l-.759.58a1.148,1.148,0,0,0-.95-.511.871.871,0,0,0-.47.125.388.388,0,0,0-.2.346.481.481,0,0,0,.129.339,1.114,1.114,0,0,0,.471.25l.51.15a2.434,2.434,0,0,1,1.05.566,1.3,1.3,0,0,1,.349.954,1.393,1.393,0,0,1-.509,1.131A1.979,1.979,0,0,1,884.592,223.931Z"/><path class="l" d="M889.592,223.931a2.231,2.231,0,0,1-1.715-.761,2.782,2.782,0,0,1,0-3.679,2.231,2.231,0,0,1,1.715-.761,2,2,0,0,1,.94.226,1.836,1.836,0,0,1,.659.544v-.669h1.1v5h-1.1v-.67a1.848,1.848,0,0,1-.659.545A2.009,2.009,0,0,1,889.592,223.931Zm-.87-1.46a1.473,1.473,0,0,0,2.139,0,1.755,1.755,0,0,0,0-2.281,1.473,1.473,0,0,0-2.139,0,1.759,1.759,0,0,0,0,2.281Z"/><path class="l" d="M896.491,223.931a2.039,2.039,0,0,1-.945-.225,1.837,1.837,0,0,1-.665-.545v.67h-1.1v-7.5h1.1V219.5a1.825,1.825,0,0,1,.665-.544,2.027,2.027,0,0,1,.945-.226,2.233,2.233,0,0,1,1.715.761,2.782,2.782,0,0,1,0,3.679A2.233,2.233,0,0,1,896.491,223.931Zm-.2-1a1.386,1.386,0,0,0,1.07-.46,1.759,1.759,0,0,0,0-2.281,1.486,1.486,0,0,0-2.15,0,1.759,1.759,0,0,0,0,2.281A1.4,1.4,0,0,0,896.291,222.931Z"/><path class="l" d="M902.281,223.931a2.6,2.6,0,1,1,0-5.2,2.312,2.312,0,0,1,2.41,2.48c0,.134,0,.254-.009.361h-3.931a1.369,1.369,0,0,0,.471.985,1.72,1.72,0,0,0,2.5-.386l.84.6A2.489,2.489,0,0,1,902.281,223.931Zm-1.48-3.16h2.78a1.268,1.268,0,0,0-.465-.815,1.373,1.373,0,0,0-.875-.295,1.546,1.546,0,0,0-.925.29A1.289,1.289,0,0,0,900.8,220.771Z"/><path class="l" d="M905.821,223.831v-7.5h1.1v7.5Z"/><path class="l" d="M908.4,223.831v-7.5h1.1v7.5Z"/><path class="l" d="M913.031,223.931a2.233,2.233,0,0,1-1.715-.761,2.782,2.782,0,0,1,0-3.679,2.233,2.233,0,0,1,1.715-.761,2,2,0,0,1,.941.226,1.836,1.836,0,0,1,.659.544v-.669h1.1v5h-1.1v-.67a1.848,1.848,0,0,1-.659.545A2.014,2.014,0,0,1,913.031,223.931Zm-.87-1.46a1.474,1.474,0,0,0,2.14,0,1.755,1.755,0,0,0,0-2.281,1.474,1.474,0,0,0-2.14,0,1.759,1.759,0,0,0,0,2.281Z"/><path class="l" d="M920.931,223.951a2.284,2.284,0,0,1-1.555-.545,1.942,1.942,0,0,1-.625-1.546h1.16a.931.931,0,0,0,.3.736,1.053,1.053,0,0,0,.72.264.994.994,0,0,0,.715-.27,1.061,1.061,0,0,0,.285-.809V216.73h1.17v5.15a1.915,1.915,0,0,1-.615,1.556A2.341,2.341,0,0,1,920.931,223.951Z"/><path class="l" d="M928.676,223.176a2.633,2.633,0,1,1,.755-1.845A2.536,2.536,0,0,1,928.676,223.176Zm-1.865-.265a1.409,1.409,0,0,0,1.075-.455,1.7,1.7,0,0,0,0-2.25,1.507,1.507,0,0,0-2.16,0,1.7,1.7,0,0,0,0,2.25A1.418,1.418,0,0,0,926.811,222.911Z"/><path class="l" d="M930.541,223.831v-5h1.1v.68a1.64,1.64,0,0,1,1.52-.781,1.788,1.788,0,0,1,1.39.571,2.172,2.172,0,0,1,.519,1.52v3.01h-1.1V221a1.418,1.418,0,0,0-.281-.935.937.937,0,0,0-.759-.335,1.157,1.157,0,0,0-.93.431,1.831,1.831,0,0,0-.36,1.21v2.46Z"/><path class="l" d="M938.741,223.931a2.6,2.6,0,1,1,0-5.2,2.312,2.312,0,0,1,2.41,2.48c0,.134,0,.254-.009.361h-3.931a1.369,1.369,0,0,0,.471.985,1.72,1.72,0,0,0,2.5-.386l.839.6A2.486,2.486,0,0,1,938.741,223.931Zm-1.48-3.16h2.78a1.268,1.268,0,0,0-.465-.815,1.373,1.373,0,0,0-.875-.295,1.544,1.544,0,0,0-.925.29A1.289,1.289,0,0,0,937.261,220.771Z"/><path class="l" d="M943.871,223.931a2.7,2.7,0,0,1-1.22-.265,1.71,1.71,0,0,1-.79-.795l.81-.58a1.112,1.112,0,0,0,.48.5,1.441,1.441,0,0,0,.72.185.89.89,0,0,0,.515-.14.447.447,0,0,0,.205-.389.453.453,0,0,0-.165-.361,1.879,1.879,0,0,0-.605-.279l-.44-.121a1.5,1.5,0,0,1-1.31-1.529,1.242,1.242,0,0,1,.51-1.04,2.041,2.041,0,0,1,1.28-.391,1.843,1.843,0,0,1,1.69.851l-.76.58a1.146,1.146,0,0,0-.95-.511.871.871,0,0,0-.47.125.388.388,0,0,0-.2.346.478.478,0,0,0,.13.339,1.109,1.109,0,0,0,.47.25l.51.15a2.428,2.428,0,0,1,1.05.566,1.3,1.3,0,0,1,.35.954,1.391,1.391,0,0,1-.51,1.131A1.979,1.979,0,0,1,943.871,223.931Z"/></g></g></g><g transform="translate(-1)"><g class="q" transform="matrix(1, 0, 0, 1, 678, 1000)"><rect class="c" width="124" height="124" rx="12" transform="translate(472 52)"/></g><circle class="m" cx="44" cy="44" r="44" transform="translate(1168 1070)"/><g transform="translate(1925.773 1110)"><g transform="translate(-730.773 -15)"><path class="e" d="M42.274,12.871c0-.035-.018-.061-.018-.094L39.168,1.538A1.88,1.88,0,0,0,37.279,0H13.222a1.88,1.88,0,0,0-1.89,1.538L8.245,12.777c0,.033-.018.06-.018.094v3.094a3.07,3.07,0,0,0,.822,2.083l-.8,4.649c0,.034-.018.062-.018.1v3.093a3.072,3.072,0,0,0,.822,2.083l-.8,4.649c0,.034-.018.061-.018.1v3.094a3.1,3.1,0,0,0,3.1,3.1H39.178a3.1,3.1,0,0,0,3.1-3.1V32.713c0-.034-.018-.061-.018-.1l-.8-4.649a3.062,3.062,0,0,0,.822-2.083V22.793c0-.034-.018-.062-.018-.1l-.8-4.649a3.064,3.064,0,0,0,.822-2.083V12.871ZM40.725,35.807a1.55,1.55,0,0,1-1.547,1.548H11.324a1.551,1.551,0,0,1-1.547-1.548V32.713a1.551,1.551,0,0,1,1.547-1.549H39.18a1.552,1.552,0,0,1,1.548,1.549v3.094Zm0-9.921a1.55,1.55,0,0,1-1.547,1.549H11.324a1.551,1.551,0,0,1-1.547-1.549V22.793a1.551,1.551,0,0,1,1.547-1.549H39.18a1.552,1.552,0,0,1,1.548,1.549v3.093Zm0-9.921a1.551,1.551,0,0,1-1.547,1.549H11.324a1.552,1.552,0,0,1-1.547-1.549V12.871a1.552,1.552,0,0,1,1.547-1.549H39.18a1.553,1.553,0,0,1,1.548,1.549v3.094h0Z" transform="translate(-8.227)"/><path class="e" d="M22.126,112.329a1.113,1.113,0,1,1-1.114,1.111A1.112,1.112,0,0,1,22.126,112.329Z" transform="translate(-17.239 -79.182)"/><path class="e" d="M22.126,78.709a1.112,1.112,0,1,1-1.114,1.111A1.112,1.112,0,0,1,22.126,78.709Z" transform="translate(-17.239 -55.483)"/><path class="e" d="M22.126,45.086A1.112,1.112,0,1,1,21.012,46.2,1.113,1.113,0,0,1,22.126,45.086Z" transform="translate(-17.239 -31.782)"/></g></g></g><g transform="translate(-458 320)"><g class="p" transform="matrix(1, 0, 0, 1, 1135, 680)"><rect class="c" width="124" height="124" rx="12" transform="translate(15 372)"/></g><g transform="translate(1152.251 1080.302)"><path class="e" d="M134.429,0,116,33.7l18.429,33.7.658-.233a43.654,43.654,0,0,0,29.091-41.153V8.46Z" transform="translate(-74.68)"/><path class="e" d="M30,8.46V26.011A43.654,43.654,0,0,0,59.091,67.164l.658.232V0Z"/><path class="c" d="M182.226,82.932q.1-1.368.1-2.754V68.592L160.48,62.379,146,82.932Z" transform="translate(-100.731 -54.168)"/><path class="c" d="M111.851,62.379,90,68.593V80.179q0,1.385.1,2.753h21.747Z" transform="translate(-52.102 -54.168)"/><path class="g" d="M169.163,171.542,156,189.735l13.163,18.193.811-.365a35.832,35.832,0,0,0,14.336-11.745,35.42,35.42,0,0,0,6.6-18.09Z" transform="translate(-109.414 -148.961)"/><path class="g" d="M90.793,177.726a35.419,35.419,0,0,0,6.6,18.09,35.832,35.832,0,0,0,14.336,11.745l.811.365V171.542Z" transform="translate(-52.791 -148.961)"/></g></g></g></svg>