<svg xmlns="http://www.w3.org/2000/svg" xmlns:xlink="http://www.w3.org/1999/xlink" width="630" height="534" viewBox="0 0 630 534"><defs><style>.a{fill:#474bff;opacity:0.1;}.b,.m{fill:#fff;}.c{fill:#eaeefa;}.d{fill:#eaeaea;}.e{fill:#e7bdd3;}.f,.n{fill:#5756b3;}.f{fill-rule:evenodd;}.g{fill:#415b84;}.h{fill:url(#c);}.i,.o,.p,.u{fill:none;}.i{stroke:#343789;}.i,.p{stroke-width:2px;}.j{fill:#9672ff;}.k{fill:#c060a1;}.l{fill:#f2b8ec;}.m{stroke:#f9721c;stroke-width:4px;}.o{stroke:#5756b3;stroke-width:8px;}.p{stroke:#e7bdd3;}.q{fill:#eaf7ec;}.r{fill:#28ae60;}.s{fill:#06213f;}.t{stroke:none;}.v{filter:url(#h);}.w{filter:url(#f);}.x{filter:url(#d);}.y{filter:url(#a);}</style><filter id="a" x="56" y="87" width="517" height="390" filterUnits="userSpaceOnUse"><feOffset dy="3" input="SourceAlpha"/><feGaussianBlur stdDeviation="10" result="b"/><feFlood flood-color="#ebeffa"/><feComposite operator="in" in2="b"/><feComposite in="SourceGraphic"/></filter><linearGradient id="c" x1="0.5" y1="0.174" x2="0.5" y2="1" gradientUnits="objectBoundingBox"><stop offset="0" stop-color="#f5f5ff"/><stop offset="1" stop-color="#f5f5ff" stop-opacity="0"/></linearGradient><filter id="d" x="333" y="321" width="32" height="32" filterUnits="userSpaceOnUse"><feOffset dy="3" input="SourceAlpha"/><feGaussianBlur stdDeviation="3" result="e"/><feFlood flood-color="#f9721c" flood-opacity="0.302"/><feComposite operator="in" in2="e"/><feComposite in="SourceGraphic"/></filter><filter id="f" x="457" y="360" width="173" height="174" filterUnits="userSpaceOnUse"><feOffset dy="3" input="SourceAlpha"/><feGaussianBlur stdDeviation="5" result="g"/><feFlood flood-color="#ebeffa" flood-opacity="0.6"/><feComposite operator="in" in2="g"/><feComposite in="SourceGraphic"/></filter><filter id="h" x="0" y="28" width="174" height="176" filterUnits="userSpaceOnUse"><feOffset dy="3" input="SourceAlpha"/><feGaussianBlur stdDeviation="5" result="i"/><feFlood flood-color="#ebeffa" flood-opacity="0.6"/><feComposite operator="in" in2="i"/><feComposite in="SourceGraphic"/></filter></defs><g transform="translate(-68 -1636)"><g transform="translate(-600 636)"><circle class="a" cx="222" cy="222" r="222" transform="translate(683 1000)"/><g transform="translate(635 -3188)"><g class="y" transform="matrix(1, 0, 0, 1, 33, 4188)"><rect class="b" width="457" height="330" rx="8" transform="translate(86 114)"/></g><rect class="c" width="417" height="290" rx="8" transform="translate(139 4322)"/><rect class="b" width="110" height="107" rx="8" transform="translate(151 4493)"/><rect class="b" width="271" height="107" rx="8" transform="translate(273 4493)"/><rect class="d" width="1" height="91" transform="translate(323 4494)"/><rect class="d" width="1" height="91" transform="translate(354 4494)"/><rect class="d" width="1" height="91" transform="translate(385 4494)"/><rect class="d" width="1" height="91" transform="translate(416 4494)"/><rect class="d" width="1" height="91" transform="translate(447 4494)"/><rect class="d" width="1" height="91" transform="translate(478 4494)"/><rect class="d" width="1" height="91" transform="translate(509 4494)"/><rect class="d" width="1" height="91" transform="translate(543 4494)"/><rect class="b" width="303" height="147" rx="8" transform="translate(241 4334)"/><g transform="translate(-32.631 -40)"><circle class="e" cx="20" cy="20" r="20" transform="translate(289 4386)"/><path class="f" d="M4,200.569v-11.6A.967.967,0,0,1,4.967,188h5.8c1.45,0,1,1.934,2.9,1.934h6.768a.967.967,0,0,1,.967.967v9.668a.967.967,0,0,1-.967.967H4.967A.967.967,0,0,1,4,200.569Z" transform="translate(296 4211)"/><g transform="translate(-206.349 4121.859)"><path class="g" d="M494.61,319.7v-7.1h4.22v1.12h-3.05v1.83h2.4v1.11h-2.4v3.04Z"/><path class="g" d="M500.36,313.611a.717.717,0,0,1-.52-.215.7.7,0,0,1-.22-.525.7.7,0,0,1,.22-.515.721.721,0,0,1,.52-.215.7.7,0,0,1,.52.215.708.708,0,0,1,.21.515.718.718,0,0,1-.21.525A.7.7,0,0,1,500.36,313.611Zm-.549,6.09v-5h1.1v5Z"/><path class="g" d="M502.391,319.7v-5h1.1v.68a1.641,1.641,0,0,1,1.521-.78,1.787,1.787,0,0,1,1.389.57,2.167,2.167,0,0,1,.52,1.52v3.01h-1.1v-2.83a1.416,1.416,0,0,0-.28-.935.937.937,0,0,0-.76-.335,1.157,1.157,0,0,0-.929.43,1.828,1.828,0,0,0-.361,1.21v2.46Z"/><path class="g" d="M510.38,319.8a2.23,2.23,0,0,1-1.715-.76,2.783,2.783,0,0,1,0-3.68,2.23,2.23,0,0,1,1.715-.76,2,2,0,0,1,.94.225,1.849,1.849,0,0,1,.659.545v-.67h1.1v5h-1.1v-.67a1.838,1.838,0,0,1-.659.545A2,2,0,0,1,510.38,319.8Zm-.87-1.46a1.473,1.473,0,0,0,2.139,0,1.754,1.754,0,0,0,0-2.28,1.473,1.473,0,0,0-2.139,0,1.757,1.757,0,0,0,0,2.28Z"/><path class="g" d="M514.57,319.7v-5h1.1v.68a1.639,1.639,0,0,1,1.52-.78,1.789,1.789,0,0,1,1.39.57,2.167,2.167,0,0,1,.52,1.52v3.01H518v-2.83a1.421,1.421,0,0,0-.28-.935.94.94,0,0,0-.76-.335,1.16,1.16,0,0,0-.93.43,1.833,1.833,0,0,0-.36,1.21v2.46Z"/><path class="g" d="M522.561,319.8a2.23,2.23,0,0,1-1.715-.76,2.78,2.78,0,0,1,0-3.68,2.23,2.23,0,0,1,1.715-.76,2,2,0,0,1,.94.225,1.848,1.848,0,0,1,.659.545v-.67h1.1v5h-1.1v-.67a1.838,1.838,0,0,1-.659.545A2,2,0,0,1,522.561,319.8Zm-.871-1.46a1.474,1.474,0,0,0,2.14,0,1.754,1.754,0,0,0,0-2.28,1.474,1.474,0,0,0-2.14,0,1.76,1.76,0,0,0,0,2.28Z"/><path class="g" d="M529.029,319.8a2.572,2.572,0,0,1-1.884-.745,2.656,2.656,0,0,1,0-3.71,2.576,2.576,0,0,1,1.884-.745,2.642,2.642,0,0,1,1.386.37,2.482,2.482,0,0,1,.944,1.01l-.96.52a1.546,1.546,0,0,0-.549-.64,1.529,1.529,0,0,0-1.911.215,1.69,1.69,0,0,0,0,2.25,1.529,1.529,0,0,0,1.911.215,1.546,1.546,0,0,0,.549-.64l.96.52a2.47,2.47,0,0,1-.944,1.01A2.633,2.633,0,0,1,529.029,319.8Z"/><path class="g" d="M534.63,319.8a2.6,2.6,0,1,1,0-5.2,2.312,2.312,0,0,1,2.41,2.48c0,.134,0,.253-.01.36H533.1a1.366,1.366,0,0,0,.47.985,1.721,1.721,0,0,0,2.5-.385l.84.6A2.484,2.484,0,0,1,534.63,319.8Zm-1.481-3.16h2.781a1.27,1.27,0,0,0-.465-.815,1.373,1.373,0,0,0-.875-.295,1.55,1.55,0,0,0-.925.29A1.3,1.3,0,0,0,533.149,316.641Z"/></g></g><g transform="translate(-32.154 27)"><ellipse class="e" cx="20" cy="19.9" rx="20" ry="19.9" transform="translate(289 4386)"/><path class="f" d="M4,200.569v-11.6A.967.967,0,0,1,4.967,188h5.8c1.45,0,1,1.934,2.9,1.934h6.768a.967.967,0,0,1,.967.967v9.668a.967.967,0,0,1-.967.967H4.967A.967.967,0,0,1,4,200.569Z" transform="translate(296 4210.931)"/><g transform="translate(-152.948 4102.579)"><path class="g" d="M447.078,332.546a2.33,2.33,0,0,1,0,3.31,2.448,2.448,0,0,1-1.77.665h-1.09v2.46h-1.17v-7.1h2.26A2.448,2.448,0,0,1,447.078,332.546Zm-.815,2.53a1.256,1.256,0,0,0,0-1.75,1.327,1.327,0,0,0-.965-.345h-1.08v2.44h1.08A1.327,1.327,0,0,0,446.263,335.076Z"/><path class="g" d="M450.678,339.081a2.23,2.23,0,0,1-1.715-.76,2.783,2.783,0,0,1,0-3.68,2.23,2.23,0,0,1,1.715-.76,2,2,0,0,1,.94.225,1.849,1.849,0,0,1,.659.545v-.67h1.1v5h-1.1v-.67a1.849,1.849,0,0,1-.659.545A2,2,0,0,1,450.678,339.081Zm-.87-1.46a1.473,1.473,0,0,0,2.139,0,1.754,1.754,0,0,0,0-2.28,1.473,1.473,0,0,0-2.139,0,1.757,1.757,0,0,0,0,2.28Z"/><path class="g" d="M455.418,332.891a.725.725,0,0,1-.521-.215.707.707,0,0,1-.219-.525.7.7,0,0,1,.219-.515.725.725,0,0,1,.521-.215.7.7,0,0,1,.519.215.707.707,0,0,1,.21.515.718.718,0,0,1-.21.525A.7.7,0,0,1,455.418,332.891Zm-.55,6.09v-5h1.1v5Z"/><path class="g" d="M463.317,338.981l3.1-7.1h1.02l3.1,7.1h-1.22l-.809-1.86h-3.181l-.8,1.86Zm3.6-5.52-1.14,2.62h2.281Z"/><path class="g" d="M473.258,339.081a2.23,2.23,0,0,1-1.715-.76,2.783,2.783,0,0,1,0-3.68,2.23,2.23,0,0,1,1.715-.76,2,2,0,0,1,.94.225,1.848,1.848,0,0,1,.659.545v-3.17h1.1v7.5h-1.1v-.67a1.848,1.848,0,0,1-.659.545A2,2,0,0,1,473.258,339.081Zm-.87-1.46a1.473,1.473,0,0,0,2.139,0,1.754,1.754,0,0,0,0-2.28,1.473,1.473,0,0,0-2.139,0,1.757,1.757,0,0,0,0,2.28Z"/><path class="g" d="M479.037,339.081a2.688,2.688,0,0,1-1.22-.265,1.706,1.706,0,0,1-.79-.8l.81-.58a1.114,1.114,0,0,0,.48.505,1.451,1.451,0,0,0,.72.185.9.9,0,0,0,.515-.14.474.474,0,0,0,.04-.75,1.854,1.854,0,0,0-.605-.28l-.44-.12a1.5,1.5,0,0,1-1.31-1.53,1.243,1.243,0,0,1,.51-1.04,2.046,2.046,0,0,1,1.28-.39,1.845,1.845,0,0,1,1.69.85l-.76.58a1.145,1.145,0,0,0-.95-.51.87.87,0,0,0-.47.125.387.387,0,0,0-.2.345.48.48,0,0,0,.13.34,1.108,1.108,0,0,0,.47.25l.51.15a2.427,2.427,0,0,1,1.05.565,1.3,1.3,0,0,1,.35.955,1.389,1.389,0,0,1-.51,1.13A1.979,1.979,0,0,1,479.037,339.081Z"/><path class="g" d="M591.486,352.377a2.232,2.232,0,0,1-1.715-.76,2.783,2.783,0,0,1,0-3.68,2.232,2.232,0,0,1,1.715-.76,2,2,0,0,1,.94.225,1.842,1.842,0,0,1,.66.545v-3.17h1.1v7.5h-1.1v-.67a1.852,1.852,0,0,1-.66.545A2,2,0,0,1,591.486,352.377Zm-.871-1.46a1.476,1.476,0,0,0,2.141,0,1.757,1.757,0,0,0,0-2.28,1.476,1.476,0,0,0-2.141,0,1.757,1.757,0,0,0,0,2.28Z" transform="translate(-132.429 -13.146)"/></g></g><g transform="translate(29.369 -40)"><circle class="e" cx="20" cy="20" r="20" transform="translate(289 4386)"/><path class="f" d="M4,200.569v-11.6A.967.967,0,0,1,4.967,188h5.8c1.45,0,1,1.934,2.9,1.934h6.768a.967.967,0,0,1,.967.967v9.668a.967.967,0,0,1-.967.967H4.967A.967.967,0,0,1,4,200.569Z" transform="translate(296 4211)"/><g transform="translate(-219.124 4099.958)"><path class="g" d="M520.653,341.662a3.3,3.3,0,0,1-1.529-.35,2.293,2.293,0,0,1-1-.93l.92-.73a1.86,1.86,0,0,0,1.649.91,1.325,1.325,0,0,0,.83-.245.763.763,0,0,0,.321-.635q0-.711-1.01-1.08l-.78-.28a2.913,2.913,0,0,1-1.27-.795,1.964,1.964,0,0,1,.239-2.66,2.5,2.5,0,0,1,1.661-.545,2.646,2.646,0,0,1,2.15.97l-.811.79a1.692,1.692,0,0,0-1.349-.66,1.389,1.389,0,0,0-.795.22.688.688,0,0,0-.325.6.738.738,0,0,0,.245.585,2.806,2.806,0,0,0,.835.435l.72.27a3.029,3.029,0,0,1,1.25.81,1.836,1.836,0,0,1,.419,1.27,1.856,1.856,0,0,1-.66,1.485A2.532,2.532,0,0,1,520.653,341.662Z"/><path class="g" d="M526.214,341.642a2.23,2.23,0,0,1-1.715-.76,2.783,2.783,0,0,1,0-3.68,2.23,2.23,0,0,1,1.715-.76,2,2,0,0,1,.94.225,1.848,1.848,0,0,1,.659.545v-.67h1.1v5h-1.1v-.67a1.848,1.848,0,0,1-.659.545A2,2,0,0,1,526.214,341.642Zm-.87-1.46a1.473,1.473,0,0,0,2.139,0,1.754,1.754,0,0,0,0-2.28,1.473,1.473,0,0,0-2.139,0,1.757,1.757,0,0,0,0,2.28Z"/><path class="g" d="M530.4,341.542v-7.5h1.1v7.5Z"/><path class="g" d="M535.243,341.642a2.6,2.6,0,1,1,0-5.2,2.384,2.384,0,0,1,1.725.66,2.408,2.408,0,0,1,.685,1.82c0,.134,0,.253-.009.36h-3.931a1.365,1.365,0,0,0,.471.985,1.721,1.721,0,0,0,2.5-.385l.839.6A2.486,2.486,0,0,1,535.243,341.642Zm-1.48-3.16h2.78a1.27,1.27,0,0,0-.465-.815,1.373,1.373,0,0,0-.875-.295,1.55,1.55,0,0,0-.925.29A1.291,1.291,0,0,0,533.763,338.482Z"/></g></g><g transform="translate(29.784 30)"><ellipse class="e" cx="20" cy="19.9" rx="20" ry="19.9" transform="translate(289 4386)"/><path class="f" d="M4,200.569v-11.6A.967.967,0,0,1,4.967,188h5.8c1.45,0,1,1.934,2.9,1.934h6.768a.967.967,0,0,1,.967.967v9.668a.967.967,0,0,1-.967.967H4.967A.967.967,0,0,1,4,200.569Z" transform="translate(296 4210.931)"/><g transform="translate(-232.4 4071.532)"><path class="g" d="M517.57,359.928h1.071l2.479,3.36,2.49-3.36h1.071v7.1H523.5v-5.09l-2.37,3.22-2.39-3.23v5.1h-1.17Z"/><path class="g" d="M528.24,367.128a2.232,2.232,0,0,1-1.715-.76,2.783,2.783,0,0,1,0-3.68,2.232,2.232,0,0,1,1.715-.76,2,2,0,0,1,.941.225,1.839,1.839,0,0,1,.659.545v-.67h1.1v5h-1.1v-.67a1.849,1.849,0,0,1-.659.545A2,2,0,0,1,528.24,367.128Zm-.87-1.46a1.474,1.474,0,0,0,2.14,0,1.754,1.754,0,0,0,0-2.28,1.474,1.474,0,0,0-2.14,0,1.757,1.757,0,0,0,0,2.28Z"/><path class="g" d="M532.431,367.028v-5h1.1v.89a1.321,1.321,0,0,1,.516-.68,1.379,1.379,0,0,1,.8-.26,1.9,1.9,0,0,1,.429.04v1.13a1.559,1.559,0,0,0-.55-.09,1.08,1.08,0,0,0-.849.4,1.662,1.662,0,0,0-.351,1.125v2.44Z"/><path class="g" d="M539.721,367.028l-2.391-2.41v2.41h-1.1v-7.5h1.1v4.4l1.91-1.9h1.39l-2.23,2.23,2.73,2.77Z"/><path class="g" d="M543.64,367.128a2.547,2.547,0,0,1-1.875-.73,2.61,2.61,0,0,1,1.875-4.47,2.383,2.383,0,0,1,1.724.66,2.409,2.409,0,0,1,.686,1.82c0,.134,0,.253-.01.36h-3.931a1.372,1.372,0,0,0,.471.985,1.721,1.721,0,0,0,2.5-.385l.84.6A2.487,2.487,0,0,1,543.64,367.128Zm-1.481-3.16h2.78a1.265,1.265,0,0,0-.464-.815,1.373,1.373,0,0,0-.875-.3,1.548,1.548,0,0,0-.925.29A1.288,1.288,0,0,0,542.159,363.968Z"/><path class="g" d="M549.271,367.078a1.786,1.786,0,0,1-1.236-.425,1.572,1.572,0,0,1-.474-1.235v-2.41h-1.04v-.98h1.04v-1.39h1.1v1.39h1.431v.98H548.66v2.23a.72.72,0,0,0,.84.85,1.492,1.492,0,0,0,.591-.1v.98A2.82,2.82,0,0,1,549.271,367.078Z"/><path class="g" d="M551.68,360.938a.723.723,0,0,1-.521-.215.707.707,0,0,1-.22-.525.7.7,0,0,1,.22-.515.723.723,0,0,1,.521-.215.7.7,0,0,1,.519.215.706.706,0,0,1,.21.515.718.718,0,0,1-.21.525A.7.7,0,0,1,551.68,360.938Zm-.55,6.09v-5h1.1v5Z"/><path class="g" d="M553.71,367.028v-5h1.1v.68a1.639,1.639,0,0,1,1.52-.78,1.79,1.79,0,0,1,1.39.57,2.171,2.171,0,0,1,.519,1.52v3.01h-1.1V364.2a1.414,1.414,0,0,0-.281-.935.937.937,0,0,0-.759-.335,1.156,1.156,0,0,0-.93.43,1.833,1.833,0,0,0-.36,1.21v2.46Z"/><path class="g" d="M561.8,369.218a3.645,3.645,0,0,1-1.35-.245,2.484,2.484,0,0,1-.99-.675l.67-.79a2.162,2.162,0,0,0,1.66.73,1.491,1.491,0,0,0,1.08-.415,1.519,1.519,0,0,0,.43-1.145v-.46a1.8,1.8,0,0,1-.67.56,2.02,2.02,0,0,1-.93.22,2.254,2.254,0,0,1-1.705-.735,2.678,2.678,0,0,1,0-3.6,2.254,2.254,0,0,1,1.705-.735,2.054,2.054,0,0,1,.93.215,1.749,1.749,0,0,1,.67.555v-.67h1.1v4.66a2.408,2.408,0,0,1-.714,1.89A2.728,2.728,0,0,1,561.8,369.218Zm-.96-3.665a1.509,1.509,0,0,0,2.12,0,1.607,1.607,0,0,0,0-2.19,1.509,1.509,0,0,0-2.12,0,1.609,1.609,0,0,0,0,2.19Z"/></g></g><g transform="translate(88.369 -40)"><circle class="e" cx="20" cy="20" r="20" transform="translate(289 4386)"/><path class="f" d="M4,200.569v-11.6A.967.967,0,0,1,4.967,188h5.8c1.45,0,1,1.934,2.9,1.934h6.768a.967.967,0,0,1,.967.967v9.668a.967.967,0,0,1-.967.967H4.967A.967.967,0,0,1,4,200.569Z" transform="translate(296 4211)"/><g transform="translate(-290.218 4117.224)"><path class="g" d="M592.218,323.876v-7.1h1.17v2.94H596.9v-2.94h1.17v7.1H596.9v-3.049h-3.509v3.049Z"/><path class="g" d="M599.817,323.876v-7.1h2.56a2.159,2.159,0,0,1,1.565.565,1.935,1.935,0,0,1,.585,1.455,1.83,1.83,0,0,1-.415,1.235,2.1,2.1,0,0,1-1.2.656l2.641,3.189h-1.441l-2.6-3.12h-.531v3.12Zm1.17-4.14h1.25a1.265,1.265,0,0,0,.821-.244.957.957,0,0,0,0-1.39,1.26,1.26,0,0,0-.821-.246h-1.25Z"/></g></g><g transform="translate(88.893 30)"><ellipse class="e" cx="20" cy="19.9" rx="20" ry="19.9" transform="translate(289 4386)"/><path class="f" d="M4,200.569v-11.6A.967.967,0,0,1,4.967,188h5.8c1.45,0,1,1.934,2.9,1.934h6.768a.967.967,0,0,1,.967.967v9.668a.967.967,0,0,1-.967.967H4.967A.967.967,0,0,1,4,200.569Z" transform="translate(296 4210.931)"/><g transform="translate(-287.604 4086.283)"><path class="g" d="M581.545,352.277l3.1-7.1h1.021l3.1,7.1h-1.221l-.809-1.86h-3.181l-.8,1.86Zm3.6-5.52-1.139,2.62h2.279Z"/><path class="g" d="M591.486,352.377a2.232,2.232,0,0,1-1.715-.76,2.783,2.783,0,0,1,0-3.68,2.232,2.232,0,0,1,1.715-.76,2,2,0,0,1,.94.225,1.842,1.842,0,0,1,.66.545v-3.17h1.1v7.5h-1.1v-.67a1.852,1.852,0,0,1-.66.545A2,2,0,0,1,591.486,352.377Zm-.871-1.46a1.476,1.476,0,0,0,2.141,0,1.757,1.757,0,0,0,0-2.28,1.476,1.476,0,0,0-2.141,0,1.757,1.757,0,0,0,0,2.28Z"/><path class="g" d="M602.045,352.277v-2.81a1.7,1.7,0,0,0-.225-.95.747.747,0,0,0-.666-.34,1.021,1.021,0,0,0-.849.41,1.923,1.923,0,0,0-.34,1.15v2.54h-1.1v-2.81a1.711,1.711,0,0,0-.224-.95.751.751,0,0,0-.666-.34,1.037,1.037,0,0,0-.875.43,1.97,1.97,0,0,0-.325,1.21v2.46h-1.1v-5h1.1v.68a1.7,1.7,0,0,1,2.969.21,1.584,1.584,0,0,1,.647-.73,1.824,1.824,0,0,1,.955-.26,1.636,1.636,0,0,1,1.32.57,2.324,2.324,0,0,1,.479,1.54v2.99Z"/><path class="g" d="M605.1,346.187a.723.723,0,0,1-.521-.215.7.7,0,0,1-.219-.525.692.692,0,0,1,.219-.515.723.723,0,0,1,.521-.215.724.724,0,0,1,.729.73.717.717,0,0,1-.209.525A.7.7,0,0,1,605.1,346.187Zm-.55,6.09v-5h1.1v5Z"/><path class="g" d="M607.135,352.277v-5h1.1v.68a1.643,1.643,0,0,1,1.522-.78,1.787,1.787,0,0,1,1.389.57,2.167,2.167,0,0,1,.519,1.52v3.01h-1.1v-2.83a1.419,1.419,0,0,0-.279-.935.938.938,0,0,0-.76-.335,1.154,1.154,0,0,0-.929.43,1.828,1.828,0,0,0-.362,1.21v2.46Z"/></g></g><g transform="translate(144.369 -40)"><circle class="e" cx="20" cy="20" r="20" transform="translate(289 4386)"/><path class="f" d="M4,200.569v-11.6A.967.967,0,0,1,4.967,188h5.8c1.45,0,1,1.934,2.9,1.934h6.768a.967.967,0,0,1,.967.967v9.668a.967.967,0,0,1-.967.967H4.967A.967.967,0,0,1,4,200.569Z" transform="translate(296 4211)"/><g transform="translate(-288.399 4058.622)"><path class="g" d="M590.16,382.718a3.283,3.283,0,0,1-1.529-.35,2.288,2.288,0,0,1-1-.93l.92-.73a1.858,1.858,0,0,0,1.648.91,1.319,1.319,0,0,0,.83-.245.76.76,0,0,0,.321-.635q0-.709-1.01-1.08l-.779-.28a2.9,2.9,0,0,1-1.27-.795,1.965,1.965,0,0,1,.238-2.66,2.5,2.5,0,0,1,1.66-.545,2.645,2.645,0,0,1,2.151.97l-.811.79a1.69,1.69,0,0,0-1.349-.66,1.392,1.392,0,0,0-.795.22.688.688,0,0,0-.324.6.741.741,0,0,0,.244.585,2.814,2.814,0,0,0,.836.435l.718.27a3.009,3.009,0,0,1,1.25.81,1.832,1.832,0,0,1,.42,1.27,1.853,1.853,0,0,1-.66,1.485A2.533,2.533,0,0,1,590.16,382.718Z"/><path class="g" d="M593.8,382.6v-7.1h4.269v1.12h-3.1v1.82h2.5v1.12h-2.5v1.92h3.1v1.12Z"/><path class="g" d="M605.051,381.648a3.7,3.7,0,1,1,1.068-2.6A3.541,3.541,0,0,1,605.051,381.648Zm-2.6-.06a2.356,2.356,0,0,0,1.76-.74,2.607,2.607,0,0,0,0-3.6,2.474,2.474,0,0,0-3.529,0,2.607,2.607,0,0,0,0,3.6A2.37,2.37,0,0,0,602.449,381.588Z"/></g></g><g transform="translate(144.369 30)"><ellipse class="e" cx="20" cy="19.9" rx="20" ry="19.9" transform="translate(288.631 4386)"/><path class="f" d="M4,200.569v-11.6A.967.967,0,0,1,4.967,188h5.8c1.45,0,1,1.934,2.9,1.934h6.768a.967.967,0,0,1,.967.967v9.668a.967.967,0,0,1-.967.967H4.967A.967.967,0,0,1,4,200.569Z" transform="translate(296 4210.931)"/><g transform="translate(-163.686 4099.519)"><path class="g" d="M463.317,338.981l3.1-7.1h1.02l3.1,7.1h-1.22l-.809-1.86h-3.181l-.8,1.86Zm3.6-5.52-1.14,2.62h2.281Z"/><path class="g" d="M473.258,339.081a2.23,2.23,0,0,1-1.715-.76,2.783,2.783,0,0,1,0-3.68,2.23,2.23,0,0,1,1.715-.76,2,2,0,0,1,.94.225,1.848,1.848,0,0,1,.659.545v-3.17h1.1v7.5h-1.1v-.67a1.848,1.848,0,0,1-.659.545A2,2,0,0,1,473.258,339.081Zm-.87-1.46a1.473,1.473,0,0,0,2.139,0,1.754,1.754,0,0,0,0-2.28,1.473,1.473,0,0,0-2.139,0,1.757,1.757,0,0,0,0,2.28Z"/><path class="g" d="M479.037,339.081a2.688,2.688,0,0,1-1.22-.265,1.706,1.706,0,0,1-.79-.8l.81-.58a1.114,1.114,0,0,0,.48.505,1.451,1.451,0,0,0,.72.185.9.9,0,0,0,.515-.14.474.474,0,0,0,.04-.75,1.854,1.854,0,0,0-.605-.28l-.44-.12a1.5,1.5,0,0,1-1.31-1.53,1.243,1.243,0,0,1,.51-1.04,2.046,2.046,0,0,1,1.28-.39,1.845,1.845,0,0,1,1.69.85l-.76.58a1.145,1.145,0,0,0-.95-.51.87.87,0,0,0-.47.125.387.387,0,0,0-.2.345.48.48,0,0,0,.13.34,1.108,1.108,0,0,0,.47.25l.51.15a2.427,2.427,0,0,1,1.05.565,1.3,1.3,0,0,1,.35.955,1.389,1.389,0,0,1-.51,1.13A1.979,1.979,0,0,1,479.037,339.081Z"/></g></g><g transform="translate(200.369 -40)"><circle class="e" cx="20" cy="20" r="20" transform="translate(289 4386)"/><path class="f" d="M4,200.569v-11.6A.967.967,0,0,1,4.967,188h5.8c1.45,0,1,1.934,2.9,1.934h6.768a.967.967,0,0,1,.967.967v9.668a.967.967,0,0,1-.967.967H4.967A.967.967,0,0,1,4,200.569Z" transform="translate(296 4211)"/><g transform="translate(-323.66 4070.086)"><path class="g" d="M625.641,371.254a3.284,3.284,0,0,1-1.53-.35,2.293,2.293,0,0,1-1-.93l.92-.73a1.862,1.862,0,0,0,1.65.91,1.323,1.323,0,0,0,.83-.245.762.762,0,0,0,.32-.635q0-.709-1.01-1.08l-.78-.28a2.91,2.91,0,0,1-1.27-.8,1.963,1.963,0,0,1,.24-2.66,2.5,2.5,0,0,1,1.66-.545,2.646,2.646,0,0,1,2.15.97l-.81.79a1.693,1.693,0,0,0-1.35-.66,1.392,1.392,0,0,0-.795.22.688.688,0,0,0-.325.6.738.738,0,0,0,.245.585,2.773,2.773,0,0,0,.835.435l.72.271a3.005,3.005,0,0,1,1.25.809,1.838,1.838,0,0,1,.42,1.27,1.858,1.858,0,0,1-.66,1.485A2.535,2.535,0,0,1,625.641,371.254Z"/><path class="g" d="M628.312,371.134l3.1-7.1h1.021l3.1,7.1h-1.219l-.81-1.86h-3.181l-.8,1.86Zm3.6-5.52-1.14,2.62h2.281Z"/><path class="g" d="M640.472,364.7a2.332,2.332,0,0,1,0,3.31,2.445,2.445,0,0,1-1.771.665h-1.09v2.46h-1.17v-7.1h2.26A2.449,2.449,0,0,1,640.472,364.7Zm-.816,2.53a1.253,1.253,0,0,0,0-1.75,1.328,1.328,0,0,0-.965-.345h-1.08v2.44h1.08A1.324,1.324,0,0,0,639.656,367.229Z"/></g></g><g transform="translate(200.478 30)"><ellipse class="e" cx="20" cy="19.9" rx="20" ry="19.9" transform="translate(289 4386)"/><path class="f" d="M4,200.569v-11.6A.967.967,0,0,1,4.967,188h5.8c1.45,0,1,1.934,2.9,1.934h6.768a.967.967,0,0,1,.967.967v9.668a.967.967,0,0,1-.967.967H4.967A.967.967,0,0,1,4,200.569Z" transform="translate(296 4210.931)"/><g transform="translate(-309.082 4076.232)"><path class="g" d="M612.092,362.268l-1.651-4.34-1.649,4.34h-1.08l-1.83-7.1h1.23l1.29,5.16,2.039-5.28,2.031,5.28,1.3-5.16h1.241l-1.84,7.1Z"/><path class="g" d="M619.717,361.613a2.632,2.632,0,1,1,.755-1.845A2.532,2.532,0,0,1,619.717,361.613Zm-1.865-.265a1.409,1.409,0,0,0,1.075-.455,1.7,1.7,0,0,0,0-2.25,1.509,1.509,0,0,0-2.16,0,1.7,1.7,0,0,0,0,2.25A1.418,1.418,0,0,0,617.852,361.348Z"/><path class="g" d="M621.582,362.268v-5h1.1v.89a1.314,1.314,0,0,1,.515-.68,1.388,1.388,0,0,1,.8-.26,1.909,1.909,0,0,1,.43.04v1.13a1.567,1.567,0,0,0-.55-.09,1.084,1.084,0,0,0-.85.4,1.667,1.667,0,0,0-.35,1.125v2.44Z"/><path class="g" d="M628.872,362.268l-2.391-2.41v2.41h-1.1v-7.5h1.1v4.4l1.911-1.9h1.389l-2.229,2.23,2.729,2.77Z"/></g></g><path class="h" d="M-1675.993,5865.693s21.172-38.523,29.868-40.917,13.491,15.912,22.689,15.912,22.3-38.314,34.775-38.314,16.538,30.754,25.94,30.754,12.8-26.875,20.708-26.875,11.893,26.875,20.413,26.875,10.508-43.84,25.343-43.84,16.913,42.883,32.6,42.512c17.864-.422,16.577-45.251,37.417-45.252v79.146Z" transform="translate(1970.228 -1281)"/><path class="i" d="M-1676.738,5865.387s21.921-39.237,30.634-41.571,13.518,15.512,22.733,15.512,22.343-37.352,34.843-37.352,16.57,29.981,25.99,29.981,12.82-26.2,20.748-26.2,11.916,26.2,20.453,26.2,10.529-42.739,25.393-42.739,16.946,41.806,32.662,41.444c17.9-.412,16.609-44.115,37.49-44.115" transform="translate(1969.779 -1281)"/><rect class="d" width="1" height="252" transform="translate(544 4584) rotate(90)"/><rect class="d" width="1" height="91" transform="translate(292 4494)"/><g transform="translate(0 13)"><rect class="c" width="10" height="6" rx="3" transform="translate(278 4486)"/><rect class="c" width="10" height="6" rx="3" transform="translate(278 4506)"/><rect class="c" width="10" height="6" rx="3" transform="translate(278 4526)"/><rect class="c" width="10" height="6" rx="3" transform="translate(278 4546)"/><rect class="c" width="10" height="6" rx="3" transform="translate(278 4566)"/></g><rect class="b" width="81" height="147" rx="8" transform="translate(151 4334)"/><path class="j" d="M2,0H12a2,2,0,0,1,2,2V74a0,0,0,0,1,0,0H0a0,0,0,0,1,0,0V2A2,2,0,0,1,2,0Z" transform="translate(163 4395)"/><path class="k" d="M2,0H12a2,2,0,0,1,2,2V88a0,0,0,0,1,0,0H0a0,0,0,0,1,0,0V2A2,2,0,0,1,2,0Z" transform="translate(211 4381)"/><path class="l" d="M2,0H12a2,2,0,0,1,2,2V53a0,0,0,0,1,0,0H0a0,0,0,0,1,0,0V2A2,2,0,0,1,2,0Z" transform="translate(187 4416)"/><rect class="c" width="86" height="57" rx="7" transform="translate(163 4505)"/><rect class="c" width="86" height="6" rx="3" transform="translate(163 4570)"/><rect class="c" width="62" height="6" rx="3" transform="translate(163 4582)"/><g class="x" transform="matrix(1, 0, 0, 1, 33, 4188)"><g class="m" transform="translate(342 327)"><circle class="t" cx="7" cy="7" r="7"/><circle class="u" cx="7" cy="7" r="5"/></g></g></g></g><g class="w" transform="matrix(1, 0, 0, 1, 68, 1636)"><rect class="b" width="143" height="144" rx="12" transform="translate(472 372)"/></g><rect class="n" width="4" height="25" rx="2" transform="translate(611 2054)"/><rect class="e" width="4" height="20" rx="2" transform="translate(632 2078) rotate(90)"/><rect class="e" width="6" height="10" rx="3" transform="translate(609 2037)"/><rect class="e" width="6" height="10" rx="3" transform="translate(609 2113)"/><rect class="e" width="6" height="10" rx="3" transform="translate(655 2077) rotate(90)"/><rect class="e" width="6" height="10" rx="3" transform="translate(579 2077) rotate(90)"/><rect class="n" width="12" height="12" rx="6" transform="translate(619 2074) rotate(90)"/><g class="o" transform="translate(565 2033)"><circle class="t" cx="47" cy="47" r="47"/><circle class="u" cx="47" cy="47" r="43"/></g><g class="p" transform="translate(565 2033)"><circle class="t" cx="47" cy="47" r="47"/><circle class="u" cx="47" cy="47" r="46"/></g><g transform="translate(-456)"><g class="v" transform="matrix(1, 0, 0, 1, 524, 1636)"><rect class="b" width="144" height="146" rx="12" transform="translate(15 40)"/></g><circle class="q" cx="31" cy="31" r="31" transform="translate(580 1694)"/><g transform="translate(596.392 1709.74)"><path class="r" d="M14.608,2A10.622,10.622,0,0,0,4,12.608c0,5.5,6.935,15.912,10.608,15.912S25.216,18.111,25.216,12.608A10.622,10.622,0,0,0,14.608,2Zm0,14.586a3.978,3.978,0,1,1,3.978-3.978,3.978,3.978,0,0,1-3.978,3.978Z"/></g><g transform="translate(-223.356 1557.301)"><path class="s" d="M811.286,224.639l4.341-9.94h1.428l4.34,9.94h-1.708l-1.134-2.6H814.1l-1.121,2.6Zm5.04-7.728-1.6,3.668h3.193Z"/><path class="s" d="M825.51,224.779a3.6,3.6,0,0,1-2.639-1.043,3.719,3.719,0,0,1,0-5.194,3.608,3.608,0,0,1,2.639-1.043,3.69,3.69,0,0,1,1.939.518,3.486,3.486,0,0,1,1.323,1.414l-1.343.728a2.188,2.188,0,0,0-.771-.9,2.139,2.139,0,0,0-2.674.3,2.361,2.361,0,0,0,0,3.15,2.139,2.139,0,0,0,2.674.3,2.181,2.181,0,0,0,.771-.9l1.343.728a3.48,3.48,0,0,1-1.323,1.414A3.69,3.69,0,0,1,825.51,224.779Z"/><path class="s" d="M833.378,224.779a3.6,3.6,0,0,1-2.639-1.043,3.721,3.721,0,0,1,0-5.194,3.607,3.607,0,0,1,2.639-1.043,3.69,3.69,0,0,1,1.939.518,3.489,3.489,0,0,1,1.324,1.414l-1.344.728a2.187,2.187,0,0,0-.771-.9,2.138,2.138,0,0,0-2.673.3,2.358,2.358,0,0,0,0,3.15,2.138,2.138,0,0,0,2.673.3,2.181,2.181,0,0,0,.771-.9l1.344.728a3.482,3.482,0,0,1-1.324,1.414A3.69,3.69,0,0,1,833.378,224.779Z"/><path class="s" d="M841.219,224.779a3.566,3.566,0,0,1-2.625-1.022,3.654,3.654,0,0,1,2.625-6.258,3.343,3.343,0,0,1,2.415.924,3.378,3.378,0,0,1,.959,2.548q0,.281-.015.5h-5.5a1.919,1.919,0,0,0,.658,1.379,2.409,2.409,0,0,0,3.5-.539l1.176.84A3.478,3.478,0,0,1,841.219,224.779Zm-2.073-4.424h3.892a1.784,1.784,0,0,0-.65-1.141,1.93,1.93,0,0,0-1.226-.413,2.174,2.174,0,0,0-1.295.406A1.805,1.805,0,0,0,839.146,220.355Z"/><path class="s" d="M848.4,224.779a3.779,3.779,0,0,1-1.708-.371,2.385,2.385,0,0,1-1.105-1.113l1.134-.812a1.549,1.549,0,0,0,.672.707,2.019,2.019,0,0,0,1.007.259,1.251,1.251,0,0,0,.722-.2.666.666,0,0,0,.056-1.05,2.66,2.66,0,0,0-.847-.392l-.616-.168a2.1,2.1,0,0,1-1.834-2.142,1.742,1.742,0,0,1,.714-1.456,2.862,2.862,0,0,1,1.792-.546,2.581,2.581,0,0,1,2.366,1.19l-1.065.812a1.6,1.6,0,0,0-1.33-.714,1.225,1.225,0,0,0-.658.175.544.544,0,0,0-.279.483.67.67,0,0,0,.182.476,1.561,1.561,0,0,0,.658.35l.714.21a3.406,3.406,0,0,1,1.469.791,1.821,1.821,0,0,1,.491,1.337,1.946,1.946,0,0,1-.714,1.582A2.77,2.77,0,0,1,848.4,224.779Z"/><path class="s" d="M854.756,224.779a3.776,3.776,0,0,1-1.708-.371,2.392,2.392,0,0,1-1.106-1.113l1.134-.812a1.554,1.554,0,0,0,.672.707,2.026,2.026,0,0,0,1.008.259,1.253,1.253,0,0,0,.722-.2.665.665,0,0,0,.055-1.05,2.642,2.642,0,0,0-.846-.392l-.617-.168a2.1,2.1,0,0,1-1.834-2.142,1.744,1.744,0,0,1,.714-1.456,2.864,2.864,0,0,1,1.792-.546,2.581,2.581,0,0,1,2.366,1.19l-1.064.812a1.6,1.6,0,0,0-1.33-.714,1.222,1.222,0,0,0-.658.175.543.543,0,0,0-.28.483.674.674,0,0,0,.182.476,1.568,1.568,0,0,0,.658.35l.714.21a3.41,3.41,0,0,1,1.47.791,1.821,1.821,0,0,1,.49,1.337,1.943,1.943,0,0,1-.714,1.582A2.767,2.767,0,0,1,854.756,224.779Z"/><path class="s" d="M801.234,241.439l4.341-9.94H807l4.34,9.94h-1.708l-1.134-2.6h-4.452l-1.12,2.6Zm5.04-7.728-1.595,3.668h3.192Z"/><path class="s" d="M812.435,241.439v-7h1.54v.952A2.293,2.293,0,0,1,816.1,234.3a2.508,2.508,0,0,1,1.946.8,3.04,3.04,0,0,1,.727,2.128v4.214h-1.54v-3.962a1.991,1.991,0,0,0-.391-1.309,1.314,1.314,0,0,0-1.065-.469,1.617,1.617,0,0,0-1.3.6,2.565,2.565,0,0,0-.5,1.694v3.444Z"/><path class="s" d="M822.823,244.365h-1.694l1.5-3.3-3.01-6.622h1.694l2.142,4.956,2.155-4.956h1.708Z"/><path class="s" d="M834.358,241.439l-1.54-4.522-1.526,4.522h-1.456l-2.352-7h1.624l1.512,4.83,1.61-4.83h1.176l1.582,4.83,1.54-4.83h1.638l-2.352,7Z"/><path class="s" d="M840.854,241.439h-1.54v-10.5h1.54v4.452a2.3,2.3,0,0,1,2.128-1.092,2.509,2.509,0,0,1,1.947.8,3.04,3.04,0,0,1,.727,2.128v4.214h-1.54v-3.962a1.991,1.991,0,0,0-.391-1.309,1.316,1.316,0,0,0-1.065-.469,1.621,1.621,0,0,0-1.3.6,2.565,2.565,0,0,0-.5,1.694Z"/><path class="s" d="M850.795,241.579a3.566,3.566,0,0,1-2.625-1.022,3.654,3.654,0,0,1,2.625-6.258,3.235,3.235,0,0,1,3.374,3.472q0,.28-.015.5h-5.5a1.917,1.917,0,0,0,.659,1.379,2.409,2.409,0,0,0,3.5-.539l1.175.84A3.478,3.478,0,0,1,850.795,241.579Zm-2.072-4.424h3.891a1.784,1.784,0,0,0-.65-1.141,1.93,1.93,0,0,0-1.226-.413,2.167,2.167,0,0,0-1.295.406A1.8,1.8,0,0,0,848.723,237.155Z"/><path class="s" d="M855.751,241.439v-7h1.54v1.246a1.846,1.846,0,0,1,.721-.952,1.937,1.937,0,0,1,1.127-.364,2.713,2.713,0,0,1,.6.056v1.582a2.185,2.185,0,0,0-.77-.126,1.516,1.516,0,0,0-1.19.567,2.33,2.33,0,0,0-.49,1.575v3.416Z"/><path class="s" d="M863.982,241.579a3.57,3.57,0,0,1-2.625-1.022,3.654,3.654,0,0,1,2.625-6.258,3.235,3.235,0,0,1,3.374,3.472c0,.187,0,.355-.014.5h-5.5a1.919,1.919,0,0,0,.658,1.379,2.409,2.409,0,0,0,3.5-.539l1.176.84A3.48,3.48,0,0,1,863.982,241.579Zm-2.072-4.424H865.8a1.781,1.781,0,0,0-.651-1.141,1.925,1.925,0,0,0-1.225-.413,2.165,2.165,0,0,0-1.3.406A1.805,1.805,0,0,0,861.91,237.155Z"/></g></g></g></svg>