<svg xmlns="http://www.w3.org/2000/svg" width="12.637" height="10.554" viewBox="0 0 12.637 10.554"><defs><style>.a{fill:#fff;}</style></defs><g transform="translate(0 -7.858)"><g transform="translate(0 7.858)"><path class="a" d="M4.045,12.641a3.348,3.348,0,0,0-.925-.135,2.908,2.908,0,0,0-1.16.238c.292-1.068.992-2.91,2.388-3.117a.332.332,0,0,0,.27-.238L4.923,8.3a.331.331,0,0,0-.274-.418,2.317,2.317,0,0,0-.312-.021C2.661,7.858,1,9.606.3,12.11c-.411,1.469-.531,3.677.481,5.067a3.022,3.022,0,0,0,2.456,1.235h.013a2.94,2.94,0,0,0,.793-5.771Z" transform="translate(0 -7.858)"/><path class="a" d="M54.438,14.029a2.947,2.947,0,0,0-1.768-1.388,3.348,3.348,0,0,0-.925-.135,2.908,2.908,0,0,0-1.16.238c.292-1.068.992-2.91,2.388-3.117a.332.332,0,0,0,.27-.238L53.549,8.3a.331.331,0,0,0-.274-.418,2.314,2.314,0,0,0-.312-.021c-1.675,0-3.334,1.748-4.034,4.252-.411,1.469-.531,3.677.481,5.067a3.022,3.022,0,0,0,2.456,1.234h.013a2.94,2.94,0,0,0,2.56-4.382Z" transform="translate(-42.18 -7.858)"/></g></g></svg>