<?xml version="1.0" encoding="UTF-8"?><svg xmlns="http://www.w3.org/2000/svg" xmlns:xlink="http://www.w3.org/1999/xlink" contentScriptType="text/ecmascript" width="30" zoomAndPan="magnify" contentStyleType="text/css" viewBox="0 0 30 30.000001" height="30.000001" preserveAspectRatio="xMidYMid meet" version="1.0"><defs><clipPath id="clip-0"><path d="M 0.484375 0 L 29.515625 0 L 29.515625 29.03125 L 0.484375 29.03125 Z M 0.484375 0 " clip-rule="nonzero"/></clipPath><clipPath id="clip-1"><path d="M 1 3 L 29.296875 3 L 29.296875 26.128906 L 1 26.128906 Z M 1 3 " clip-rule="nonzero"/></clipPath></defs><g clip-path="url(#clip-0)"><path fill="rgb(100%, 100%, 100%)" d="M 0.484375 0 L 29.515625 0 L 29.515625 36.289062 L 0.484375 36.289062 Z M 0.484375 0 " fill-opacity="1" fill-rule="nonzero"/><path fill="rgb(100%, 100%, 100%)" d="M 0.484375 0 L 29.515625 0 L 29.515625 29.03125 L 0.484375 29.03125 Z M 0.484375 0 " fill-opacity="1" fill-rule="nonzero"/><path fill="rgb(100%, 100%, 100%)" d="M 0.484375 0 L 29.515625 0 L 29.515625 29.03125 L 0.484375 29.03125 Z M 0.484375 0 " fill-opacity="1" fill-rule="nonzero"/></g><g clip-path="url(#clip-1)"><path fill="rgb(8.239746%, 39.608765%, 75.289917%)" d="M 1.164062 14.117188 C 1.148438 14.164062 1.132812 14.210938 1.121094 14.257812 C 1.101562 14.367188 1.09375 14.472656 1.09375 14.582031 C 1.09375 14.691406 1.101562 14.804688 1.125 14.914062 C 1.132812 14.949219 1.152344 15.003906 1.167969 15.050781 C 1.167969 15.066406 1.210938 15.195312 1.214844 15.207031 C 1.246094 15.277344 1.28125 15.347656 1.320312 15.410156 C 1.320312 15.421875 1.382812 15.527344 1.386719 15.539062 C 1.445312 15.621094 1.507812 15.695312 1.574219 15.765625 L 11.363281 25.582031 C 11.519531 25.738281 11.703125 25.855469 11.910156 25.9375 C 12.113281 26.023438 12.328125 26.0625 12.546875 26.0625 C 12.769531 26.0625 12.984375 26.023438 13.1875 25.9375 C 13.394531 25.855469 13.574219 25.738281 13.734375 25.582031 C 13.890625 25.425781 14.011719 25.242188 14.097656 25.039062 C 14.183594 24.832031 14.226562 24.617188 14.226562 24.394531 C 14.226562 24.171875 14.183594 23.957031 14.097656 23.75 C 14.011719 23.542969 13.890625 23.363281 13.734375 23.203125 L 7.910156 17.355469 C 7.710938 17.15625 7.664062 16.921875 7.773438 16.65625 C 7.882812 16.394531 8.078125 16.261719 8.363281 16.261719 L 27.390625 16.261719 C 27.613281 16.261719 27.828125 16.21875 28.03125 16.132812 C 28.238281 16.046875 28.417969 15.925781 28.574219 15.769531 C 28.734375 15.609375 28.855469 15.429688 28.9375 15.222656 C 29.023438 15.015625 29.066406 14.800781 29.066406 14.578125 C 29.066406 14.355469 29.023438 14.140625 28.9375 13.933594 C 28.855469 13.730469 28.734375 13.546875 28.574219 13.390625 C 28.417969 13.230469 28.238281 13.109375 28.03125 13.023438 C 27.828125 12.9375 27.613281 12.898438 27.390625 12.898438 L 8.363281 12.898438 C 8.078125 12.898438 7.878906 12.765625 7.773438 12.5 C 7.664062 12.234375 7.710938 12.003906 7.910156 11.800781 L 13.734375 5.957031 C 13.890625 5.796875 14.011719 5.617188 14.097656 5.410156 C 14.183594 5.203125 14.226562 4.988281 14.226562 4.765625 C 14.226562 4.542969 14.183594 4.328125 14.097656 4.121094 C 14.011719 3.914062 13.890625 3.734375 13.734375 3.574219 C 13.574219 3.421875 13.394531 3.304688 13.1875 3.222656 C 12.984375 3.136719 12.769531 3.097656 12.550781 3.097656 C 12.328125 3.097656 12.113281 3.136719 11.910156 3.222656 C 11.707031 3.304688 11.523438 3.421875 11.363281 3.574219 L 1.582031 13.390625 C 1.503906 13.46875 1.4375 13.554688 1.375 13.644531 C 1.289062 13.800781 1.25 13.863281 1.222656 13.929688 " fill-opacity="1" fill-rule="nonzero"/></g></svg>