<svg xmlns="http://www.w3.org/2000/svg" width="38.687" height="40.724" viewBox="0 0 38.687 40.724"><defs><style>.a{fill:#fff;stroke:#fff;stroke-width:0.4px;}</style></defs><g transform="translate(-8.8 -14.017)"><g transform="translate(3.8 6.1)"><path class="a" d="M43.233,33.515l3.479-3.4L33.1,17.253l.529-.529,1.513,1.513,5.219-5.219L29.618,2.2,24.4,7.419l1.513,1.513-4.463,4.463-1.513-1.513-3.479,3.479a2.641,2.641,0,0,0-.756,1.815,2.167,2.167,0,0,0,.756,1.664L23.718,26.1a2.292,2.292,0,0,0,1.664.756h.076A2.19,2.19,0,0,0,27.2,26.1l3.479-3.479L29.164,21.11l.529-.529Zm1.362-3.4L43.233,31.4,30.677,19.6l1.286-1.286ZM29.618,4.394l8.623,8.623-3.1,3.1L26.517,7.495ZM26.063,25.119a.971.971,0,0,1-.756.3.688.688,0,0,1-.605-.3L17.44,17.858a.859.859,0,0,1-.227-.605.971.971,0,0,1,.3-.756l2.421-2.421L28.559,22.7ZM22.432,14.53l4.463-4.463,5.673,5.6L28.03,20.127Z" transform="translate(-3.314 6)"/><path class="a" d="M24.186,51.655V48.1H7.091v3.555H5.2V58.16H26.077V51.655ZM8.6,49.613H22.673v2.042H8.6Zm15.96,7.035H6.713V53.168H24.564Z" transform="translate(0 -9.719)"/></g></g></svg>