<svg xmlns="http://www.w3.org/2000/svg" width="41.083" height="31.117" viewBox="0 0 41.083 31.117"><defs><style>.a{fill:#fff;}</style></defs><path class="a" d="M202.489,111.7l-9.076-4.966a1.667,1.667,0,0,0-2.467,1.462v9.847a1.664,1.664,0,0,0,2.457,1.468l9.076-4.881a1.667,1.667,0,0,0,.01-2.931Zm-9.136,5.1v-7.359l6.783,3.712Zm0,0" transform="translate(-175.624 -97.976)"/><path class="a" d="M40.781,7.344l0-.019c-.035-.331-.381-3.272-1.811-4.768A6.685,6.685,0,0,0,34.54.481l-.2-.024L34.264.449C28.833.055,20.631,0,20.549,0h-.014C20.452,0,12.25.055,6.77.449L6.7.457,6.5.48A6.517,6.517,0,0,0,2.1,2.62C.741,4.1.347,6.979.307,7.3l0,.042c-.012.138-.3,3.413-.3,6.7V17.12c0,3.289.29,6.564.3,6.7l0,.021c.035.325.381,3.213,1.8,4.709A6.822,6.822,0,0,0,6.684,30.6c.167.019.311.035.409.053l.095.013c3.136.3,12.968.445,13.385.451H20.6c.082,0,8.284-.054,13.715-.449l.072-.008c.069-.009.146-.017.23-.026a6.366,6.366,0,0,0,4.364-2.088c1.362-1.48,1.756-4.359,1.8-4.682l0-.042c.012-.138.3-3.413.3-6.7V14.046C41.083,10.757,40.793,7.482,40.781,7.344ZM38.675,17.12c0,3.044-.266,6.178-.291,6.466A7.643,7.643,0,0,1,37.2,26.921a3.959,3.959,0,0,1-2.841,1.318l-.256.029c-5.253.38-13.146.438-13.509.44-.408-.006-10.1-.154-13.136-.437-.156-.025-.324-.045-.5-.065a4.5,4.5,0,0,1-3.079-1.286L3.857,26.9A6.935,6.935,0,0,1,2.7,23.6c-.019-.218-.292-3.389-.292-6.476V14.046c0-3.04.265-6.172.291-6.465A7.488,7.488,0,0,1,3.879,4.245a4.154,4.154,0,0,1,2.9-1.373l.2-.024c5.33-.382,13.279-.438,13.564-.441s8.232.059,13.514.441l.212.025a4.311,4.311,0,0,1,2.948,1.336l.01.01a7.047,7.047,0,0,1,1.158,3.35c.018.205.292,3.384.292,6.477Zm0,0"/></svg>