<svg xmlns="http://www.w3.org/2000/svg" xmlns:xlink="http://www.w3.org/1999/xlink" viewBox="0 0 382 548"><defs><style>.a,.d{fill:#fff;}.a{stroke:#707070;}.b{opacity:0.1;}.c{clip-path:url(#a);}</style><clipPath id="a"><rect class="a" width="382" height="548" transform="translate(524.265 295.179)"/></clipPath></defs><g class="b" transform="translate(-524.265 -295.179)"><g class="c"><path class="d" d="M586.048,317.976s-40.391-50.706-109.908-.871c-17.861,12.8-32.239,32.687-44.823,50.258-42.08,58.7-73.342,129.4-102.863,195.122-19.022,42.343-36.407,87.826-33.426,135.023,2.8,44.427,22.715,87.3,61.813,110.831A131.849,131.849,0,0,0,399.132,824.7c34.587,6.859,67.274-5.54,90.912-31.289,0,0,33.611-32.45,41.71-60.257H470.336c-.317,0-3.614,7.809-3.931,8.363a67.952,67.952,0,0,1-13.56,17.175c-17.94,16.119-42.818,16.673-64.53,8.178-30.049-11.74-42.4-47.883-41.947-77.932.316-20.71,5.936-41.077,13.9-60.071,0,0,62.578-161.089,111.253-224.8A189.728,189.728,0,0,1,486.8,380.633c11.924-15.935,29.574-36.513,52-32.74a16.274,16.274,0,0,1,10.685,6.305,20.67,20.67,0,0,1,2.533,4.458c.4.9,2.374,5.2,1.794,6.015C553.756,364.619,586.048,317.976,586.048,317.976Z" transform="translate(0 0)"/><path class="d" d="M550.2,635.931H400.43s-26.118,1.372-6.859-37.093c0,0,111.833-217.071,125.367-226.806L487.65,321.51S370.434,514.6,338.538,596.965c0,0-26.277,80.729,65.665,93.049H574.974C574.974,689.988,563.524,661.125,550.2,635.931Z" transform="translate(66.134 43.135)"/><path class="d" d="M494.948,636.316H528.69c4.116,0,9.155-5.593,10.711-8.838,4.406-9.313-.792-18.81-5.62-26.672-14.668-23.981-28.914-47.831-42.527-72.471q-32.134-58.054-64.24-116.108l-16.067-29.047c-.5-.923-6.754-10.289-6.174-11.159.027-.053,32.872-50.522,32.872-50.522s49.994,73.791,66.641,107.981l76.719,148.847s28.651,49.915-6.463,87.826c0,0-16.7,23.85-55.059,23.85Z" transform="translate(180.272 43.119)"/><path class="d" d="M424.163,415.066l39.362-60.494s27.121-24.588,57.645,19.5c0,0,76.323,109.38,114.472,211.135,0,0,52.579,97.508,16.964,154.309,0,0-16.964,40.707-66.984,33.057,0,0-25.432-3.588-45.8-39.52h-59.6s38.439,101.861,125.763,93.577c61.048-5.777,103.708-63.29,111.121-120.988,9.208-71.575-33.611-140.642-61.1-203.564,0,0-64.452-147.529-133.968-196.7-3.429-2.427-8.073-3.852-11.978-5.2a90.488,90.488,0,0,0-30.788-4.934,86.45,86.45,0,0,0-37.384,9.155c-12.03,6.094-19.206,14.88-26.435,25.881q-11.278,17.135-22.557,34.244Z" transform="translate(160.883 0.075)"/><path class="d" d="M371.81,539.912l61.655-142.648s23.585-38.57,54.663,0c0,0,79.173,185.677,86.269,196.7H514.774l-56.062-122.7-28.255,68.62H371.81Z" transform="translate(126.333 139.154)"/></g></g></svg>