<svg xmlns="http://www.w3.org/2000/svg" width="40.2" height="40.2" viewBox="0 0 40.2 40.2"><defs><style>.a{fill:#fff;stroke:#fff;stroke-width:0.2px;}</style></defs><g transform="translate(-1.9 -1.9)"><path class="a" d="M39,13.7H23.7V5a3.009,3.009,0,0,0-3-3H5A3.009,3.009,0,0,0,2,5V39a2.946,2.946,0,0,0,3,3H39a2.946,2.946,0,0,0,3-3V16.7A2.946,2.946,0,0,0,39,13.7ZM8.3,40V34.3a1,1,0,0,1,1-1h2.5V40Zm9,0H13.8V33.3h2.5a1,1,0,0,1,1,1Zm4.4,0H19.4V34.3a2.946,2.946,0,0,0-3-3h-7a2.946,2.946,0,0,0-3,3V40H5a1,1,0,0,1-1-1V5A1,1,0,0,1,5,4H20.7a1,1,0,0,1,1,1ZM40,39a1,1,0,0,1-1,1H23.7V15.7H39a1.075,1.075,0,0,1,1,1Z"/><path class="a" d="M18.3,8.8H7.3a.945.945,0,0,1-1-1,.945.945,0,0,1,1-1h11a.945.945,0,0,1,1,1A.945.945,0,0,1,18.3,8.8Z"/><path class="a" d="M18.3,13.8H7.3a1,1,0,0,1,0-2h11a1,1,0,0,1,0,2Z"/><path class="a" d="M18.3,18.8H7.3a1,1,0,0,1,0-2h11a1,1,0,0,1,0,2Z"/><path class="a" d="M18.3,23.8H7.3a1,1,0,0,1,0-2h11a1,1,0,0,1,0,2Z"/><path class="a" d="M37.3,20.8h-11a1,1,0,0,1,0-2h11a1,1,0,0,1,0,2Z"/><path class="a" d="M37.3,25.8h-11a1,1,0,0,1,0-2h11a1,1,0,0,1,0,2Z"/><path class="a" d="M37.3,30.8h-11a1,1,0,0,1,0-2h11a1,1,0,0,1,0,2Z"/></g></svg>