<svg xmlns="http://www.w3.org/2000/svg" xmlns:xlink="http://www.w3.org/1999/xlink"  viewBox="0 0 818.624 484.812"><defs><style>.a{fill:none;}.b{fill:rgba(186,186,230,0.6);opacity:0.6;}.c,.f,.j{fill:#fff;}.c{stroke:#e9e9f4;}.d,.h{fill:#eaeefa;}.d{stroke:#e1e1ef;}.e{fill:url(#a);}.g{fill:#132b50;font-size:20px;font-family:EuclidCircularB-Medium, Euclid Circular B;font-weight:500;}.i{fill:#fba481;}.j{font-size:12px;font-family:EuclidCircularB-SemiBold, Euclid Circular B;font-weight:600;}.k{fill:#5756b3;}.l{fill:#e7bdd3;}.m{fill:#474bff;}.n{opacity:0.34;clip-path:url(#b);}.o{stroke:none;}</style><linearGradient id="a" x2="0.955" y2="1" gradientUnits="objectBoundingBox"><stop offset="0" stop-color="#1238dc"/><stop offset="1" stop-color="#101b92"/></linearGradient><clipPath id="b"><rect class="a" width="70" height="138"/></clipPath></defs><g transform="translate(-274.188 -481)"><rect class="b" width="669" height="118" transform="translate(349 773)"/><g transform="translate(7285 -357)"><g class="c" transform="translate(-6936 838)"><rect class="o" width="669" height="410" rx="20"/><rect class="a" x="0.5" y="0.5" width="668" height="409" rx="19.5"/></g><g class="d" transform="translate(-6911 863)"><rect class="o" width="619" height="360" rx="2"/><rect class="a" x="0.5" y="0.5" width="618" height="359" rx="1.5"/></g><g transform="translate(-7285 365)"><path class="e" d="M1,0h99a0,0,0,0,1,0,0V358a0,0,0,0,1,0,0H1a1,1,0,0,1-1-1V1A1,1,0,0,1,1,0Z" transform="translate(375 499)"/><path class="f" d="M0,0H515a2,2,0,0,1,2,2V36a0,0,0,0,1,0,0H0a0,0,0,0,1,0,0V0A0,0,0,0,1,0,0Z" transform="translate(475 499)"/><rect class="f" width="240" height="160" rx="8" transform="translate(487 630)"/><path class="f" d="M8,0H484a8,8,0,0,1,8,8V55a0,0,0,0,1,0,0H0a0,0,0,0,1,0,0V8A8,8,0,0,1,8,0Z" transform="translate(487 802)"/><rect class="f" width="240" height="160" rx="8" transform="translate(739 630)"/><rect class="f" width="114" height="71" rx="8" transform="translate(487 547)"/><text class="g" transform="translate(545 581)"><tspan x="-15.35" y="0">150</tspan></text><rect class="h" width="44" height="4" rx="2" transform="translate(523 592)"/><rect class="h" width="30" height="4" rx="2" transform="translate(530 600)"/><g transform="translate(252)"><rect class="f" width="114" height="71" rx="8" transform="translate(487 547)"/></g><g transform="translate(126)"><rect class="f" width="114" height="71" rx="8" transform="translate(487 547)"/><g transform="translate(-1)"><text class="g" transform="translate(545 581)"><tspan x="-18.08" y="0">240</tspan></text><rect class="h" width="44" height="4" rx="2" transform="translate(523 592)"/><rect class="h" width="30" height="4" rx="2" transform="translate(530 600)"/></g></g><g transform="translate(378)"><rect class="f" width="114" height="71" rx="8" transform="translate(487 547)"/></g><rect class="h" width="181" height="20" rx="10" transform="translate(487 507)"/><rect class="i" width="20" height="20" rx="10" transform="translate(959 507)"/><g transform="translate(951.028 499.085)"><g transform="translate(14 13.949)"><circle class="f" cx="2" cy="2" r="2" transform="translate(1.972 -0.034)"/><path class="f" d="M18.766,74H17.177A3.177,3.177,0,0,0,14,77.177h7.944A3.177,3.177,0,0,0,18.766,74Z" transform="translate(-14 -69.296)"/></g></g><text class="j" transform="translate(455 523)"><tspan x="-38.58" y="0">Airbon</tspan></text><g transform="translate(100.307 215.821)"><path class="f" d="M302.762,295.811s-1.119-1.4-3.044-.024a5.92,5.92,0,0,0-1.241,1.392,31.306,31.306,0,0,0-2.849,5.4,8.047,8.047,0,0,0-.926,3.739,3.767,3.767,0,0,0,1.712,3.069,3.652,3.652,0,0,0,1.171.453,2.66,2.66,0,0,0,2.518-.867,5.037,5.037,0,0,0,1.155-1.669h-1.7c-.009,0-.1.216-.109.232a1.882,1.882,0,0,1-.376.476,1.7,1.7,0,0,1-1.787.227,2.219,2.219,0,0,1-1.162-2.158,4.518,4.518,0,0,1,.385-1.664,35.8,35.8,0,0,1,3.081-6.226,5.256,5.256,0,0,1,.423-.649c.33-.441.819-1.011,1.44-.907a.451.451,0,0,1,.3.175.573.573,0,0,1,.07.123c.011.025.066.144.05.167C301.868,297.1,302.762,295.811,302.762,295.811Z"/><path class="f" d="M341.021,330.218h-4.148s-.723.038-.19-1.027c0,0,3.1-6.012,3.472-6.281l-.867-1.4a77.645,77.645,0,0,0-4.13,7.629,1.925,1.925,0,0,0,1.819,2.577h4.73S341.39,330.916,341.021,330.218Z" transform="translate(-37.42 -24.407)"/><path class="f" d="M407.234,330.219h.935c.114,0,.254-.155.3-.245a.783.783,0,0,0-.156-.739c-.406-.664-.8-1.325-1.178-2.007l-1.779-3.216-.445-.8a1.634,1.634,0,0,1-.171-.309l.91-1.4s1.385,2.044,1.846,2.991l2.125,4.122a2.166,2.166,0,0,1-.179,2.432,1.873,1.873,0,0,1-1.525.661Z" transform="translate(-102.002 -24.398)"/><path class="f" d="M393.766,298.544l1.09-1.675s.751-.681,1.6.54a31.663,31.663,0,0,1,3.17,5.847s1.456,2.7.47,4.274a1.675,1.675,0,0,1-1.855.915,1.979,1.979,0,0,1-1.268-1.095h-1.651s1.065,2.821,3.483,2.592a3.726,3.726,0,0,0,3.078-3.351c.255-1.982-.931-3.9-1.692-5.638,0,0-1.785-4.086-3.71-5.448a1.34,1.34,0,0,0-.332-.144,2.506,2.506,0,0,0-.853-.137,2.4,2.4,0,0,0-1.035.254,1.876,1.876,0,0,0-.732.717l-.625.948Z" transform="translate(-91.031 -0.042)"/><path class="f" d="M371.81,384.548l1.708-3.951a.849.849,0,0,1,1.514,0s2.193,5.142,2.389,5.448h-1.651l-1.553-3.4-.783,1.9H371.81Z" transform="translate(-71.482 -78.737)"/></g><g transform="translate(0 2.11)"><g transform="translate(-154.105 112.031)"><path class="k" d="M760.715,556.618a38.587,38.587,0,0,1,13.2,2.294,3.94,3.94,0,0,0,4.929-1.992l5.53-11.728a3.905,3.905,0,0,0-2.087-5.308,59.47,59.47,0,0,0-21.576-4.025h0A59.555,59.555,0,1,0,816.6,574.67a4.241,4.241,0,0,0-5.756-2.384l-11.2,5.188a4.211,4.211,0,0,0-2.229,5.191,38.862,38.862,0,1,1-36.7-26.048"/></g><g transform="translate(-207.322 78.734)"><path class="l" d="M813.159,688.37a59.573,59.573,0,0,0,56.659-80.3,4.236,4.236,0,0,0-5.749-2.381l-11.182,5.181a4.206,4.206,0,0,0-2.226,5.185A38.847,38.847,0,0,1,811.9,667.587Z" transform="translate(0)"/></g></g><path class="k" d="M660.579,445.58a29.505,29.505,0,1,1-29.505,29.505,29.538,29.538,0,0,1,29.505-29.505m0-10.43a39.936,39.936,0,1,0,39.935,39.936,39.936,39.936,0,0,0-39.935-39.936Z" transform="translate(198.56 232.101)"/><g transform="translate(801.767 650.129)"><path class="l" d="M153.91,687.234V674.248h0a57.371,57.371,0,1,0,57.372,57.371H198.3a44.385,44.385,0,1,1-44.385-44.385m0,0" transform="translate(-96.539 -674.248)"/></g><g transform="translate(212 -3570)"><circle class="m" cx="16" cy="16" r="16" transform="translate(289 4386)"/><rect class="h" width="122" height="6" rx="3" transform="translate(331 4393)"/><rect class="h" width="76" height="6" rx="3" transform="translate(331 4405)"/><g transform="translate(285 4382.051)"><g transform="translate(14 13.668)"><circle class="f" cx="3" cy="3" r="3" transform="translate(3.022 0.282)"/><path class="f" d="M21.226,74H18.817A4.817,4.817,0,0,0,14,78.817H26.044A4.817,4.817,0,0,0,21.226,74Z" transform="translate(-14 -66.586)"/></g></g></g><g transform="translate(450 -3570)"><circle class="m" cx="16" cy="16" r="16" transform="translate(289 4386)"/><rect class="h" width="122" height="6" rx="3" transform="translate(331 4393)"/><rect class="h" width="76" height="6" rx="3" transform="translate(331 4405)"/><g transform="translate(285 4382.051)"><g transform="translate(14 13.668)"><circle class="f" cx="3" cy="3" r="3" transform="translate(3.022 0.282)"/><path class="f" d="M21.226,74H18.817A4.817,4.817,0,0,0,14,78.817H26.044A4.817,4.817,0,0,0,21.226,74Z" transform="translate(-14 -66.586)"/></g></g></g><g class="n" transform="translate(390 556)"><g transform="translate(-390 -556)"><rect class="h" width="70" height="8" rx="4" transform="translate(390 556)"/></g><g transform="translate(-390 -524)"><rect class="h" width="70" height="8" rx="4" transform="translate(390 556)"/></g><g transform="translate(-390 -492)"><rect class="h" width="70" height="8" rx="4" transform="translate(390 556)"/></g><g transform="translate(-390 -460)"><rect class="h" width="70" height="8" rx="4" transform="translate(390 556)"/></g><g transform="translate(-390 -428)"><rect class="h" width="70" height="8" rx="4" transform="translate(390 556)"/></g></g><g transform="translate(251)"><text class="g" transform="translate(545 581)"><tspan x="-17.39" y="0">649</tspan></text><rect class="h" width="44" height="4" rx="2" transform="translate(523 592)"/><rect class="h" width="30" height="4" rx="2" transform="translate(530 600)"/></g><g transform="translate(377)"><text class="g" transform="translate(545 581)"><tspan x="-15.97" y="0">276</tspan></text><rect class="h" width="44" height="4" rx="2" transform="translate(523 592)"/><rect class="h" width="30" height="4" rx="2" transform="translate(530 600)"/></g></g></g></g></svg>